<?xml version="1.0" encoding="UTF-8" standalone="no"?>
<svg
   xmlns:dc="http://purl.org/dc/elements/1.1/"
   xmlns:cc="http://creativecommons.org/ns#"
   xmlns:rdf="http://www.w3.org/1999/02/22-rdf-syntax-ns#"
   xmlns:svg="http://www.w3.org/2000/svg"
   xmlns="http://www.w3.org/2000/svg"
   xmlns:xlink="http://www.w3.org/1999/xlink"
   xmlns:sodipodi="http://sodipodi.sourceforge.net/DTD/sodipodi-0.dtd"
   xmlns:inkscape="http://www.inkscape.org/namespaces/inkscape"
   width="190mm"
   height="100mm"
   viewBox="0 0 190 100"
   version="1.1"
   id="svg1125"
   inkscape:version="1.0.1 (c497b03c, 2020-09-10)"
   sodipodi:docname="drawing.svg">
  <defs
     id="defs1119">
    <color-profile
       name="Generic-CMYK-Profile"
       xlink:href="file:///System/Library/ColorSync/Profiles/Generic%20CMYK%20Profile.icc"
       id="color-profile834" />
    <inkscape:path-effect
       effect="offset"
       id="path-effect2555"
       is_visible="true"
       lpeversion="1"
       linejoin_type="miter"
       unit="mm"
       offset="0.2"
       miter_limit="4"
       attempt_force_join="true"
       update_on_knot_move="true" />
  </defs>
  <sodipodi:namedview
     id="base"
     pagecolor="#ffffff"
     bordercolor="#666666"
     borderopacity="1.0"
     inkscape:pageopacity="0.0"
     inkscape:pageshadow="2"
     inkscape:zoom="0.9118655"
     inkscape:cx="182.1299"
     inkscape:cy="241.98699"
     inkscape:document-units="mm"
     inkscape:current-layer="layer2"
     inkscape:document-rotation="0"
     showgrid="false"
     width="200mm"
     inkscape:pagecheckerboard="true"
     inkscape:window-width="1440"
     inkscape:window-height="900"
     inkscape:window-x="0"
     inkscape:window-y="0"
     inkscape:window-maximized="0" />
  <metadata
     id="metadata1122">
    <rdf:RDF>
      <cc:Work
         rdf:about="">
        <dc:format>image/svg+xml</dc:format>
        <dc:type
           rdf:resource="http://purl.org/dc/dcmitype/StillImage" />
        <dc:title />
      </cc:Work>
    </rdf:RDF>
  </metadata>
  <g
     inkscape:label="Layer 1"
     inkscape:groupmode="layer"
     id="layer1"
     style="display:inline;opacity:1">
    <path
       id="path833"
       d="m 14.428579,20.698151 -0.131258,0.0956 -0.204122,0.931209 h -0.408761 l 0.171049,-0.900721 -0.110587,-0.118338 -0.160714,0.02376 -0.06821,0.10542 -0.189652,0.889868 -0.377238,0.01963 -0.0925,0.133324 0.05633,0.151929 0.0739,0.03979 0.2651,0.0052 -0.144694,0.678511 -0.377237,0.02016 -0.0925,0.133326 0.05633,0.151927 0.07338,0.03927 0.265616,0.0057 -0.171565,0.900202 0.111104,0.118341 0.0832,0.0078 0.131258,-0.09508 0.204122,-0.931208 h 0.408761 l -0.17415,0.817004 0.04341,0.156062 0.153479,0.05323 0.077,-0.031 0.06821,-0.105421 0.189653,-0.889867 0.377754,-0.02016 0.0925,-0.133326 -0.05684,-0.151929 -0.07338,-0.03927 -0.265616,-0.0057 0.144694,-0.678511 0.377754,-0.01963 0.0925,-0.133326 -0.0098,-0.08268 -0.120407,-0.108521 -0.265616,-0.0057 0.174149,-0.817004 -0.04341,-0.15658 z m -0.819071,1.376661 h 0.409277 l -0.144694,0.678511 H 13.46533 Z"
       style="fill:#002feb;fill-opacity:1;stroke:none;stroke-width:0.264583" />
    <path
       d="m 17.539537,55.41033 v 0"
       stroke="#000000"
       stroke-width="0.264583"
       fill="none"
       id="path837"
       style="fill:#002feb;fill-opacity:1;stroke:none" />
    <path
       d="m 17.540516,55.419326 v 0"
       stroke="#000000"
       stroke-width="0.264583"
       fill="none"
       id="path839"
       style="fill:#002feb;fill-opacity:1;stroke:none" />
    <path
       d="m 21.588826,14.668121 v 0"
       stroke="#000000"
       stroke-width="0.264583"
       fill="none"
       id="path841"
       style="fill:#002feb;fill-opacity:1;stroke:none" />
    <path
       d="m 21.591419,14.659231 v 0"
       stroke="#000000"
       stroke-width="0.264583"
       fill="none"
       id="path843"
       style="fill:#002feb;fill-opacity:1;stroke:none" />
    <path
       d="m 29.921508,17.938821 0.0019,0.840317 -0.155311,0.189785 -0.452437,0.160814 -0.262467,-0.0055 -0.379941,-0.132001 -0.280723,-0.287814 -0.122767,-0.254899 -0.114565,-0.480483 0.005,-0.371105 0.109537,-0.437991 0.147108,-0.291412 0.262202,-0.2549 0.405342,-0.133509 0.38444,0.0051 0.253735,0.122502 0.08467,0.0925 -0.01746,0.161317 -0.142346,0.07768 -0.263525,-0.109484 h -0.258762 l -0.262467,0.0875 -0.169598,0.169704 -0.08837,0.176477 -0.09975,0.398516 v 0.285485 l 0.09975,0.398621 0.08837,0.176398 0.169598,0.169783 0.262467,0.0875 h 0.16219 l 0.29157,-0.116576 v -0.519112 h -0.26326 l -0.116946,-0.04501 -0.05662,-0.152003 0.0926,-0.133085 0.541073,-0.0186 0.09525,0.0436 z"
       stroke="#000000"
       stroke-width="0.264583"
       fill="none"
       id="path845"
       style="fill:#002feb;fill-opacity:1;stroke:none" />
    <path
       id="path847"
       d="m 40.939621,16.479804 -0.129707,0.05788 -0.04548,0.116788 v 2.300118 l 0.05788,0.130225 0.117306,0.04496 0.913122,-0.0041 0.271301,-0.129708 0.152448,-0.145727 0.146759,-0.289905 0.0021,-0.409278 -0.12971,-0.271301 -0.185002,-0.176733 0.08113,-0.09405 0.127643,-0.29714 -0.0186,-0.297139 -0.115237,-0.229961 -0.181901,-0.176733 -0.29714,-0.128157 z m 0.174667,0.349849 h 0.550871 l 0.15658,0.07855 0.147794,0.225827 v 0.136425 l -0.147794,0.226343 -0.15658,0.07803 h -0.550871 z m 0,1.095024 h 0.563272 l 0.262517,0.08785 0.139009,0.217041 v 0.24598 l -0.07855,0.156579 -0.226343,0.147795 h -0.659908 z"
       style="fill:#002feb;fill-opacity:1;stroke:none;stroke-width:0.264583" />
    <path
       d="m 43.540932,62.337122 v 0"
       stroke="#000000"
       stroke-width="0.264583"
       fill="none"
       id="path853"
       style="fill:#002feb;fill-opacity:1;stroke:none" />
    <path
       d="m 43.546222,62.330242 v 0"
       stroke="#000000"
       stroke-width="0.264583"
       fill="none"
       id="path855"
       style="fill:#002feb;fill-opacity:1;stroke:none" />
    <path
       id="path857"
       d="m 54.117628,16.496857 -0.161745,0.0057 -0.0801,0.09663 -0.766361,2.300118 0.02585,0.160197 0.146246,0.07028 0.141076,-0.0801 0.197921,-0.577226 h 0.842841 l 0.179319,0.537435 0.116787,0.112655 0.158647,-0.03152 0.05116,-0.06615 0.0052,-0.125574 -0.76636,-2.300118 z m -0.07545,0.711068 0.304374,0.914673 h -0.609267 z"
       style="fill:#002feb;fill-opacity:1;stroke:none;stroke-width:0.264583" />
    <path
       d="m 58.538042,63.41133 v 0"
       stroke="#000000"
       stroke-width="0.264583"
       fill="none"
       id="path861"
       style="fill:#002feb;fill-opacity:1;stroke:none" />
    <path
       d="m 58.542282,63.419267 v 0"
       stroke="#000000"
       stroke-width="0.264583"
       fill="none"
       id="path863"
       style="fill:#002feb;fill-opacity:1;stroke:none" />
    <path
       d="m 64.291942,63.159182 v 0"
       stroke="#000000"
       stroke-width="0.264583"
       fill="none"
       id="path865"
       style="fill:#002feb;fill-opacity:1;stroke:none" />
    <path
       d="m 67.034612,17.688922 -0.0204,0.16092 -0.0627,0.05519 -0.67284,0.0199 -0.005,1.073309 -0.10848,0.120491 -0.16113,-0.02029 -0.0749,-0.143695 v -2.300023 l 0.045,-0.117078 0.12991,-0.05792 h 1.09511 l 0.11721,0.0449 0.0566,0.152003 -0.0926,0.133218 -1.00144,0.0199 v 0.745199 l 0.63526,0.0055 z"
       stroke="#000000"
       stroke-width="0.264583"
       fill="none"
       id="path867"
       style="fill:#002feb;fill-opacity:1;stroke:none" />
    <path
       id="path869"
       d="m 78.439657,16.479804 -0.130223,0.05788 -0.04496,0.116788 v 2.300118 l 0.05787,0.130225 0.09509,0.04341 0.582393,0.001 0.405143,-0.133325 0.286287,-0.291455 0.122992,-0.254765 0.114721,-0.480591 -0.0052,-0.371037 -0.109553,-0.438216 -0.128675,-0.265617 -0.24598,-0.253731 -0.452168,-0.160714 z m 0.174667,0.349849 h 0.344683 l 0.262515,0.08733 0.1695,0.170016 0.08836,0.176217 0.09922,0.398942 v 0.285254 l -0.09922,0.398425 -0.08836,0.176733 -0.1695,0.169499 -0.262515,0.08785 h -0.344683 z"
       style="fill:#002feb;fill-opacity:1;stroke:none;stroke-width:0.264583" />
    <path
       d="m 92.317935,16.676626 -0.0566,-0.152003 -0.11695,-0.0449 h -1.095373 l -0.14367,0.07512 -0.0312,0.09988 v 2.300023 l 0.0751,0.143695 0.0998,0.0313 h 1.095373 l 0.14367,-0.07512 0.0204,-0.160893 -0.12065,-0.108506 -0.963613,-0.0055 v -0.85479 h 0.591613 l 0.14367,-0.07509 0.0299,-0.078 -0.0566,-0.151924 -0.0735,-0.03948 -0.635003,-0.0055 v -0.745197 h 0.920223 l 0.14367,-0.07512 z"
       stroke="#000000"
       stroke-width="0.264583"
       fill="none"
       id="path873"
       style="fill:#002feb;fill-opacity:1;stroke:none" />
    <path
       d="m 98.137975,80.217134 v 0"
       stroke="#000000"
       stroke-width="0.264583"
       fill="none"
       id="path875"
       style="fill:#002feb;fill-opacity:1;stroke:none" />
    <path
       d="m 98.145905,80.211313 v 0"
       stroke="#000000"
       stroke-width="0.264583"
       fill="none"
       id="path877"
       style="fill:#002feb;fill-opacity:1;stroke:none" />
    <path
       d="m 104.92586,18.704631 -0.0479,0.154808 -0.14499,0.136393 -0.41699,0.133905 -0.26299,-0.0055 -0.33999,-0.113004 -0.31406,-0.295989 -0.12911,-0.265721 -0.10981,-0.438097 v -0.413491 l 0.10981,-0.437991 0.12303,-0.2549 0.28601,-0.291412 0.40508,-0.133509 0.2749,0.0051 0.37994,0.132 0.16616,0.167402 0.0241,0.08001 -0.0161,0.082 -0.12805,0.0994 -0.0828,-0.0053 -0.15213,-0.123481 -0.263,-0.0875 h -0.16193 l -0.26193,0.0875 -0.17013,0.169704 -0.0878,0.176477 -0.10001,0.398516 v 0.285485 l 0.10001,0.398621 0.0878,0.176398 0.17013,0.169783 0.26193,0.0875 h 0.16193 l 0.263,-0.0875 0.19499,-0.131286 0.082,0.01558 z"
       stroke="#000000"
       stroke-width="0.264583"
       fill="none"
       id="path879"
       style="fill:#002feb;fill-opacity:1;stroke:none" />
    <path
       d="m 112.47283,29.254733 -0.045,0.117104 -0.15187,0.05649 -0.078,-0.0299 -0.0749,-0.143695 v -1.511194 l -0.43312,0.927999 -0.09,0.0871 -0.0831,0.01339 -0.13705,-0.08649 -0.44,-0.941996 -0.006,1.554691 -0.10822,0.120492 -0.16086,-0.02029 -0.055,-0.0626 -0.0198,-2.381092 0.0497,-0.122899 0.14711,-0.05069 0.13308,0.0925 0.61093,1.310084 0.63209,-1.340088 0.14896,-0.06339 0.13705,0.08649 z"
       stroke="#000000"
       stroke-width="0.264583"
       fill="none"
       id="path881"
       style="fill:#002feb;fill-opacity:1;stroke:none" />
    <path
       id="path883"
       style="fill:#002feb;fill-opacity:1;stroke:none;stroke-width:0.264583"
       d="m 113.61167,27.546311 -0.29662,0.128159 -0.0951,0.131257 0.008,0.0832 0.11885,0.110588 0.0827,0.0026 0.22427,-0.105936 h 0.35502 l 0.12971,0.06511 0.0651,0.129709 v 0.06976 l -0.0853,0.04289 -0.54363,0.0036 -0.32401,0.178284 -0.13695,0.278019 -0.005,0.262517 0.16899,0.351399 0.33383,0.152445 h 0.54828 l 0.11369,-0.03669 0.0832,0.03514 0.15193,-0.05633 0.0455,-0.117306 V 28.05015 l -0.17053,-0.351401 -0.2899,-0.146759 z m 0.59221,1.000456 v 0.49041 l -0.0853,0.04237 H 113.654 l -0.13022,-0.0646 -0.0651,-0.130223 v -0.136427 l 0.0651,-0.129706 0.13022,-0.06511 z" />
    <path
       d="m 114.54082,4.4092316 v 0"
       stroke="#000000"
       stroke-width="0.264583"
       fill="none"
       id="path887"
       style="fill:#002feb;fill-opacity:1;stroke:none" />
    <path
       d="m 114.54584,4.4173316 v 0"
       stroke="#000000"
       stroke-width="0.264583"
       fill="none"
       id="path889"
       style="fill:#002feb;fill-opacity:1;stroke:none" />
    <path
       d="m 115.64889,27.72134 -0.0749,-0.143695 -0.0781,-0.02992 -0.15213,0.05651 -0.0389,0.07361 -0.006,1.973685 -0.0648,0.129911 -0.27913,0.0849 -0.063,0.05519 -0.0201,0.160787 0.12118,0.108506 0.18891,0.0016 0.26115,-0.124116 0.0778,-0.07818 0.12303,-0.253815 z"
       stroke="#000000"
       stroke-width="0.264583"
       fill="none"
       id="path891"
       style="fill:#002feb;fill-opacity:1;stroke:none" />
    <path
       d="m 116.97181,39.451192 10e-4,2.302934 -0.045,0.118004 -0.15187,0.05609 -0.0781,-0.0299 -0.0751,-0.144198 v -1.510771 l -0.43286,0.927894 -0.09,0.08705 -0.0831,0.01402 -0.13706,-0.08705 -0.44,-0.941917 -0.006,1.554956 -0.10821,0.119856 -0.16087,-0.01984 -0.0751,-0.144198 v -2.300023 l 0.045,-0.116417 0.15213,-0.05662 0.13309,0.0926 0.61092,1.310482 0.63209,-1.340644 0.1569,-0.06244 0.12911,0.08573 z"
       stroke="#000000"
       stroke-width="0.264583"
       fill="none"
       id="path893"
       style="fill:#002feb;fill-opacity:1;stroke:none" />
    <path
       d="m 115.7579,27.05504 -0.036,-0.09811 -0.12409,-0.125994 -0.13282,-0.05101 -0.0982,0.03651 -0.12595,0.124089 -0.0511,0.1329 0.036,0.09811 0.12409,0.125994 0.13309,0.05101 0.0979,-0.03651 0.12595,-0.12409 z"
       stroke="#000000"
       stroke-width="0.264583"
       fill="none"
       id="path895"
       style="fill:#002feb;fill-opacity:1;stroke:none" />
    <path
       id="path897"
       style="fill:#002feb;fill-opacity:1;stroke:none;stroke-width:0.264583"
       d="m 116.86109,27.550447 -0.27131,0.129706 -0.15296,0.145727 -0.14676,0.289907 -0.005,0.70073 0.13384,0.307994 0.14521,0.152961 0.28991,0.146762 0.45113,-0.01291 0.22996,-0.115755 0.14418,-0.135909 0.16072,-0.343133 -0.004,-0.694012 -0.12971,-0.271301 -0.14624,-0.152448 -0.28991,-0.146759 z m 0.078,0.345715 h 0.24546 l 0.22634,0.147793 0.0791,0.156581 v 0.57464 l -0.1478,0.226343 -0.15761,0.07803 h -0.24546 l -0.22583,-0.147277 -0.0786,-0.157097 v -0.57464 l 0.14831,-0.225827 z" />
    <path
       d="m 118.17699,39.555174 -0.036,-0.0979 -0.12409,-0.126471 -0.13308,-0.0508 -0.0979,0.03651 -0.12594,0.123825 -0.0511,0.132821 0.036,0.09816 0.12409,0.125941 0.13282,0.05107 0.0982,-0.03598 0.12594,-0.12409 z"
       stroke="#000000"
       stroke-width="0.264583"
       fill="none"
       id="path901"
       style="fill:#002feb;fill-opacity:1;stroke:none" />
    <path
       d="m 118.06798,40.22113 -0.0751,-0.143933 -0.0778,-0.02884 -0.15214,0.05583 -0.045,0.116946 v 1.532996 l 0.0201,0.08202 0.13282,0.09207 0.15214,-0.05609 0.04,-0.07382 z"
       stroke="#000000"
       stroke-width="0.264583"
       fill="none"
       id="path903"
       style="fill:#002feb;fill-opacity:1;stroke:none" />
    <path
       d="m 119.4708,27.660327 0.01,0.083 -0.0918,0.133112 -0.25903,0.0199 -0.22621,0.147797 -0.0788,0.156607 -0.005,1.097491 -0.10901,0.120492 -0.16086,-0.02029 -0.0751,-0.143695 0.006,-1.57689 0.0389,-0.07361 0.15213,-0.05651 0.0778,0.02992 0.0611,0.0866 0.27702,-0.117898 0.26299,0.0055 z"
       stroke="#000000"
       stroke-width="0.264583"
       fill="none"
       id="path905"
       style="fill:#002feb;fill-opacity:1;stroke:none" />
    <path
       d="m 120.14892,41.754126 v -1.203854 l -0.12805,-0.297921 -0.0781,-0.07805 -0.29686,-0.128059 -0.36592,0.004 -0.15398,0.07091 -0.11616,-0.07276 -0.15187,0.05583 -0.045,0.116946 0.0198,1.615017 0.13308,0.09207 0.15187,-0.05609 0.04,-0.07382 0.005,-1.285081 0.195,-0.116946 h 0.24606 l 0.13018,0.06482 0.0648,0.130175 0.0201,1.244865 0.13282,0.09207 0.0831,-0.01005 0.0691,-0.04604 z"
       stroke="#000000"
       stroke-width="0.264583"
       fill="none"
       id="path907"
       style="fill:#002feb;fill-opacity:1;stroke:none" />
    <path
       d="m 120.43203,54.186103 0.88186,-2.056871 -1.31207,-0.005 -0.11986,-0.109008 0.0198,-0.160073 0.1442,-0.07594 1.62084,0.02514 0.0762,0.0889 -0.003,0.12991 -0.98583,2.300023 -0.0871,0.08996 -0.16193,-0.0079 -0.0601,-0.05794 z"
       stroke="#000000"
       stroke-width="0.264583"
       fill="none"
       id="path909"
       style="fill:#002feb;fill-opacity:1;stroke:none" />
    <path
       id="path911"
       style="fill:#002feb;fill-opacity:1;stroke:none;stroke-width:0.264583"
       d="m 121.36107,40.049942 -0.27079,0.130223 -0.15348,0.144695 -0.14676,0.291455 -0.001,0.736907 0.12971,0.271817 0.1452,0.151929 0.28991,0.147277 0.40928,0.0021 0.27182,-0.130225 0.17725,-0.181901 0.12195,-0.254246 5.3e-4,-0.71882 -0.15606,-0.325046 -0.15451,-0.141592 -0.25425,-0.122473 z m 0.078,0.346232 h 0.24598 l 0.1571,0.07803 0.14779,0.227378 v 0.573606 l -0.0791,0.157097 -0.22635,0.146761 h -0.24546 l -0.15606,-0.07803 -0.1478,-0.225827 v -0.573606 l 0.0775,-0.157615 z" />
    <path
       d="m 123.16703,54.193247 0.009,0.08308 -0.0921,0.133879 -0.34396,0.01402 -0.28998,-0.147109 -0.16616,-0.313795 -0.004,-1.067065 -0.19685,-0.005 -0.0741,-0.03995 -0.0561,-0.152136 0.0921,-0.13282 0.23495,-0.02011 0.006,-0.635 0.10795,-0.120914 0.0831,-0.009 0.13282,0.09181 0.0201,0.6731 0.41593,0.0061 0.12118,0.10795 0.009,0.08308 -0.0921,0.132821 -0.45403,0.02011 v 0.989013 l 0.0651,0.12991 0.12991,0.06403 0.22093,0.0061 z"
       stroke="#000000"
       stroke-width="0.264583"
       fill="none"
       id="path915"
       style="fill:#002feb;fill-opacity:1;stroke:none" />
    <path
       d="m 122.33039,11.099924 -0.019,-0.0811 -0.13414,-0.0925 -0.15187,0.05649 -0.0392,0.07361 -0.006,1.011396 h -0.96414 l -0.0199,-1.048994 -0.13308,-0.0925 -0.15214,0.05649 -0.045,0.117105 v 2.400009 l 0.0751,0.143695 0.16086,0.02029 0.10901,-0.120491 0.005,-1.125591 h 0.96414 l 0.0198,1.163188 0.13309,0.0925 0.15187,-0.05649 0.0452,-0.117105 z"
       stroke="#000000"
       stroke-width="0.264583"
       fill="none"
       id="path917"
       style="fill:#002feb;fill-opacity:1;stroke:none" />
    <path
       d="m 123.97083,40.160276 -0.0458,-0.06906 -0.11801,-0.04498 -0.25505,0.004 -0.24104,0.114035 -0.0611,-0.08705 -0.0778,-0.02884 -0.15213,0.05583 -0.045,0.116946 v 1.532996 l 0.0749,0.144198 0.16113,0.01984 0.10901,-0.119856 0.005,-1.096962 0.0789,-0.157163 0.22622,-0.147902 0.25876,-0.02011 0.0921,-0.132821 z"
       stroke="#000000"
       stroke-width="0.264583"
       fill="none"
       id="path919"
       style="fill:#002feb;fill-opacity:1;stroke:none" />
    <path
       d="m 124.92995,54.254101 -0.018,-1.282965 -0.15213,-0.271992 -0.2548,-0.133879 -0.40719,-0.01905 -0.15399,0.05609 -0.0198,-0.729192 -0.13309,-0.09181 -0.0831,0.009 -0.0688,0.04683 -0.0452,0.11721 0.0201,2.38178 0.13308,0.09207 0.15187,-0.05609 0.04,-0.07382 0.005,-1.285081 0.195,-0.116946 h 0.24606 l 0.12991,0.06509 0.0651,0.12991 0.0201,1.244865 0.13282,0.09207 0.0831,-0.01005 0.0691,-0.04604 z"
       stroke="#000000"
       stroke-width="0.264583"
       fill="none"
       id="path921"
       style="fill:#002feb;fill-opacity:1;stroke:none" />
    <path
       id="path923"
       style="fill:#002feb;fill-opacity:1;stroke:none;stroke-width:0.264583"
       d="m 123.64941,10.929755 -0.27182,0.135909 -0.25321,0.256315 -0.15813,0.577743 v 0.800468 l 0.13177,0.542602 0.25528,0.272852 0.3359,0.159163 0.47801,-0.0047 0.25993,-0.129191 0.293,-0.301791 0.1292,-0.538985 -0.004,-0.841292 -0.12816,-0.501778 -0.25373,-0.272852 -0.29301,-0.153996 z m 0.0827,0.345199 h 0.35243 l 0.15503,0.08113 0.16692,0.173632 0.0925,0.390674 V 12.679 l -0.0925,0.391191 -0.16692,0.173633 -0.15503,0.08113 h -0.35243 l -0.15606,-0.08113 -0.16588,-0.173633 -0.094,-0.391191 v -0.75861 l 0.094,-0.390674 0.16588,-0.173632 z" />
    <path
       d="m 123.60833,10.944825 v 0"
       stroke="#000000"
       stroke-width="0.264583"
       fill="none"
       id="path927"
       style="fill:#002feb;fill-opacity:1;stroke:none" />
    <path
       d="m 123.68929,13.674928 v 0"
       stroke="#000000"
       stroke-width="0.264583"
       fill="none"
       id="path929"
       style="fill:#002feb;fill-opacity:1;stroke:none" />
    <path
       d="m 124.20814,13.655032 v 0"
       stroke="#000000"
       stroke-width="0.264583"
       fill="none"
       id="path931"
       style="fill:#002feb;fill-opacity:1;stroke:none" />
    <path
       d="m 126.91933,13.43892 -0.046,-0.06898 -0.118,-0.045 h -0.91996 v -2.225016 l -0.0751,-0.143696 -0.16087,-0.02029 -0.0691,0.04688 -0.045,0.117105 0.0201,2.481104 0.13282,0.0925 1.11708,0.0014 0.14393,-0.07509 z"
       stroke="#000000"
       stroke-width="0.264583"
       fill="none"
       id="path933"
       style="fill:#002feb;fill-opacity:1;stroke:none" />
    <path
       id="path935"
       style="fill:#002feb;fill-opacity:1;stroke:none;stroke-width:0.264583"
       d="m 127.52256,10.925104 -0.13023,0.05788 -0.045,0.116789 v 2.40037 l 0.0579,0.129708 0.0951,0.04392 0.58394,5.29e-4 0.4408,-0.167432 0.22634,-0.237195 0.13384,-0.265616 0.12196,-0.49196 0.004,-0.386023 -0.11421,-0.495577 -0.12661,-0.273368 -0.27543,-0.288871 -0.42478,-0.143144 z m 0.17466,0.34985 h 0.34314 l 0.26096,0.09095 0.17105,0.177767 0.0889,0.186552 0.10026,0.419096 v 0.301274 l -0.10026,0.419095 -0.0889,0.186552 -0.17105,0.177767 -0.26096,0.09095 h -0.34314 z" />
    <path
       d="m 133.53896,3.4178306 v 0"
       stroke="#000000"
       stroke-width="0.264583"
       fill="none"
       id="path939"
       style="fill:#002feb;fill-opacity:1;stroke:none" />
    <path
       d="m 133.54187,3.4092316 v 0"
       stroke="#000000"
       stroke-width="0.264583"
       fill="none"
       id="path941"
       style="fill:#002feb;fill-opacity:1;stroke:none" />
    <path
       d="m 133.54584,3.4177306 v 0"
       stroke="#000000"
       stroke-width="0.264583"
       fill="none"
       id="path943"
       style="fill:#002feb;fill-opacity:1;stroke:none" />
    <path
       id="path945"
       d="m 149.76915,75.365097 -0.32556,0.0181 -0.79892,0.455271 -0.0837,0.114721 0.003,0.0832 1.16685,2.032953 0.13694,0.08682 0.0822,-0.01394 0.10284,-0.124023 -0.0191,-0.124024 -0.45992,-0.796851 0.66611,-0.406177 0.14107,-0.214974 0.0568,-0.19017 -0.016,-0.336928 -0.20309,-0.354502 -0.24805,-0.170532 z m -0.0512,0.347784 0.24082,0.122473 0.12299,0.212907 -0.015,0.268716 -0.0971,0.147278 -0.57103,0.330213 -0.42736,-0.741558 0.57154,-0.329695 z"
       style="fill:#002feb;fill-opacity:1;stroke:none;stroke-width:0.264583" />
    <path
       d="m 150.94695,30.162942 0.0609,-0.150204 -0.0278,-0.07879 -0.10107,-0.07371 -0.18601,-0.0459 -0.43603,0.09271 -0.20002,0.115993 -0.263,0.288105 -0.12409,0.425794 0.0222,0.281993 0.12382,0.435239 0.20611,0.357188 0.31406,0.324643 0.23389,0.15928 0.38709,0.108743 0.39502,-0.07541 0.24077,-0.133085 0.28416,-0.318294 0.058,-0.273579 -0.10398,-0.12409 -0.16193,0.01535 -0.10319,0.211137 -0.18282,0.206905 -0.14103,0.08123 -0.27093,0.05556 -0.23204,-0.06218 -0.16404,-0.108744 -0.28601,-0.295275 -0.14314,-0.247385 -0.11298,-0.395023 -0.0119,-0.196797 0.063,-0.231907 0.18309,-0.20701 0.14103,-0.0811 0.27093,-0.05548 0.19288,0.03119 z"
       stroke="#000000"
       stroke-width="0.264583"
       fill="none"
       id="path949"
       style="fill:#002feb;fill-opacity:1;stroke:none" />
    <path
       id="path951"
       style="fill:#002feb;fill-opacity:1;stroke:none;stroke-width:0.264583"
       d="m 151.77317,74.217363 -0.37828,0.03307 -0.75809,0.4377 -0.0837,0.11524 0.0196,0.124023 1.15031,1.991609 0.13695,0.08733 0.14882,-0.06305 0.0341,-0.159162 -0.47697,-0.836642 0.24288,-0.141078 1.21129,0.542602 0.0796,-0.02376 0.0873,-0.136943 -0.0139,-0.08216 -0.0873,-0.09095 -0.90795,-0.42323 0.19533,-0.265618 0.0589,-0.202054 -0.0181,-0.325046 -0.18138,-0.325044 -0.26975,-0.199987 z m -0.0631,0.345715 0.24081,0.121957 0.12196,0.213424 -0.0139,0.268719 -0.0971,0.146759 -0.57102,0.330213 -0.42788,-0.74104 0.57206,-0.329694 z" />
    <path
       d="m 151.76399,50.065217 0.0699,-0.106098 -0.008,-0.127793 -0.11906,-0.09102 -0.127,0.0079 -0.28284,0.144991 -0.23019,0.01191 -0.29898,-0.191822 -0.0669,-0.148167 -0.013,-0.230981 0.19208,-0.297921 0.3138,-0.162984 0.28813,0.0029 0.0831,0.125148 -0.0161,0.07594 -0.0511,0.05794 -0.25083,0.03493 -0.186,0.108215 -0.0712,0.105833 0.0201,0.14896 0.1069,0.07012 0.127,-0.0079 0.21722,-0.125148 0.2958,-0.03281 0.25215,0.141817 0.11404,0.198966 -0.002,0.28919 -0.17701,0.239977 -0.39608,0.210873 -0.21193,0.01217 -0.13388,-0.0672 -0.0251,-0.07303 0.0669,-0.134938 0.25109,-0.03493 z"
       stroke="#000000"
       stroke-width="0.264583"
       fill="none"
       id="path953"
       style="fill:#002feb;fill-opacity:1;stroke:none" />
    <path
       d="m 152.56382,28.777028 0.46117,0.796898 -0.83608,0.482203 -0.517,-0.857197 -0.16192,-0.0136 -0.0669,0.04979 -0.0341,0.158618 1.16707,2.03237 0.13706,0.08678 0.14975,-0.06297 0.0331,-0.158486 -0.53207,-0.932206 0.83608,-0.482203 0.57203,0.952103 0.16193,0.0136 0.0672,-0.04979 0.0339,-0.158618 -1.16708,-2.032291 -0.13679,-0.08689 -0.0831,0.0131 -0.10292,0.124883 z"
       stroke="#000000"
       stroke-width="0.264583"
       fill="none"
       id="path957"
       style="fill:#002feb;fill-opacity:1;stroke:none" />
    <path
       d="m 152.94403,43.558319 0.45984,0.796925 -0.83502,0.482071 -0.51805,-0.856985 -0.16193,-0.01402 -0.0669,0.05001 -0.0331,0.157956 1.16708,2.033059 0.13705,0.08678 0.14896,-0.06297 0.0339,-0.159014 -0.53182,-0.931863 0.83503,-0.482071 0.57282,0.951971 0.0791,0.02619 0.14896,-0.06218 0.0341,-0.159015 -1.16707,-2.032 -0.058,-0.06085 -0.16113,-0.01296 -0.10398,0.124883 z"
       stroke="#000000"
       stroke-width="0.264583"
       fill="none"
       id="path959"
       style="fill:#002feb;fill-opacity:1;stroke:none" />
    <path
       d="m 153.34487,49.034136 -0.0968,0.174096 -0.18601,0.106892 -0.127,0.0082 -0.10715,-0.07012 -0.50589,-0.877094 -0.13017,-0.07488 -0.12991,0.07488 v 0.150019 l 0.52414,0.906992 0.29898,0.193146 0.2958,-0.03307 0.24818,-0.142875 0.11086,-0.139171 0.136,-0.004 0.0751,-0.12991 -0.7411,-1.284023 h -0.15002 l -0.055,0.05503 v 0.150019 z"
       stroke="#000000"
       stroke-width="0.264583"
       fill="none"
       id="path961"
       style="fill:#002feb;fill-opacity:1;stroke:none" />
    <path
       d="m 154.97603,75.066226 0.013,0.08202 -0.087,0.137054 -0.94801,0.547952 -0.10292,0.02302 -0.0791,-0.02699 -1.20809,-2.052108 0.004,-0.180975 1.00885,-0.605896 0.12409,-0.02011 0.0749,0.03704 0.063,0.148961 -0.0871,0.137054 -0.79692,0.46011 0.37306,0.645848 0.55298,-0.313002 0.0831,-0.0029 0.12488,0.103981 0.013,0.08202 -0.0871,0.137054 -0.51197,0.295804 0.42704,0.74004 0.83714,-0.477044 0.0839,-0.0029 z"
       stroke="#000000"
       stroke-width="0.264583"
       fill="none"
       id="path963"
       style="fill:#002feb;fill-opacity:1;stroke:none" />
    <path
       d="m 155.048,59.342303 -0.0331,0.120914 -0.064,0.05398 -0.16192,-0.004 -0.87498,-0.63209 0.80698,1.409171 -0.0341,0.159014 -0.14896,0.06191 -0.0788,-0.02593 -1.25809,-2.139156 -0.0201,-0.123825 0.037,-0.07514 0.077,-0.05398 0.15107,0.01799 1.21312,0.878152 -0.15214,-1.523207 0.096,-0.130968 0.17092,0.009 1.25809,2.139157 0.0198,0.123825 -0.10398,0.125148 -0.082,0.01296 -0.13679,-0.08705 -0.79004,-1.368954 z"
       stroke="#000000"
       stroke-width="0.264583"
       fill="none"
       id="path965"
       style="fill:#002feb;fill-opacity:1;stroke:none" />
    <path
       id="path967"
       style="fill:#002feb;fill-opacity:1;stroke:none;stroke-width:0.264583"
       d="m 154.70063,27.517374 -0.32452,0.0181 -0.4501,0.257866 -0.16899,0.248047 -0.10335,0.389638 0.13126,0.478526 0.39997,0.70228 0.37879,0.389642 0.35244,0.09973 0.28783,-0.01188 0.45682,-0.241845 0.19999,-0.27027 0.10232,-0.389638 -0.14728,-0.517282 -0.38395,-0.664559 -0.37879,-0.389123 z m -0.0506,0.348297 0.2248,0.05995 0.2651,0.274402 0.36225,0.626835 0.1049,0.3669 -0.06,0.224793 -0.0971,0.146245 -0.30799,0.177766 -0.17518,0.01035 -0.22479,-0.05995 -0.2651,-0.274402 -0.36226,-0.626835 -0.10438,-0.366901 0.0605,-0.224792 0.0961,-0.146246 0.30799,-0.177766 z" />
    <path
       d="m 154.80299,48.244355 -0.0201,-0.148167 -0.10583,-0.06985 -0.12806,0.0069 -0.28204,0.144992 -0.21299,0.01297 -0.26909,-0.141817 -0.11482,-0.199231 -0.0132,-0.229923 0.14208,-0.25109 0.29792,-0.190764 0.35401,-0.0172 0.0831,0.126206 -0.0159,0.07594 -0.0511,0.05794 -0.25109,0.03493 -0.186,0.107156 -0.0699,0.106892 0.0198,0.147902 0.1061,0.07117 0.127,-0.0079 0.21696,-0.125148 0.29713,-0.03307 0.25082,0.142081 0.11509,0.198967 -0.003,0.288131 -0.17674,0.241035 -0.39608,0.209815 -0.28813,-0.0029 -0.0828,-0.124883 0.0669,-0.134144 0.25083,-0.03493 0.26908,-0.155045 z"
       stroke="#000000"
       stroke-width="0.264583"
       fill="none"
       id="path969"
       style="fill:#002feb;fill-opacity:1;stroke:none" />
    <path
       d="m 155.04403,31.955017 v -0.150018 l -0.13018,-0.07488 -0.35692,0.183091 -0.31406,-0.502444 -0.0749,-0.02011 -0.13017,0.07514 v 0.150019 l 0.25902,0.44741 -0.17303,0.122767 v 0.150018 l 0.13017,0.07488 0.19288,-0.08784 0.4961,0.827352 0.25109,0.142081 0.29686,-0.03254 0.22013,-0.150283 v -0.150019 l -0.13017,-0.07488 -0.20982,0.09763 -0.127,0.0074 -0.1061,-0.07012 -0.431,-0.746654 z"
       stroke="#000000"
       stroke-width="0.264583"
       fill="none"
       id="path973"
       style="fill:#002feb;fill-opacity:1;stroke:none" />
    <path
       id="path975"
       style="fill:#002feb;fill-opacity:1;stroke:none;stroke-width:0.264583"
       d="m 154.38179,42.534028 -0.11007,0.08113 -0.0227,0.108003 0.48886,2.391068 0.10232,0.12609 0.0827,0.01291 0.13694,-0.08578 0.0212,-0.122989 -0.1142,-0.555522 0.73019,-0.42168 0.49816,0.414962 0.15761,-0.03824 0.0579,-0.151929 -0.0579,-0.111104 -1.81384,-1.607656 z m 0.31781,0.649055 0.7214,0.639238 -0.52813,0.30489 z" />
    <path
       d="m 155.77692,72.210313 -0.0119,-0.161131 -0.13997,-0.08308 -0.43603,0.09313 -0.50403,0.296069 -0.17013,0.247914 -0.059,0.202142 0.0352,0.364861 0.13097,0.220133 0.24791,0.169862 0.20294,0.06006 0.28813,-0.01217 0.45296,-0.125942 0.19685,-0.01085 0.24104,0.120915 0.068,0.119062 0.0111,0.173832 -0.12197,0.241035 -0.41408,0.239183 -0.38708,0.100013 -0.064,0.14896 0.0262,0.07885 0.13997,0.08202 0.39502,-0.07488 0.51488,-0.291042 0.20003,-0.270139 0.059,-0.201877 -0.0349,-0.365919 -0.13097,-0.219075 -0.24897,-0.170127 -0.20214,-0.0598 -0.28787,0.01191 -0.45296,0.124884 -0.19712,0.01217 -0.24103,-0.121973 -0.068,-0.118004 0.014,-0.269081 0.0971,-0.147108 0.41381,-0.238919 0.38709,-0.09895 z"
       stroke="#000000"
       stroke-width="0.264583"
       fill="none"
       id="path977"
       style="fill:#002feb;fill-opacity:1;stroke:none" />
    <path
       d="m 155.72401,46.499163 -0.0201,-0.07488 -0.12991,-0.07514 -0.35798,0.183092 -0.31301,-0.501914 H 154.753 l -0.055,0.05503 v 0.149754 l 0.25903,0.447146 -0.17304,0.123031 v 0.150019 l 0.12991,0.07488 0.19315,-0.08784 0.49583,0.826823 0.19314,0.127 0.28893,0.0021 0.28495,-0.170127 v -0.150019 l -0.12885,-0.07488 -0.21008,0.0979 -0.127,0.0082 -0.10689,-0.07117 -0.43101,-0.74586 0.28284,-0.162984 z"
       stroke="#000000"
       stroke-width="0.264583"
       fill="none"
       id="path979"
       style="fill:#002feb;fill-opacity:1;stroke:none" />
    <path
       id="path983"
       style="fill:#002feb;fill-opacity:1;stroke:none;stroke-width:0.264583"
       d="m 156.18995,31.098549 -0.27905,0.03256 -0.29714,0.190169 -0.13694,0.221692 -0.0398,0.177768 0.032,0.278535 0.28577,0.494543 0.26924,0.187587 0.17777,0.03979 0.27905,-0.03256 0.29714,-0.19017 0.11679,-0.178284 0.0548,-0.173633 -0.0274,-0.326077 -0.28526,-0.49506 -0.26872,-0.187071 z m -0.15916,0.31006 0.23616,0.01291 0.12712,0.08423 0.25115,0.433565 -0.0129,0.236162 -0.0853,0.128156 -0.18603,0.107487 -0.23616,-0.01344 -0.12765,-0.08423 -0.25011,-0.433565 0.0129,-0.236161 0.0848,-0.127641 z" />
    <path
       id="path985"
       style="fill:#002feb;fill-opacity:1;stroke:none;stroke-width:0.264583"
       d="m 156.78784,26.312794 -0.36483,0.03462 -0.75913,0.438216 -0.0842,0.115239 0.0202,0.124024 1.1498,1.991608 0.13746,0.08682 0.14883,-0.06304 0.0341,-0.158131 -0.47698,-0.837673 0.24288,-0.140563 1.2113,0.542605 0.0796,-0.02326 0.0873,-0.137461 -0.0134,-0.08216 -0.0879,-0.09043 -0.90795,-0.423746 0.19482,-0.265618 0.0594,-0.202054 -0.0181,-0.325046 -0.20309,-0.355015 -0.24805,-0.1695 z m -0.0511,0.347785 0.24133,0.121954 0.12299,0.212908 -0.015,0.26975 -0.0971,0.146246 -0.57103,0.330211 -0.42788,-0.740521 0.57206,-0.329698 z" />
    <path
       id="path987"
       style="fill:#002feb;fill-opacity:1;stroke:none;stroke-width:0.264583"
       d="m 156.78784,41.312397 -0.36483,0.03462 -0.75913,0.438216 -0.0842,0.115755 0.0202,0.123508 1.20716,2.052587 0.16175,0.01291 0.10335,-0.124542 -0.0191,-0.12454 -0.45992,-0.796851 0.24288,-0.140044 1.12913,0.526069 0.16175,-0.0067 0.0605,-0.0584 0.0139,-0.161748 -0.0501,-0.06666 -0.94619,-0.447519 0.19481,-0.264584 0.0574,-0.197403 -0.016,-0.329694 -0.18087,-0.325046 -0.25942,-0.194302 z m -0.0511,0.348816 0.24133,0.120922 0.12299,0.212908 -0.015,0.270266 -0.0971,0.146246 -0.57103,0.329695 -0.42788,-0.740005 0.57206,-0.329698 z" />
    <path
       id="path989"
       style="fill:#002feb;fill-opacity:1;stroke:none;stroke-width:0.264583"
       d="m 156.67106,56.3244 -0.33022,0.01394 -0.45216,0.259932 -0.16692,0.253214 -0.0961,0.396875 0.14005,0.493509 0.41806,0.732256 0.38447,0.402042 0.35657,0.109037 0.29146,-0.0072 0.45888,-0.241845 0.19947,-0.276987 0.0961,-0.396875 -0.15658,-0.532267 -0.40049,-0.691947 -0.38602,-0.404627 z m -0.0579,0.347781 0.23099,0.06718 0.27699,0.291973 0.37879,0.656806 0.11524,0.38499 -0.0584,0.233061 -0.0941,0.148828 -0.30489,0.176216 -0.17518,0.0067 -0.231,-0.06666 -0.27698,-0.291973 -0.37879,-0.657323 -0.11369,-0.38499 0.0568,-0.234095 0.094,-0.147794 0.30489,-0.175699 z" />
    <path
       d="m 155.8608,56.631117 v 0"
       stroke="#000000"
       stroke-width="0.264583"
       fill="none"
       id="path993"
       style="fill:#002feb;fill-opacity:1;stroke:none" />
    <path
       id="path1001"
       style="fill:#002feb;fill-opacity:1;stroke:none;stroke-width:0.264583"
       d="m 156.63695,45.730213 -0.39584,0.210325 -0.19224,0.298689 0.0667,0.133842 0.0744,0.02532 0.13384,-0.06718 0.0982,-0.148828 0.2682,-0.15503 0.12764,-0.0072 0.13694,0.124023 -0.046,0.07131 -0.43202,0.26665 -0.14211,0.252182 0.0134,0.22996 0.11472,0.230992 0.29818,0.19172 0.29714,-0.03152 0.63148,-0.388088 v -0.150378 l -0.52348,-0.907955 -0.24029,-0.175702 z m 0.48214,0.698151 0.21704,0.375687 -0.0465,0.07131 -0.35088,0.202055 -0.12764,0.0078 -0.10645,-0.07028 -0.0594,-0.103868 -0.008,-0.127124 0.0713,-0.106455 z" />
    <path
       d="m 158.6749,72.930244 -0.014,0.161925 -0.0601,0.05715 -0.96785,0.558007 -0.16192,-0.01402 -1.20703,-2.052109 0.003,-0.180975 1.00912,-0.605895 0.12383,-0.01905 0.0751,0.03598 0.063,0.150019 -0.0871,0.137054 -0.79692,0.459846 0.37279,0.645054 0.55325,-0.313002 0.15795,0.03413 0.05,0.06694 -0.013,0.161925 -0.0611,0.05688 -0.51197,0.296069 0.42704,0.740039 0.83793,-0.477043 0.15796,0.03413 z"
       stroke="#000000"
       stroke-width="0.264583"
       fill="none"
       id="path1003"
       style="fill:#002feb;fill-opacity:1;stroke:none" />
    <path
       d="m 156.3,56.355157 v 0"
       stroke="#000000"
       stroke-width="0.264583"
       fill="none"
       id="path1005"
       style="fill:#002feb;fill-opacity:1;stroke:none" />
    <path
       id="path1007"
       style="fill:#002feb;fill-opacity:1;stroke:none;stroke-width:0.264583"
       d="m 157.13201,60.444044 -0.39584,0.210841 -0.19224,0.298172 0.0667,0.134358 0.0744,0.02479 0.13384,-0.06718 0.0982,-0.147796 0.2682,-0.155027 0.12764,-0.0078 0.13694,0.123508 -0.046,0.07131 -0.38189,0.219625 -0.19224,0.299207 0.0119,0.230992 0.11628,0.230994 0.29817,0.192236 0.29662,-0.03307 0.632,-0.388091 v -0.14986 l -0.52348,-0.906923 -0.24029,-0.177249 z m 0.48214,0.698148 0.21704,0.376206 -0.047,0.0708 -0.3514,0.203089 -0.12661,0.0067 -0.10645,-0.06976 -0.0594,-0.10387 -0.008,-0.127125 0.0703,-0.105936 z" />
    <path
       d="m 157.8748,31.796532 -0.0198,0.07514 -0.12991,0.07488 -0.13018,-0.07488 -0.68685,-1.229731 0.0749,-0.12991 0.13706,-0.0037 0.11086,-0.139198 0.313,-0.162692 0.28919,0.0028 0.24104,0.176477 0.54292,0.982186 -0.0751,0.12991 h -0.15002 l -0.56092,-0.931386 -0.10583,-0.0703 -0.127,0.0077 -0.186,0.107394 -0.0971,0.174413 z"
       stroke="#000000"
       stroke-width="0.264583"
       fill="none"
       id="path1011"
       style="fill:#002feb;fill-opacity:1;stroke:none" />
    <path
       d="m 157.65996,44.757147 -0.05,0.166158 -0.091,0.06985 -0.20796,-0.03493 -0.1061,-0.106098 0.05,-0.243946 0.091,-0.06985 0.2749,0.07382 z"
       stroke="#000000"
       stroke-width="0.264583"
       fill="none"
       id="path1015"
       style="fill:#002feb;fill-opacity:1;stroke:none" />
    <path
       d="m 157.2959,58.955217 v 0"
       stroke="#000000"
       stroke-width="0.264583"
       fill="none"
       id="path1017"
       style="fill:#002feb;fill-opacity:1;stroke:none" />
    <path
       id="path1019"
       style="fill:#002feb;fill-opacity:1;stroke:none;stroke-width:0.264583"
       d="m 158.54278,55.226276 -0.39998,0.07131 -0.57516,0.348816 -0.0269,0.07855 0.0233,0.102317 1.2578,2.138889 0.16227,0.01291 0.53795,-0.319879 0.2496,-0.295071 0.0951,-0.404111 -0.0258,-0.28887 -0.13385,-0.451135 -0.18706,-0.33383 -0.34779,-0.374137 -0.24701,-0.173633 z m -0.0196,0.353983 0.23667,0.06925 0.17105,0.116789 0.29611,0.313159 0.15089,0.260966 0.12196,0.412893 0.016,0.205674 -0.0589,0.239263 -0.18035,0.208772 -0.29662,0.172082 -1.02475,-1.774568 0.29663,-0.172083 z" />
    <path
       d="m 158.51483,46.340149 -0.66701,-1.153848 -0.0548,-0.05503 H 157.643 l -0.055,0.05503 v 0.150018 l 0.66701,1.153848 0.055,0.05503 h 0.14976 l 0.055,-0.05503 z"
       stroke="#000000"
       stroke-width="0.264583"
       fill="none"
       id="path1021"
       style="fill:#002feb;fill-opacity:1;stroke:none" />
    <path
       id="path1023"
       style="fill:#002feb;fill-opacity:1;stroke:none;stroke-width:0.264583"
       d="m 158.565,25.268931 -0.39533,0.07597 -0.57464,0.3483 -0.003,0.181382 1.20716,2.052072 0.16175,0.01344 0.53691,-0.318841 0.25219,-0.289388 0.10231,-0.395325 -0.0212,-0.282154 -0.12402,-0.434083 -0.18139,-0.324012 -0.34003,-0.35915 -0.24391,-0.165365 z m -0.0139,0.3545 0.23203,0.06253 0.16485,0.108521 0.28474,0.29559 0.14314,0.247012 0.11317,0.394809 0.0119,0.196887 -0.062,0.232026 -0.18397,0.207222 -0.29817,0.172082 -0.97462,-1.688785 0.29766,-0.172082 z" />
    <path
       id="path1025"
       style="fill:#002feb;fill-opacity:1;stroke:none;stroke-width:0.264583"
       d="m 158.77997,40.162078 -0.32504,0.0181 -0.79892,0.455271 -0.061,0.05788 -0.0202,0.141076 1.16686,2.031918 0.0574,0.06098 0.16175,0.01291 0.0672,-0.05013 0.0341,-0.157612 -0.47697,-0.838192 0.66456,-0.405143 0.14211,-0.214974 0.0589,-0.203089 -0.0181,-0.324012 -0.20257,-0.354499 -0.24805,-0.170532 z m -0.0522,0.348816 0.24133,0.121441 0.12299,0.212905 -0.0145,0.269754 -0.0966,0.146243 -0.57102,0.329694 -0.42788,-0.740005 0.57206,-0.329697 z" />
    <path
       d="m 157.6208,44.612155 v 0"
       stroke="#000000"
       stroke-width="0.264583"
       fill="none"
       id="path1027"
       style="fill:#002feb;fill-opacity:1;stroke:none" />
    <path
       d="m 159.26096,61.054157 -0.12515,0.08308 -0.22992,0.01191 -0.29898,-0.191823 -0.85699,-1.484047 v -0.150019 l 0.055,-0.05503 h 0.15002 l 0.055,0.05503 0.83899,1.453885 0.10689,0.07012 0.23813,0.0061 0.0828,0.124884 z"
       stroke="#000000"
       stroke-width="0.264583"
       fill="none"
       id="path1029"
       style="fill:#002feb;fill-opacity:1;stroke:none" />
    <path
       d="m 159.24482,70.035174 -0.0619,-0.150019 -0.0759,-0.03598 -0.12409,0.02011 -1.13797,0.65696 -0.087,0.137054 0.013,0.08202 0.12515,0.103982 0.0839,-0.0032 0.458,-0.257969 1.06203,1.840177 0.13706,0.08678 0.0831,-0.01296 0.10292,-0.124884 -0.0201,-0.124089 -1.06177,-1.839913 0.41698,-0.241035 z"
       stroke="#000000"
       stroke-width="0.264583"
       fill="none"
       id="path1031"
       style="fill:#002feb;fill-opacity:1;stroke:none" />
    <path
       d="m 160.1018,45.511209 -0.54398,-0.982927 -0.23998,-0.175948 -0.3548,0.01693 -0.24713,0.142875 -0.11086,0.139171 -0.13705,0.004 -0.055,0.05503 v 0.150019 l 0.72204,1.208881 h 0.15002 l 0.0548,-0.05503 v -0.150019 l -0.54081,-0.935831 0.0968,-0.174096 0.186,-0.10795 0.12806,-0.0071 0.1061,0.07012 0.56092,0.931862 h 0.15001 z"
       stroke="#000000"
       stroke-width="0.264583"
       fill="none"
       id="path1039"
       style="fill:#002feb;fill-opacity:1;stroke:none" />
    <path
       id="path1041"
       style="fill:#002feb;fill-opacity:1;stroke:none;stroke-width:0.264583"
       d="m 159.40009,29.304343 -0.35502,0.01707 -0.32918,0.190685 -0.17673,0.240294 0.0165,0.354502 0.38137,0.659908 0.24081,0.176734 0.35399,-0.01707 0.32969,-0.190685 0.16847,-0.224793 0.009,-0.149862 -0.12609,-0.08268 -0.076,0.01603 -0.15607,0.199472 -0.2682,0.155028 -0.12712,0.0078 -0.10646,-0.07028 -0.1111,-0.192754 0.68006,-0.624769 0.005,-0.07752 -0.11214,-0.210322 z m -0.108,0.286806 0.12299,0.09818 -0.50023,0.439251 -0.0811,-0.14056 -0.008,-0.127641 0.0698,-0.106455 0.26923,-0.155027 z" />
    <path
       d="m 159.66286,59.288328 v -0.150019 l -0.12991,-0.07514 -0.35798,0.183092 -0.31301,-0.501915 h -0.15001 l -0.055,0.05477 v 0.150019 l 0.25903,0.447146 -0.17304,0.123031 v 0.150019 l 0.12991,0.07488 0.19315,-0.08784 0.49609,0.827881 0.25083,0.142082 0.29712,-0.03307 0.21881,-0.150019 v -0.150019 l -0.12885,-0.07488 -0.21008,0.09684 -0.127,0.0079 -0.10689,-0.06985 -0.431,-0.746919 z"
       stroke="#000000"
       stroke-width="0.264583"
       fill="none"
       id="path1043"
       style="fill:#002feb;fill-opacity:1;stroke:none" />
    <path
       d="m 114.54584,4.4153316 v 2e-4"
       stroke="#000000"
       stroke-width="0.264583"
       fill="none"
       id="path1047"
       style="fill:#002feb;fill-opacity:1;stroke:none" />
  </g>
  <g
     inkscape:groupmode="layer"
     id="layer2"
     inkscape:label="kisscut"
     style="display:inline">
    <g
       id="g2146"
       style="fill:none;stroke:#ff00ff;stroke-width:0.1;stroke-miterlimit:4;stroke-dasharray:none;stroke-opacity:1"
       transform="translate(-8.6470149,-7.0748304)">
      <path
         d="m 25.228945,31.936051 0.05001,0.04601 0.044,0.03101 0.07099,0.03699 0.04699,0.01701 0.03702,0.01 0.03699,0.007 0.05202,0.005 h 4.24299 l 0.08599,-0.01101 0.054,-0.015 0.04101,-0.01598 0.05501,-0.029 0.03998,-0.02601 0.04001,-0.03299 0.05601,-0.06001 0.03098,-0.044 0.03702,-0.07099 0.01699,-0.04702 0.01,-0.03699 0.007,-0.03702 0.005,-0.05199 V 27.36807 l -0.01101,-0.08602 -0.015,-0.054 -0.01601,-0.04098 -0.029,-0.05501 -0.02598,-0.04001 -0.03302,-0.04001 -0.05998,-0.05599 -0.044,-0.03101 -0.07101,-0.03699 -0.04699,-0.01701 -0.03699,-0.01 -0.03702,-0.007 -0.05199,-0.005 h -4.243017 l -0.08599,0.01098 -0.054,0.015 -0.04101,0.01601 -0.05498,0.029 -0.04001,0.02601 -0.04,0.03299 -0.05599,0.06001 -0.03101,0.044 -0.03702,0.07099 -0.01699,0.04702 -0.01,0.03699 -0.007,0.03699 -0.005,0.05202 v 4.242991 l 0.01101,0.08602 0.015,0.054 0.01601,0.04098 0.039,0.07199 0.02699,0.03702 z"
         stroke="#000000"
         stroke-width="0.264583"
         fill="none"
         id="path1053"
         style="fill:none;stroke:#ff00ff;stroke-width:0.1;stroke-miterlimit:4;stroke-dasharray:none;stroke-opacity:1" />
      <path
         d="m 32.72893,36.936067 0.05001,0.04599 0.044,0.03101 0.07101,0.03699 0.04699,0.01701 0.03699,0.01 0.03702,0.007 0.05199,0.005 h 9.243059 l 0.08599,-0.01098 0.05397,-0.015 0.04101,-0.01601 0.05503,-0.029 0.03995,-0.02601 0.03995,-0.03299 0.05609,-0.06001 0.03096,-0.044 0.03704,-0.07099 0.01693,-0.04699 0.01005,-0.03702 0.0069,-0.03699 0.005,-0.05202 v -9.242981 l -0.01085,-0.08602 -0.01508,-0.054 -0.01614,-0.04098 -0.02884,-0.05501 -0.02593,-0.04001 -0.03307,-0.04001 -0.06006,-0.05599 -0.04392,-0.03101 -0.07117,-0.03699 -0.04683,-0.01701 -0.03704,-0.01 -0.03704,-0.007 -0.05186,-0.005 h -9.243112 l -0.08599,0.01098 -0.054,0.015 -0.04101,0.01601 -0.05501,0.029 -0.04001,0.02601 -0.03998,0.03299 -0.05601,0.06001 -0.03101,0.044 -0.03699,0.07099 -0.01701,0.04702 -0.01,0.03699 -0.007,0.03699 -0.005,0.05202 v 9.243007 l 0.01101,0.08599 0.015,0.054 0.01598,0.04098 0.039,0.07202 0.02701,0.03699 z"
         stroke="#000000"
         stroke-width="0.264583"
         fill="none"
         id="path1055"
         style="fill:none;stroke:#ff00ff;stroke-width:0.1;stroke-miterlimit:4;stroke-dasharray:none;stroke-opacity:1" />
      <path
         d="m 45.228878,36.936067 0.05001,0.04599 0.04419,0.03101 0.07091,0.03699 0.04683,0.01701 0.03704,0.01 0.03704,0.007 0.0521,0.005 h 9.24295 l 0.086,-0.01098 0.054,-0.015 0.041,-0.01601 0.055,-0.029 0.04,-0.02601 0.04,-0.03299 0.0561,-0.06001 0.031,-0.044 0.037,-0.07099 0.0169,-0.04699 0.01,-0.03702 0.007,-0.03699 0.005,-0.05202 v -9.242981 l -0.0108,-0.08602 -0.0151,-0.054 -0.0159,-0.04098 -0.0291,-0.05501 -0.0259,-0.04001 -0.0331,-0.04001 -0.0601,-0.05599 -0.0439,-0.03101 -0.0709,-0.03699 -0.0471,-0.01701 -0.037,-0.01 -0.037,-0.007 -0.0519,-0.005 h -9.24321 l -0.08599,0.01098 -0.05398,0.015 -0.04101,0.01601 -0.05477,0.029 -0.04022,0.02601 -0.03995,0.03299 -0.05583,0.06001 -0.03122,0.044 -0.03704,0.07099 -0.01693,0.04702 -0.01005,0.03699 -0.0069,0.03699 -0.005,0.05202 v 9.243007 l 0.01111,0.08599 0.01482,0.054 0.01614,0.04098 0.03889,0.07202 0.02699,0.03699 z"
         stroke="#000000"
         stroke-width="0.264583"
         fill="none"
         id="path1057"
         style="fill:none;stroke:#ff00ff;stroke-width:0.1;stroke-miterlimit:4;stroke-dasharray:none;stroke-opacity:1" />
      <path
         d="m 57.728857,36.936067 0.05,0.04599 0.0442,0.03101 0.0709,0.03699 0.0471,0.01701 0.0368,0.01 0.037,0.007 0.0521,0.005 h 9.24295 l 0.086,-0.01098 0.054,-0.015 0.041,-0.01601 0.055,-0.029 0.04,-0.02601 0.0399,-0.03299 0.0561,-0.06001 0.031,-0.044 0.037,-0.07099 0.0169,-0.04699 0.0101,-0.03702 0.007,-0.03699 0.005,-0.05202 v -9.242981 l -0.0109,-0.08602 -0.0151,-0.054 -0.0159,-0.04098 -0.0291,-0.05501 -0.0259,-0.04001 -0.0331,-0.04001 -0.0601,-0.05599 -0.0439,-0.03101 -0.0709,-0.03699 -0.0471,-0.01701 -0.037,-0.01 -0.037,-0.007 -0.0519,-0.005 h -9.24295 l -0.086,0.01098 -0.0542,0.015 -0.041,0.01601 -0.0548,0.029 -0.0402,0.02601 -0.04,0.03299 -0.0558,0.06001 -0.0312,0.044 -0.0368,0.07099 -0.0172,0.04702 -0.01,0.03699 -0.007,0.03699 -0.005,0.05202 v 9.243007 l 0.0111,0.08599 0.0148,0.054 0.0161,0.04098 0.0389,0.07202 0.027,0.03699 z"
         stroke="#000000"
         stroke-width="0.264583"
         fill="none"
         id="path1059"
         style="fill:none;stroke:#ff00ff;stroke-width:0.1;stroke-miterlimit:4;stroke-dasharray:none;stroke-opacity:1" />
      <path
         d="m 70.228827,36.936067 0.05,0.04599 0.0442,0.03101 0.0709,0.03699 0.0471,0.01701 0.037,0.01 0.0368,0.007 0.0521,0.005 h 9.24295 l 0.086,-0.01098 0.054,-0.015 0.041,-0.01601 0.055,-0.029 0.04,-0.02601 0.0399,-0.03299 0.0561,-0.06001 0.031,-0.044 0.037,-0.07099 0.0169,-0.04699 0.01,-0.03702 0.007,-0.03699 0.005,-0.05202 v -9.242981 l -0.0108,-0.08602 -0.0151,-0.054 -0.0159,-0.04098 -0.0291,-0.05501 -0.0259,-0.04001 -0.0331,-0.04001 -0.0601,-0.05599 -0.0439,-0.03101 -0.0709,-0.03699 -0.0471,-0.01701 -0.037,-0.01 -0.037,-0.007 -0.0519,-0.005 h -9.24295 l -0.086,0.01098 -0.054,0.015 -0.041,0.01601 -0.055,0.029 -0.04,0.02601 -0.0402,0.03299 -0.0558,0.06001 -0.031,0.044 -0.037,0.07099 -0.0172,0.04702 -0.01,0.03699 -0.007,0.03699 -0.005,0.05202 v 9.243007 l 0.0111,0.08599 0.0151,0.054 0.0159,0.04098 0.0389,0.07202 0.027,0.03699 z"
         stroke="#000000"
         stroke-width="0.264583"
         fill="none"
         id="path1061"
         style="fill:none;stroke:#ff00ff;stroke-width:0.1;stroke-miterlimit:4;stroke-dasharray:none;stroke-opacity:1" />
      <path
         d="m 82.729067,36.936067 0.0497,0.04599 0.0442,0.03101 0.0709,0.03699 0.0471,0.01701 0.037,0.01 0.0368,0.007 0.0521,0.005 h 9.24295 l 0.086,-0.01098 0.054,-0.015 0.041,-0.01601 0.055,-0.029 0.04,-0.02601 0.04,-0.03299 0.0561,-0.06001 0.031,-0.044 0.037,-0.07099 0.0169,-0.04699 0.0101,-0.03702 0.007,-0.03699 0.005,-0.05202 v -9.242981 l -0.0111,-0.08602 -0.0151,-0.054 -0.0159,-0.04098 -0.0291,-0.05501 -0.0259,-0.04001 -0.0331,-0.04001 -0.0601,-0.05599 -0.0439,-0.03101 -0.0709,-0.03699 -0.0471,-0.01701 -0.037,-0.01 -0.037,-0.007 -0.0519,-0.005 h -9.24295 l -0.086,0.01098 -0.054,0.015 -0.041,0.01601 -0.055,0.029 -0.04,0.02601 -0.0402,0.03299 -0.0558,0.06001 -0.031,0.044 -0.037,0.07099 -0.0169,0.04702 -0.0101,0.03699 -0.007,0.03699 -0.005,0.05202 v 9.243007 l 0.0111,0.08599 0.0151,0.054 0.0159,0.04098 0.0392,0.07202 0.027,0.03699 z"
         stroke="#000000"
         stroke-width="0.264583"
         fill="none"
         id="path1063"
         style="fill:none;stroke:#ff00ff;stroke-width:0.1;stroke-miterlimit:4;stroke-dasharray:none;stroke-opacity:1" />
      <path
         d="m 95.229047,36.936067 0.05,0.04599 0.0439,0.03101 0.0709,0.03699 0.0471,0.01701 0.037,0.01 0.037,0.007 0.0519,0.005 h 9.242953 l 0.086,-0.01098 0.054,-0.015 0.041,-0.01601 0.055,-0.029 0.04,-0.02601 0.0402,-0.03299 0.0558,-0.06001 0.031,-0.044 0.037,-0.07099 0.0172,-0.04699 0.01,-0.03702 0.007,-0.03699 0.005,-0.05202 v -9.242981 l -0.0111,-0.08602 -0.0151,-0.054 -0.0159,-0.04098 -0.0291,-0.05501 -0.0259,-0.04001 -0.0331,-0.04001 -0.0598,-0.05599 -0.0442,-0.03101 -0.0709,-0.03699 -0.0471,-0.01701 -0.037,-0.01 -0.0368,-0.007 -0.0521,-0.005 h -9.242953 l -0.086,0.01098 -0.054,0.015 -0.041,0.01601 -0.055,0.029 -0.04,0.02601 -0.04,0.03299 -0.0561,0.06001 -0.031,0.044 -0.037,0.07099 -0.0169,0.04702 -0.0101,0.03699 -0.007,0.03699 -0.005,0.05202 v 9.243007 l 0.0111,0.08599 0.0151,0.054 0.0159,0.04098 0.0392,0.07202 0.027,0.03699 z"
         stroke="#000000"
         stroke-width="0.264583"
         fill="none"
         id="path1065"
         style="fill:none;stroke:#ff00ff;stroke-width:0.1;stroke-miterlimit:4;stroke-dasharray:none;stroke-opacity:1" />
      <path
         d="m 107.72902,36.936067 0.05,0.04599 0.0439,0.03101 0.0709,0.03699 0.0471,0.01701 0.037,0.01 0.037,0.007 0.0519,0.005 h 9.24295 l 0.086,-0.01098 0.054,-0.015 0.041,-0.01601 0.055,-0.029 0.0402,-0.02601 0.0399,-0.03299 0.0558,-0.06001 0.0312,-0.044 0.0368,-0.07099 0.0172,-0.04699 0.01,-0.03702 0.007,-0.03699 0.005,-0.05202 v -9.242981 l -0.0111,-0.08602 -0.0151,-0.054 -0.0159,-0.04098 -0.0291,-0.05501 -0.0259,-0.04001 -0.0331,-0.04001 -0.0598,-0.05599 -0.0442,-0.03101 -0.0709,-0.03699 -0.0471,-0.01701 -0.0368,-0.01 -0.037,-0.007 -0.0521,-0.005 h -9.24295 l -0.086,0.01098 -0.054,0.015 -0.041,0.01601 -0.055,0.029 -0.04,0.02601 -0.04,0.03299 -0.0561,0.06001 -0.031,0.044 -0.037,0.07099 -0.0169,0.04702 -0.01,0.03699 -0.007,0.03699 -0.005,0.05202 v 9.243007 l 0.0109,0.08599 0.0151,0.054 0.0159,0.04098 0.0392,0.07202 0.027,0.03699 z"
         stroke="#000000"
         stroke-width="0.264583"
         fill="none"
         id="path1067"
         style="fill:none;stroke:#ff00ff;stroke-width:0.1;stroke-miterlimit:4;stroke-dasharray:none;stroke-opacity:1" />
      <path
         d="m 171.35893,37.346065 0.13811,0.132001 0.13785,0.119989 0.15901,0.125015 0.14817,0.105992 0.16192,0.104008 0.18495,0.106971 0.1651,0.08414 0.18177,0.08176 0.17224,0.068 0.19182,0.06509 0.18018,0.05107 0.19685,0.04604 0.19897,0.03598 0.20611,0.02593 0.20585,0.01614 0.19023,0.004 0.21193,-0.004 0.20506,-0.01614 0.19976,-0.02487 0.20611,-0.03704 0.19605,-0.04604 0.17489,-0.04895 0.19712,-0.0672 0.17885,-0.07091 0.17304,-0.07805 0.16695,-0.08493 0.18601,-0.106971 0.15319,-0.098 0.15796,-0.113003 0.14684,-0.115993 0.14605,-0.126022 0.13097,-0.124989 0.13917,-0.144991 0.12885,-0.149014 0.12409,-0.157982 0.0979,-0.138007 0.10398,-0.162004 0.10398,-0.178991 0.0881,-0.171 0.0799,-0.177007 0.073,-0.188012 0.0622,-0.183992 0.05,-0.173011 0.0479,-0.204999 0.036,-0.206983 0.0241,-0.184018 0.0159,-0.213995 0.005,-0.187987 -0.005,-0.216005 -0.0148,-0.205 -0.027,-0.20701 -0.0352,-0.198993 -0.0439,-0.188992 -0.0529,-0.184017 -0.0672,-0.197988 -0.0688,-0.176001 -0.0802,-0.177006 -0.086,-0.166 -0.10504,-0.182007 -0.10398,-0.161977 -0.10689,-0.150019 -0.11589,-0.147003 -0.12621,-0.145997 -0.13097,-0.13798 -0.1389,-0.132001 -0.14896,-0.12901 -0.14711,-0.115994 -0.1479,-0.106018 -0.16299,-0.104987 -0.18521,-0.105992 -0.16483,-0.084 -0.18203,-0.082 -0.16907,-0.06702 -0.18706,-0.064 -0.18786,-0.053 -0.20611,-0.048 -0.18891,-0.034 -0.20611,-0.02601 -0.20585,-0.01598 -0.18997,-0.004 -0.21219,0.004 -0.20479,0.01598 -0.20717,0.02601 -0.20002,0.03601 -0.18892,0.044 -0.18388,0.05199 -0.195,0.06601 -0.17912,0.07099 -0.17304,0.078 -0.16986,0.08699 -0.18204,0.105013 -0.15293,0.098 -0.15001,0.106998 -0.15611,0.121999 -0.14896,0.128984 -0.13494,0.129011 -0.13202,0.138007 -0.12912,0.148987 -0.12409,0.158009 -0.0979,0.138007 -0.10398,0.161977 -0.10689,0.185024 -0.0841,0.164994 -0.082,0.182007 -0.068,0.171979 -0.0648,0.192008 -0.0511,0.179996 -0.0482,0.206005 -0.0349,0.194997 -0.0249,0.201004 -0.0161,0.205 -0.004,0.191002 0.004,0.211984 0.0161,0.204021 0.0249,0.201004 0.037,0.205978 0.0439,0.189018 0.0521,0.183991 0.0659,0.194998 0.0712,0.178991 0.0778,0.173011 0.087,0.169995 0.10504,0.182007 0.10398,0.162004 0.1069,0.149992 0.11615,0.147003 0.12885,0.149013 z"
         stroke="#000000"
         stroke-width="0.264583"
         fill="none"
         id="path1069"
         style="fill:none;stroke:#ff00ff;stroke-width:0.1;stroke-miterlimit:4;stroke-dasharray:none;stroke-opacity:1" />
      <path
         d="m 138.82893,83.835977 0.05,0.04604 0.0439,0.03096 0.0712,0.03704 0.0468,0.01693 0.037,0.01005 0.037,0.0071 0.0519,0.005 h 9.04319 l 0.086,-0.01111 0.078,-0.02408 0.0439,-0.01984 0.045,-0.02619 0.054,-0.04101 0.0431,-0.0418 0.022,-0.02619 0.031,-0.04392 0.019,-0.03307 0.0281,-0.06376 0.013,-0.04207 0.009,-0.04101 0.007,-0.06403 V 31.468056 l -0.0108,-0.08599 -0.0241,-0.078 -0.0201,-0.044 -0.0259,-0.04501 -0.041,-0.054 -0.0421,-0.043 -0.0259,-0.02201 -0.0439,-0.03098 -0.0331,-0.019 -0.064,-0.02802 -0.0421,-0.01299 -0.041,-0.009 -0.0638,-0.007 h -9.04319 l -0.086,0.01101 -0.0781,0.024 -0.0439,0.02 -0.045,0.02601 -0.054,0.04098 -0.0431,0.04202 -0.022,0.02598 -0.031,0.044 -0.019,0.03302 -0.0281,0.064 -0.013,0.04199 -0.009,0.04101 -0.007,0.06398 v 52.04296 l 0.0109,0.08599 0.0151,0.05397 0.0161,0.04101 0.0389,0.07197 0.027,0.03704 z"
         stroke="#000000"
         stroke-width="0.264583"
         fill="none"
         id="path1071"
         style="fill:none;stroke:#ff00ff;stroke-width:0.1;stroke-miterlimit:4;stroke-dasharray:none;stroke-opacity:1" />
      <path
         d="m 37.228937,49.436174 0.05001,0.04577 0.04392,0.03122 0.07117,0.03678 0.04683,0.0172 0.03704,0.0098 0.03704,0.0071 0.05186,0.005 h 9.24322 l 0.086,-0.01111 0.054,-0.01482 0.041,-0.01614 0.055,-0.0291 0.04,-0.02593 0.0399,-0.03281 0.0561,-0.06006 0.031,-0.04419 0.037,-0.07091 0.0169,-0.0471 0.0101,-0.03678 0.007,-0.03704 0.005,-0.05212 v -9.242955 l -0.0111,-0.08599 -0.0148,-0.05398 -0.0161,-0.04101 -0.0288,-0.05503 -0.0262,-0.03995 -0.0328,-0.03995 -0.0601,-0.05609 -0.0439,-0.03096 -0.0712,-0.03704 -0.0468,-0.01693 -0.037,-0.01005 -0.037,-0.0069 -0.0521,-0.005 h -9.242955 l -0.08599,0.01085 -0.05398,0.01508 -0.04101,0.01587 -0.05503,0.0291 -0.03995,0.02593 -0.03995,0.03307 -0.05609,0.06006 -0.03096,0.04392 -0.03704,0.07091 -0.01693,0.04709 -0.01005,0.03704 -0.0069,0.03704 -0.005,0.05186 v 9.242954 l 0.01085,0.08599 0.01508,0.05424 0.01614,0.04101 0.03889,0.07197 0.02699,0.03704 z"
         stroke="#000000"
         stroke-width="0.264583"
         fill="none"
         id="path1073"
         style="fill:none;stroke:#ff00ff;stroke-width:0.1;stroke-miterlimit:4;stroke-dasharray:none;stroke-opacity:1" />
      <path
         d="m 49.728907,49.436174 0.05,0.04577 0.0439,0.03122 0.0712,0.03678 0.0468,0.0172 0.037,0.0098 0.037,0.0071 0.0521,0.005 h 9.24296 l 0.086,-0.01111 0.054,-0.01482 0.041,-0.01614 0.055,-0.0291 0.0399,-0.02593 0.04,-0.03281 0.0561,-0.06006 0.031,-0.04419 0.037,-0.07091 0.0169,-0.0471 0.0101,-0.03678 0.007,-0.03704 0.005,-0.05212 v -9.242955 l -0.0109,-0.08599 -0.0151,-0.05398 -0.0161,-0.04101 -0.0288,-0.05503 -0.0259,-0.03995 -0.0331,-0.03995 -0.0601,-0.05609 -0.0439,-0.03096 -0.0712,-0.03704 -0.0468,-0.01693 -0.037,-0.01005 -0.037,-0.0069 -0.0519,-0.005 h -9.24322 l -0.086,0.01085 -0.054,0.01508 -0.041,0.01587 -0.055,0.0291 -0.04,0.02593 -0.04,0.03307 -0.0561,0.06006 -0.031,0.04392 -0.037,0.07091 -0.0169,0.04709 -0.0101,0.03704 -0.007,0.03704 -0.005,0.05186 v 9.242954 l 0.0111,0.08599 0.0148,0.05424 0.0161,0.04101 0.0389,0.07197 0.027,0.03704 z"
         stroke="#000000"
         stroke-width="0.264583"
         fill="none"
         id="path1075"
         style="fill:none;stroke:#ff00ff;stroke-width:0.1;stroke-miterlimit:4;stroke-dasharray:none;stroke-opacity:1" />
      <path
         d="m 74.728857,49.436174 0.05,0.04577 0.0442,0.03122 0.0709,0.03678 0.0471,0.0172 0.0368,0.0098 0.037,0.0071 0.0521,0.005 h 9.24296 l 0.086,-0.01111 0.054,-0.01482 0.041,-0.01614 0.055,-0.0291 0.04,-0.02593 0.04,-0.03281 0.0561,-0.06006 0.031,-0.04419 0.037,-0.07091 0.0169,-0.0471 0.0101,-0.03678 0.007,-0.03704 0.005,-0.05212 v -9.242955 l -0.0109,-0.08599 -0.0151,-0.05398 -0.0159,-0.04101 -0.0291,-0.05503 -0.0259,-0.03995 -0.0331,-0.03995 -0.0601,-0.05609 -0.0439,-0.03096 -0.0709,-0.03704 -0.0471,-0.01693 -0.037,-0.01005 -0.037,-0.0069 -0.0519,-0.005 h -9.24296 l -0.086,0.01085 -0.0542,0.01508 -0.041,0.01587 -0.0548,0.0291 -0.0402,0.02593 -0.04,0.03307 -0.0558,0.06006 -0.0312,0.04392 -0.0368,0.07091 -0.0172,0.04709 -0.01,0.03704 -0.007,0.03704 -0.005,0.05186 v 9.242954 l 0.0111,0.08599 0.0148,0.05424 0.0161,0.04101 0.0389,0.07197 0.027,0.03704 z"
         stroke="#000000"
         stroke-width="0.264583"
         fill="none"
         id="path1077"
         style="fill:none;stroke:#ff00ff;stroke-width:0.1;stroke-miterlimit:4;stroke-dasharray:none;stroke-opacity:1" />
      <path
         d="m 62.228887,49.436174 0.05,0.04577 0.0439,0.03122 0.0712,0.03678 0.0468,0.0172 0.037,0.0098 0.037,0.0071 0.0521,0.005 h 9.2419 l 0.086,-0.01111 0.054,-0.01482 0.041,-0.01614 0.055,-0.0291 0.0399,-0.02593 0.04,-0.03281 0.0561,-0.06006 0.031,-0.04419 0.037,-0.07091 0.0169,-0.0471 0.0101,-0.03678 0.007,-0.03704 0.005,-0.05212 v -9.242955 l -0.0109,-0.08599 -0.0151,-0.05398 -0.0159,-0.04101 -0.0291,-0.05503 -0.0259,-0.03995 -0.0331,-0.03995 -0.0601,-0.05609 -0.0439,-0.03096 -0.0709,-0.03704 -0.0471,-0.01693 -0.037,-0.01005 -0.037,-0.0069 -0.0519,-0.005 h -9.24216 l -0.086,0.01085 -0.054,0.01508 -0.041,0.01587 -0.055,0.0291 -0.0399,0.02593 -0.04,0.03307 -0.0561,0.06006 -0.031,0.04392 -0.037,0.07091 -0.0169,0.04709 -0.0101,0.03704 -0.007,0.03704 -0.005,0.05186 v 9.242954 l 0.0111,0.08599 0.0148,0.05424 0.0161,0.04101 0.0389,0.07197 0.027,0.03704 z"
         stroke="#000000"
         stroke-width="0.264583"
         fill="none"
         id="path1079"
         style="fill:none;stroke:#ff00ff;stroke-width:0.1;stroke-miterlimit:4;stroke-dasharray:none;stroke-opacity:1" />
      <path
         d="m 87.228837,49.436174 0.05,0.04577 0.0442,0.03122 0.0709,0.03678 0.0471,0.0172 0.0368,0.0098 0.037,0.0071 0.0521,0.005 h 9.24295 l 0.086,-0.01111 0.054,-0.01482 0.041,-0.01614 0.055,-0.0291 0.0399,-0.02593 0.04,-0.03281 0.0561,-0.06006 0.031,-0.04419 0.037,-0.07091 0.0169,-0.0471 0.0101,-0.03678 0.007,-0.03704 0.005,-0.05212 v -9.242955 l -0.0109,-0.08599 -0.0151,-0.05398 -0.0159,-0.04101 -0.0291,-0.05503 -0.0259,-0.03995 -0.0331,-0.03995 -0.0601,-0.05609 -0.0439,-0.03096 -0.0709,-0.03704 -0.0471,-0.01693 -0.037,-0.01005 -0.037,-0.0069 -0.0519,-0.005 h -9.24295 l -0.086,0.01085 -0.054,0.01508 -0.041,0.01587 -0.055,0.0291 -0.0402,0.02593 -0.04,0.03307 -0.0558,0.06006 -0.0312,0.04392 -0.0368,0.07091 -0.0172,0.04709 -0.01,0.03704 -0.007,0.03704 -0.005,0.05186 v 9.242954 l 0.0111,0.08599 0.0151,0.05424 0.0159,0.04101 0.0389,0.07197 0.027,0.03704 z"
         stroke="#000000"
         stroke-width="0.264583"
         fill="none"
         id="path1081"
         style="fill:none;stroke:#ff00ff;stroke-width:0.1;stroke-miterlimit:4;stroke-dasharray:none;stroke-opacity:1" />
      <path
         d="m 99.728807,49.436174 0.05,0.04577 0.0442,0.03122 0.0709,0.03678 0.0471,0.0172 0.037,0.0098 0.0368,0.0071 0.0521,0.005 h 9.24296 l 0.086,-0.01111 0.054,-0.01482 0.041,-0.01614 0.055,-0.0291 0.04,-0.02593 0.04,-0.03281 0.0561,-0.06006 0.031,-0.04419 0.037,-0.07091 0.0169,-0.0471 0.01,-0.03678 0.007,-0.03704 0.005,-0.05212 v -9.242955 l -0.0111,-0.08599 -0.0151,-0.05398 -0.0159,-0.04101 -0.0291,-0.05503 -0.0259,-0.03995 -0.0331,-0.03995 -0.0601,-0.05609 -0.0439,-0.03096 -0.0709,-0.03704 -0.0471,-0.01693 -0.037,-0.01005 -0.037,-0.0069 -0.0519,-0.005 h -9.24296 l -0.086,0.01085 -0.054,0.01508 -0.041,0.01587 -0.055,0.0291 -0.04,0.02593 -0.0402,0.03307 -0.0558,0.06006 -0.031,0.04392 -0.037,0.07091 -0.0172,0.04709 -0.01,0.03704 -0.007,0.03704 -0.005,0.05186 v 9.242954 l 0.0111,0.08599 0.0151,0.05424 0.0159,0.04101 0.0389,0.07197 0.0272,0.03704 z"
         stroke="#000000"
         stroke-width="0.264583"
         fill="none"
         id="path1083"
         style="fill:none;stroke:#ff00ff;stroke-width:0.1;stroke-miterlimit:4;stroke-dasharray:none;stroke-opacity:1" />
      <path
         d="m 112.22905,49.436174 0.05,0.04577 0.0439,0.03122 0.0709,0.03678 0.0471,0.0172 0.037,0.0098 0.037,0.0071 0.0519,0.005 h 9.24296 l 0.086,-0.01111 0.054,-0.01482 0.041,-0.01614 0.055,-0.0291 0.04,-0.02593 0.0402,-0.03281 0.0558,-0.06006 0.031,-0.04419 0.037,-0.07091 0.0169,-0.0471 0.0101,-0.03678 0.007,-0.03704 0.005,-0.05212 v -9.242955 l -0.0111,-0.08599 -0.0151,-0.05398 -0.0159,-0.04101 -0.0291,-0.05503 -0.0259,-0.03995 -0.0331,-0.03995 -0.0598,-0.05609 -0.0442,-0.03096 -0.0709,-0.03704 -0.0471,-0.01693 -0.037,-0.01005 -0.0368,-0.0069 -0.0521,-0.005 h -9.24295 l -0.086,0.01085 -0.054,0.01508 -0.041,0.01587 -0.055,0.0291 -0.04,0.02593 -0.04,0.03307 -0.0561,0.06006 -0.031,0.04392 -0.037,0.07091 -0.0169,0.04709 -0.0101,0.03704 -0.007,0.03704 -0.005,0.05186 v 9.242954 l 0.0111,0.08599 0.0151,0.05424 0.0159,0.04101 0.0392,0.07197 0.027,0.03704 z"
         stroke="#000000"
         stroke-width="0.264583"
         fill="none"
         id="path1085"
         style="fill:none;stroke:#ff00ff;stroke-width:0.1;stroke-miterlimit:4;stroke-dasharray:none;stroke-opacity:1" />
      <path
         d="m 171.35893,52.346062 0.13811,0.132027 0.13785,0.119856 0.15901,0.125148 0.14817,0.106098 0.16192,0.103981 0.18495,0.106892 0.1651,0.08387 0.18177,0.08202 0.17224,0.068 0.19182,0.06509 0.18018,0.05107 0.19685,0.04604 0.19897,0.03598 0.20611,0.02593 0.20585,0.01588 0.19023,0.0042 0.21193,-0.0042 0.20506,-0.01588 0.19976,-0.02487 0.20611,-0.03704 0.19605,-0.04604 0.17489,-0.04895 0.19712,-0.0672 0.17885,-0.07091 0.17304,-0.07805 0.16695,-0.08493 0.18601,-0.106892 0.15319,-0.09816 0.15796,-0.112977 0.14684,-0.115888 0.14605,-0.126206 0.13097,-0.124883 0.13917,-0.144992 0.12885,-0.14896 0.12409,-0.157957 0.0979,-0.138112 0.10398,-0.161925 0.10398,-0.179123 0.0881,-0.170921 0.0799,-0.177006 0.073,-0.188119 0.0622,-0.183885 0.05,-0.173038 0.0479,-0.205052 0.036,-0.206904 0.0241,-0.183885 0.0159,-0.214048 0.005,-0.188119 -0.005,-0.2159 -0.0148,-0.205052 -0.027,-0.206904 -0.0352,-0.198967 -0.0439,-0.189177 -0.0529,-0.183885 -0.0672,-0.198173 -0.0688,-0.175948 -0.0802,-0.177007 -0.086,-0.165893 -0.10504,-0.182034 -0.10398,-0.161925 -0.10689,-0.150018 -0.11589,-0.147109 -0.12621,-0.14605 -0.13097,-0.137848 -0.1389,-0.132027 -0.14896,-0.129116 -0.14711,-0.115888 -0.1479,-0.106098 -0.16299,-0.105039 -0.18521,-0.105834 -0.16483,-0.08414 -0.18203,-0.08202 -0.16907,-0.06694 -0.18706,-0.06403 -0.18786,-0.05292 -0.20611,-0.04789 -0.18891,-0.03413 -0.20611,-0.02593 -0.20585,-0.01614 -0.18997,-0.004 -0.21219,0.004 -0.20479,0.01614 -0.20717,0.02593 -0.20002,0.03598 -0.18892,0.04392 -0.18388,0.05212 -0.195,0.06588 -0.17912,0.07117 -0.17304,0.07805 -0.16986,0.08678 -0.18204,0.10504 -0.15293,0.09816 -0.15001,0.106892 -0.15611,0.121973 -0.14896,0.129117 -0.13494,0.128852 -0.13202,0.138112 -0.12912,0.148961 -0.12409,0.157956 -0.0979,0.138112 -0.10398,0.161925 -0.10689,0.184944 -0.0841,0.1651 -0.082,0.182033 -0.068,0.17198 -0.0648,0.191823 -0.0511,0.180181 -0.0482,0.205846 -0.0349,0.194998 -0.0249,0.201083 -0.0161,0.205052 -0.004,0.191029 0.004,0.211931 0.0161,0.203994 0.0249,0.201083 0.037,0.205846 0.0439,0.189177 0.0521,0.183886 0.0659,0.194998 0.0712,0.179123 0.0778,0.172773 0.087,0.170127 0.10504,0.182033 0.10398,0.161925 0.1069,0.150019 0.11615,0.147108 0.12885,0.14896 z"
         stroke="#000000"
         stroke-width="0.264583"
         fill="none"
         id="path1087"
         style="fill:none;stroke:#ff00ff;stroke-width:0.1;stroke-miterlimit:4;stroke-dasharray:none;stroke-opacity:1" />
      <path
         d="m 104.22885,61.936149 0.05,0.04604 0.0442,0.03096 0.0709,0.03704 0.0471,0.01693 0.0368,0.01005 0.037,0.0069 0.0521,0.005 h 9.24294 l 0.086,-0.01111 0.054,-0.01482 0.041,-0.01614 0.055,-0.02884 0.04,-0.02619 0.0399,-0.03281 0.0561,-0.06006 0.031,-0.04392 0.037,-0.07117 0.0169,-0.04683 0.0101,-0.03704 0.007,-0.03704 0.005,-0.05212 v -9.242955 l -0.0109,-0.08599 -0.0151,-0.05398 -0.0159,-0.04101 -0.0291,-0.05503 -0.0259,-0.03995 -0.0331,-0.03995 -0.0601,-0.05609 -0.0439,-0.03096 -0.0709,-0.03704 -0.0471,-0.01693 -0.037,-0.01005 -0.037,-0.0069 -0.0519,-0.005 h -9.24294 l -0.086,0.01085 -0.0542,0.01508 -0.0408,0.01588 -0.055,0.0291 -0.0402,0.02593 -0.04,0.03307 -0.0558,0.06006 -0.0312,0.04392 -0.0368,0.07117 -0.0172,0.04683 -0.01,0.03704 -0.007,0.03704 -0.005,0.05186 v 9.243219 l 0.0111,0.08599 0.0148,0.05398 0.0161,0.04101 0.0389,0.07197 0.027,0.03704 z"
         stroke="#000000"
         stroke-width="0.264583"
         fill="none"
         id="path1089"
         style="fill:none;stroke:#ff00ff;stroke-width:0.1;stroke-miterlimit:4;stroke-dasharray:none;stroke-opacity:1" />
      <path
         d="m 116.72882,61.936149 0.05,0.04604 0.0442,0.03096 0.0709,0.03704 0.0471,0.01693 0.037,0.01005 0.0368,0.0069 0.0521,0.005 h 9.24295 l 0.086,-0.01111 0.054,-0.01482 0.041,-0.01614 0.055,-0.02884 0.0399,-0.02619 0.04,-0.03281 0.0561,-0.06006 0.031,-0.04392 0.037,-0.07117 0.0169,-0.04683 0.01,-0.03704 0.007,-0.03704 0.005,-0.05212 v -9.242955 l -0.0108,-0.08599 -0.0151,-0.05398 -0.0159,-0.04101 -0.0291,-0.05503 -0.0259,-0.03995 -0.0331,-0.03995 -0.0601,-0.05609 -0.0439,-0.03096 -0.0709,-0.03704 -0.0471,-0.01693 -0.037,-0.01005 -0.037,-0.0069 -0.0519,-0.005 h -9.24296 l -0.086,0.01085 -0.054,0.01508 -0.041,0.01588 -0.055,0.0291 -0.04,0.02593 -0.0402,0.03307 -0.0558,0.06006 -0.031,0.04392 -0.037,0.07117 -0.0172,0.04683 -0.01,0.03704 -0.007,0.03704 -0.005,0.05186 v 9.243219 l 0.0111,0.08599 0.0151,0.05398 0.0159,0.04101 0.0389,0.07197 0.0272,0.03704 z"
         stroke="#000000"
         stroke-width="0.264583"
         fill="none"
         id="path1091"
         style="fill:none;stroke:#ff00ff;stroke-width:0.1;stroke-miterlimit:4;stroke-dasharray:none;stroke-opacity:1" />
      <path
         d="m 91.728867,61.936149 0.05,0.04604 0.0442,0.03096 0.0709,0.03704 0.0471,0.01693 0.0368,0.01005 0.037,0.0069 0.0521,0.005 h 9.242963 l 0.086,-0.01111 0.054,-0.01482 0.041,-0.01614 0.055,-0.02884 0.04,-0.02619 0.04,-0.03281 0.0561,-0.06006 0.031,-0.04392 0.037,-0.07117 0.0169,-0.04683 0.0101,-0.03704 0.007,-0.03704 0.005,-0.05212 v -9.242955 l -0.0109,-0.08599 -0.0151,-0.05398 -0.0159,-0.04101 -0.0291,-0.05503 -0.0259,-0.03995 -0.0331,-0.03995 -0.0601,-0.05609 -0.0439,-0.03096 -0.0709,-0.03704 -0.0471,-0.01693 -0.037,-0.01005 -0.037,-0.0069 -0.0519,-0.005 h -9.242963 l -0.0863,0.01085 -0.054,0.01508 -0.041,0.01588 -0.0548,0.0291 -0.0402,0.02593 -0.0399,0.03307 -0.0558,0.06006 -0.0312,0.04392 -0.0368,0.07117 -0.0172,0.04683 -0.0101,0.03704 -0.007,0.03704 -0.005,0.05186 v 9.243219 l 0.0111,0.08599 0.0148,0.05398 0.0161,0.04101 0.0389,0.07197 0.027,0.03704 z"
         stroke="#000000"
         stroke-width="0.264583"
         fill="none"
         id="path1093"
         style="fill:none;stroke:#ff00ff;stroke-width:0.1;stroke-miterlimit:4;stroke-dasharray:none;stroke-opacity:1" />
      <path
         d="m 79.228897,61.936149 0.05,0.04604 0.0439,0.03096 0.0712,0.03704 0.0468,0.01693 0.037,0.01005 0.037,0.0069 0.0521,0.005 h 9.24295 l 0.086,-0.01111 0.054,-0.01482 0.041,-0.01614 0.055,-0.02884 0.04,-0.02619 0.04,-0.03281 0.0561,-0.06006 0.031,-0.04392 0.037,-0.07117 0.0169,-0.04683 0.0101,-0.03704 0.007,-0.03704 0.005,-0.05212 v -9.242955 l -0.0109,-0.08599 -0.0151,-0.05398 -0.0161,-0.04101 -0.0288,-0.05503 -0.0259,-0.03995 -0.0331,-0.03995 -0.0601,-0.05609 -0.0439,-0.03096 -0.0712,-0.03704 -0.0468,-0.01693 -0.037,-0.01005 -0.037,-0.0069 -0.0519,-0.005 h -9.24322 l -0.086,0.01085 -0.054,0.01508 -0.041,0.01588 -0.055,0.0291 -0.04,0.02593 -0.04,0.03307 -0.0561,0.06006 -0.031,0.04392 -0.037,0.07117 -0.0169,0.04683 -0.01,0.03704 -0.007,0.03704 -0.005,0.05186 v 9.243219 l 0.0111,0.08599 0.0148,0.05398 0.0161,0.04101 0.0389,0.07197 0.027,0.03704 z"
         stroke="#000000"
         stroke-width="0.264583"
         fill="none"
         id="path1095"
         style="fill:none;stroke:#ff00ff;stroke-width:0.1;stroke-miterlimit:4;stroke-dasharray:none;stroke-opacity:1" />
      <path
         d="m 66.728917,61.936149 0.05,0.04604 0.0439,0.03096 0.0712,0.03704 0.0468,0.01693 0.037,0.01005 0.037,0.0069 0.0521,0.005 h 9.24296 l 0.086,-0.01111 0.054,-0.01482 0.041,-0.01614 0.055,-0.02884 0.04,-0.02619 0.0399,-0.03281 0.0561,-0.06006 0.031,-0.04392 0.037,-0.07117 0.0169,-0.04683 0.0101,-0.03704 0.007,-0.03704 0.005,-0.05212 v -9.242955 l -0.0109,-0.08599 -0.0151,-0.05398 -0.0161,-0.04101 -0.0288,-0.05503 -0.0259,-0.03995 -0.0331,-0.03995 -0.0601,-0.05609 -0.0439,-0.03096 -0.0712,-0.03704 -0.0468,-0.01693 -0.037,-0.01005 -0.037,-0.0069 -0.0519,-0.005 h -9.24322 l -0.086,0.01085 -0.054,0.01508 -0.041,0.01588 -0.055,0.0291 -0.0399,0.02593 -0.04,0.03307 -0.0561,0.06006 -0.031,0.04392 -0.037,0.07117 -0.0169,0.04683 -0.0101,0.03704 -0.007,0.03704 -0.005,0.05186 v 9.243219 l 0.0111,0.08599 0.0148,0.05398 0.0161,0.04101 0.0389,0.07197 0.027,0.03704 z"
         stroke="#000000"
         stroke-width="0.264583"
         fill="none"
         id="path1097"
         style="fill:none;stroke:#ff00ff;stroke-width:0.1;stroke-miterlimit:4;stroke-dasharray:none;stroke-opacity:1" />
      <path
         d="m 54.228947,61.936149 0.05,0.04604 0.0439,0.03096 0.0712,0.03704 0.0468,0.01693 0.037,0.01005 0.037,0.0069 0.0519,0.005 h 9.24322 l 0.086,-0.01111 0.054,-0.01482 0.041,-0.01614 0.055,-0.02884 0.0399,-0.02619 0.04,-0.03281 0.0561,-0.06006 0.031,-0.04392 0.037,-0.07117 0.0169,-0.04683 0.0101,-0.03704 0.007,-0.03704 0.005,-0.05212 v -9.242955 l -0.0111,-0.08599 -0.0148,-0.05398 -0.0161,-0.04101 -0.0288,-0.05503 -0.0262,-0.03995 -0.0328,-0.03995 -0.0601,-0.05609 -0.0439,-0.03096 -0.0712,-0.03704 -0.0468,-0.01693 -0.037,-0.01005 -0.037,-0.0069 -0.0521,-0.005 h -9.24296 l -0.086,0.01085 -0.054,0.01508 -0.041,0.01588 -0.055,0.0291 -0.04,0.02593 -0.04,0.03307 -0.0561,0.06006 -0.031,0.04392 -0.037,0.07117 -0.0169,0.04683 -0.01,0.03704 -0.007,0.03704 -0.005,0.05186 v 9.243219 l 0.0108,0.08599 0.0151,0.05398 0.0161,0.04101 0.0389,0.07197 0.027,0.03704 z"
         stroke="#000000"
         stroke-width="0.264583"
         fill="none"
         id="path1099"
         style="fill:none;stroke:#ff00ff;stroke-width:0.1;stroke-miterlimit:4;stroke-dasharray:none;stroke-opacity:1" />
      <path
         d="m 41.72897,61.936149 0.05001,0.04604 0.04392,0.03096 0.07117,0.03704 0.04683,0.01693 0.03704,0.01005 0.03704,0.0069 0.05186,0.005 h 9.243217 l 0.086,-0.01111 0.054,-0.01482 0.041,-0.01614 0.055,-0.02884 0.04,-0.02619 0.04,-0.03281 0.0561,-0.06006 0.031,-0.04392 0.037,-0.07117 0.0169,-0.04683 0.01,-0.03704 0.007,-0.03704 0.005,-0.05212 v -9.242955 l -0.0111,-0.08599 -0.0148,-0.05398 -0.0161,-0.04101 -0.0288,-0.05503 -0.0262,-0.03995 -0.0328,-0.03995 -0.0601,-0.05609 -0.0439,-0.03096 -0.0712,-0.03704 -0.0468,-0.01693 -0.037,-0.01005 -0.037,-0.0069 -0.0521,-0.005 h -9.242953 l -0.08599,0.01085 -0.05397,0.01508 -0.04101,0.01588 -0.05503,0.0291 -0.03995,0.02593 -0.03995,0.03307 -0.05609,0.06006 -0.03096,0.04392 -0.03704,0.07117 -0.01693,0.04683 -0.01005,0.03704 -0.0069,0.03704 -0.005,0.05186 v 9.243219 l 0.01085,0.08599 0.01508,0.05398 0.01587,0.04101 0.03916,0.07197 0.02699,0.03704 z"
         stroke="#000000"
         stroke-width="0.264583"
         fill="none"
         id="path1101"
         style="fill:none;stroke:#ff00ff;stroke-width:0.1;stroke-miterlimit:4;stroke-dasharray:none;stroke-opacity:1" />
      <path
         d="m 171.35893,67.316187 0.13811,0.131762 0.13785,0.120121 0.15901,0.124884 0.14817,0.106098 0.16192,0.103981 0.18495,0.107156 0.1651,0.08387 0.18177,0.08202 0.17224,0.068 0.19182,0.06509 0.18018,0.0508 0.19685,0.04604 0.19897,0.03598 0.20611,0.02619 0.20585,0.01588 0.19023,0.004 0.21193,-0.004 0.20506,-0.01588 0.19976,-0.02514 0.20611,-0.03704 0.19605,-0.04604 0.17489,-0.04895 0.19712,-0.06694 0.17885,-0.07091 0.17304,-0.07805 0.16695,-0.08493 0.18601,-0.107156 0.15319,-0.0979 0.15796,-0.112977 0.14684,-0.116152 0.14605,-0.125942 0.13097,-0.124883 0.13917,-0.144992 0.12885,-0.149225 0.12409,-0.157956 0.0979,-0.137848 0.10398,-0.16219 0.10398,-0.178858 0.0881,-0.170921 0.0799,-0.177006 0.073,-0.188119 0.0622,-0.183885 0.05,-0.173038 0.0479,-0.205052 0.036,-0.206904 0.0241,-0.18415 0.0159,-0.214048 0.005,-0.187854 -0.005,-0.216165 -0.0148,-0.204787 -0.027,-0.207169 -0.0352,-0.198967 -0.0439,-0.188912 -0.0529,-0.18415 -0.0672,-0.197908 -0.0688,-0.175948 -0.0802,-0.177007 -0.086,-0.166158 -0.10504,-0.182033 -0.10398,-0.161925 -0.10689,-0.150019 -0.11589,-0.146844 -0.12621,-0.14605 -0.13097,-0.138112 -0.1389,-0.132027 -0.14896,-0.128852 -0.14711,-0.116152 -0.1479,-0.105834 -0.16299,-0.105039 -0.18521,-0.106098 -0.16483,-0.08387 -0.18203,-0.08202 -0.16907,-0.06694 -0.18706,-0.06403 -0.18786,-0.05318 -0.20611,-0.04789 -0.18891,-0.03387 -0.20611,-0.02619 -0.20585,-0.01588 -0.18997,-0.004 -0.21219,0.004 -0.20479,0.01588 -0.20717,0.02619 -0.20002,0.03598 -0.18892,0.04392 -0.18388,0.05186 -0.195,0.06615 -0.17912,0.07091 -0.17304,0.07805 -0.16986,0.08705 -0.18204,0.10504 -0.15293,0.0979 -0.15001,0.107156 -0.15611,0.121973 -0.14896,0.128852 -0.13494,0.129117 -0.13202,0.137848 -0.12912,0.14896 -0.12409,0.158221 -0.0979,0.137848 -0.10398,0.161925 -0.10689,0.185208 -0.0841,0.164836 -0.082,0.182033 -0.068,0.171979 -0.0648,0.192088 -0.0511,0.179916 -0.0482,0.206111 -0.0349,0.194998 -0.0249,0.201083 -0.0161,0.204787 -0.004,0.19103 0.004,0.211931 0.0161,0.204258 0.0249,0.200819 0.037,0.20611 0.0439,0.188913 0.0521,0.18415 0.0659,0.194998 0.0712,0.178858 0.0778,0.173038 0.087,0.169862 0.10504,0.182033 0.10398,0.16219 0.1069,0.150019 0.11615,0.146843 0.12885,0.148961 z"
         stroke="#000000"
         stroke-width="0.264583"
         fill="none"
         id="path1103"
         style="fill:none;stroke:#ff00ff;stroke-width:0.1;stroke-miterlimit:4;stroke-dasharray:none;stroke-opacity:1" />
      <path
         d="m 124.63986,75.072977 0.1061,0.100012 0.10292,0.08916 0.12012,0.09499 0.11192,0.07885 0.11113,0.07197 0.13996,0.08017 0.10901,0.05583 0.14393,0.06509 0.12409,0.04815 0.13679,0.04683 0.15505,0.04392 0.12303,0.0291 0.304,0.0471 0.15293,0.01085 0.136,0.0032 0.16007,-0.0032 0.14102,-0.01005 0.3011,-0.04498 0.15293,-0.03598 0.12991,-0.03704 0.13494,-0.04577 0.13017,-0.05001 0.13706,-0.06112 0.127,-0.06509 0.11694,-0.06694 0.13388,-0.08599 0.11906,-0.08387 0.1061,-0.0852 0.10584,-0.09181 0.091,-0.08599 0.1061,-0.112183 0.0939,-0.105833 0.0931,-0.119063 0.0789,-0.111919 0.072,-0.111125 0.0802,-0.139964 0.0558,-0.109008 0.0651,-0.143934 0.0489,-0.124089 0.0471,-0.137055 0.0439,-0.154781 0.0302,-0.132027 0.0249,-0.142081 0.019,-0.144992 0.0119,-0.160073 0.004,-0.132027 -0.004,-0.164835 -0.01,-0.141023 -0.0209,-0.164042 -0.0241,-0.137054 -0.0349,-0.152929 -0.037,-0.130175 -0.05,-0.145786 -0.05,-0.126206 -0.058,-0.12991 -0.0651,-0.127 -0.0669,-0.116946 -0.0839,-0.130969 -0.0802,-0.112977 -0.09,-0.115094 -0.0929,-0.106891 -0.096,-0.101071 -0.10398,-0.09895 -0.10213,-0.08811 -0.11985,-0.09499 -0.11298,-0.07885 -0.11112,-0.07223 -0.13997,-0.0799 -0.10901,-0.05609 -0.14393,-0.06482 -0.12409,-0.04921 -0.13705,-0.04577 -0.15505,-0.04419 -0.13176,-0.03096 -0.14208,-0.02487 -0.1651,-0.02117 -0.13997,-0.0098 -0.16007,-0.0032 -0.136,0.0032 -0.15187,0.01085 -0.14711,0.01905 -0.14393,0.02487 -0.15293,0.03598 -0.13017,0.03704 -0.14579,0.04895 -0.12621,0.05001 -0.12991,0.05821 -0.127,0.06482 -0.11694,0.0672 -0.13097,0.08387 -0.11298,0.0799 -0.11509,0.09022 -0.10689,0.09287 -0.10107,0.09604 -0.099,0.103981 -0.09,0.103981 -0.0931,0.119063 -0.0791,0.111919 -0.072,0.111125 -0.0799,0.139964 -0.0561,0.109009 -0.0648,0.143933 -0.0492,0.124089 -0.0458,0.13679 -0.0442,0.155046 -0.0309,0.132027 -0.0249,0.142081 -0.019,0.144992 -0.0122,0.160073 -0.003,0.136789 0.003,0.160073 0.01,0.141023 0.0212,0.164042 0.0238,0.137054 0.036,0.152929 0.037,0.129911 0.049,0.14605 0.05,0.125941 0.0582,0.130175 0.0648,0.127 0.0672,0.116946 0.0839,0.130969 0.0799,0.112977 0.086,0.110067 0.0971,0.110066 z"
         stroke="#000000"
         stroke-width="0.264583"
         fill="none"
         id="path1105"
         style="fill:none;stroke:#ff00ff;stroke-width:0.1;stroke-miterlimit:4;stroke-dasharray:none;stroke-opacity:1" />
      <path
         d="m 118.40098,17.358064 -0.091,0.03601 -0.099,0.06699 -0.077,0.08401 -0.0662,0.124989 -0.0288,0.147003 v 3.343011 l 0.0418,0.180975 0.0982,0.145018 0.16483,0.113983 0.17304,0.039 h 4.07908 l 0.0349,0.152004 0.0982,0.145018 0.16483,0.113982 0.17304,0.039 h 4.24312 l 0.18098,-0.04199 0.13494,-0.088 0.0561,-0.06001 0.068,-0.114987 0.0389,-0.173011 v -4.24299 l -0.0421,-0.181002 -0.0878,-0.13499 -0.0601,-0.05601 -0.11509,-0.068 -0.17304,-0.039 h -4.24286 l -0.18097,0.04199 -0.13494,0.088 -0.0561,0.06001 -0.068,0.114988 -0.0331,0.145018 h -4.07697 z"
         stroke="#000000"
         stroke-width="0.264583"
         fill="none"
         id="path1107"
         style="fill:none;stroke:#ff00ff;stroke-width:0.1;stroke-miterlimit:4;stroke-dasharray:none;stroke-opacity:1" />
      <path
         d="m 174.61304,87.003039 0.6858,-0.201877 0.626,-0.384175 0.32121,-0.307975 0.28283,-0.382852 1.35705,-2.512219 0.0421,-0.118798 0.0109,-0.0852 -0.007,-2.537883 -0.005,-0.02196 v -1.93093 l 0.006,-0.02619 0.006,-2.525977 -0.0198,-0.119857 -0.036,-0.08916 -1.36498,-2.527036 -0.25612,-0.34581 -0.32808,-0.318029 -0.60378,-0.37809 -0.64611,-0.200025 -0.12013,-0.01984 -0.67098,-0.01217 -0.71199,0.175154 -0.62601,0.351896 -0.0968,0.07303 -0.48313,0.504031 -1.47902,2.695046 -0.05,0.14605 -0.004,2.141802 h -0.0148 v 3.00011 h 0.0148 l 0.005,2.035969 0.0489,0.142081 1.46711,2.677848 0.49689,0.522023 0.095,0.07197 0.62918,0.35216 0.73396,0.175948 z"
         stroke="#000000"
         stroke-width="0.264583"
         fill="none"
         id="path1109"
         style="fill:none;stroke:#ff00ff;stroke-width:0.1;stroke-miterlimit:4;stroke-dasharray:none;stroke-opacity:1" />
    </g>
    <path
       d="M 17.962923,53.973113 17.188938,53.72123 15.637924,53.102105 14.137921,52.348307 13.444924,51.942172 12.050914,50.999197 10.753927,49.950124 9.5439341,48.784105 9.0109311,48.200169 7.9489201,46.874342 7.0299161,45.498244 6.2259271,44.037215 5.5479321,42.50713 5.2649341,41.737192 4.7909331,40.13514 4.6079201,39.331336 4.3439191,37.68113 l -0.121999,-1.661848 0.02101,-1.663171 0.167005,-1.669785 0.303979,-1.627982 0.445003,-1.601099 0.589016,-1.578002 0.328003,-0.733001 0.791978,-1.496007 0.419999,-0.686012 0.971021,-1.373981 1.085004,-1.285002 0.557,-0.579014 1.2379859,-1.130988 1.335008,-1.024996 0.666988,-0.446008 1.446001,-0.838994 1.522016,-0.71501 1.544981,-0.570997 1.639015,-0.448998 0.76999,-0.159015 1.722014,-0.239977 92.924953,-10.2450114 2.3151,-0.218001 4.74398,-0.362 2.32198,-0.134998 4.7379,-0.193 4.72201,-0.084 2.65219,0.038 2.62493,0.189999 2.61302,0.343001 2.57096,0.49 2.57201,0.646999 2.51699,0.791993 2.45401,0.931016 2.40294,1.075002 2.33707,1.2129834 2.26589,1.349004 2.18202,1.476005 1.05807,0.784992 2.03702,1.654016 1.96189,1.791997 1.83012,1.876001 1.72588,1.988979 1.61607,2.098014 0.76386,1.085003 0.70405,1.066006 1.36314,2.269993 1.22687,2.343997 0.558,1.188006 1.01098,2.420937 0.87418,2.496079 0.72999,2.54291 0.57388,2.550054 0.43206,2.623081 0.15108,1.26603 0.20293,2.653771 0.0468,2.633133 -0.10584,2.640014 -0.11112,1.325033 -0.14288,1.262062 -0.41301,2.626784 -0.56595,2.605086 -0.32517,1.231901 -0.78581,2.526241 -0.9271,2.469886 -0.51012,1.196974 -1.14591,2.392893 -1.26894,2.29817 -1.41208,2.239963 -1.52506,2.133865 -0.80698,1.030023 -1.719,2.010039 -1.82403,1.897063 -1.94681,1.803929 -0.9771,0.828146 -2.109,1.636977 -1.04484,0.74004 -2.227,1.435893 -2.32701,1.317096 -1.12315,0.572029 -2.42306,1.1049 -1.20703,0.487892 -2.48681,0.881067 -2.56197,0.744 -1.24407,0.30295 -2.57995,0.51012 -2.64504,0.36592 -1.27106,0.12012 -2.64609,0.13388 -2.63181,-0.0209 -2.62917,-0.17304 -2.63181,-0.32702 -2.5691,-0.47308 -2.5789,-0.63103 -1.22899,-0.35878 -2.531,-0.85804 -2.42623,-0.983192 -2.38998,-1.134004 -1.14697,-0.606954 -1.15596,-0.654844 -2.23203,-1.397 -2.13889,-1.518179 -2.07407,-1.661848 -1.95289,-1.760009 -0.92498,-0.909108 -1.81716,-1.948921 -0.837935,-0.986102 -1.70604,-2.065867 -1.84097,-1.975114 -0.96996,-0.951971 -1.95606,-1.75895 -0.063,-0.05292 -2.061111,-1.64412 -1.1348,-0.824971 -2.21006,-1.462882 -2.35691,-1.36816 -1.21311,-0.631825 -2.38602,-1.116012 -0.0669,-0.02911 -2.47094,-0.980016 -1.32715,-0.459052 -2.52703,-0.751946 -2.63102,-0.619125 -2.67282,-0.462756 -2.66118,-0.300038 -2.7178,-0.14605 -1.51712,0.02408 -2.921,0.123825 -2.67388,0.189177 -1.22608,0.04895 -2.4511,0.0069 -2.42491,-0.114829 -2.43707,-0.236008 -1.20994,-0.164042 -2.42412,-0.420158 -1.13294,-0.239977 z"
       stroke="#000000"
       stroke-width="0.264583"
       fill="none"
       id="path1051"
       style="display:inline;opacity:1;stroke:#ff00ff;stroke-width:0.1;stroke-miterlimit:4;stroke-dasharray:none;stroke-opacity:1" />
  </g>
</svg>
