<?xml version="1.0" encoding="UTF-8" standalone="no"?>
<svg
   xmlns:dc="http://purl.org/dc/elements/1.1/"
   xmlns:cc="http://creativecommons.org/ns#"
   xmlns:rdf="http://www.w3.org/1999/02/22-rdf-syntax-ns#"
   xmlns:svg="http://www.w3.org/2000/svg"
   xmlns="http://www.w3.org/2000/svg"
   xmlns:sodipodi="http://sodipodi.sourceforge.net/DTD/sodipodi-0.dtd"
   xmlns:inkscape="http://www.inkscape.org/namespaces/inkscape"
   version="1.1"
   width="1094.93px"
   height="665.98px"
   id="svg11499"
   sodipodi:docname="key_engraving.svg"
   inkscape:version="1.0.1 (c497b03c, 2020-09-10)">
  <metadata
     id="metadata11505">
    <rdf:RDF>
      <cc:Work
         rdf:about="">
        <dc:format>image/svg+xml</dc:format>
        <dc:type
           rdf:resource="http://purl.org/dc/dcmitype/StillImage" />
      </cc:Work>
    </rdf:RDF>
  </metadata>
  <defs
     id="defs11503" />
  <sodipodi:namedview
     pagecolor="#ffffff"
     bordercolor="#666666"
     borderopacity="1"
     objecttolerance="10"
     gridtolerance="10"
     guidetolerance="10"
     inkscape:pageopacity="0"
     inkscape:pageshadow="2"
     inkscape:window-width="1440"
     inkscape:window-height="900"
     id="namedview11501"
     showgrid="false"
     inkscape:zoom="0.52855305"
     inkscape:cx="818.75762"
     inkscape:cy="157.94956"
     inkscape:window-x="0"
     inkscape:window-y="0"
     inkscape:window-maximized="0"
     inkscape:current-layer="svg11499" />
  <path
     d="M882.425 150.169 L882.425 183.996 L848.598 183.996 L848.598 150.169 L882.425 150.169 Z "
     stroke="black"
     stroke-width="1"
     fill="none"
     id="path11405" />
  <path
     d="M995.811 150.169 L995.811 183.996 L961.984 183.996 L961.984 150.169 L995.811 150.169 Z "
     stroke="black"
     stroke-width="1"
     fill="none"
     id="path11419" />
  <path
     d="M939.118 150.169 L939.118 183.996 L905.291 183.996 L905.291 150.169 L939.118 150.169 Z "
     stroke="black"
     stroke-width="1"
     fill="none"
     id="path11421" />
  <path
     d="M769.039 150.169 L769.039 183.996 L735.213 183.996 L735.213 150.169 L769.039 150.169 Z "
     stroke="black"
     stroke-width="1"
     fill="none"
     id="path11435" />
  <path
     d="M825.732 150.169 L825.732 183.996 L791.906 183.996 L791.906 150.169 L825.732 150.169 Z "
     stroke="black"
     stroke-width="1"
     fill="none"
     id="path11437" />
  <path
     d="M712.346 150.169 L712.346 183.996 L678.52 183.996 L678.52 150.169 L712.346 150.169 Z "
     stroke="black"
     stroke-width="1"
     fill="none"
     id="path11451" />
  <path
     d="M655.654 150.169 L655.654 183.996 L621.827 183.996 L621.827 150.169 L655.654 150.169 Z "
     stroke="black"
     stroke-width="1"
     fill="none"
     id="path11453" />
  <path
     d="M644.152 176.617 C643.676 176.617, 643.279 176.521, 642.962 176.328 C642.645 176.124, 642.39 175.864, 642.197 175.546 C642.004 175.218, 641.868 174.855, 641.789 174.458 C641.71 174.062, 641.67 173.665, 641.67 173.268 C641.67 172.849, 641.715 172.447, 641.806 172.061 C641.908 171.676, 642.061 171.336, 642.265 171.041 C642.48 170.747, 642.752 170.514, 643.081 170.344 C643.41 170.163, 643.806 170.072, 644.271 170.072 C644.724 170.072, 645.11 170.163, 645.427 170.344 C645.744 170.526, 645.999 170.769, 646.192 171.075 C646.396 171.37, 646.543 171.704, 646.634 172.078 C646.725 172.452, 646.77 172.832, 646.77 173.217 C646.77 173.625, 646.719 174.033, 646.617 174.441 C646.526 174.849, 646.379 175.218, 646.175 175.546 C645.971 175.864, 645.699 176.124, 645.359 176.328 C645.03 176.521, 644.628 176.617, 644.152 176.617 C644.152 176.617, 644.152 176.617, 644.152 176.617 Z "
     stroke="black"
     stroke-width="1"
     fill="none"
     id="path11461" />
  <path
     d="M648.198 177.042 C648.198 174.362, 648.198 171.682, 648.198 169.001 C647.745 169.001, 647.291 169.001, 646.838 169.001 C646.838 169.421, 646.838 169.84, 646.838 170.259 C646.832 170.259, 646.827 170.259, 646.821 170.259 C646.56 169.772, 646.198 169.409, 645.733 169.171 C645.268 168.922, 644.758 168.797, 644.203 168.797 C643.444 168.797, 642.803 168.945, 642.282 169.239 C641.761 169.523, 641.341 169.891, 641.024 170.344 C640.707 170.786, 640.48 171.285, 640.344 171.84 C640.208 172.384, 640.14 172.917, 640.14 173.438 C640.14 174.039, 640.219 174.611, 640.378 175.156 C640.548 175.688, 640.797 176.159, 641.126 176.567 C641.455 176.963, 641.863 177.281, 642.35 177.519 C642.837 177.757, 643.41 177.876, 644.067 177.876 C644.634 177.876, 645.166 177.751, 645.665 177.502 C646.175 177.241, 646.555 176.839, 646.804 176.295 C646.815 176.295, 646.827 176.295, 646.838 176.295 C646.838 176.487, 646.838 176.68, 646.838 176.873 C646.838 177.36, 646.787 177.808, 646.685 178.216 C646.594 178.624, 646.441 178.969, 646.226 179.253 C646.011 179.547, 645.739 179.774, 645.41 179.933 C645.081 180.103, 644.679 180.188, 644.203 180.188 C643.965 180.188, 643.716 180.159, 643.455 180.103 C643.194 180.057, 642.951 179.978, 642.724 179.865 C642.509 179.751, 642.322 179.604, 642.163 179.423 C642.016 179.241, 641.936 179.02, 641.925 178.76 C641.443 178.76, 640.962 178.76, 640.48 178.76 C640.503 179.236, 640.627 179.638, 640.854 179.967 C641.081 180.295, 641.364 180.562, 641.704 180.766 C642.055 180.97, 642.441 181.117, 642.86 181.208 C643.291 181.298, 643.71 181.344, 644.118 181.344 C645.523 181.344, 646.555 180.987, 647.212 180.273 C647.869 179.559, 648.198 178.482, 648.198 177.043 C648.198 177.043, 648.198 177.042, 648.198 177.042 Z "
     stroke="black"
     stroke-width="1"
     fill="none"
     id="path11463" />
  <path
     d="M703.46 173.319 C703.46 173.75, 703.415 174.169, 703.324 174.577 C703.233 174.985, 703.086 175.348, 702.882 175.665 C702.678 175.983, 702.406 176.238, 702.066 176.43 C701.737 176.623, 701.324 176.719, 700.825 176.719 C700.326 176.719, 699.901 176.629, 699.55 176.447 C699.199 176.255, 698.91 176.005, 698.683 175.699 C698.468 175.393, 698.309 175.042, 698.207 174.645 C698.105 174.237, 698.054 173.818, 698.054 173.387 C698.054 172.979, 698.099 172.577, 698.19 172.18 C698.292 171.784, 698.451 171.432, 698.666 171.126 C698.881 170.809, 699.159 170.554, 699.499 170.361 C699.839 170.169, 700.253 170.072, 700.74 170.072 C701.205 170.072, 701.607 170.163, 701.947 170.344 C702.298 170.526, 702.582 170.769, 702.797 171.075 C703.024 171.381, 703.188 171.733, 703.29 172.129 C703.403 172.515, 703.46 172.911, 703.46 173.319 Z "
     stroke="black"
     stroke-width="1"
     fill="none"
     id="path11465" />
  <path
     d="M696.66 165.652 C696.66 169.698, 696.66 173.744, 696.66 177.79 C697.142 177.79, 697.623 177.79, 698.105 177.79 C698.105 177.399, 698.105 177.008, 698.105 176.617 C698.116 176.617, 698.128 176.617, 698.139 176.617 C698.298 176.878, 698.49 177.099, 698.717 177.28 C698.955 177.45, 699.204 177.586, 699.465 177.688 C699.726 177.79, 699.986 177.864, 700.247 177.909 C700.519 177.955, 700.763 177.977, 700.978 177.977 C701.647 177.977, 702.23 177.858, 702.729 177.62 C703.239 177.382, 703.658 177.059, 703.987 176.651 C704.327 176.232, 704.576 175.745, 704.735 175.189 C704.905 174.634, 704.99 174.045, 704.99 173.421 C704.99 172.798, 704.905 172.209, 704.735 171.653 C704.565 171.098, 704.31 170.611, 703.97 170.191 C703.641 169.761, 703.222 169.421, 702.712 169.171 C702.213 168.922, 701.624 168.797, 700.944 168.797 C700.332 168.797, 699.771 168.911, 699.261 169.137 C698.751 169.353, 698.377 169.704, 698.139 170.191 C698.128 170.191, 698.116 170.191, 698.105 170.191 C698.105 168.678, 698.105 167.165, 698.105 165.652 C697.623 165.652, 697.142 165.652, 696.66 165.652 Z "
     stroke="black"
     stroke-width="1"
     fill="none"
     id="path11467" />
  <path
     d="M759.292 173.251 C759.111 173.387, 758.873 173.489, 758.578 173.557 C758.283 173.614, 757.972 173.665, 757.643 173.71 C757.326 173.744, 757.003 173.79, 756.674 173.846 C756.345 173.892, 756.051 173.971, 755.79 174.084 C755.529 174.198, 755.314 174.362, 755.144 174.577 C754.985 174.781, 754.906 175.065, 754.906 175.427 C754.906 175.665, 754.951 175.869, 755.042 176.039 C755.144 176.198, 755.269 176.328, 755.416 176.43 C755.575 176.532, 755.756 176.606, 755.96 176.651 C756.164 176.697, 756.379 176.719, 756.606 176.719 C757.082 176.719, 757.49 176.657, 757.83 176.532 C758.17 176.396, 758.448 176.232, 758.663 176.039 C758.878 175.835, 759.037 175.62, 759.139 175.393 C759.241 175.155, 759.292 174.934, 759.292 174.73 C759.292 174.237, 759.292 173.744, 759.292 173.251 Z "
     stroke="black"
     stroke-width="1"
     fill="none"
     id="path11469" />
  <path
     d="M761.638 177.756 C761.389 177.904, 761.043 177.977, 760.601 177.977 C760.227 177.977, 759.927 177.875, 759.7 177.671 C759.485 177.456, 759.377 177.11, 759.377 176.634 C758.98 177.11, 758.516 177.456, 757.983 177.671 C757.462 177.875, 756.895 177.977, 756.283 177.977 C755.886 177.977, 755.507 177.932, 755.144 177.841 C754.793 177.751, 754.487 177.609, 754.226 177.416 C753.965 177.224, 753.756 176.974, 753.597 176.668 C753.45 176.351, 753.376 175.971, 753.376 175.529 C753.376 175.031, 753.461 174.623, 753.631 174.305 C753.801 173.988, 754.022 173.733, 754.294 173.54 C754.577 173.336, 754.895 173.183, 755.246 173.081 C755.609 172.979, 755.977 172.894, 756.351 172.826 C756.748 172.747, 757.122 172.69, 757.473 172.656 C757.836 172.611, 758.153 172.554, 758.425 172.486 C758.697 172.407, 758.912 172.299, 759.071 172.163 C759.229 172.016, 759.309 171.806, 759.309 171.534 C759.309 171.217, 759.246 170.962, 759.122 170.769 C759.009 170.577, 758.856 170.429, 758.663 170.327 C758.482 170.226, 758.272 170.158, 758.034 170.123 C757.807 170.089, 757.581 170.072, 757.354 170.072 C756.742 170.072, 756.232 170.191, 755.824 170.429 C755.416 170.656, 755.195 171.092, 755.161 171.738 C754.679 171.738, 754.198 171.738, 753.716 171.738 C753.739 171.194, 753.852 170.735, 754.056 170.361 C754.26 169.987, 754.532 169.687, 754.872 169.46 C755.212 169.222, 755.597 169.052, 756.028 168.95 C756.47 168.848, 756.94 168.797, 757.439 168.797 C757.836 168.797, 758.227 168.826, 758.612 168.882 C759.009 168.939, 759.365 169.058, 759.683 169.239 C760 169.409, 760.255 169.653, 760.448 169.97 C760.641 170.288, 760.737 170.701, 760.737 171.211 C760.737 172.719, 760.737 174.226, 760.737 175.733 C760.737 176.073, 760.754 176.323, 760.788 176.481 C760.833 176.64, 760.969 176.719, 761.196 176.719 C761.321 176.719, 761.468 176.691, 761.638 176.634 C761.638 177.008, 761.638 177.382, 761.638 177.756 Z "
     stroke="black"
     stroke-width="1"
     fill="none"
     id="path11471" />
  <path
     d="M815.53 170.276 C815.53 172.781, 815.53 175.286, 815.53 177.79 C816.011 177.79, 816.493 177.79, 816.975 177.79 C816.975 175.286, 816.975 172.781, 816.975 170.276 C817.541 170.276, 818.108 170.276, 818.675 170.276 C818.675 169.851, 818.675 169.426, 818.675 169.001 C818.108 169.001, 817.541 169.001, 816.975 169.001 C816.975 168.593, 816.975 168.185, 816.975 167.777 C816.975 167.392, 817.071 167.131, 817.264 166.995 C817.456 166.859, 817.728 166.791, 818.08 166.791 C818.204 166.791, 818.34 166.803, 818.488 166.825 C818.635 166.837, 818.771 166.865, 818.896 166.91 C818.896 166.491, 818.896 166.072, 818.896 165.652 C818.76 165.607, 818.601 165.573, 818.42 165.55 C818.25 165.528, 818.097 165.516, 817.961 165.516 C817.167 165.516, 816.561 165.703, 816.142 166.077 C815.734 166.44, 815.53 166.978, 815.53 167.692 C815.53 168.129, 815.53 168.565, 815.53 169.001 C815.037 169.001, 814.544 169.001, 814.051 169.001 C814.051 169.426, 814.051 169.851, 814.051 170.276 C814.544 170.276, 815.037 170.276, 815.53 170.276 Z "
     stroke="black"
     stroke-width="1"
     fill="none"
     id="path11473" />
  <path
     d="M875.012 177.79 C875.012 173.744, 875.012 169.698, 875.012 165.652 C874.53 165.652, 874.048 165.652, 873.567 165.652 C873.567 167.16, 873.567 168.667, 873.567 170.174 C873.555 170.174, 873.544 170.174, 873.533 170.174 C873.374 169.914, 873.176 169.698, 872.938 169.528 C872.711 169.347, 872.467 169.205, 872.207 169.103 C871.946 168.99, 871.685 168.911, 871.425 168.865 C871.164 168.82, 870.92 168.797, 870.694 168.797 C870.025 168.797, 869.436 168.922, 868.926 169.171 C868.427 169.409, 868.008 169.738, 867.668 170.157 C867.339 170.565, 867.09 171.047, 866.92 171.602 C866.761 172.158, 866.682 172.747, 866.682 173.37 C866.682 173.994, 866.767 174.583, 866.937 175.138 C867.107 175.694, 867.356 176.181, 867.685 176.6 C868.025 177.02, 868.444 177.354, 868.943 177.603 C869.453 177.853, 870.048 177.977, 870.728 177.977 C871.34 177.977, 871.901 177.87, 872.411 177.654 C872.921 177.439, 873.295 177.088, 873.533 176.6 C873.544 176.6, 873.555 176.6, 873.567 176.6 C873.567 176.997, 873.567 177.394, 873.567 177.79 C874.048 177.79, 874.53 177.79, 875.012 177.79 Z "
     stroke="black"
     stroke-width="1"
     fill="none"
     id="path11475" />
  <path
     d="M868.212 173.472 C868.212 173.042, 868.257 172.622, 868.348 172.214 C868.438 171.806, 868.586 171.444, 868.79 171.126 C868.994 170.809, 869.266 170.554, 869.606 170.361 C869.946 170.169, 870.359 170.072, 870.847 170.072 C871.345 170.072, 871.77 170.169, 872.122 170.361 C872.473 170.543, 872.756 170.786, 872.972 171.092 C873.198 171.398, 873.363 171.755, 873.465 172.163 C873.567 172.56, 873.618 172.974, 873.618 173.404 C873.618 173.812, 873.567 174.215, 873.465 174.611 C873.374 175.008, 873.221 175.365, 873.006 175.682 C872.79 175.988, 872.513 176.238, 872.173 176.43 C871.833 176.623, 871.419 176.719, 870.932 176.719 C870.467 176.719, 870.059 176.629, 869.708 176.447 C869.368 176.266, 869.084 176.022, 868.858 175.716 C868.642 175.41, 868.478 175.065, 868.365 174.679 C868.263 174.283, 868.212 173.88, 868.212 173.472 C868.212 173.472, 868.212 173.472, 868.212 173.472 Z "
     stroke="black"
     stroke-width="1"
     fill="none"
     id="path11477" />
  <path
     d="M931.518 175.002 C931.042 175.002, 930.566 175.002, 930.09 175.002 C929.965 175.58, 929.704 176.011, 929.308 176.294 C928.922 176.578, 928.424 176.719, 927.812 176.719 C927.336 176.719, 926.922 176.64, 926.571 176.481 C926.219 176.323, 925.93 176.113, 925.704 175.852 C925.477 175.58, 925.313 175.274, 925.211 174.934 C925.109 174.583, 925.063 174.215, 925.075 173.829 C927.268 173.829, 929.461 173.829, 931.654 173.829 C931.676 173.297, 931.625 172.736, 931.501 172.146 C931.387 171.557, 931.172 171.013, 930.855 170.514 C930.549 170.016, 930.135 169.608, 929.614 169.29 C929.104 168.962, 928.458 168.797, 927.676 168.797 C927.075 168.797, 926.52 168.911, 926.01 169.137 C925.511 169.364, 925.075 169.681, 924.701 170.089 C924.338 170.497, 924.055 170.979, 923.851 171.534 C923.647 172.09, 923.545 172.702, 923.545 173.37 C923.567 174.039, 923.664 174.657, 923.834 175.223 C924.015 175.79, 924.281 176.277, 924.633 176.685 C924.984 177.093, 925.415 177.411, 925.925 177.637 C926.446 177.864, 927.058 177.977, 927.761 177.977 C928.758 177.977, 929.585 177.728, 930.243 177.229 C930.9 176.731, 931.325 175.988, 931.518 175.002 C931.518 175.002, 931.518 175.002, 931.518 175.002 Z "
     stroke="black"
     stroke-width="1"
     fill="none"
     id="path11479" />
  <path
     d="M930.124 172.554 C928.441 172.554, 926.758 172.554, 925.075 172.554 C925.097 172.214, 925.171 171.897, 925.296 171.602 C925.42 171.296, 925.59 171.03, 925.806 170.803 C926.021 170.577, 926.276 170.401, 926.571 170.276 C926.877 170.14, 927.217 170.072, 927.591 170.072 C927.953 170.072, 928.282 170.14, 928.577 170.276 C928.883 170.401, 929.143 170.577, 929.359 170.803 C929.585 171.019, 929.761 171.279, 929.886 171.585 C930.022 171.891, 930.101 172.214, 930.124 172.554 C930.124 172.554, 930.124 172.554, 930.124 172.554 Z "
     stroke="black"
     stroke-width="1"
     fill="none"
     id="path11481" />
  <path
     d="M986.79 171.823 C987.289 171.823, 987.788 171.823, 988.286 171.823 C988.23 171.302, 988.094 170.854, 987.879 170.48 C987.663 170.095, 987.385 169.778, 987.045 169.528 C986.717 169.279, 986.331 169.098, 985.889 168.984 C985.459 168.86, 984.994 168.797, 984.495 168.797 C983.804 168.797, 983.198 168.922, 982.676 169.171 C982.155 169.409, 981.719 169.744, 981.367 170.174 C981.027 170.594, 980.772 171.092, 980.602 171.67 C980.432 172.237, 980.347 172.849, 980.347 173.506 C980.347 174.164, 980.432 174.77, 980.602 175.325 C980.784 175.869, 981.044 176.34, 981.384 176.736 C981.736 177.133, 982.166 177.439, 982.676 177.654 C983.198 177.87, 983.793 177.977, 984.461 177.977 C985.583 177.977, 986.467 177.683, 987.113 177.093 C987.771 176.504, 988.179 175.665, 988.337 174.577 C987.844 174.577, 987.351 174.577, 986.858 174.577 C986.768 175.257, 986.518 175.784, 986.11 176.158 C985.714 176.532, 985.158 176.719, 984.445 176.719 C983.991 176.719, 983.6 176.629, 983.271 176.447 C982.943 176.266, 982.677 176.028, 982.472 175.733 C982.268 175.427, 982.116 175.082, 982.013 174.696 C981.923 174.311, 981.877 173.914, 981.877 173.506 C981.877 173.064, 981.923 172.639, 982.013 172.231 C982.104 171.812, 982.251 171.444, 982.455 171.126 C982.671 170.809, 982.954 170.554, 983.305 170.361 C983.657 170.169, 984.093 170.072, 984.614 170.072 C985.226 170.072, 985.714 170.225, 986.076 170.531 C986.439 170.837, 986.677 171.268, 986.79 171.823 C986.79 171.823, 986.79 171.823, 986.79 171.823 Z "
     stroke="black"
     stroke-width="1"
     fill="none"
     id="path11483" />
  <path
     d="M656.795 189.552 C656.795 189.552, 657.857 189.223, 657.857 189.223 C657.857 189.223, 658.821 188.698, 658.821 188.698 C658.821 188.698, 659.66 188.006, 659.66 188.006 C659.66 188.006, 660.351 187.167, 660.351 187.167 C660.351 187.167, 660.877 186.203, 660.877 186.203 C660.877 186.203, 661.206 185.141, 661.206 185.141 C661.206 185.141, 661.323 183.996, 661.323 183.996 C661.323 183.996, 661.206 182.855, 661.206 182.855 C661.206 182.855, 660.877 181.793, 660.877 181.793 C660.877 181.793, 660.351 180.829, 660.351 180.829 C660.351 180.829, 659.66 179.99, 659.66 179.99 C659.66 179.99, 658.821 179.298, 658.821 179.298 C658.821 179.298, 657.857 178.776, 657.857 178.776 C657.857 178.776, 656.795 178.444, 656.795 178.444 C656.795 178.444, 655.748 178.338, 655.748 178.338 C655.748 178.338, 655.748 155.831, 655.748 155.831 C655.748 155.831, 656.795 155.725, 656.795 155.725 C656.795 155.725, 657.857 155.4, 657.857 155.4 C657.857 155.4, 658.821 154.871, 658.821 154.871 C658.821 154.871, 659.66 154.179, 659.66 154.179 C659.66 154.179, 660.351 153.34, 660.351 153.34 C660.351 153.34, 660.877 152.376, 660.877 152.376 C660.877 152.376, 661.206 151.314, 661.206 151.314 C661.206 151.314, 661.323 150.169, 661.323 150.169 C661.323 150.169, 661.206 149.028, 661.206 149.028 C661.206 149.028, 660.877 147.966, 660.877 147.966 C660.877 147.966, 660.351 147.002, 660.351 147.002 C660.351 147.002, 659.66 146.163, 659.66 146.163 C659.66 146.163, 658.821 145.471, 658.821 145.471 C658.821 145.471, 657.857 144.946, 657.857 144.946 C657.857 144.946, 656.795 144.617, 656.795 144.617 C656.795 144.617, 655.654 144.5, 655.654 144.5 C655.654 144.5, 654.508 144.617, 654.508 144.617 C654.508 144.617, 653.446 144.946, 653.446 144.946 C653.446 144.946, 652.483 145.471, 652.483 145.471 C652.483 145.471, 651.643 146.163, 651.643 146.163 C651.643 146.163, 650.952 147.002, 650.952 147.002 C650.952 147.002, 650.426 147.966, 650.426 147.966 C650.426 147.966, 650.098 149.028, 650.098 149.028 C650.098 149.028, 649.992 150.075, 649.992 150.075 C649.992 150.075, 627.485 150.075, 627.485 150.075 C627.485 150.075, 627.379 149.028, 627.379 149.028 C627.379 149.028, 627.05 147.966, 627.05 147.966 C627.05 147.966, 626.525 147.002, 626.525 147.002 C626.525 147.002, 625.833 146.163, 625.833 146.163 C625.833 146.163, 624.994 145.471, 624.994 145.471 C624.994 145.471, 624.03 144.946, 624.03 144.946 C624.03 144.946, 622.968 144.617, 622.968 144.617 C622.968 144.617, 621.827 144.5, 621.827 144.5 C621.827 144.5, 620.682 144.617, 620.682 144.617 C620.682 144.617, 619.62 144.946, 619.62 144.946 C619.62 144.946, 618.656 145.471, 618.656 145.471 C618.656 145.471, 617.817 146.163, 617.817 146.163 C617.817 146.163, 617.125 147.002, 617.125 147.002 C617.125 147.002, 616.6 147.966, 616.6 147.966 C616.6 147.966, 616.271 149.028, 616.271 149.028 C616.271 149.028, 616.157 150.169, 616.157 150.169 C616.157 150.169, 616.271 151.314, 616.271 151.314 C616.271 151.314, 616.6 152.376, 616.6 152.376 C616.6 152.376, 617.125 153.34, 617.125 153.34 C617.125 153.34, 617.817 154.179, 617.817 154.179 C617.817 154.179, 618.656 154.871, 618.656 154.871 C618.656 154.871, 619.62 155.4, 619.62 155.4 C619.62 155.4, 620.682 155.725, 620.682 155.725 C620.682 155.725, 621.732 155.831, 621.732 155.831 C621.732 155.831, 621.732 178.338, 621.732 178.338 C621.732 178.338, 620.682 178.444, 620.682 178.444 C620.682 178.444, 619.62 178.776, 619.62 178.776 C619.62 178.776, 618.656 179.298, 618.656 179.298 C618.656 179.298, 617.817 179.99, 617.817 179.99 C617.817 179.99, 617.125 180.829, 617.125 180.829 C617.125 180.829, 616.6 181.793, 616.6 181.793 C616.6 181.793, 616.271 182.855, 616.271 182.855 C616.271 182.855, 616.157 183.996, 616.157 183.996 C616.157 183.996, 616.271 185.141, 616.271 185.141 C616.271 185.141, 616.6 186.203, 616.6 186.203 C616.6 186.203, 617.125 187.167, 617.125 187.167 C617.125 187.167, 617.817 188.006, 617.817 188.006 C617.817 188.006, 618.656 188.698, 618.656 188.698 C618.656 188.698, 619.62 189.223, 619.62 189.223 C619.62 189.223, 620.682 189.552, 620.682 189.552 C620.682 189.552, 621.827 189.665, 621.827 189.665 C621.827 189.665, 622.968 189.552, 622.968 189.552 C622.968 189.552, 624.03 189.223, 624.03 189.223 C624.03 189.223, 624.994 188.698, 624.994 188.698 C624.994 188.698, 625.833 188.006, 625.833 188.006 C625.833 188.006, 626.525 187.167, 626.525 187.167 C626.525 187.167, 627.05 186.203, 627.05 186.203 C627.05 186.203, 627.379 185.141, 627.379 185.141 C627.379 185.141, 627.485 184.09, 627.485 184.09 C627.485 184.09, 649.992 184.09, 649.992 184.09 C649.992 184.09, 650.098 185.141, 650.098 185.141 C650.098 185.141, 650.426 186.203, 650.426 186.203 C650.426 186.203, 650.952 187.167, 650.952 187.167 C650.952 187.167, 651.643 188.006, 651.643 188.006 C651.643 188.006, 652.483 188.698, 652.483 188.698 C652.483 188.698, 653.446 189.223, 653.446 189.223 C653.446 189.223, 654.508 189.552, 654.508 189.552 C654.508 189.552, 655.654 189.665, 655.654 189.665 C655.654 189.665, 656.795 189.552, 656.795 189.552 Z "
     stroke="black"
     stroke-width="1"
     fill="none"
     id="path11485" />
  <path
     d="M713.488 189.552 C713.488 189.552, 714.55 189.223, 714.55 189.223 C714.55 189.223, 715.514 188.698, 715.514 188.698 C715.514 188.698, 716.353 188.006, 716.353 188.006 C716.353 188.006, 717.044 187.167, 717.044 187.167 C717.044 187.167, 717.57 186.203, 717.57 186.203 C717.57 186.203, 717.899 185.141, 717.899 185.141 C717.899 185.141, 718.016 183.996, 718.016 183.996 C718.016 183.996, 717.899 182.855, 717.899 182.855 C717.899 182.855, 717.57 181.793, 717.57 181.793 C717.57 181.793, 717.044 180.829, 717.044 180.829 C717.044 180.829, 716.353 179.99, 716.353 179.99 C716.353 179.99, 715.514 179.298, 715.514 179.298 C715.514 179.298, 714.55 178.776, 714.55 178.776 C714.55 178.776, 713.488 178.444, 713.488 178.444 C713.488 178.444, 712.441 178.338, 712.441 178.338 C712.441 178.338, 712.441 155.831, 712.441 155.831 C712.441 155.831, 713.488 155.725, 713.488 155.725 C713.488 155.725, 714.55 155.4, 714.55 155.4 C714.55 155.4, 715.514 154.871, 715.514 154.871 C715.514 154.871, 716.353 154.179, 716.353 154.179 C716.353 154.179, 717.044 153.34, 717.044 153.34 C717.044 153.34, 717.57 152.376, 717.57 152.376 C717.57 152.376, 717.899 151.314, 717.899 151.314 C717.899 151.314, 718.016 150.169, 718.016 150.169 C718.016 150.169, 717.899 149.028, 717.899 149.028 C717.899 149.028, 717.57 147.966, 717.57 147.966 C717.57 147.966, 717.044 147.002, 717.044 147.002 C717.044 147.002, 716.353 146.163, 716.353 146.163 C716.353 146.163, 715.514 145.471, 715.514 145.471 C715.514 145.471, 714.55 144.946, 714.55 144.946 C714.55 144.946, 713.488 144.617, 713.488 144.617 C713.488 144.617, 712.346 144.5, 712.346 144.5 C712.346 144.5, 711.201 144.617, 711.201 144.617 C711.201 144.617, 710.139 144.946, 710.139 144.946 C710.139 144.946, 709.175 145.471, 709.175 145.471 C709.175 145.471, 708.336 146.163, 708.336 146.163 C708.336 146.163, 707.645 147.002, 707.645 147.002 C707.645 147.002, 707.119 147.966, 707.119 147.966 C707.119 147.966, 706.791 149.028, 706.791 149.028 C706.791 149.028, 706.685 150.075, 706.685 150.075 C706.685 150.075, 684.178 150.075, 684.178 150.075 C684.178 150.075, 684.072 149.028, 684.072 149.028 C684.072 149.028, 683.743 147.966, 683.743 147.966 C683.743 147.966, 683.218 147.002, 683.218 147.002 C683.218 147.002, 682.526 146.163, 682.526 146.163 C682.526 146.163, 681.687 145.471, 681.687 145.471 C681.687 145.471, 680.723 144.946, 680.723 144.946 C680.723 144.946, 679.661 144.617, 679.661 144.617 C679.661 144.617, 678.52 144.5, 678.52 144.5 C678.52 144.5, 677.374 144.617, 677.374 144.617 C677.374 144.617, 676.312 144.946, 676.312 144.946 C676.312 144.946, 675.349 145.471, 675.349 145.471 C675.349 145.471, 674.51 146.163, 674.51 146.163 C674.51 146.163, 673.818 147.002, 673.818 147.002 C673.818 147.002, 673.293 147.966, 673.293 147.966 C673.293 147.966, 672.964 149.028, 672.964 149.028 C672.964 149.028, 672.85 150.169, 672.85 150.169 C672.85 150.169, 672.964 151.314, 672.964 151.314 C672.964 151.314, 673.293 152.376, 673.293 152.376 C673.293 152.376, 673.818 153.34, 673.818 153.34 C673.818 153.34, 674.51 154.179, 674.51 154.179 C674.51 154.179, 675.349 154.871, 675.349 154.871 C675.349 154.871, 676.312 155.4, 676.312 155.4 C676.312 155.4, 677.374 155.725, 677.374 155.725 C677.374 155.725, 678.425 155.831, 678.425 155.831 C678.425 155.831, 678.425 178.338, 678.425 178.338 C678.425 178.338, 677.374 178.444, 677.374 178.444 C677.374 178.444, 676.312 178.776, 676.312 178.776 C676.312 178.776, 675.349 179.298, 675.349 179.298 C675.349 179.298, 674.51 179.99, 674.51 179.99 C674.51 179.99, 673.818 180.829, 673.818 180.829 C673.818 180.829, 673.293 181.793, 673.293 181.793 C673.293 181.793, 672.964 182.855, 672.964 182.855 C672.964 182.855, 672.85 183.996, 672.85 183.996 C672.85 183.996, 672.964 185.141, 672.964 185.141 C672.964 185.141, 673.293 186.203, 673.293 186.203 C673.293 186.203, 673.818 187.167, 673.818 187.167 C673.818 187.167, 674.51 188.006, 674.51 188.006 C674.51 188.006, 675.349 188.698, 675.349 188.698 C675.349 188.698, 676.312 189.223, 676.312 189.223 C676.312 189.223, 677.374 189.552, 677.374 189.552 C677.374 189.552, 678.52 189.665, 678.52 189.665 C678.52 189.665, 679.661 189.552, 679.661 189.552 C679.661 189.552, 680.723 189.223, 680.723 189.223 C680.723 189.223, 681.687 188.698, 681.687 188.698 C681.687 188.698, 682.526 188.006, 682.526 188.006 C682.526 188.006, 683.218 187.167, 683.218 187.167 C683.218 187.167, 683.743 186.203, 683.743 186.203 C683.743 186.203, 684.072 185.141, 684.072 185.141 C684.072 185.141, 684.178 184.09, 684.178 184.09 C684.178 184.09, 706.685 184.09, 706.685 184.09 C706.685 184.09, 706.791 185.141, 706.791 185.141 C706.791 185.141, 707.119 186.203, 707.119 186.203 C707.119 186.203, 707.645 187.167, 707.645 187.167 C707.645 187.167, 708.336 188.006, 708.336 188.006 C708.336 188.006, 709.175 188.698, 709.175 188.698 C709.175 188.698, 710.139 189.223, 710.139 189.223 C710.139 189.223, 711.201 189.552, 711.201 189.552 C711.201 189.552, 712.346 189.665, 712.346 189.665 C712.346 189.665, 713.488 189.552, 713.488 189.552 Z "
     stroke="black"
     stroke-width="1"
     fill="none"
     id="path11487" />
  <path
     d="M770.181 189.552 C770.181 189.552, 771.243 189.223, 771.243 189.223 C771.243 189.223, 772.207 188.698, 772.207 188.698 C772.207 188.698, 773.046 188.006, 773.046 188.006 C773.046 188.006, 773.737 187.167, 773.737 187.167 C773.737 187.167, 774.263 186.203, 774.263 186.203 C774.263 186.203, 774.591 185.141, 774.591 185.141 C774.591 185.141, 774.709 183.996, 774.709 183.996 C774.709 183.996, 774.591 182.855, 774.591 182.855 C774.591 182.855, 774.263 181.793, 774.263 181.793 C774.263 181.793, 773.737 180.829, 773.737 180.829 C773.737 180.829, 773.046 179.99, 773.046 179.99 C773.046 179.99, 772.207 179.298, 772.207 179.298 C772.207 179.298, 771.243 178.776, 771.243 178.776 C771.243 178.776, 770.181 178.444, 770.181 178.444 C770.181 178.444, 769.134 178.338, 769.134 178.338 C769.134 178.338, 769.134 155.831, 769.134 155.831 C769.134 155.831, 770.181 155.725, 770.181 155.725 C770.181 155.725, 771.243 155.4, 771.243 155.4 C771.243 155.4, 772.207 154.871, 772.207 154.871 C772.207 154.871, 773.046 154.179, 773.046 154.179 C773.046 154.179, 773.737 153.34, 773.737 153.34 C773.737 153.34, 774.263 152.376, 774.263 152.376 C774.263 152.376, 774.591 151.314, 774.591 151.314 C774.591 151.314, 774.709 150.169, 774.709 150.169 C774.709 150.169, 774.591 149.028, 774.591 149.028 C774.591 149.028, 774.263 147.966, 774.263 147.966 C774.263 147.966, 773.737 147.002, 773.737 147.002 C773.737 147.002, 773.046 146.163, 773.046 146.163 C773.046 146.163, 772.207 145.471, 772.207 145.471 C772.207 145.471, 771.243 144.946, 771.243 144.946 C771.243 144.946, 770.181 144.617, 770.181 144.617 C770.181 144.617, 769.039 144.5, 769.039 144.5 C769.039 144.5, 767.894 144.617, 767.894 144.617 C767.894 144.617, 766.832 144.946, 766.832 144.946 C766.832 144.946, 765.868 145.471, 765.868 145.471 C765.868 145.471, 765.029 146.163, 765.029 146.163 C765.029 146.163, 764.338 147.002, 764.338 147.002 C764.338 147.002, 763.809 147.966, 763.809 147.966 C763.809 147.966, 763.483 149.028, 763.483 149.028 C763.483 149.028, 763.378 150.075, 763.378 150.075 C763.378 150.075, 740.871 150.075, 740.871 150.075 C740.871 150.075, 740.765 149.028, 740.765 149.028 C740.765 149.028, 740.436 147.966, 740.436 147.966 C740.436 147.966, 739.911 147.002, 739.911 147.002 C739.911 147.002, 739.219 146.163, 739.219 146.163 C739.219 146.163, 738.38 145.471, 738.38 145.471 C738.38 145.471, 737.416 144.946, 737.416 144.946 C737.416 144.946, 736.354 144.617, 736.354 144.617 C736.354 144.617, 735.213 144.5, 735.213 144.5 C735.213 144.5, 734.067 144.617, 734.067 144.617 C734.067 144.617, 733.005 144.946, 733.005 144.946 C733.005 144.946, 732.042 145.471, 732.042 145.471 C732.042 145.471, 731.203 146.163, 731.203 146.163 C731.203 146.163, 730.511 147.002, 730.511 147.002 C730.511 147.002, 729.986 147.966, 729.986 147.966 C729.986 147.966, 729.657 149.028, 729.657 149.028 C729.657 149.028, 729.543 150.169, 729.543 150.169 C729.543 150.169, 729.657 151.314, 729.657 151.314 C729.657 151.314, 729.986 152.376, 729.986 152.376 C729.986 152.376, 730.511 153.34, 730.511 153.34 C730.511 153.34, 731.203 154.179, 731.203 154.179 C731.203 154.179, 732.042 154.871, 732.042 154.871 C732.042 154.871, 733.005 155.4, 733.005 155.4 C733.005 155.4, 734.067 155.725, 734.067 155.725 C734.067 155.725, 735.118 155.831, 735.118 155.831 C735.118 155.831, 735.118 178.338, 735.118 178.338 C735.118 178.338, 734.067 178.444, 734.067 178.444 C734.067 178.444, 733.005 178.776, 733.005 178.776 C733.005 178.776, 732.042 179.298, 732.042 179.298 C732.042 179.298, 731.203 179.99, 731.203 179.99 C731.203 179.99, 730.511 180.829, 730.511 180.829 C730.511 180.829, 729.986 181.793, 729.986 181.793 C729.986 181.793, 729.657 182.855, 729.657 182.855 C729.657 182.855, 729.543 183.996, 729.543 183.996 C729.543 183.996, 729.657 185.141, 729.657 185.141 C729.657 185.141, 729.986 186.203, 729.986 186.203 C729.986 186.203, 730.511 187.167, 730.511 187.167 C730.511 187.167, 731.203 188.006, 731.203 188.006 C731.203 188.006, 732.042 188.698, 732.042 188.698 C732.042 188.698, 733.005 189.223, 733.005 189.223 C733.005 189.223, 734.067 189.552, 734.067 189.552 C734.067 189.552, 735.213 189.665, 735.213 189.665 C735.213 189.665, 736.354 189.552, 736.354 189.552 C736.354 189.552, 737.416 189.223, 737.416 189.223 C737.416 189.223, 738.38 188.698, 738.38 188.698 C738.38 188.698, 739.219 188.006, 739.219 188.006 C739.219 188.006, 739.911 187.167, 739.911 187.167 C739.911 187.167, 740.436 186.203, 740.436 186.203 C740.436 186.203, 740.765 185.141, 740.765 185.141 C740.765 185.141, 740.871 184.09, 740.871 184.09 C740.871 184.09, 763.378 184.09, 763.378 184.09 C763.378 184.09, 763.483 185.141, 763.483 185.141 C763.483 185.141, 763.809 186.203, 763.809 186.203 C763.809 186.203, 764.338 187.167, 764.338 187.167 C764.338 187.167, 765.029 188.006, 765.029 188.006 C765.029 188.006, 765.868 188.698, 765.868 188.698 C765.868 188.698, 766.832 189.223, 766.832 189.223 C766.832 189.223, 767.894 189.552, 767.894 189.552 C767.894 189.552, 769.039 189.665, 769.039 189.665 C769.039 189.665, 770.181 189.552, 770.181 189.552 Z "
     stroke="black"
     stroke-width="1"
     fill="none"
     id="path11489" />
  <path
     d="M826.874 189.552 C826.874 189.552, 827.936 189.223, 827.936 189.223 C827.936 189.223, 828.9 188.698, 828.9 188.698 C828.9 188.698, 829.739 188.006, 829.739 188.006 C829.739 188.006, 830.43 187.167, 830.43 187.167 C830.43 187.167, 830.956 186.203, 830.956 186.203 C830.956 186.203, 831.284 185.141, 831.284 185.141 C831.284 185.141, 831.402 183.996, 831.402 183.996 C831.402 183.996, 831.284 182.855, 831.284 182.855 C831.284 182.855, 830.956 181.793, 830.956 181.793 C830.956 181.793, 830.43 180.829, 830.43 180.829 C830.43 180.829, 829.739 179.99, 829.739 179.99 C829.739 179.99, 828.9 179.298, 828.9 179.298 C828.9 179.298, 827.936 178.776, 827.936 178.776 C827.936 178.776, 826.874 178.444, 826.874 178.444 C826.874 178.444, 825.827 178.338, 825.827 178.338 C825.827 178.338, 825.827 155.831, 825.827 155.831 C825.827 155.831, 826.874 155.725, 826.874 155.725 C826.874 155.725, 827.936 155.4, 827.936 155.4 C827.936 155.4, 828.9 154.871, 828.9 154.871 C828.9 154.871, 829.739 154.179, 829.739 154.179 C829.739 154.179, 830.43 153.34, 830.43 153.34 C830.43 153.34, 830.956 152.376, 830.956 152.376 C830.956 152.376, 831.284 151.314, 831.284 151.314 C831.284 151.314, 831.402 150.169, 831.402 150.169 C831.402 150.169, 831.284 149.028, 831.284 149.028 C831.284 149.028, 830.956 147.966, 830.956 147.966 C830.956 147.966, 830.43 147.002, 830.43 147.002 C830.43 147.002, 829.739 146.163, 829.739 146.163 C829.739 146.163, 828.9 145.471, 828.9 145.471 C828.9 145.471, 827.936 144.946, 827.936 144.946 C827.936 144.946, 826.874 144.617, 826.874 144.617 C826.874 144.617, 825.732 144.5, 825.732 144.5 C825.732 144.5, 824.587 144.617, 824.587 144.617 C824.587 144.617, 823.525 144.946, 823.525 144.946 C823.525 144.946, 822.561 145.471, 822.561 145.471 C822.561 145.471, 821.722 146.163, 821.722 146.163 C821.722 146.163, 821.031 147.002, 821.031 147.002 C821.031 147.002, 820.501 147.966, 820.501 147.966 C820.501 147.966, 820.176 149.028, 820.176 149.028 C820.176 149.028, 820.071 150.075, 820.071 150.075 C820.071 150.075, 797.563 150.075, 797.563 150.075 C797.563 150.075, 797.458 149.028, 797.458 149.028 C797.458 149.028, 797.129 147.966, 797.129 147.966 C797.129 147.966, 796.603 147.002, 796.603 147.002 C796.603 147.002, 795.912 146.163, 795.912 146.163 C795.912 146.163, 795.073 145.471, 795.073 145.471 C795.073 145.471, 794.109 144.946, 794.109 144.946 C794.109 144.946, 793.047 144.617, 793.047 144.617 C793.047 144.617, 791.906 144.5, 791.906 144.5 C791.906 144.5, 790.76 144.617, 790.76 144.617 C790.76 144.617, 789.698 144.946, 789.698 144.946 C789.698 144.946, 788.734 145.471, 788.734 145.471 C788.734 145.471, 787.895 146.163, 787.895 146.163 C787.895 146.163, 787.204 147.002, 787.204 147.002 C787.204 147.002, 786.678 147.966, 786.678 147.966 C786.678 147.966, 786.35 149.028, 786.35 149.028 C786.35 149.028, 786.236 150.169, 786.236 150.169 C786.236 150.169, 786.35 151.314, 786.35 151.314 C786.35 151.314, 786.678 152.376, 786.678 152.376 C786.678 152.376, 787.204 153.34, 787.204 153.34 C787.204 153.34, 787.895 154.179, 787.895 154.179 C787.895 154.179, 788.734 154.871, 788.734 154.871 C788.734 154.871, 789.698 155.4, 789.698 155.4 C789.698 155.4, 790.76 155.725, 790.76 155.725 C790.76 155.725, 791.811 155.831, 791.811 155.831 C791.811 155.831, 791.811 178.338, 791.811 178.338 C791.811 178.338, 790.76 178.444, 790.76 178.444 C790.76 178.444, 789.698 178.776, 789.698 178.776 C789.698 178.776, 788.734 179.298, 788.734 179.298 C788.734 179.298, 787.895 179.99, 787.895 179.99 C787.895 179.99, 787.204 180.829, 787.204 180.829 C787.204 180.829, 786.678 181.793, 786.678 181.793 C786.678 181.793, 786.35 182.855, 786.35 182.855 C786.35 182.855, 786.236 183.996, 786.236 183.996 C786.236 183.996, 786.35 185.141, 786.35 185.141 C786.35 185.141, 786.678 186.203, 786.678 186.203 C786.678 186.203, 787.204 187.167, 787.204 187.167 C787.204 187.167, 787.895 188.006, 787.895 188.006 C787.895 188.006, 788.734 188.698, 788.734 188.698 C788.734 188.698, 789.698 189.223, 789.698 189.223 C789.698 189.223, 790.76 189.552, 790.76 189.552 C790.76 189.552, 791.906 189.665, 791.906 189.665 C791.906 189.665, 793.047 189.552, 793.047 189.552 C793.047 189.552, 794.109 189.223, 794.109 189.223 C794.109 189.223, 795.073 188.698, 795.073 188.698 C795.073 188.698, 795.912 188.006, 795.912 188.006 C795.912 188.006, 796.603 187.167, 796.603 187.167 C796.603 187.167, 797.129 186.203, 797.129 186.203 C797.129 186.203, 797.458 185.141, 797.458 185.141 C797.458 185.141, 797.563 184.09, 797.563 184.09 C797.563 184.09, 820.071 184.09, 820.071 184.09 C820.071 184.09, 820.176 185.141, 820.176 185.141 C820.176 185.141, 820.501 186.203, 820.501 186.203 C820.501 186.203, 821.031 187.167, 821.031 187.167 C821.031 187.167, 821.722 188.006, 821.722 188.006 C821.722 188.006, 822.561 188.698, 822.561 188.698 C822.561 188.698, 823.525 189.223, 823.525 189.223 C823.525 189.223, 824.587 189.552, 824.587 189.552 C824.587 189.552, 825.732 189.665, 825.732 189.665 C825.732 189.665, 826.874 189.552, 826.874 189.552 Z "
     stroke="black"
     stroke-width="1"
     fill="none"
     id="path11491" />
  <path
     d="M883.567 189.552 C883.567 189.552, 884.629 189.223, 884.629 189.223 C884.629 189.223, 885.592 188.698, 885.592 188.698 C885.592 188.698, 886.431 188.006, 886.431 188.006 C886.431 188.006, 887.123 187.167, 887.123 187.167 C887.123 187.167, 887.649 186.203, 887.649 186.203 C887.649 186.203, 887.977 185.141, 887.977 185.141 C887.977 185.141, 888.094 183.996, 888.094 183.996 C888.094 183.996, 887.977 182.855, 887.977 182.855 C887.977 182.855, 887.649 181.793, 887.649 181.793 C887.649 181.793, 887.123 180.829, 887.123 180.829 C887.123 180.829, 886.431 179.99, 886.431 179.99 C886.431 179.99, 885.592 179.298, 885.592 179.298 C885.592 179.298, 884.629 178.776, 884.629 178.776 C884.629 178.776, 883.567 178.444, 883.567 178.444 C883.567 178.444, 882.52 178.338, 882.52 178.338 C882.52 178.338, 882.52 155.831, 882.52 155.831 C882.52 155.831, 883.567 155.725, 883.567 155.725 C883.567 155.725, 884.629 155.4, 884.629 155.4 C884.629 155.4, 885.592 154.871, 885.592 154.871 C885.592 154.871, 886.431 154.179, 886.431 154.179 C886.431 154.179, 887.123 153.34, 887.123 153.34 C887.123 153.34, 887.649 152.376, 887.649 152.376 C887.649 152.376, 887.977 151.314, 887.977 151.314 C887.977 151.314, 888.094 150.169, 888.094 150.169 C888.094 150.169, 887.977 149.028, 887.977 149.028 C887.977 149.028, 887.649 147.966, 887.649 147.966 C887.649 147.966, 887.123 147.002, 887.123 147.002 C887.123 147.002, 886.431 146.163, 886.431 146.163 C886.431 146.163, 885.592 145.471, 885.592 145.471 C885.592 145.471, 884.629 144.946, 884.629 144.946 C884.629 144.946, 883.567 144.617, 883.567 144.617 C883.567 144.617, 882.425 144.5, 882.425 144.5 C882.425 144.5, 881.28 144.617, 881.28 144.617 C881.28 144.617, 880.218 144.946, 880.218 144.946 C880.218 144.946, 879.254 145.471, 879.254 145.471 C879.254 145.471, 878.415 146.163, 878.415 146.163 C878.415 146.163, 877.723 147.002, 877.723 147.002 C877.723 147.002, 877.194 147.966, 877.194 147.966 C877.194 147.966, 876.869 149.028, 876.869 149.028 C876.869 149.028, 876.763 150.075, 876.763 150.075 C876.763 150.075, 854.256 150.075, 854.256 150.075 C854.256 150.075, 854.151 149.028, 854.151 149.028 C854.151 149.028, 853.822 147.966, 853.822 147.966 C853.822 147.966, 853.296 147.002, 853.296 147.002 C853.296 147.002, 852.605 146.163, 852.605 146.163 C852.605 146.163, 851.766 145.471, 851.766 145.471 C851.766 145.471, 850.802 144.946, 850.802 144.946 C850.802 144.946, 849.74 144.617, 849.74 144.617 C849.74 144.617, 848.598 144.5, 848.598 144.5 C848.598 144.5, 847.453 144.617, 847.453 144.617 C847.453 144.617, 846.391 144.946, 846.391 144.946 C846.391 144.946, 845.427 145.471, 845.427 145.471 C845.427 145.471, 844.588 146.163, 844.588 146.163 C844.588 146.163, 843.897 147.002, 843.897 147.002 C843.897 147.002, 843.371 147.966, 843.371 147.966 C843.371 147.966, 843.043 149.028, 843.043 149.028 C843.043 149.028, 842.929 150.169, 842.929 150.169 C842.929 150.169, 843.043 151.314, 843.043 151.314 C843.043 151.314, 843.371 152.376, 843.371 152.376 C843.371 152.376, 843.897 153.34, 843.897 153.34 C843.897 153.34, 844.588 154.179, 844.588 154.179 C844.588 154.179, 845.427 154.871, 845.427 154.871 C845.427 154.871, 846.391 155.4, 846.391 155.4 C846.391 155.4, 847.453 155.725, 847.453 155.725 C847.453 155.725, 848.504 155.831, 848.504 155.831 C848.504 155.831, 848.504 178.338, 848.504 178.338 C848.504 178.338, 847.453 178.444, 847.453 178.444 C847.453 178.444, 846.391 178.776, 846.391 178.776 C846.391 178.776, 845.427 179.298, 845.427 179.298 C845.427 179.298, 844.588 179.99, 844.588 179.99 C844.588 179.99, 843.897 180.829, 843.897 180.829 C843.897 180.829, 843.371 181.793, 843.371 181.793 C843.371 181.793, 843.043 182.855, 843.043 182.855 C843.043 182.855, 842.929 183.996, 842.929 183.996 C842.929 183.996, 843.043 185.141, 843.043 185.141 C843.043 185.141, 843.371 186.203, 843.371 186.203 C843.371 186.203, 843.897 187.167, 843.897 187.167 C843.897 187.167, 844.588 188.006, 844.588 188.006 C844.588 188.006, 845.427 188.698, 845.427 188.698 C845.427 188.698, 846.391 189.223, 846.391 189.223 C846.391 189.223, 847.453 189.552, 847.453 189.552 C847.453 189.552, 848.598 189.665, 848.598 189.665 C848.598 189.665, 849.74 189.552, 849.74 189.552 C849.74 189.552, 850.802 189.223, 850.802 189.223 C850.802 189.223, 851.766 188.698, 851.766 188.698 C851.766 188.698, 852.605 188.006, 852.605 188.006 C852.605 188.006, 853.296 187.167, 853.296 187.167 C853.296 187.167, 853.822 186.203, 853.822 186.203 C853.822 186.203, 854.151 185.141, 854.151 185.141 C854.151 185.141, 854.256 184.09, 854.256 184.09 C854.256 184.09, 876.763 184.09, 876.763 184.09 C876.763 184.09, 876.869 185.141, 876.869 185.141 C876.869 185.141, 877.194 186.203, 877.194 186.203 C877.194 186.203, 877.723 187.167, 877.723 187.167 C877.723 187.167, 878.415 188.006, 878.415 188.006 C878.415 188.006, 879.254 188.698, 879.254 188.698 C879.254 188.698, 880.218 189.223, 880.218 189.223 C880.218 189.223, 881.28 189.552, 881.28 189.552 C881.28 189.552, 882.425 189.665, 882.425 189.665 C882.425 189.665, 883.567 189.552, 883.567 189.552 Z "
     stroke="black"
     stroke-width="1"
     fill="none"
     id="path11493" />
  <path
     d="M940.26 189.552 C940.26 189.552, 941.322 189.223, 941.322 189.223 C941.322 189.223, 942.285 188.698, 942.285 188.698 C942.285 188.698, 943.124 188.006, 943.124 188.006 C943.124 188.006, 943.816 187.167, 943.816 187.167 C943.816 187.167, 944.341 186.203, 944.341 186.203 C944.341 186.203, 944.67 185.141, 944.67 185.141 C944.67 185.141, 944.787 183.996, 944.787 183.996 C944.787 183.996, 944.67 182.855, 944.67 182.855 C944.67 182.855, 944.341 181.793, 944.341 181.793 C944.341 181.793, 943.816 180.829, 943.816 180.829 C943.816 180.829, 943.124 179.99, 943.124 179.99 C943.124 179.99, 942.285 179.298, 942.285 179.298 C942.285 179.298, 941.322 178.776, 941.322 178.776 C941.322 178.776, 940.26 178.444, 940.26 178.444 C940.26 178.444, 939.213 178.338, 939.213 178.338 C939.213 178.338, 939.213 155.831, 939.213 155.831 C939.213 155.831, 940.26 155.725, 940.26 155.725 C940.26 155.725, 941.322 155.4, 941.322 155.4 C941.322 155.4, 942.285 154.871, 942.285 154.871 C942.285 154.871, 943.124 154.179, 943.124 154.179 C943.124 154.179, 943.816 153.34, 943.816 153.34 C943.816 153.34, 944.341 152.376, 944.341 152.376 C944.341 152.376, 944.67 151.314, 944.67 151.314 C944.67 151.314, 944.787 150.169, 944.787 150.169 C944.787 150.169, 944.67 149.028, 944.67 149.028 C944.67 149.028, 944.341 147.966, 944.341 147.966 C944.341 147.966, 943.816 147.002, 943.816 147.002 C943.816 147.002, 943.124 146.163, 943.124 146.163 C943.124 146.163, 942.285 145.471, 942.285 145.471 C942.285 145.471, 941.322 144.946, 941.322 144.946 C941.322 144.946, 940.26 144.617, 940.26 144.617 C940.26 144.617, 939.118 144.5, 939.118 144.5 C939.118 144.5, 937.973 144.617, 937.973 144.617 C937.973 144.617, 936.911 144.946, 936.911 144.946 C936.911 144.946, 935.947 145.471, 935.947 145.471 C935.947 145.471, 935.108 146.163, 935.108 146.163 C935.108 146.163, 934.416 147.002, 934.416 147.002 C934.416 147.002, 933.887 147.966, 933.887 147.966 C933.887 147.966, 933.562 149.028, 933.562 149.028 C933.562 149.028, 933.456 150.075, 933.456 150.075 C933.456 150.075, 910.949 150.075, 910.949 150.075 C910.949 150.075, 910.843 149.028, 910.843 149.028 C910.843 149.028, 910.511 147.966, 910.511 147.966 C910.511 147.966, 909.989 147.002, 909.989 147.002 C909.989 147.002, 909.294 146.163, 909.294 146.163 C909.294 146.163, 908.459 145.471, 908.459 145.471 C908.459 145.471, 907.495 144.946, 907.495 144.946 C907.495 144.946, 906.433 144.617, 906.433 144.617 C906.433 144.617, 905.288 144.5, 905.288 144.5 C905.288 144.5, 904.142 144.617, 904.142 144.617 C904.142 144.617, 903.08 144.946, 903.08 144.946 C903.08 144.946, 902.117 145.471, 902.117 145.471 C902.117 145.471, 901.281 146.163, 901.281 146.163 C901.281 146.163, 900.59 147.002, 900.59 147.002 C900.59 147.002, 900.064 147.966, 900.064 147.966 C900.064 147.966, 899.735 149.028, 899.735 149.028 C899.735 149.028, 899.618 150.169, 899.618 150.169 C899.618 150.169, 899.735 151.314, 899.735 151.314 C899.735 151.314, 900.064 152.376, 900.064 152.376 C900.064 152.376, 900.59 153.34, 900.59 153.34 C900.59 153.34, 901.281 154.179, 901.281 154.179 C901.281 154.179, 902.117 154.871, 902.117 154.871 C902.117 154.871, 903.08 155.4, 903.08 155.4 C903.08 155.4, 904.142 155.725, 904.142 155.725 C904.142 155.725, 905.197 155.831, 905.197 155.831 C905.197 155.831, 905.197 178.334, 905.197 178.334 C905.197 178.334, 904.142 178.444, 904.142 178.444 C904.142 178.444, 903.08 178.776, 903.08 178.776 C903.08 178.776, 902.117 179.298, 902.117 179.298 C902.117 179.298, 901.281 179.99, 901.281 179.99 C901.281 179.99, 900.59 180.829, 900.59 180.829 C900.59 180.829, 900.064 181.793, 900.064 181.793 C900.064 181.793, 899.735 182.855, 899.735 182.855 C899.735 182.855, 899.618 183.996, 899.618 183.996 C899.618 183.996, 899.735 185.141, 899.735 185.141 C899.735 185.141, 900.064 186.203, 900.064 186.203 C900.064 186.203, 900.59 187.167, 900.59 187.167 C900.59 187.167, 901.281 188.006, 901.281 188.006 C901.281 188.006, 902.117 188.698, 902.117 188.698 C902.117 188.698, 903.08 189.223, 903.08 189.223 C903.08 189.223, 904.142 189.552, 904.142 189.552 C904.142 189.552, 905.288 189.665, 905.288 189.665 C905.288 189.665, 906.433 189.552, 906.433 189.552 C906.433 189.552, 907.495 189.223, 907.495 189.223 C907.495 189.223, 908.459 188.698, 908.459 188.698 C908.459 188.698, 909.294 188.006, 909.294 188.006 C909.294 188.006, 909.989 187.167, 909.989 187.167 C909.989 187.167, 910.511 186.203, 910.511 186.203 C910.511 186.203, 910.843 185.141, 910.843 185.141 C910.843 185.141, 910.949 184.09, 910.949 184.09 C910.949 184.09, 933.456 184.09, 933.456 184.09 C933.456 184.09, 933.562 185.141, 933.562 185.141 C933.562 185.141, 933.887 186.203, 933.887 186.203 C933.887 186.203, 934.416 187.167, 934.416 187.167 C934.416 187.167, 935.108 188.006, 935.108 188.006 C935.108 188.006, 935.947 188.698, 935.947 188.698 C935.947 188.698, 936.911 189.223, 936.911 189.223 C936.911 189.223, 937.973 189.552, 937.973 189.552 C937.973 189.552, 939.118 189.665, 939.118 189.665 C939.118 189.665, 940.26 189.552, 940.26 189.552 Z "
     stroke="black"
     stroke-width="1"
     fill="none"
     id="path11495" />
  <path
     d="M996.952 189.552 C996.952 189.552, 998.014 189.223, 998.014 189.223 C998.014 189.223, 998.978 188.698, 998.978 188.698 C998.978 188.698, 999.817 188.006, 999.817 188.006 C999.817 188.006, 1000.51 187.167, 1000.51 187.167 C1000.51 187.167, 1001.03 186.203, 1001.03 186.203 C1001.03 186.203, 1001.36 185.141, 1001.36 185.141 C1001.36 185.141, 1001.48 183.996, 1001.48 183.996 C1001.48 183.996, 1001.36 182.855, 1001.36 182.855 C1001.36 182.855, 1001.03 181.793, 1001.03 181.793 C1001.03 181.793, 1000.51 180.829, 1000.51 180.829 C1000.51 180.829, 999.817 179.99, 999.817 179.99 C999.817 179.99, 998.978 179.298, 998.978 179.298 C998.978 179.298, 998.014 178.776, 998.014 178.776 C998.014 178.776, 996.952 178.444, 996.952 178.444 C996.952 178.444, 995.906 178.338, 995.906 178.338 C995.906 178.338, 995.906 155.831, 995.906 155.831 C995.906 155.831, 996.952 155.725, 996.952 155.725 C996.952 155.725, 998.014 155.4, 998.014 155.4 C998.014 155.4, 998.978 154.871, 998.978 154.871 C998.978 154.871, 999.817 154.179, 999.817 154.179 C999.817 154.179, 1000.51 153.34, 1000.51 153.34 C1000.51 153.34, 1001.03 152.376, 1001.03 152.376 C1001.03 152.376, 1001.36 151.314, 1001.36 151.314 C1001.36 151.314, 1001.48 150.169, 1001.48 150.169 C1001.48 150.169, 1001.36 149.028, 1001.36 149.028 C1001.36 149.028, 1001.03 147.966, 1001.03 147.966 C1001.03 147.966, 1000.51 147.002, 1000.51 147.002 C1000.51 147.002, 999.817 146.163, 999.817 146.163 C999.817 146.163, 998.978 145.471, 998.978 145.471 C998.978 145.471, 998.014 144.946, 998.014 144.946 C998.014 144.946, 996.952 144.617, 996.952 144.617 C996.952 144.617, 995.811 144.5, 995.811 144.5 C995.811 144.5, 994.666 144.617, 994.666 144.617 C994.666 144.617, 993.604 144.946, 993.604 144.946 C993.604 144.946, 992.64 145.471, 992.64 145.471 C992.64 145.471, 991.801 146.163, 991.801 146.163 C991.801 146.163, 991.109 147.002, 991.109 147.002 C991.109 147.002, 990.58 147.966, 990.58 147.966 C990.58 147.966, 990.255 149.028, 990.255 149.028 C990.255 149.028, 990.149 150.075, 990.149 150.075 C990.149 150.075, 967.642 150.075, 967.642 150.075 C967.642 150.075, 967.536 149.028, 967.536 149.028 C967.536 149.028, 967.208 147.966, 967.208 147.966 C967.208 147.966, 966.682 147.002, 966.682 147.002 C966.682 147.002, 965.987 146.163, 965.987 146.163 C965.987 146.163, 965.151 145.471, 965.151 145.471 C965.151 145.471, 964.188 144.946, 964.188 144.946 C964.188 144.946, 963.126 144.617, 963.126 144.617 C963.126 144.617, 961.98 144.5, 961.98 144.5 C961.98 144.5, 960.835 144.617, 960.835 144.617 C960.835 144.617, 959.773 144.946, 959.773 144.946 C959.773 144.946, 958.809 145.471, 958.809 145.471 C958.809 145.471, 957.974 146.163, 957.974 146.163 C957.974 146.163, 957.283 147.002, 957.283 147.002 C957.283 147.002, 956.757 147.966, 956.757 147.966 C956.757 147.966, 956.428 149.028, 956.428 149.028 C956.428 149.028, 956.311 150.169, 956.311 150.169 C956.311 150.169, 956.428 151.314, 956.428 151.314 C956.428 151.314, 956.757 152.376, 956.757 152.376 C956.757 152.376, 957.283 153.34, 957.283 153.34 C957.283 153.34, 957.974 154.179, 957.974 154.179 C957.974 154.179, 958.809 154.871, 958.809 154.871 C958.809 154.871, 959.773 155.4, 959.773 155.4 C959.773 155.4, 960.835 155.725, 960.835 155.725 C960.835 155.725, 961.89 155.831, 961.89 155.831 C961.89 155.831, 961.89 178.334, 961.89 178.334 C961.89 178.334, 960.835 178.444, 960.835 178.444 C960.835 178.444, 959.773 178.776, 959.773 178.776 C959.773 178.776, 958.809 179.298, 958.809 179.298 C958.809 179.298, 957.974 179.99, 957.974 179.99 C957.974 179.99, 957.283 180.829, 957.283 180.829 C957.283 180.829, 956.757 181.793, 956.757 181.793 C956.757 181.793, 956.428 182.855, 956.428 182.855 C956.428 182.855, 956.311 183.996, 956.311 183.996 C956.311 183.996, 956.428 185.141, 956.428 185.141 C956.428 185.141, 956.757 186.203, 956.757 186.203 C956.757 186.203, 957.283 187.167, 957.283 187.167 C957.283 187.167, 957.974 188.006, 957.974 188.006 C957.974 188.006, 958.809 188.698, 958.809 188.698 C958.809 188.698, 959.773 189.223, 959.773 189.223 C959.773 189.223, 960.835 189.552, 960.835 189.552 C960.835 189.552, 961.98 189.665, 961.98 189.665 C961.98 189.665, 963.126 189.552, 963.126 189.552 C963.126 189.552, 964.188 189.223, 964.188 189.223 C964.188 189.223, 965.151 188.698, 965.151 188.698 C965.151 188.698, 965.987 188.006, 965.987 188.006 C965.987 188.006, 966.682 187.167, 966.682 187.167 C966.682 187.167, 967.208 186.203, 967.208 186.203 C967.208 186.203, 967.536 185.141, 967.536 185.141 C967.536 185.141, 967.642 184.09, 967.642 184.09 C967.642 184.09, 990.149 184.09, 990.149 184.09 C990.149 184.09, 990.255 185.141, 990.255 185.141 C990.255 185.141, 990.58 186.203, 990.58 186.203 C990.58 186.203, 991.109 187.167, 991.109 187.167 C991.109 187.167, 991.801 188.006, 991.801 188.006 C991.801 188.006, 992.64 188.698, 992.64 188.698 C992.64 188.698, 993.604 189.223, 993.604 189.223 C993.604 189.223, 994.666 189.552, 994.666 189.552 C994.666 189.552, 995.811 189.665, 995.811 189.665 C995.811 189.665, 996.952 189.552, 996.952 189.552 Z "
     stroke="black"
     stroke-width="1"
     fill="none"
     id="path11497" />
</svg>
