<?xml version="1.0" encoding="UTF-8" standalone="no"?>
<svg
   xmlns:dc="http://purl.org/dc/elements/1.1/"
   xmlns:cc="http://creativecommons.org/ns#"
   xmlns:rdf="http://www.w3.org/1999/02/22-rdf-syntax-ns#"
   xmlns:svg="http://www.w3.org/2000/svg"
   xmlns="http://www.w3.org/2000/svg"
   xmlns:sodipodi="http://sodipodi.sourceforge.net/DTD/sodipodi-0.dtd"
   xmlns:inkscape="http://www.inkscape.org/namespaces/inkscape"
   version="1.1"
   width="668.999px"
   height="375.358px"
   id="svg1081"
   sodipodi:docname="offset_svg.svg"
   inkscape:version="1.0.1 (c497b03c, 2020-09-10)">
  <metadata
     id="metadata1087">
    <rdf:RDF>
      <cc:Work
         rdf:about="">
        <dc:format>image/svg+xml</dc:format>
        <dc:type
           rdf:resource="http://purl.org/dc/dcmitype/StillImage" />
      </cc:Work>
    </rdf:RDF>
  </metadata>
  <defs
     id="defs1085" />
  <sodipodi:namedview
     pagecolor="#ffffff"
     bordercolor="#666666"
     borderopacity="1"
     objecttolerance="10"
     gridtolerance="10"
     guidetolerance="10"
     inkscape:pageopacity="0"
     inkscape:pageshadow="2"
     inkscape:window-width="1440"
     inkscape:window-height="900"
     id="namedview1083"
     showgrid="false"
     inkscape:zoom="0.90618128"
     inkscape:cx="322.92865"
     inkscape:cy="94.532993"
     inkscape:window-x="0"
     inkscape:window-y="0"
     inkscape:window-maximized="0"
     inkscape:current-layer="svg1081" />
  <path
     d="M160.006 283.061 C160.006 283.061, 160.006 283.061, 160.006 283.061 "
     stroke="black"
     stroke-width="1"
     fill="none"
     id="path833"
     style="stroke:none;fill:#000000;fill-opacity:1" />
  <path
     d="M160.036 283.038 C160.036 283.038, 160.036 283.038, 160.036 283.038 "
     stroke="black"
     stroke-width="1"
     fill="none"
     id="path835"
     style="stroke:none;fill:#000000;fill-opacity:1" />
  <path
     id="path837"
     style="stroke:none;fill:#000000;fill-opacity:1"
     d="M 42.089844 61.263672 L 41.378906 61.396484 L 40.96875 61.992188 L 40.300781 65.130859 L 39.046875 65.203125 L 38.537109 65.714844 L 38.537109 66.4375 L 38.742188 66.744141 L 39.046875 66.949219 L 39.898438 67.021484 L 39.472656 69.019531 L 38.220703 69.089844 L 37.914062 69.294922 L 37.636719 69.962891 L 37.914062 70.630859 L 38.220703 70.835938 L 39.070312 70.908203 L 38.480469 74.023438 L 38.873047 74.628906 L 39.212891 74.775391 L 39.923828 74.644531 L 40.1875 74.386719 L 41.001953 70.908203 L 41.96875 70.908203 L 41.376953 74.023438 L 41.771484 74.628906 L 42.478516 74.779297 L 42.822266 74.644531 L 43.230469 74.046875 L 43.900391 70.908203 L 45.152344 70.835938 L 45.664062 70.326172 L 45.664062 69.601562 L 45.458984 69.294922 L 45.152344 69.089844 L 44.302734 69.019531 L 44.728516 67.021484 L 45.980469 66.949219 L 46.492188 66.4375 L 46.564453 66.076172 L 46.287109 65.408203 L 45.980469 65.203125 L 45.130859 65.130859 L 45.720703 62.017578 L 45.326172 61.410156 L 44.988281 61.263672 L 44.277344 61.396484 L 43.867188 61.992188 L 43.197266 65.130859 L 42.232422 65.130859 L 42.818359 62.384766 L 42.685547 61.673828 L 42.427734 61.410156 L 42.089844 61.263672 z M 41.830078 67.021484 L 42.794922 67.021484 L 42.369141 69.019531 L 41.404297 69.019531 L 41.830078 67.021484 z " />
  <path
     d="M56.4533 192.729 L56.4533 192.729 "
     stroke="black"
     stroke-width="1"
     fill="none"
     id="path841"
     style="stroke:none;fill:#000000;fill-opacity:1" />
  <path
     d="M56.4571 192.763 L56.4571 192.763 "
     stroke="black"
     stroke-width="1"
     fill="none"
     id="path843"
     style="stroke:none;fill:#000000;fill-opacity:1" />
  <path
     d="M71.7577 38.7432 L71.7577 38.7432 "
     stroke="black"
     stroke-width="1"
     fill="none"
     id="path845"
     style="stroke:none;fill:#000000;fill-opacity:1" />
  <path
     d="M71.7676 38.7095 L71.7676 38.7095 "
     stroke="black"
     stroke-width="1"
     fill="none"
     id="path847"
     style="stroke:none;fill:#000000;fill-opacity:1" />
  <path
     d="M103.562 51.219 L103.562 54.1164 L103.491 54.4781 L102.823 55.2442 L100.962 55.8894 L99.8351 55.8406 L98.273 55.2442 L97.2189 54.1251 L96.7336 53.1039 L96.3197 51.4481 L96.3197 49.748 L96.7336 48.0922 L97.2189 47.0706 L98.5304 45.7924 L100.134 45.3067 L101.737 45.3785 L102.626 45.8203 L103.1 46.3665 L103.049 47.088 L102.502 47.562 L102.137 47.6081 L101.153 47.1965 L100.287 47.1965 L99.4023 47.4913 L98.8407 48.0529 L98.5417 48.6508 L98.1812 50.0935 L98.1812 51.1026 L98.5417 52.5449 L98.8407 53.1428 L99.4023 53.7044 L100.287 53.9996 L100.808 53.9996 L101.673 53.7116 L101.673 52.1639 L100.6 52.0917 L100.089 51.5803 L100.089 50.8573 L100.6 50.346 L102.979 50.346 L103.491 50.8573 L103.562 51.219 Z "
     stroke="black"
     stroke-width="1"
     fill="none"
     id="path849"
     style="stroke:none;fill:#000000;fill-opacity:1" />
  <path
     d="M103.286 54.7846 L103.286 54.7846 "
     stroke="black"
     stroke-width="1"
     fill="none"
     id="path851"
     style="stroke:none;fill:#000000;fill-opacity:1" />
  <path
     id="path853"
     style="stroke:none;fill:#000000;fill-opacity:1"
     d="M 144.89453 45.306641 L 144.22656 45.583984 L 143.94922 46.251953 L 143.94922 54.945312 L 144.22656 55.613281 L 144.89453 55.888672 L 148.27344 55.886719 L 149.45703 55.375 L 150.11523 54.785156 L 150.80469 53.355469 L 150.73438 51.685547 L 150.29297 50.796875 L 149.74023 50.173828 L 150.38672 48.767578 L 150.29297 47.484375 L 149.70117 46.410156 L 149.04297 45.820312 L 147.85938 45.308594 L 144.89453 45.306641 z M 145.83984 47.197266 L 147.56836 47.197266 L 148.25781 47.638672 L 148.50391 48.130859 L 148.50391 48.511719 L 148.25781 49.003906 L 147.56836 49.445312 L 145.83984 49.445312 L 145.83984 47.197266 z M 145.83984 51.335938 L 147.63867 51.335938 L 148.52344 51.630859 L 148.91797 52.269531 L 148.91797 53.066406 L 148.47461 53.753906 L 147.98242 54 L 145.83984 54 L 145.83984 51.335938 z " />
  <path
     d="M154.726 218.91 L154.726 218.91 "
     stroke="black"
     stroke-width="1"
     fill="none"
     id="path859"
     style="stroke:none;fill:#000000;fill-opacity:1" />
  <path
     d="M154.746 218.883 L154.746 218.883 "
     stroke="black"
     stroke-width="1"
     fill="none"
     id="path861"
     style="stroke:none;fill:#000000;fill-opacity:1" />
  <path
     id="path863"
     style="stroke:none;fill:#000000;fill-opacity:1"
     d="M 194.71484 45.355469 L 193.99219 45.40625 L 193.51953 45.953125 L 190.62109 54.644531 L 190.67188 55.367188 L 191.21875 55.839844 L 191.93945 55.789062 L 192.23047 55.564453 L 193.02734 53.40625 L 195.80469 53.40625 L 196.59961 55.564453 L 197.24609 55.886719 L 197.93164 55.658203 L 198.1582 55.367188 L 198.20898 54.644531 L 195.25977 45.828125 L 194.71484 45.355469 z M 194.41406 49.240234 L 195.17383 51.515625 L 193.65625 51.515625 L 194.41406 49.240234 z " />
  <path
     d="M211.409 222.969 L211.409 222.969 "
     stroke="black"
     stroke-width="1"
     fill="none"
     id="path867"
     style="stroke:none;fill:#000000;fill-opacity:1" />
  <path
     d="M211.425 222.999 L211.425 222.999 "
     stroke="black"
     stroke-width="1"
     fill="none"
     id="path869"
     style="stroke:none;fill:#000000;fill-opacity:1" />
  <path
     d="M233.156 222.017 L233.156 222.017 "
     stroke="black"
     stroke-width="1"
     fill="none"
     id="path871"
     style="stroke:none;fill:#000000;fill-opacity:1" />
  <path
     d="M243.774 50.7526 L243.774 50.0292 L243.262 49.5179 L240.948 49.446 L240.948 47.1965 L244.504 47.1243 L245.016 46.6129 L245.016 45.8899 L244.811 45.5834 L244.143 45.3067 L240.003 45.3067 L239.335 45.5834 L239.059 46.2516 L239.059 54.9445 L239.335 55.6127 L240.003 55.8894 L240.672 55.6127 L240.876 55.3058 L240.948 51.3358 L243.262 51.264 L243.774 50.7526 Z "
     stroke="black"
     stroke-width="1"
     fill="none"
     id="path873"
     style="stroke:none;fill:#000000;fill-opacity:1" />
  <path
     id="path875"
     style="stroke:none;fill:#000000;fill-opacity:1"
     d="M 286.62695 45.306641 L 285.95703 45.583984 L 285.68164 46.251953 L 285.68164 54.945312 L 285.95703 55.613281 L 286.62695 55.888672 L 288.69531 55.888672 L 290.55664 55.244141 L 291.43359 54.371094 L 292.02539 53.296875 L 292.50977 51.447266 L 292.53906 49.976562 L 292.02539 47.898438 L 291.43359 46.826172 L 290.55664 45.951172 L 288.69531 45.306641 L 286.62695 45.306641 z M 287.57031 47.197266 L 288.54297 47.197266 L 289.42773 47.492188 L 289.99023 48.052734 L 290.28906 48.650391 L 290.64844 50.09375 L 290.64844 51.103516 L 290.28906 52.544922 L 289.99023 53.142578 L 289.42773 53.705078 L 288.54297 54 L 287.57031 54 L 287.57031 47.197266 z " />
  <path
     d="M339.297 46.6129 L339.369 46.2516 L339.092 45.5834 L338.424 45.3067 L334.284 45.3067 L333.923 45.3785 L333.412 45.8899 L333.34 54.9445 L333.617 55.6127 L333.923 55.8172 L338.424 55.8894 L339.092 55.6127 L339.297 55.3058 L339.297 54.5828 L338.786 54.0714 L335.229 53.9996 L335.229 51.3358 L337.544 51.264 L338.055 50.7526 L338.127 50.3909 L338.055 50.0292 L337.544 49.5179 L335.229 49.446 L335.229 47.1965 L338.424 47.1965 L339.092 46.9198 L339.297 46.6129 Z "
     stroke="black"
     stroke-width="1"
     fill="none"
     id="path879"
     style="stroke:none;fill:#000000;fill-opacity:1" />
  <path
     d="M361.078 286.488 L361.078 286.488 "
     stroke="black"
     stroke-width="1"
     fill="none"
     id="path881"
     style="stroke:none;fill:#000000;fill-opacity:1" />
  <path
     d="M361.107 286.465 L361.107 286.465 "
     stroke="black"
     stroke-width="1"
     fill="none"
     id="path883"
     style="stroke:none;fill:#000000;fill-opacity:1" />
  <path
     d="M386.751 47.7475 L387.027 47.0793 L386.751 46.4111 L386.03 45.7924 L384.427 45.3067 L383.301 45.3551 L381.997 45.7924 L380.685 47.0706 L380.198 48.0922 L379.786 49.748 L379.756 51.219 L380.27 53.2974 L380.859 54.3708 L381.736 55.2442 L383.301 55.8406 L384.427 55.8894 L386.03 55.4033 L386.751 54.7846 L387.027 54.1164 L386.751 53.4486 L386.445 53.2437 L385.72 53.2437 L385.157 53.7044 L384.272 53.9996 L383.751 53.9996 L382.866 53.7044 L382.307 53.1428 L382.004 52.5449 L381.645 51.1026 L381.645 50.0935 L382.004 48.6508 L382.307 48.0529 L382.866 47.4913 L383.751 47.1965 L384.272 47.1965 L385.157 47.4913 L385.72 47.9524 L386.445 47.9524 L386.751 47.7475 Z "
     stroke="black"
     stroke-width="1"
     fill="none"
     id="path885"
     style="stroke:none;fill:#000000;fill-opacity:1" />
  <path
     d="M415.824 93.8736 L415.548 94.5419 L414.879 94.8185 L414.21 94.5419 L414.006 94.235 L413.934 89.4399 L412.838 91.7896 L412.38 92.2462 L412.021 92.3339 L411.284 92.0281 L410.03 89.4399 L409.958 94.235 L409.75 94.5419 L409.085 94.8185 L408.416 94.5419 L408.14 93.8736 L408.14 85.1807 L408.416 84.5125 L409.085 84.2358 L409.75 84.5125 L411.98 89.1557 L414.21 84.5125 L414.92 84.2366 L415.574 84.5424 L415.824 85.1807 L415.824 93.8736 Z "
     stroke="black"
     stroke-width="1"
     fill="none"
     id="path887"
     style="stroke:none;fill:#000000;fill-opacity:1" />
  <path
     id="path889"
     style="stroke:none;fill:#000000;fill-opacity:1"
     d="M 419.78125 87.136719 L 418.59375 87.646484 L 418.12109 88.193359 L 418.17383 88.914062 L 418.71875 89.388672 L 419.08594 89.435547 L 420.06836 89.023438 L 421.27734 89.023438 L 421.625 89.197266 L 421.79883 89.542969 L 419.78125 89.619141 L 418.30273 90.357422 L 417.73242 91.441406 L 417.66016 92.699219 L 418.39648 94.173828 L 419.78125 94.816406 L 422.33984 94.71875 L 422.74414 94.818359 L 423.41211 94.541016 L 423.68945 93.873047 L 423.68945 89.320312 L 423.04297 87.873047 L 421.56836 87.136719 L 419.78125 87.136719 z M 420.06836 91.507812 L 421.79883 91.507812 L 421.79883 92.875 L 420.06836 92.929688 L 419.72461 92.755859 L 419.55078 92.027344 L 419.72461 91.679688 L 420.06836 91.507812 z " />
  <path
     d="M423.073 -0.0306142 L423.073 -0.0306142 "
     stroke="black"
     stroke-width="1"
     fill="none"
     id="path893"
     style="stroke:none;fill:#000000;fill-opacity:1" />
  <path
     d="M423.092 0 L423.092 0 "
     stroke="black"
     stroke-width="1"
     fill="none"
     id="path895"
     style="stroke:none;fill:#000000;fill-opacity:1" />
  <path
     d="M427.827 88.0781 L427.551 87.4103 L426.883 87.1332 L426.52 87.2054 L426.009 87.7168 L425.938 95.3065 L425.764 95.653 L424.864 95.8983 L424.354 96.4097 L424.354 97.1327 L424.864 97.6441 L425.707 97.7136 L426.89 97.2023 L427.313 96.7797 L427.756 95.8908 L427.827 88.0781 Z "
     stroke="black"
     stroke-width="1"
     fill="none"
     id="path897"
     style="stroke:none;fill:#000000;fill-opacity:1" />
  <path
     d="M432.831 141.116 L432.831 132.423 L432.582 131.786 L431.928 131.481 L431.218 131.757 L428.988 136.399 L426.758 131.757 L426.093 131.48 L425.424 131.757 L425.148 132.423 L425.148 141.116 L425.424 141.785 L426.093 142.061 L426.452 141.989 L426.966 141.479 L427.037 136.682 L428.134 139.033 L428.349 139.332 L428.946 139.578 L429.687 139.271 L430.942 136.682 L431.014 141.479 L431.524 141.989 L432.249 141.989 L432.76 141.479 L432.831 141.116 Z "
     stroke="black"
     stroke-width="1"
     fill="none"
     id="path899"
     style="stroke:none;fill:#000000;fill-opacity:1" />
  <circle
     cx="426.908"
     cy="85.5946"
     r="1.31519"
     stroke="black"
     stroke-width="1"
     fill="none"
     id="circle901"
     style="stroke:none;fill:#000000;fill-opacity:1" />
  <path
     d="M426.214 84.5125 L426.214 84.5125 "
     stroke="black"
     stroke-width="1"
     fill="none"
     id="path903"
     style="stroke:none;fill:#000000;fill-opacity:1" />
  <path
     d="M426.883 86.9533 L426.883 86.9533 "
     stroke="black"
     stroke-width="1"
     fill="none"
     id="path905"
     style="stroke:none;fill:#000000;fill-opacity:1" />
  <path
     d="M427.551 84.5125 L427.551 84.5125 "
     stroke="black"
     stroke-width="1"
     fill="none"
     id="path907"
     style="stroke:none;fill:#000000;fill-opacity:1" />
  <path
     d="M427.963 84.9264 L427.963 84.9264 "
     stroke="black"
     stroke-width="1"
     fill="none"
     id="path909"
     style="stroke:none;fill:#000000;fill-opacity:1" />
  <path
     id="path911"
     style="stroke:none;fill:#000000;fill-opacity:1"
     d="M 432.19727 87.136719 L 431.01367 87.646484 L 430.17773 88.484375 L 429.66406 89.667969 L 429.66406 92.285156 L 430.17773 93.46875 L 431.01367 94.304688 L 432.19727 94.816406 L 433.57227 94.816406 L 434.75586 94.304688 L 435.41797 93.712891 L 436.03711 92.580078 L 436.10156 89.701172 L 435.41797 88.238281 L 434.75586 87.646484 L 433.86719 87.205078 L 432.19727 87.136719 z M 432.48828 89.023438 L 433.28516 89.023438 L 433.97266 89.466797 L 434.21875 89.957031 L 434.21875 91.994141 L 433.97266 92.486328 L 433.28516 92.929688 L 432.48828 92.929688 L 431.80078 92.486328 L 431.55469 91.994141 L 431.55469 89.957031 L 431.99609 89.269531 L 432.48828 89.023438 z " />
  <circle
     cx="436.051"
     cy="132.84"
     r="1.31501"
     stroke="black"
     stroke-width="1"
     fill="none"
     id="circle915"
     style="stroke:none;fill:#000000;fill-opacity:1" />
  <path
     d="M434.944 133.508 L434.944 133.508 "
     stroke="black"
     stroke-width="1"
     fill="none"
     id="path917"
     style="stroke:none;fill:#000000;fill-opacity:1" />
  <path
     d="M434.944 132.17 L434.944 132.17 "
     stroke="black"
     stroke-width="1"
     fill="none"
     id="path919"
     style="stroke:none;fill:#000000;fill-opacity:1" />
  <path
     d="M436.97 141.116 L436.97 135.322 L436.694 134.653 L436.025 134.377 L435.356 134.653 L435.08 135.322 L435.08 141.116 L435.356 141.785 L436.025 142.061 L436.694 141.785 L436.97 141.116 Z "
     stroke="black"
     stroke-width="1"
     fill="none"
     id="path921"
     style="stroke:none;fill:#000000;fill-opacity:1" />
  <path
     d="M435.356 131.757 L435.356 131.757 "
     stroke="black"
     stroke-width="1"
     fill="none"
     id="path923"
     style="stroke:none;fill:#000000;fill-opacity:1" />
  <path
     d="M435.666 134.124 L435.666 134.124 "
     stroke="black"
     stroke-width="1"
     fill="none"
     id="path925"
     style="stroke:none;fill:#000000;fill-opacity:1" />
  <path
     d="M436.388 134.124 L436.388 134.124 "
     stroke="black"
     stroke-width="1"
     fill="none"
     id="path927"
     style="stroke:none;fill:#000000;fill-opacity:1" />
  <path
     d="M437.106 132.17 L437.106 132.17 "
     stroke="black"
     stroke-width="1"
     fill="none"
     id="path929"
     style="stroke:none;fill:#000000;fill-opacity:1" />
  <path
     d="M442.243 88.4398 L442.314 88.0781 L442.038 87.4103 L441.369 87.1332 L440.477 87.1359 L439.608 87.4893 L439.249 87.2054 L438.886 87.1332 L438.527 87.2054 L438.013 87.7168 L437.941 93.8736 L438.013 94.235 L438.527 94.7463 L439.249 94.7463 L439.759 94.235 L439.831 89.9573 L440.077 89.466 L440.765 89.023 L441.732 88.9512 L442.243 88.4398 Z "
     stroke="black"
     stroke-width="1"
     fill="none"
     id="path931"
     style="stroke:none;fill:#000000;fill-opacity:1" />
  <path
     d="M444.763 141.479 L444.835 136.497 L444.189 135.118 L442.715 134.381 L441.339 134.381 L440.746 134.596 L440.164 134.377 L439.499 134.653 L439.219 135.322 L439.219 141.116 L439.499 141.785 L440.164 142.061 L440.527 141.989 L441.037 141.479 L441.109 136.543 L441.63 136.267 L442.428 136.267 L442.772 136.441 L442.946 136.788 L443.017 141.479 L443.528 141.989 L443.89 142.061 L444.253 141.989 L444.763 141.479 Z "
     stroke="black"
     stroke-width="1"
     fill="none"
     id="path933"
     style="stroke:none;fill:#000000;fill-opacity:1" />
  <path
     d="M450.901 179.667 L450.633 179.009 L449.968 178.722 L444.163 178.722 L443.494 179.002 L443.289 179.308 L443.289 180.03 L443.8 180.54 L448.524 180.612 L445.361 187.99 L445.353 188.711 L445.86 189.229 L446.581 189.241 L447.099 188.734 L450.901 179.667 Z "
     stroke="black"
     stroke-width="1"
     fill="none"
     id="path935"
     style="stroke:none;fill:#000000;fill-opacity:1" />
  <path
     id="path937"
     style="stroke:none;fill:#000000;fill-opacity:1"
     d="M 449.20312 134.38086 L 448.02148 134.89062 L 447.18555 135.72656 L 446.67188 136.91211 L 446.67188 139.52734 L 447.18555 140.71094 L 448.02148 141.55078 L 449.20312 142.06055 L 450.58008 142.06055 L 451.76367 141.55078 L 452.42578 140.95703 L 453.04492 139.82227 L 453.11523 136.97656 L 452.42578 135.48047 L 451.76367 134.89062 L 450.875 134.44922 L 449.20312 134.38086 z M 449.49414 136.26758 L 450.29297 136.26758 L 450.98047 136.70898 L 451.22656 137.19922 L 451.22656 139.23633 L 450.98047 139.72852 L 450.29297 140.17188 L 449.49414 140.17188 L 449.00391 139.92578 L 448.5625 139.23633 L 448.5625 137.19922 L 448.80859 136.70898 L 449.49414 136.26758 z " />
  <path
     d="M456.004 187.695 L456.283 188.36 L456.004 189.029 L455.339 189.305 L454.443 189.305 L453.063 188.662 L452.394 187.483 L452.323 183.511 L451.665 183.439 L451.359 183.235 L451.083 182.566 L451.359 181.897 L451.665 181.693 L452.323 181.621 L452.394 179.308 L452.905 178.798 L453.63 178.798 L454.14 179.308 L454.212 181.621 L455.698 181.693 L456.212 182.203 L456.212 182.929 L455.698 183.439 L454.212 183.511 L454.212 186.897 L454.386 187.245 L454.734 187.415 L455.698 187.491 L456.004 187.695 Z "
     stroke="black"
     stroke-width="1"
     fill="none"
     id="path941"
     style="stroke:none;fill:#000000;fill-opacity:1" />
  <path
     d="M459.817 34.3279 L459.746 24.8954 L459.235 24.384 L458.872 24.3122 L458.513 24.384 L457.999 24.8954 L457.928 28.6318 L454.851 28.6318 L454.779 24.8954 L454.269 24.384 L453.543 24.384 L453.237 24.5889 L452.961 25.2571 L453.033 34.6896 L453.543 35.201 L453.906 35.2728 L454.269 35.201 L454.779 34.6896 L454.851 30.5216 L457.928 30.5216 L457.999 34.6896 L458.513 35.201 L459.235 35.201 L459.541 34.9962 L459.817 34.3279 Z "
     stroke="black"
     stroke-width="1"
     fill="none"
     id="path943"
     style="stroke:none;fill:#000000;fill-opacity:1" />
  <path
     d="M459.25 135.685 L458.74 136.195 L457.773 136.267 L457.085 136.709 L456.839 137.2 L456.767 141.479 L456.257 141.989 L455.535 141.989 L455.021 141.479 L454.949 141.116 L455.021 134.959 L455.535 134.449 L455.894 134.377 L456.257 134.449 L456.616 134.732 L457.485 134.381 L458.377 134.377 L459.046 134.653 L459.322 135.322 L459.25 135.685 Z "
     stroke="black"
     stroke-width="1"
     fill="none"
     id="path945"
     style="stroke:none;fill:#000000;fill-opacity:1" />
  <path
     d="M462.898 183.775 L462.905 188.36 L462.629 189.029 L461.96 189.305 L461.597 189.233 L461.087 188.723 L461.015 184.032 L460.842 183.685 L460.498 183.511 L459.7 183.511 L459.179 183.787 L459.107 188.723 L458.597 189.233 L458.234 189.305 L457.569 189.029 L457.289 188.36 L457.289 179.667 L457.569 179.002 L458.234 178.722 L458.903 179.002 L459.107 179.308 L459.179 181.682 L460.785 181.625 L461.968 182.135 L462.391 182.558 L462.898 183.775 Z "
     stroke="black"
     stroke-width="1"
     fill="none"
     id="path947"
     style="stroke:none;fill:#000000;fill-opacity:1" />
  <path
     id="path949"
     style="stroke:none;fill:#000000;fill-opacity:1"
     d="M 464.58789 24.316406 L 463.4043 24.851562 L 462.24805 25.998047 L 461.6543 28.28125 L 461.68164 31.525391 L 462.24805 33.587891 L 463.4043 34.734375 L 464.58789 35.269531 L 466.32617 35.273438 L 467.5918 34.734375 L 468.86133 33.375 L 469.33789 31.304688 L 469.33789 28.28125 L 468.90039 26.332031 L 468.66016 25.898438 L 467.5918 24.851562 L 466.4082 24.316406 L 464.58789 24.316406 z M 464.90039 26.201172 L 466.0957 26.201172 L 466.57812 26.455078 L 467.12305 27.021484 L 467.44727 28.392578 L 467.44727 31.193359 L 467.12305 32.5625 L 466.57812 33.130859 L 466.0957 33.382812 L 464.90039 33.382812 L 464.41797 33.130859 L 463.87305 32.5625 L 463.54492 31.193359 L 463.54492 28.392578 L 463.87305 27.021484 L 464.41797 26.455078 L 464.90039 26.201172 z " />
  <path
     d="M477.131 33.9662 L476.621 33.4549 L476.258 33.3831 L473.065 33.3831 L473.065 25.2571 L472.789 24.5889 L472.483 24.384 L471.761 24.384 L471.451 24.5889 L471.175 25.2571 L471.247 34.6896 L471.451 34.9962 L472.12 35.2728 L476.258 35.2728 L476.927 34.9962 L477.203 34.3279 L477.131 33.9662 Z "
     stroke="black"
     stroke-width="1"
     fill="none"
     id="path953"
     style="stroke:none;fill:#000000;fill-opacity:1" />
  <path
     id="path955"
     style="stroke:none;fill:#000000;fill-opacity:1"
     d="M 479.15625 24.3125 L 478.48828 24.589844 L 478.21289 25.257812 L 478.21289 34.328125 L 478.48828 34.996094 L 479.15625 35.273438 L 481.22852 35.273438 L 483.09961 34.601562 L 483.98047 33.685547 L 484.5625 32.576172 L 485.06836 30.439453 L 485.04297 28.923828 L 484.63086 27.197266 L 484.15039 26.144531 L 483.09961 24.984375 L 481.22852 24.3125 L 479.15625 24.3125 z M 480.10156 26.201172 L 481.06641 26.201172 L 481.94336 26.507812 L 482.50977 27.097656 L 482.81641 27.734375 L 483.17969 29.255859 L 483.17969 30.328125 L 482.81641 31.849609 L 482.50977 32.488281 L 481.94336 33.078125 L 481.06641 33.382812 L 480.10156 33.382812 L 480.10156 26.201172 z " />
  <path
     d="M494.876 -3.77764 L494.876 -3.77764 "
     stroke="black"
     stroke-width="1"
     fill="none"
     id="path959"
     style="stroke:none;fill:#000000;fill-opacity:1" />
  <path
     d="M494.888 -3.81014 L494.888 -3.81014 "
     stroke="black"
     stroke-width="1"
     fill="none"
     id="path961"
     style="stroke:none;fill:#000000;fill-opacity:1" />
  <path
     d="M494.903 -3.77802 L494.903 -3.77802 "
     stroke="black"
     stroke-width="1"
     fill="none"
     id="path963"
     style="stroke:none;fill:#000000;fill-opacity:1" />
  <path
     id="path965"
     style="stroke:none;fill:#000000;fill-opacity:1"
     d="M 555.79102 267.99414 L 554.44922 268.17578 L 551.58008 269.83008 L 551.14258 270.40625 L 551.23633 271.12305 L 555.58203 278.65234 L 556.15625 279.0918 L 556.52344 279.11719 L 557.15039 278.75586 L 557.33789 278.05664 L 555.62109 274.94141 L 557.94922 273.51367 L 558.62109 272.4082 L 558.80273 271.54492 L 558.74609 270.62109 L 558.65625 270.26172 L 557.75977 268.85352 L 556.65625 268.17969 L 555.79102 267.99414 z M 555.74805 269.89258 L 556.47852 270.26562 L 556.87695 270.95312 L 556.91016 271.50586 L 556.53125 272.23047 L 554.67578 273.30469 L 553.3457 270.99609 L 555.20117 269.92578 L 555.74805 269.89258 z " />
  <path
     d="M560.908 97.1871 L560.814 96.4702 L560.239 96.0299 L559.306 95.8541 L557.677 96.2351 L556.724 96.8406 L555.814 97.8716 L555.318 99.6344 L555.405 100.761 L555.878 102.403 L556.728 103.875 L557.911 105.102 L558.845 105.744 L560.315 106.186 L561.967 105.921 L562.968 105.4 L564.113 104.178 L564.454 102.914 L564.091 102.287 L563.391 102.1 L563.044 102.218 L562.764 102.462 L562.507 103.143 L561.891 103.84 L561.437 104.101 L560.523 104.288 L559.756 104.082 L559.2 103.714 L558.164 102.645 L557.662 101.771 L557.254 100.342 L557.212 99.6741 L557.42 98.9068 L558.036 98.2091 L558.489 97.9483 L559.4 97.7616 L560.118 97.8796 L560.47 97.7609 L560.908 97.1871 Z "
     stroke="black"
     stroke-width="1"
     fill="none"
     id="path969"
     style="stroke:none;fill:#000000;fill-opacity:1" />
  <path
     id="path971"
     style="stroke:none;fill:#000000;fill-opacity:1"
     d="M 563.31641 263.64844 L 561.97852 263.83008 L 559.10938 265.48438 L 558.67188 266.05859 L 558.76562 266.77734 L 563.11133 274.30664 L 563.68359 274.74414 L 564.05273 274.77148 L 564.67969 274.4082 L 564.86523 273.70898 L 563.15039 270.5957 L 563.69727 270.27734 L 567.83203 272.20508 L 568.55469 272.23438 L 569.08789 271.74805 L 569.17383 271.38867 L 568.92969 270.71289 L 565.55273 269.05664 L 566.02539 268.33984 L 566.30273 267.49805 L 566.27539 266.27539 L 566.18555 265.91602 L 565.28906 264.50586 L 564.18555 263.83203 L 563.31641 263.64844 z M 563.27734 265.54492 L 564.00391 265.91992 L 564.4043 266.60742 L 564.36328 267.42773 L 564.06055 267.88477 L 562.20508 268.95703 L 560.87305 266.64844 L 562.73047 265.57812 L 563.27734 265.54492 z " />
  <path
     d="M563.006 169.039 L563.055 168.672 L562.738 168.022 L562.057 167.784 L561.184 167.841 L559.843 168.533 L559.037 169.682 L559.128 171.205 L559.582 171.855 L560.307 172.335 L560.651 172.475 L561.755 172.437 L562.847 171.889 L563.297 171.995 L563.161 172.433 L562.303 172.932 L561.366 173.06 L561.071 173.283 L560.886 173.601 L560.927 174.323 L561.468 174.803 L562.995 174.712 L564.359 173.922 L565.164 172.777 L565.073 171.254 L564.62 170.604 L563.894 170.124 L563.55 169.984 L562.511 170.014 L561.354 170.57 L560.905 170.464 L561.041 170.022 L561.589 169.708 L562.526 169.579 L563.006 169.039 Z "
     stroke="black"
     stroke-width="1"
     fill="none"
     id="path973"
     style="stroke:none;fill:#000000;fill-opacity:1" />
  <path
     d="M566.294 92.3516 L567.889 95.1182 L565.225 96.6569 L563.384 93.6132 L563.055 93.4503 L562.337 93.5444 L561.895 94.1182 L561.872 94.4863 L566.336 102.364 L566.91 102.804 L567.277 102.828 L567.904 102.466 L568.093 101.768 L566.169 98.2934 L568.834 96.7548 L570.883 100.157 L571.211 100.32 L571.929 100.226 L572.372 99.6522 L572.394 99.284 L567.931 91.4067 L567.356 90.9664 L566.638 91.0609 L566.2 91.6346 L566.294 92.3516 Z "
     stroke="black"
     stroke-width="1"
     fill="none"
     id="path977"
     style="stroke:none;fill:#000000;fill-opacity:1" />
  <path
     d="M567.727 148.218 L569.325 150.984 L566.657 152.522 L564.816 149.48 L564.488 149.314 L563.769 149.408 L563.331 149.983 L563.305 150.353 L567.772 158.23 L568.014 158.505 L568.713 158.694 L569.34 158.332 L569.526 157.632 L567.602 154.159 L570.27 152.621 L572.315 156.022 L572.648 156.185 L573.362 156.09 L573.642 155.848 L573.827 155.149 L569.121 146.993 L568.789 146.83 L568.071 146.925 L567.632 147.499 L567.727 148.218 Z "
     stroke="black"
     stroke-width="1"
     fill="none"
     id="path979"
     style="stroke:none;fill:#000000;fill-opacity:1" />
  <path
     d="M568.993 168.861 L568.774 169.194 L567.957 169.527 L567.734 169.379 L565.625 165.868 L564.926 165.679 L564.299 166.042 L564.136 166.371 L564.231 167.089 L566.245 170.573 L567.394 171.382 L568.917 171.292 L569.968 170.683 L570.319 170.286 L570.849 170.18 L571.287 169.606 L571.31 169.239 L568.43 164.247 L568.101 164.084 L567.383 164.179 L566.94 164.753 L566.918 165.12 L568.993 168.861 Z "
     stroke="black"
     stroke-width="1"
     fill="none"
     id="path981"
     style="stroke:none;fill:#000000;fill-opacity:1" />
  <path
     d="M575.977 267.292 L575.955 267.662 L575.516 268.236 L571.929 270.304 L571.582 270.425 L570.883 270.236 L566.294 262.431 L566.173 262.08 L566.362 261.384 L570.225 259.071 L570.573 258.95 L571.272 259.139 L571.631 259.767 L571.446 260.462 L568.403 262.303 L569.526 264.253 L571.567 263.157 L571.933 263.179 L572.508 263.622 L572.602 264.34 L572.44 264.669 L570.471 265.889 L571.805 268.195 L574.919 266.479 L575.618 266.668 L575.977 267.292 Z "
     stroke="black"
     stroke-width="1"
     fill="none"
     id="path983"
     style="stroke:none;fill:#000000;fill-opacity:1" />
  <path
     d="M579.984 208.841 L579.545 209.412 L579.194 209.533 L578.494 209.344 L575.932 205.047 L576.204 207.704 L576.03 208.354 L575.717 208.63 L575.048 208.72 L574.711 208.565 L572.549 206.997 L574.987 211.37 L574.802 212.069 L574.526 212.311 L573.808 212.405 L573.475 212.243 L568.698 204.109 L568.596 203.418 L568.751 203.081 L569.367 202.703 L570.07 202.873 L574.11 205.795 L573.623 200.496 L574.088 199.906 L574.779 199.827 L575.112 199.99 L579.889 208.123 L579.984 208.841 Z "
     stroke="black"
     stroke-width="1"
     fill="none"
     id="path985"
     style="stroke:none;fill:#000000;fill-opacity:1" />
  <path
     d="M574.227 162.557 L574.186 161.835 L573.963 161.544 L573.279 161.306 L572.409 161.359 L571.068 162.054 L570.259 163.2 L570.35 164.727 L570.807 165.373 L571.533 165.857 L571.873 165.996 L572.98 165.955 L574.069 165.411 L574.518 165.513 L574.386 165.955 L573.524 166.45 L572.587 166.579 L572.292 166.802 L572.107 167.123 L572.149 167.845 L572.693 168.325 L573.929 168.317 L575.524 167.482 L576.423 166.17 L576.295 164.772 L575.841 164.126 L575.116 163.642 L574.772 163.502 L573.732 163.536 L572.576 164.092 L572.126 163.986 L572.262 163.544 L572.81 163.226 L573.747 163.098 L574.227 162.557 Z "
     stroke="black"
     stroke-width="1"
     fill="none"
     id="path987"
     style="stroke:none;fill:#000000;fill-opacity:1" />
  <path
     id="path989"
     style="stroke:none;fill:#000000;fill-opacity:1"
     d="M 574.43164 87.154297 L 573.15039 87.304688 L 571.60156 88.199219 L 570.83008 89.234375 L 570.37695 90.777344 L 570.87891 92.785156 L 572.41797 95.507812 L 574.04688 97.128906 L 575.30859 97.478516 L 576.60156 97.447266 L 578.38086 96.5 L 579.33398 95.154297 L 579.6582 93.654297 L 579.07227 91.666016 L 577.62109 89.15625 L 575.99609 87.535156 L 574.43164 87.154297 z M 574.39062 89.050781 L 575.11914 89.246094 L 576.04492 90.201172 L 577.37695 92.509766 L 577.74219 93.787109 L 577.54688 94.517578 L 577.24219 94.974609 L 576.19727 95.580078 L 575.64844 95.613281 L 574.91992 95.417969 L 573.99219 94.462891 L 572.66211 92.154297 L 572.29688 90.876953 L 572.49219 90.146484 L 572.79492 89.6875 L 573.8418 89.083984 L 574.39062 89.050781 z " />
  <path
     d="M576.249 104.23 L576.155 103.513 L575.58 103.072 L574.862 103.166 L574.125 103.594 L573.335 102.23 L572.761 101.79 L572.047 101.884 L571.604 102.458 L571.699 103.175 L572.489 104.539 L572.092 104.849 L571.929 105.18 L572.024 105.897 L572.598 106.337 L573.434 106.176 L575.237 109.102 L576.249 109.685 L577.357 109.646 L578.604 108.924 L578.793 108.226 L578.676 107.877 L578.101 107.436 L577.731 107.412 L576.952 107.779 L576.465 107.648 L575.07 105.231 L575.807 104.803 L576.249 104.23 Z "
     stroke="black"
     stroke-width="1"
     fill="none"
     id="path991"
     style="stroke:none;fill:#000000;fill-opacity:1" />
  <path
     id="path995"
     style="stroke:none;fill:#000000;fill-opacity:1"
     d="M 573.50586 143.9043 L 572.85547 144.21875 L 572.66992 144.53516 L 572.63672 145.03516 L 574.47266 154.01172 L 574.88086 154.61328 L 575.5918 154.74805 L 576.18945 154.34375 L 576.32812 154.00391 L 575.93945 151.73633 L 578.34375 150.34961 L 580.11133 151.81836 L 580.83398 151.77344 L 581.31445 151.23438 L 581.26953 150.51172 L 581.04688 150.2207 L 574.18945 144.13867 L 573.50586 143.9043 z M 575.05859 147.43555 L 576.85352 149.02539 L 575.53906 149.78516 L 575.05859 147.43555 z " />
  <path
     d="M578.861 256.63 L578.997 255.919 L578.593 255.318 L577.882 255.182 L576.601 255.443 L574.246 256.83 L573.698 257.658 L573.422 258.497 L573.543 260.08 L574.231 261.135 L575.059 261.683 L576.2 261.989 L577.327 261.898 L578.869 261.456 L579.534 261.418 L580.263 261.792 L580.456 262.121 L580.414 262.941 L580.112 263.399 L578.646 264.245 L577.512 264.476 L576.915 264.88 L576.775 265.224 L576.918 265.931 L577.523 266.332 L579.175 266.067 L581.306 264.888 L582.077 263.852 L582.353 263.013 L582.202 261.369 L581.545 260.375 L580.717 259.827 L579.575 259.521 L578.449 259.612 L576.907 260.054 L576.238 260.092 L575.512 259.717 L575.32 259.389 L575.361 258.568 L575.664 258.111 L577.13 257.265 L578.26 257.034 L578.861 256.63 Z "
     stroke="black"
     stroke-width="1"
     fill="none"
     id="path997"
     style="stroke:none;fill:#000000;fill-opacity:1" />
  <path
     d="M578.744 159.484 L578.649 158.766 L578.075 158.324 L577.357 158.419 L576.616 158.846 L575.83 157.485 L575.255 157.043 L574.541 157.137 L574.099 157.712 L574.193 158.43 L574.98 159.79 L574.424 160.433 L574.518 161.151 L575.093 161.59 L575.46 161.616 L575.924 161.427 L577.731 164.356 L578.744 164.938 L579.851 164.9 L581.099 164.179 L581.288 163.479 L581.167 163.128 L580.596 162.689 L580.226 162.667 L579.447 163.033 L578.959 162.901 L577.561 160.482 L578.302 160.055 L578.744 159.484 Z "
     stroke="black"
     stroke-width="1"
     fill="none"
     id="path999"
     style="stroke:none;fill:#000000;fill-opacity:1" />
  <path
     id="path1003"
     style="stroke:none;fill:#000000;fill-opacity:1"
     d="M 580.4375 100.68359 L 579.26562 100.70703 L 577.92383 101.40234 L 577.2207 102.33594 L 576.96875 103.10352 L 577.07617 104.56445 L 578.22266 106.55273 L 579.15625 107.25391 L 579.92773 107.50977 L 581.38672 107.39844 L 582.66016 106.58594 L 583.26367 105.58203 L 583.42773 104.78906 L 583.37891 103.98633 L 582.13867 101.64258 L 581.20312 100.93945 L 580.4375 100.68359 z M 579.66992 102.57422 L 580.28906 102.60156 L 580.64844 102.83789 L 581.50781 104.32227 L 581.5332 104.75 L 581.24219 105.30273 L 580.69336 105.61914 L 580.07031 105.59375 L 579.71484 105.35742 L 578.85742 103.87305 L 578.88477 103.25 L 579.11719 102.89258 L 579.66992 102.57422 z " />
  <path
     id="path1005"
     style="stroke:none;fill:#000000;fill-opacity:1"
     d="M 582.31836 139.29492 L 581.03711 139.44141 L 578.10938 141.13086 L 577.67188 141.70508 L 577.76562 142.41992 L 582.11133 149.94922 L 582.68555 150.39062 L 583.40039 150.29688 L 583.84375 149.72266 L 583.86523 149.35547 L 582.14844 146.23633 L 582.69727 145.92383 L 586.83203 147.85156 L 587.55469 147.88086 L 588.08789 147.39453 L 588.17383 147.03516 L 587.92773 146.35352 L 584.55273 144.70312 L 585.02539 143.98438 L 585.30078 143.14258 L 585.27539 141.91797 L 584.28906 140.14844 L 583.18555 139.47656 L 582.31836 139.29492 z M 582.27734 141.19141 L 583.00781 141.56641 L 583.4043 142.25391 L 583.36328 143.07031 L 583.06055 143.53125 L 581.20312 144.60156 L 579.87305 142.29492 L 581.73047 141.22266 L 582.27734 141.19141 z " />
  <path
     id="path1007"
     style="stroke:none;fill:#000000;fill-opacity:1"
     d="M 582.61719 82.632812 L 581.03711 82.75 L 578.10938 84.4375 L 577.67188 85.011719 L 577.76562 85.728516 L 582.11133 93.255859 L 582.68555 93.697266 L 583.05273 93.720703 L 583.67969 93.359375 L 583.86523 92.660156 L 582.14844 89.544922 L 582.69727 89.228516 L 586.83203 91.15625 L 587.55469 91.189453 L 588.08789 90.699219 L 588.17383 90.341797 L 587.92773 89.662109 L 584.55273 88.007812 L 585.15039 87.015625 L 585.3125 86.298828 L 585.18359 84.869141 L 584.49609 83.677734 L 583.46094 82.908203 L 582.61719 82.632812 z M 582.27734 84.496094 L 583.00781 84.871094 L 583.4043 85.560547 L 583.36328 86.378906 L 583.06055 86.835938 L 581.20312 87.908203 L 579.87305 85.601562 L 581.73047 84.529297 L 582.27734 84.496094 z " />
  <path
     id="path1009"
     style="stroke:none;fill:#000000;fill-opacity:1"
     d="M 581.88086 196.0293 L 580.58789 196.15625 L 579.01172 197.06836 L 578.25586 198.12109 L 577.83203 199.9375 L 578.36914 201.76172 L 579.96875 204.58594 L 581.62305 206.26758 L 582.89453 206.64453 L 584.21289 206.63477 L 585.99609 205.68945 L 586.82031 204.58984 L 587.24414 202.77539 L 586.62305 200.74219 L 585.11133 198.12695 L 583.45312 196.44336 L 581.88086 196.0293 z M 581.80469 197.92578 L 582.56055 198.14453 L 583.5293 199.16602 L 584.93164 201.5918 L 585.33203 202.94141 L 585.14258 203.70508 L 584.85156 204.16602 L 583.82031 204.76367 L 583.27148 204.78516 L 582.51562 204.56641 L 581.54883 203.54688 L 580.14648 201.11914 L 579.74609 199.76758 L 579.93359 199.00781 L 580.22852 198.54688 L 581.26172 197.94922 L 581.80469 197.92578 z " />
  <path
     id="path1013"
     style="stroke:none;fill:#000000;fill-opacity:1"
     d="M 582.99609 155.95703 L 581.46875 156.04883 L 580.10742 156.83594 L 579.4043 157.76758 L 579.26562 158.47852 L 579.66992 159.08008 L 580.38086 159.2168 L 580.7207 159.07227 L 581.30273 158.32422 L 582.16016 157.82812 L 582.56836 157.9043 L 580.9668 158.91406 L 580.48242 159.63867 L 580.32812 160.21875 L 580.4707 161.37891 L 580.89844 162.11523 L 581.83203 162.81836 L 582.41016 162.97266 L 583.57031 162.83203 L 585.8125 161.53906 L 586.08789 161.29883 L 586.27344 160.59961 L 584.14062 156.76367 L 582.99609 155.95703 z M 583.55078 159.51758 L 584.04688 160.37695 L 582.875 161.05273 L 582.38672 160.92188 L 582.23633 160.41797 L 582.38086 160.19531 L 583.55078 159.51758 z " />
  <path
     d="M589.962 259.222 L589.773 259.922 L589.497 260.163 L585.91 262.231 L585.562 262.352 L584.863 262.163 L580.275 254.358 L580.154 254.01 L580.343 253.311 L584.205 250.998 L584.92 250.904 L585.252 251.066 L585.615 251.693 L585.426 252.393 L582.384 254.233 L583.506 256.18 L585.547 255.084 L586.246 255.273 L586.488 255.549 L586.609 255.9 L586.42 256.596 L584.451 257.816 L585.785 260.122 L588.9 258.406 L589.599 258.595 L589.962 259.222 Z "
     stroke="black"
     stroke-width="1"
     fill="none"
     id="path1021"
     style="stroke:none;fill:#000000;fill-opacity:1" />
  <path
     id="path1023"
     style="stroke:none;fill:#000000;fill-opacity:1"
     d="M 584.86719 211.57031 L 583.33984 211.66016 L 581.97461 212.44727 L 581.27148 213.38086 L 581.13672 214.0918 L 581.54102 214.69141 L 582.25195 214.82812 L 582.5918 214.68359 L 583.17383 213.93945 L 584.03125 213.44141 L 584.43945 213.51562 L 582.83789 214.52539 L 582.35352 215.25195 L 582.19727 215.83008 L 582.3418 216.99023 L 582.76953 217.73047 L 583.70312 218.43359 L 584.28125 218.58984 L 585.4375 218.44531 L 587.67969 217.15234 L 588.12109 216.58203 L 588.14453 216.21094 L 586.01172 212.37891 L 584.86719 211.57031 z M 585.42188 215.13477 L 585.91797 215.98828 L 584.74609 216.66406 L 584.25781 216.53516 L 584.10352 216.0293 L 584.25195 215.80664 L 585.42188 215.13477 z " />
  <path
     d="M586.896 103.546 L586.874 103.914 L586.435 104.488 L586.084 104.606 L585.385 104.419 L582.505 99.4288 L582.527 99.0607 L582.969 98.4869 L583.499 98.3803 L583.846 97.9827 L585.188 97.2888 L586.295 97.2495 L587.361 97.8712 L589.705 101.927 L589.516 102.625 L589.24 102.868 L588.522 102.963 L588.193 102.799 L586.08 99.2863 L585.592 99.1555 L585.041 99.4723 L584.821 99.8064 L586.896 103.546 Z "
     stroke="black"
     stroke-width="1"
     fill="none"
     id="path1027"
     style="stroke:none;fill:#000000;fill-opacity:1" />
  <path
     d="M586.08 152.753 L585.986 152.035 L585.744 151.759 L584.553 151.438 L583.926 151.801 L583.608 152.991 L583.967 153.619 L584.791 153.913 L585.29 153.891 L585.022 154.314 L585.116 155.032 L587.637 159.394 L588.212 159.836 L588.926 159.741 L589.368 159.167 L589.274 158.449 L586.753 154.087 L586.178 153.645 L585.683 153.668 L586.08 152.753 Z "
     stroke="black"
     stroke-width="1"
     fill="none"
     id="path1029"
     style="stroke:none;fill:#000000;fill-opacity:1" />
  <path
     d="M584.3 153.781 L584.3 153.781 "
     stroke="black"
     stroke-width="1"
     fill="none"
     id="path1033"
     style="stroke:none;fill:#000000;fill-opacity:1" />
  <path
     d="M584.553 151.438 L584.553 151.438 "
     stroke="black"
     stroke-width="1"
     fill="none"
     id="path1035"
     style="stroke:none;fill:#000000;fill-opacity:1" />
  <path
     d="M584.791 153.913 L584.791 153.913 "
     stroke="black"
     stroke-width="1"
     fill="none"
     id="path1037"
     style="stroke:none;fill:#000000;fill-opacity:1" />
  <path
     id="path1039"
     style="stroke:none;fill:#000000;fill-opacity:1"
     d="M 589.28125 191.9082 L 587.62109 192.1543 L 585.25586 193.54297 L 585.09375 193.86914 L 585.1875 194.58984 L 589.96875 202.72266 L 590.29883 202.88477 L 591.01562 202.78906 L 593.04883 201.55469 L 594.09375 200.23828 L 594.42188 198.70703 L 594.3125 197.55664 L 593.80469 195.85156 L 593.07227 194.52734 L 591.71484 193.05859 L 590.77344 192.38867 L 589.28125 191.9082 z M 589.04688 193.80664 L 589.82812 194.0332 L 590.41406 194.43359 L 591.48828 195.56641 L 592.02539 196.49609 L 592.4707 197.99805 L 592.52344 198.70117 L 592.33008 199.49414 L 591.72266 200.19727 L 590.88867 200.68164 L 587.29688 194.46094 L 588.13281 193.98047 L 589.04688 193.80664 z " />
  <path
     d="M585.158 153.936 L585.158 153.936 "
     stroke="black"
     stroke-width="1"
     fill="none"
     id="path1041"
     style="stroke:none;fill:#000000;fill-opacity:1" />
  <path
     id="path1043"
     style="stroke:none;fill:#000000;fill-opacity:1"
     d="M 590.14648 134.97852 L 588.85352 135.00781 L 585.63867 136.78516 L 585.36133 137.02539 L 585.17383 137.72656 L 589.64062 145.60156 L 590.21094 146.04492 L 590.92969 145.94922 L 591.37109 145.375 L 591.39453 145.00977 L 589.67773 141.89062 L 592.00586 140.4668 L 592.67969 139.36133 L 592.85938 138.49609 L 592.80078 137.50586 L 592.02148 136.02539 L 590.99023 135.25391 L 590.14648 134.97852 z M 589.80664 136.8457 L 590.53125 137.21875 L 590.93359 137.90625 L 590.89062 138.72266 L 590.58984 139.18555 L 588.73242 140.25391 L 587.40234 137.94922 L 589.25977 136.875 L 589.80664 136.8457 z " />
  <path
     id="path1045"
     style="stroke:none;fill:#000000;fill-opacity:1"
     d="M 589.36328 78.683594 L 587.71289 78.949219 L 585.36133 80.333984 L 585.17383 81.033203 L 585.29492 81.382812 L 589.88281 89.1875 L 590.21094 89.351562 L 590.92969 89.255859 L 592.95508 88.029297 L 594.00977 86.732422 L 594.36523 85.236328 L 594.27344 84.109375 L 593.80469 82.46875 L 593.0957 81.179688 L 591.76758 79.767578 L 590.83789 79.126953 L 589.36328 78.683594 z M 589.15625 80.582031 L 589.92383 80.789062 L 590.48242 81.15625 L 591.51562 82.224609 L 592.02148 83.099609 L 592.42969 84.529297 L 592.4668 85.195312 L 592.26367 85.962891 L 591.64258 86.662109 L 590.80469 87.146484 L 587.40234 81.255859 L 588.24219 80.769531 L 589.15625 80.582031 z " />
  <path
     d="M585.411 151.596 L585.411 151.596 "
     stroke="black"
     stroke-width="1"
     fill="none"
     id="path1047"
     style="stroke:none;fill:#000000;fill-opacity:1" />
  <path
     d="M592.154 214.303 L591.674 214.847 L590.513 214.987 L589.935 214.832 L589.002 214.129 L585.729 208.463 L585.608 208.112 L585.797 207.413 L586.424 207.053 L587.119 207.239 L590.491 212.934 L590.714 213.082 L591.568 213.105 L591.889 213.29 L592.112 213.581 L592.154 214.303 Z "
     stroke="black"
     stroke-width="1"
     fill="none"
     id="path1049"
     style="stroke:none;fill:#000000;fill-opacity:1" />
  <path
     d="M592.044 248.333 L591.95 247.619 L591.704 247.339 L591.375 247.177 L590.657 247.271 L586.356 249.755 L585.914 250.329 L585.891 250.699 L586.254 251.323 L586.949 251.512 L588.631 250.624 L592.505 257.333 L593.08 257.775 L593.45 257.797 L593.798 257.68 L594.236 257.106 L594.142 256.388 L590.268 249.679 L591.602 248.908 L592.044 248.333 Z "
     stroke="black"
     stroke-width="1"
     fill="none"
     id="path1051"
     style="stroke:none;fill:#000000;fill-opacity:1" />
  <path
     d="M585.91 262.231 L585.91 262.231 "
     stroke="black"
     stroke-width="1"
     fill="none"
     id="path1053"
     style="stroke:none;fill:#000000;fill-opacity:1" />
  <path
     d="M592.509 157.001 L592.486 157.368 L592.044 157.942 L591.326 158.037 L590.997 157.874 L588.117 152.882 L588.302 152.182 L588.582 151.94 L589.111 151.835 L589.516 151.4 L590.801 150.742 L592.037 150.739 L592.974 151.324 L595.313 155.38 L595.128 156.079 L594.849 156.321 L594.501 156.442 L593.802 156.253 L591.693 152.738 L591.201 152.609 L590.653 152.927 L590.434 153.259 L592.509 157.001 Z "
     stroke="black"
     stroke-width="1"
     fill="none"
     id="path1061"
     style="stroke:none;fill:#000000;fill-opacity:1" />
  <path
     d="M588.506 248.515 L588.506 248.515 "
     stroke="black"
     stroke-width="1"
     fill="none"
     id="path1063"
     style="stroke:none;fill:#000000;fill-opacity:1" />
  <path
     d="M588.593 153.853 L588.593 153.853 "
     stroke="black"
     stroke-width="1"
     fill="none"
     id="path1065"
     style="stroke:none;fill:#000000;fill-opacity:1" />
  <path
     id="path1067"
     style="stroke:none;fill:#000000;fill-opacity:1"
     d="M 592.21875 93.830078 L 590.82227 93.957031 L 589.24023 94.951172 L 588.65039 95.888672 L 588.6582 97.125 L 590.45703 100.24414 L 591.39453 100.83008 L 592.63086 100.82617 L 594.50586 99.746094 L 595.12305 98.677734 L 595.12305 98.308594 L 594.7207 97.708984 L 594.00977 97.572266 L 593.66992 97.716797 L 593.08789 98.462891 L 592.22852 98.960938 L 591.73828 98.830078 L 591.51953 98.447266 L 593.69141 96.535156 L 594.01367 95.884766 L 593.96484 95.519531 L 593.49219 94.671875 L 592.21875 93.830078 z M 591.75781 95.720703 L 590.55469 96.777344 L 590.50586 96.455078 L 590.65234 96.232422 L 591.75781 95.720703 z " />
  <path
     d="M593.707 207.537 L593.613 206.819 L593.038 206.381 L592.32 206.475 L591.579 206.902 L590.793 205.538 L590.219 205.096 L589.504 205.19 L589.062 205.765 L589.157 206.483 L589.943 207.847 L589.387 208.486 L589.482 209.204 L590.056 209.646 L590.888 209.484 L592.637 212.371 L593.579 212.957 L594.814 212.953 L596.062 212.231 L596.251 211.532 L595.888 210.905 L595.559 210.742 L595.189 210.72 L594.41 211.086 L593.923 210.954 L592.524 208.539 L593.265 208.112 L593.707 207.537 Z "
     stroke="black"
     stroke-width="1"
     fill="none"
     id="path1069"
     style="stroke:none;fill:#000000;fill-opacity:1" />
  <path
     d="M590.581 89.3745 L590.581 89.3745 "
     stroke="black"
     stroke-width="1"
     fill="none"
     id="path1073"
     style="stroke:none;fill:#000000;fill-opacity:1" />
  <path
     d="M422.34 94.718 L422.34 94.7187 "
     stroke="black"
     stroke-width="1"
     fill="none"
     id="path1075"
     style="stroke:none;fill:#000000;fill-opacity:1" />
  <path
     d="M423.092 0 L423.092 0.000377953 "
     stroke="black"
     stroke-width="1"
     fill="none"
     id="path1077"
     style="stroke:none;fill:#000000;fill-opacity:1" />
  <path
     d="M58.0876 187.308 L52.1575 185.233 L46.3899 182.64 L43.6913 181.212 L38.2791 177.882 L33.2031 174.118 L28.5165 169.979 L24.1663 165.413 L20.1751 160.432 L18.4592 157.975 L15.1521 152.533 L12.3515 146.886 L10.0384 140.998 L9.11244 138.091 L7.57417 131.934 L6.57638 125.724 L6.11528 119.382 L6.08504 116.366 L6.44787 109.994 L7.34362 103.709 L7.96724 100.73 L9.66047 94.6416 L11.8866 88.6813 L13.1263 85.9109 L16.097 80.2908 L19.5024 74.9994 L23.3386 70.0445 L27.6321 65.3805 L32.262 61.1475 L37.3077 57.2734 L39.8098 55.5991 L45.3241 52.4016 L51.0274 49.722 L56.897 47.5563 L63.0652 45.8631 L65.983 45.2659 L72.5178 44.3512 L423.711 5.62998 L432.461 4.80605 L450.361 3.44542 L468.204 2.50431 L477.007 2.19817 L494.918 1.88069 L504.941 2.02431 L509.983 2.31534 L514.806 2.73487 L524.738 4.0388 L534.489 5.89833 L539.407 7.05865 L544.101 8.31345 L553.701 11.3333 L558.327 13.0114 L567.523 16.8098 L576.578 21.1827 L580.845 23.4731 L589.448 28.5982 L597.679 34.1654 L605.65 40.258 L609.49 43.4706 L613.1 46.6719 L620.285 53.6262 L627.118 61.053 L630.198 64.7116 L636.355 72.7015 L639.209 76.7531 L641.919 80.8577 L647.055 89.4108 L651.693 98.27 L653.802 102.764 L657.649 111.975 L659.339 116.582 L660.911 121.291 L663.685 130.955 L665.854 140.593 L667.487 150.507 L668.058 155.292 L668.825 165.323 L668.999 175.274 L668.606 185.218 L667.627 195.128 L666.081 204.958 L663.942 214.804 L662.714 219.461 L659.743 229.008 L656.239 238.343 L654.312 242.867 L649.98 251.912 L645.184 260.601 L639.874 269.018 L634.042 277.185 L631.034 281.021 L624.533 288.618 L617.643 295.792 L610.311 302.58 L602.657 308.884 L594.633 314.746 L586.254 320.147 L577.459 325.125 L573.214 327.287 L564.094 331.444 L554.793 335.05 L545.295 338.107 L535.657 340.606 L525.959 342.522 L515.962 343.905 L511.158 344.359 L501.158 344.865 L491.206 344.786 L481.274 344.132 L471.326 342.896 L461.613 341.108 L451.926 338.739 L442.329 335.791 L437.734 334.154 L428.485 330.409 L419.497 326.145 L410.729 321.341 L402.316 316.073 L394.186 310.305 L386.442 304.095 L382.666 300.792 L379.041 297.428 L372.042 290.346 L365.401 282.798 L359.119 275.163 L352.15 267.676 L344.742 260.608 L336.994 254.047 L332.912 250.884 L324.612 245.029 L320.345 242.293 L311.494 237.153 L302.302 232.523 L297.623 230.425 L288.242 226.702 L278.506 223.486 L273.608 222.106 L263.732 219.786 L253.629 218.036 L243.572 216.902 L233.299 216.35 L227.565 216.441 L216.525 216.909 L206.419 217.624 L201.785 217.809 L192.522 217.835 L183.356 217.401 L178.745 217.011 L169.534 215.885 L165.048 215.163 L156.064 213.375 L58.0876 187.308 Z "
     stroke="black"
     stroke-width="1"
     fill="none"
     id="path1079"
     style="stroke-width:1.88999999;stroke-miterlimit:4;stroke-dasharray:none" />
</svg>
