M48
; DRILL file {KiCad 8.0.9} date 2025-12-27T15:08:35+0100
; FORMAT={3:3/ absolute / metric / suppress leading zeros}
; #@! TF.CreationDate,2025-12-27T15:08:35+01:00
; #@! TF.GenerationSoftware,Kicad,Pcbnew,8.0.9
; #@! TF.FileFunction,MixedPlating,1,4
FMAT,2
METRIC,TZ
; #@! TA.AperFunction,Plated,PTH,ComponentDrill
T1C0.200
; #@! TA.AperFunction,Plated,PTH,ViaDrill
T2C0.300
; #@! TA.AperFunction,Plated,PTH,ViaDrill
T3C0.400
; #@! TA.AperFunction,Plated,PTH,ComponentDrill
T4C0.400
; #@! TA.AperFunction,Plated,PTH,ComponentDrill
T5C0.700
; #@! TA.AperFunction,Plated,PTH,ComponentDrill
T6C0.750
; #@! TA.AperFunction,Plated,PTH,ComponentDrill
T7C0.900
; #@! TA.AperFunction,Plated,PTH,ComponentDrill
T8C0.950
; #@! TA.AperFunction,Plated,PTH,ComponentDrill
T9C1.000
; #@! TA.AperFunction,Plated,PTH,ComponentDrill
T10C1.200
; #@! TA.AperFunction,NonPlated,NPTH,ComponentDrill
T11C1.020
; #@! TA.AperFunction,NonPlated,NPTH,ComponentDrill
T12C1.200
; #@! TA.AperFunction,NonPlated,NPTH,ComponentDrill
T13C1.500
; #@! TA.AperFunction,NonPlated,NPTH,ComponentDrill
T14C1.600
; #@! TA.AperFunction,NonPlated,NPTH,ComponentDrill
T15C1.800
%
G90
G05
T1
X155000Y-91900
X155000Y-93000
X155000Y-94100
X156100Y-91900
X156100Y-93000
X156100Y-94100
X157200Y-91900
X157200Y-93000
X157200Y-94100
T2
X131200Y-88850
X131200Y-89450
X131200Y-90050
X131200Y-91400
X131200Y-92000
X131200Y-92600
X131200Y-93950
X131200Y-94550
X131200Y-95150
X131200Y-126850
X131200Y-127450
X131200Y-128050
X131200Y-129400
X131200Y-130000
X131200Y-130600
X131200Y-131950
X131200Y-132550
X131200Y-133150
X131800Y-88850
X131800Y-89450
X131800Y-90050
X131800Y-91400
X131800Y-92000
X131800Y-92600
X131800Y-93950
X131800Y-94550
X131800Y-95150
X131800Y-126850
X131800Y-127450
X131800Y-128050
X131800Y-129400
X131800Y-130000
X131800Y-130600
X131800Y-131950
X131800Y-132550
X131800Y-133150
X132400Y-88850
X132400Y-89450
X132400Y-90050
X132400Y-91400
X132400Y-92000
X132400Y-92600
X132400Y-93950
X132400Y-94550
X132400Y-95150
X132400Y-126850
X132400Y-127450
X132400Y-128050
X132400Y-129400
X132400Y-130000
X132400Y-130600
X132400Y-131950
X132400Y-132550
X132400Y-133150
X133000Y-87400
X133000Y-88000
X133000Y-88650
X133000Y-90250
X133000Y-91200
X133000Y-92800
X133000Y-93750
X133000Y-95350
X133000Y-96000
X133000Y-96600
X133000Y-125400
X133000Y-126000
X133000Y-126650
X133000Y-128250
X133000Y-129200
X133000Y-130800
X133000Y-131750
X133000Y-133350
X133000Y-134000
X133000Y-134600
X133600Y-87400
X133600Y-88000
X133600Y-88650
X133600Y-90250
X133600Y-91200
X133600Y-92800
X133600Y-93750
X133600Y-95350
X133600Y-96000
X133600Y-96600
X133600Y-125400
X133600Y-126000
X133600Y-126650
X133600Y-128250
X133600Y-129200
X133600Y-130800
X133600Y-131750
X133600Y-133350
X133600Y-134000
X133600Y-134600
X134200Y-87400
X134200Y-88000
X134200Y-96000
X134200Y-96600
X134200Y-125400
X134200Y-126000
X134200Y-134000
X134200Y-134600
X134800Y-87400
X134800Y-88000
X134800Y-96000
X134800Y-96600
X134800Y-125400
X134800Y-126000
X134800Y-134000
X134800Y-134600
X135400Y-87400
X135400Y-88000
X135400Y-96000
X135400Y-96600
X135400Y-125400
X135400Y-126000
X135400Y-134000
X135400Y-134600
X137000Y-99000
X137000Y-120000
X137600Y-87400
X137600Y-88000
X137600Y-96000
X137600Y-96600
X137600Y-125400
X137600Y-126000
X137600Y-134000
X137600Y-134600
X138000Y-109200
X138200Y-87400
X138200Y-88000
X138200Y-96000
X138200Y-96600
X138200Y-125400
X138200Y-126000
X138200Y-134000
X138200Y-134600
X138800Y-87400
X138800Y-88000
X138800Y-96000
X138800Y-96600
X138800Y-125400
X138800Y-126000
X138800Y-134000
X138800Y-134600
X139400Y-87400
X139400Y-88000
X139400Y-88650
X139400Y-90250
X139400Y-91200
X139400Y-92800
X139400Y-93750
X139400Y-95350
X139400Y-96000
X139400Y-96600
X139400Y-125400
X139400Y-126000
X139400Y-126650
X139400Y-128250
X139400Y-129200
X139400Y-130800
X139400Y-131750
X139400Y-133350
X139400Y-134000
X139400Y-134600
X139525Y-113775
X140000Y-87400
X140000Y-88000
X140000Y-88650
X140000Y-90250
X140000Y-91200
X140000Y-92800
X140000Y-93750
X140000Y-95350
X140000Y-96000
X140000Y-96600
X140000Y-125400
X140000Y-126000
X140000Y-126650
X140000Y-128250
X140000Y-129200
X140000Y-130800
X140000Y-131750
X140000Y-133350
X140000Y-134000
X140600Y-88850
X140600Y-89450
X140600Y-90050
X140600Y-91400
X140600Y-92000
X140600Y-92600
X140600Y-93950
X140600Y-94550
X140600Y-95150
X140600Y-126850
X140600Y-127450
X140600Y-128050
X140600Y-129400
X140600Y-130000
X140600Y-130600
X140600Y-131950
X140600Y-132550
X140600Y-133150
X141200Y-88850
X141200Y-89450
X141200Y-90050
X141200Y-91400
X141200Y-92000
X141200Y-92600
X141200Y-93950
X141200Y-94550
X141200Y-95150
X141200Y-126850
X141200Y-127450
X141200Y-128050
X141200Y-129400
X141200Y-130000
X141200Y-130600
X141200Y-131950
X141200Y-132550
X141200Y-133150
X141800Y-88850
X141800Y-89450
X141800Y-90050
X141800Y-91400
X141800Y-92000
X141800Y-92600
X141800Y-93950
X141800Y-94550
X141800Y-95150
X141800Y-126850
X141800Y-127450
X141800Y-128050
X141800Y-129400
X142000Y-118250
T3
X24250Y-98000
X37000Y-98000
X39500Y-110500
X46000Y-80900
X47500Y-98000
X52000Y-110500
X55000Y-85000
X55000Y-87000
X58000Y-98000
X62000Y-98000
X64500Y-110500
X65000Y-81000
X65000Y-86000
X71000Y-81000
X74000Y-98000
X77000Y-110500
X80000Y-85000
X81000Y-88000
X83000Y-98000
X88000Y-98000
X89500Y-110500
X92000Y-122000
X93000Y-85500
X98000Y-98000
X101000Y-122000
X102000Y-110500
X103000Y-85500
X105500Y-85500
X108000Y-98000
X112700Y-83100
X113000Y-98000
X113000Y-123000
X113300Y-142400
X114500Y-110500
X115000Y-81000
X118000Y-73200
X118000Y-133400
X119000Y-100500
X119000Y-135900
X119600Y-133400
X121200Y-133400
X121700Y-110200
X123250Y-85500
X123475Y-141925
X124000Y-128400
X124000Y-143000
X125000Y-140000
X125000Y-141000
X125000Y-142000
X125000Y-143000
X126000Y-74000
X127000Y-131000
X127425Y-89425
X127445Y-81805
X127663Y-136600
X128100Y-120100
X132725Y-148075
X133600Y-139000
X134000Y-144200
X139000Y-141000
X139000Y-146000
X141000Y-146000
X147000Y-108000
X147000Y-141000
X148000Y-109000
X149000Y-110000
X149000Y-126000
X149000Y-128000
X149000Y-133000
X149000Y-134500
X149000Y-136000
X149200Y-88800
X149500Y-97000
X150500Y-76707
X150500Y-77707
X150500Y-78707
X150500Y-79707
X150500Y-81207
X150500Y-82208
X150500Y-83208
X150500Y-84208
X151000Y-126000
X151000Y-128000
X151000Y-130000
X151000Y-134500
X151000Y-136000
X151000Y-141000
X151500Y-76707
X151500Y-77707
X151500Y-78707
X151500Y-79707
X151500Y-81207
X151500Y-82208
X151500Y-83208
X151500Y-84208
X152000Y-103000
X152550Y-75300
X153000Y-90500
X153000Y-91500
X153000Y-117000
X153250Y-86750
X154000Y-84708
X154000Y-90500
X154450Y-75300
X155000Y-84708
X156000Y-76707
X156000Y-84708
X157000Y-76707
X157000Y-84708
X158800Y-97500
X158800Y-98400
X158900Y-91100
X159000Y-105500
X159000Y-108500
X159100Y-86800
X159600Y-92200
X159900Y-97500
X159900Y-98400
X160400Y-86500
X161200Y-90601
X162155Y-78095
X164000Y-143000
X165000Y-79000
X165000Y-80750
X167000Y-133000
X172000Y-95000
X172000Y-110000
X172000Y-125000
T6
X142757Y-81700
X142757Y-83700
T7
X112500Y-71730
X112500Y-74270
X117640Y-126500
X118910Y-126500
X120180Y-126500
X121450Y-126500
T8
X144130Y-115355
X144130Y-117895
X144130Y-120435
X144130Y-122975
X144130Y-125515
X144130Y-128055
X144130Y-130595
X144130Y-133135
X144130Y-135675
X144130Y-138215
X144130Y-140755
X144130Y-143295
X144130Y-145835
X144130Y-148375
X156830Y-145835
X159370Y-115355
X159370Y-117895
X159370Y-120435
X159370Y-122975
X159370Y-125515
X159370Y-128055
X159370Y-130595
X159370Y-133135
X159370Y-135675
X159370Y-138215
X159370Y-140755
X159370Y-143295
X159370Y-145835
X159370Y-148375
T9
X18250Y-79750
X18250Y-86250
X22750Y-79750
X22750Y-86250
X111203Y-130661
X112971Y-132429
X114739Y-134197
X114750Y-70750
X114750Y-75250
X121250Y-70750
X121250Y-75250
X163750Y-127250
X163750Y-131750
X163750Y-134250
X163750Y-138750
X170250Y-127250
X170250Y-131750
X170250Y-134250
X170250Y-138750
T10
X28000Y-79250
X28000Y-91750
X28750Y-95500
X28750Y-100500
X33000Y-79250
X33000Y-91750
X36750Y-83000
X36750Y-88000
X37000Y-104250
X37000Y-116750
X41250Y-95500
X41250Y-100500
X42000Y-104250
X42000Y-116750
X45000Y-91750
X45000Y-104250
X45750Y-108000
X45750Y-113000
X49250Y-83000
X49250Y-88000
X50000Y-91750
X50000Y-104250
X53000Y-79250
X53000Y-91750
X53750Y-95500
X53750Y-100500
X58000Y-79250
X58000Y-91750
X58250Y-108000
X58250Y-113000
X61750Y-83000
X61750Y-88000
X62000Y-104250
X62000Y-116750
X66250Y-95500
X66250Y-100500
X67000Y-104250
X67000Y-116750
X70000Y-91750
X70000Y-104250
X70750Y-108000
X70750Y-113000
X74250Y-83000
X74250Y-88000
X75000Y-91750
X75000Y-104250
X78000Y-79250
X78000Y-91750
X78750Y-95500
X78750Y-100500
X83000Y-79250
X83000Y-91750
X83250Y-108000
X83250Y-113000
X86750Y-83000
X86750Y-88000
X87000Y-104250
X87000Y-116750
X91250Y-95500
X91250Y-100500
X92000Y-104250
X92000Y-116750
X95000Y-91750
X95000Y-104250
X95750Y-108000
X95750Y-113000
X99250Y-83000
X99250Y-88000
X100000Y-91750
X100000Y-104250
X103000Y-79250
X103000Y-91750
X103750Y-95500
X103750Y-100500
X108000Y-79250
X108000Y-91750
X108250Y-108000
X108250Y-113000
X112000Y-104250
X112000Y-116750
X116250Y-95500
X116250Y-100500
X117000Y-104250
X117000Y-116750
T11
X135230Y-89460
X135230Y-92000
X135230Y-94540
X135230Y-127460
X135230Y-130000
X135230Y-132540
X137770Y-89460
X137770Y-92000
X137770Y-94540
X137770Y-127460
X137770Y-130000
X137770Y-132540
T12
X100597Y-137732
X102364Y-135964
X107668Y-144803
X109436Y-128893
X109436Y-135964
X109436Y-143036
X116507Y-135964
T13
X167000Y-88030
X167000Y-103030
X167000Y-118000
T14
X164000Y-84030
X164000Y-92030
X164000Y-99030
X164000Y-107030
X164000Y-114000
X164000Y-122000
X170000Y-84030
X170000Y-92030
X170000Y-99030
X170000Y-107030
X170000Y-114000
X170000Y-122000
T15
X26000Y-85500
X35000Y-85500
X35000Y-93500
X35000Y-102500
X35000Y-110500
X43000Y-81000
X43000Y-90000
X43000Y-98000
X44000Y-110500
X51000Y-85500
X52000Y-98000
X52000Y-106000
X52000Y-115000
X60000Y-85500
X60000Y-93500
X60000Y-102500
X60000Y-110500
X68000Y-81000
X68000Y-90000
X68000Y-98000
X69000Y-110500
X76000Y-85500
X77000Y-98000
X77000Y-106000
X77000Y-115000
X85000Y-85500
X85000Y-93500
X85000Y-102500
X85000Y-110500
X93000Y-81000
X93000Y-90000
X93000Y-98000
X94000Y-110500
X101000Y-85500
X102000Y-98000
X102000Y-106000
X102000Y-115000
X110000Y-85500
X110000Y-93500
X110000Y-102500
X110000Y-110500
X119000Y-110500
X136450Y-93350
X136450Y-131350
X136500Y-90625
X136500Y-128625
T4
G00X106254Y-132075
M15
G01X105546Y-132782
M16
G05
G00X105546Y-139146
M15
G01X106254Y-139854
M16
G05
G00X108021Y-133843
M15
G01X107314Y-134550
M16
G05
G00X110850Y-138086
M15
G01X111557Y-137379
M16
G05
G00X112618Y-139854
M15
G01X113325Y-139146
M16
G05
T5
G00X164050Y-95030
M15
G01X164950Y-95030
M16
G05
G00X164050Y-110030
M15
G01X164950Y-110030
M16
G05
G00X164050Y-125000
M15
G01X164950Y-125000
M16
G05
G00X166550Y-95030
M15
G01X167450Y-95030
M16
G05
G00X166550Y-110030
M15
G01X167450Y-110030
M16
G05
G00X166550Y-125000
M15
G01X167450Y-125000
M16
G05
G00X169050Y-95030
M15
G01X169950Y-95030
M16
G05
G00X169050Y-110030
M15
G01X169950Y-110030
M16
G05
G00X169050Y-125000
M15
G01X169950Y-125000
M16
G05
T15
G00X162600Y-87330
M15
G01X162600Y-88730
M16
G05
G00X162600Y-102330
M15
G01X162600Y-103730
M16
G05
G00X162600Y-117300
M15
G01X162600Y-118700
M16
G05
G00X171400Y-87330
M15
G01X171400Y-88730
M16
G05
G00X171400Y-102330
M15
G01X171400Y-103730
M16
G05
G00X171400Y-117300
M15
G01X171400Y-118700
M16
G05
M30
