M48
; DRILL file {KiCad (6.0.10-0)} date Wednesday, 14 August 2024 at 10:58:16
; FORMAT={-:-/ absolute / inch / decimal}
; #@! TF.CreationDate,2024-08-14T10:58:16+02:00
; #@! TF.GenerationSoftware,Kicad,Pcbnew,(6.0.10-0)
; #@! TF.FileFunction,NonPlated,1,4,NPTH
FMAT,2
INCH
; #@! TA.AperFunction,NonPlated,NPTH,ComponentDrill
T1C0.0402
; #@! TA.AperFunction,NonPlated,NPTH,ComponentDrill
T2C0.0472
; #@! TA.AperFunction,NonPlated,NPTH,ComponentDrill
T3C0.0591
; #@! TA.AperFunction,NonPlated,NPTH,ComponentDrill
T4C0.0630
; #@! TA.AperFunction,NonPlated,NPTH,ComponentDrill
T5C0.0709
%
G90
G05
T1
X5.324Y-3.622
X5.324Y-3.722
X5.324Y-5.1181
X5.324Y-5.2181
X5.3248Y-3.5197
X5.3248Y-5.0157
X5.424Y-3.722
X5.424Y-5.2181
X5.4252Y-3.5217
X5.4252Y-5.0177
X5.4262Y-3.6211
X5.4262Y-5.1171
T2
X3.9605Y-5.4225
X4.0301Y-5.3529
X4.2389Y-5.7009
X4.3085Y-5.0745
X4.3085Y-5.3529
X4.3085Y-5.6313
X4.5869Y-5.3529
T3
X6.5748Y-3.4657
X6.5748Y-4.0563
X6.5748Y-4.6457
T4
X6.4567Y-3.3083
X6.4567Y-3.6232
X6.4567Y-3.8988
X6.4567Y-4.2138
X6.4567Y-4.4882
X6.4567Y-4.8031
X6.6929Y-3.3083
X6.6929Y-3.6232
X6.6929Y-3.8988
X6.6929Y-4.2138
X6.6929Y-4.4882
X6.6929Y-4.8031
T5
X1.0236Y-3.3661
X1.378Y-3.3661
X1.378Y-3.6811
X1.378Y-4.0354
X1.378Y-4.3504
X1.6929Y-3.189
X1.6929Y-3.5433
X1.6929Y-3.8583
X1.7323Y-4.3504
X2.0079Y-3.3661
X2.0472Y-3.8583
X2.0472Y-4.1732
X2.0472Y-4.5276
X2.3622Y-3.3661
X2.3622Y-3.6811
X2.3622Y-4.0354
X2.3622Y-4.3504
X2.6772Y-3.189
X2.6772Y-3.5433
X2.6772Y-3.8583
X2.7165Y-4.3504
X2.9921Y-3.3661
X3.0315Y-3.8583
X3.0315Y-4.1732
X3.0315Y-4.5276
X3.3465Y-3.3661
X3.3465Y-3.6811
X3.3465Y-4.0354
X3.3465Y-4.3504
X3.6614Y-3.189
X3.6614Y-3.5433
X3.6614Y-3.8583
X3.7008Y-4.3504
X3.9764Y-3.3661
X4.0157Y-3.8583
X4.0157Y-4.1732
X4.0157Y-4.5276
X4.3307Y-3.3661
X4.3307Y-3.6811
X4.3307Y-4.0354
X4.3307Y-4.3504
X4.685Y-4.3504
X5.372Y-3.6752
X5.372Y-5.1713
X5.374Y-3.5679
X5.374Y-5.064
T5
G00X6.4016Y-3.4382
M15
G01X6.4016Y-3.4933
M16
G05
G00X6.4016Y-4.0287
M15
G01X6.4016Y-4.0839
M16
G05
G00X6.4016Y-4.6181
M15
G01X6.4016Y-4.6732
M16
G05
G00X6.748Y-3.4382
M15
G01X6.748Y-3.4933
M16
G05
G00X6.748Y-4.0287
M15
G01X6.748Y-4.0839
M16
G05
G00X6.748Y-4.6181
M15
G01X6.748Y-4.6732
M16
G05
T0
M30
