%TF.GenerationSoftware,KiCad,Pcbnew,(6.0.10-0)*%
%TF.CreationDate,2024-08-14T10:58:16+02:00*%
%TF.ProjectId,MiniChord,4d696e69-4368-46f7-9264-2e6b69636164,rev?*%
%TF.SameCoordinates,Original*%
%TF.FileFunction,Legend,Bot*%
%TF.FilePolarity,Positive*%
%FSLAX46Y46*%
G04 Gerber Fmt 4.6, Leading zero omitted, Abs format (unit mm)*
G04 Created by KiCad (PCBNEW (6.0.10-0)) date 2024-08-14 10:58:16*
%MOMM*%
%LPD*%
G01*
G04 APERTURE LIST*
G04 Aperture macros list*
%AMRoundRect*
0 Rectangle with rounded corners*
0 $1 Rounding radius*
0 $2 $3 $4 $5 $6 $7 $8 $9 X,Y pos of 4 corners*
0 Add a 4 corners polygon primitive as box body*
4,1,4,$2,$3,$4,$5,$6,$7,$8,$9,$2,$3,0*
0 Add four circle primitives for the rounded corners*
1,1,$1+$1,$2,$3*
1,1,$1+$1,$4,$5*
1,1,$1+$1,$6,$7*
1,1,$1+$1,$8,$9*
0 Add four rect primitives between the rounded corners*
20,1,$1+$1,$2,$3,$4,$5,0*
20,1,$1+$1,$4,$5,$6,$7,0*
20,1,$1+$1,$6,$7,$8,$9,0*
20,1,$1+$1,$8,$9,$2,$3,0*%
%AMHorizOval*
0 Thick line with rounded ends*
0 $1 width*
0 $2 $3 position (X,Y) of the first rounded end (center of the circle)*
0 $4 $5 position (X,Y) of the second rounded end (center of the circle)*
0 Add line between two ends*
20,1,$1,$2,$3,$4,$5,0*
0 Add two circle primitives to create the rounded ends*
1,1,$1,$2,$3*
1,1,$1,$4,$5*%
G04 Aperture macros list end*
%ADD10C,0.150000*%
%ADD11C,0.100000*%
%ADD12C,0.075000*%
%ADD13C,0.400000*%
%ADD14C,0.120000*%
%ADD15C,1.800000*%
%ADD16C,2.000000*%
%ADD17R,1.070000X1.800000*%
%ADD18O,1.070000X1.800000*%
%ADD19R,1.800000X1.800000*%
%ADD20C,1.700000*%
%ADD21C,1.600000*%
%ADD22O,1.900000X3.300000*%
%ADD23O,2.050000X1.800000*%
%ADD24C,1.100000*%
%ADD25C,1.850000*%
%ADD26C,1.750000*%
%ADD27HorizOval,1.200000X-0.353553X-0.353553X0.353553X0.353553X0*%
%ADD28HorizOval,1.200000X0.353553X-0.353553X-0.353553X0.353553X0*%
%ADD29HorizOval,1.200000X0.353553X0.353553X-0.353553X-0.353553X0*%
%ADD30RoundRect,0.250000X0.350000X0.625000X-0.350000X0.625000X-0.350000X-0.625000X0.350000X-0.625000X0*%
%ADD31O,1.200000X1.750000*%
%ADD32C,1.650000*%
G04 APERTURE END LIST*
D10*
X130625000Y-103250000D02*
X130625000Y-103250000D01*
X130625000Y-102500000D02*
X130625000Y-103000000D01*
X130625000Y-102000000D02*
X129875000Y-103500000D01*
X131375000Y-103500000D02*
X130625000Y-102000000D01*
X129875000Y-103500000D02*
X131375000Y-103500000D01*
D11*
X129077857Y-101881785D02*
X129327857Y-101524642D01*
X129506428Y-101881785D02*
X129506428Y-101131785D01*
X129220714Y-101131785D01*
X129149285Y-101167500D01*
X129113571Y-101203214D01*
X129077857Y-101274642D01*
X129077857Y-101381785D01*
X129113571Y-101453214D01*
X129149285Y-101488928D01*
X129220714Y-101524642D01*
X129506428Y-101524642D01*
X128470714Y-101846071D02*
X128542142Y-101881785D01*
X128685000Y-101881785D01*
X128756428Y-101846071D01*
X128792142Y-101774642D01*
X128792142Y-101488928D01*
X128756428Y-101417500D01*
X128685000Y-101381785D01*
X128542142Y-101381785D01*
X128470714Y-101417500D01*
X128435000Y-101488928D01*
X128435000Y-101560357D01*
X128792142Y-101631785D01*
X128185000Y-101381785D02*
X128006428Y-101881785D01*
X127827857Y-101381785D01*
X127256428Y-101846071D02*
X127327857Y-101881785D01*
X127470714Y-101881785D01*
X127542142Y-101846071D01*
X127577857Y-101774642D01*
X127577857Y-101488928D01*
X127542142Y-101417500D01*
X127470714Y-101381785D01*
X127327857Y-101381785D01*
X127256428Y-101417500D01*
X127220714Y-101488928D01*
X127220714Y-101560357D01*
X127577857Y-101631785D01*
X126899285Y-101881785D02*
X126899285Y-101381785D01*
X126899285Y-101524642D02*
X126863571Y-101453214D01*
X126827857Y-101417500D01*
X126756428Y-101381785D01*
X126685000Y-101381785D01*
X126470714Y-101846071D02*
X126399285Y-101881785D01*
X126256428Y-101881785D01*
X126185000Y-101846071D01*
X126149285Y-101774642D01*
X126149285Y-101738928D01*
X126185000Y-101667500D01*
X126256428Y-101631785D01*
X126363571Y-101631785D01*
X126435000Y-101596071D01*
X126470714Y-101524642D01*
X126470714Y-101488928D01*
X126435000Y-101417500D01*
X126363571Y-101381785D01*
X126256428Y-101381785D01*
X126185000Y-101417500D01*
X125542142Y-101846071D02*
X125613571Y-101881785D01*
X125756428Y-101881785D01*
X125827857Y-101846071D01*
X125863571Y-101774642D01*
X125863571Y-101488928D01*
X125827857Y-101417500D01*
X125756428Y-101381785D01*
X125613571Y-101381785D01*
X125542142Y-101417500D01*
X125506428Y-101488928D01*
X125506428Y-101560357D01*
X125863571Y-101631785D01*
X124613571Y-101381785D02*
X124613571Y-102131785D01*
X124613571Y-101417500D02*
X124542142Y-101381785D01*
X124399285Y-101381785D01*
X124327857Y-101417500D01*
X124292142Y-101453214D01*
X124256428Y-101524642D01*
X124256428Y-101738928D01*
X124292142Y-101810357D01*
X124327857Y-101846071D01*
X124399285Y-101881785D01*
X124542142Y-101881785D01*
X124613571Y-101846071D01*
X123827857Y-101881785D02*
X123899285Y-101846071D01*
X123935000Y-101810357D01*
X123970714Y-101738928D01*
X123970714Y-101524642D01*
X123935000Y-101453214D01*
X123899285Y-101417500D01*
X123827857Y-101381785D01*
X123720714Y-101381785D01*
X123649285Y-101417500D01*
X123613571Y-101453214D01*
X123577857Y-101524642D01*
X123577857Y-101738928D01*
X123613571Y-101810357D01*
X123649285Y-101846071D01*
X123720714Y-101881785D01*
X123827857Y-101881785D01*
X123149285Y-101881785D02*
X123220714Y-101846071D01*
X123256428Y-101774642D01*
X123256428Y-101131785D01*
X122542142Y-101881785D02*
X122542142Y-101488928D01*
X122577857Y-101417500D01*
X122649285Y-101381785D01*
X122792142Y-101381785D01*
X122863571Y-101417500D01*
X122542142Y-101846071D02*
X122613571Y-101881785D01*
X122792142Y-101881785D01*
X122863571Y-101846071D01*
X122899285Y-101774642D01*
X122899285Y-101703214D01*
X122863571Y-101631785D01*
X122792142Y-101596071D01*
X122613571Y-101596071D01*
X122542142Y-101560357D01*
X122185000Y-101881785D02*
X122185000Y-101381785D01*
X122185000Y-101524642D02*
X122149285Y-101453214D01*
X122113571Y-101417500D01*
X122042142Y-101381785D01*
X121970714Y-101381785D01*
X121720714Y-101881785D02*
X121720714Y-101381785D01*
X121720714Y-101131785D02*
X121756428Y-101167500D01*
X121720714Y-101203214D01*
X121685000Y-101167500D01*
X121720714Y-101131785D01*
X121720714Y-101203214D01*
X121470714Y-101381785D02*
X121185000Y-101381785D01*
X121363571Y-101131785D02*
X121363571Y-101774642D01*
X121327857Y-101846071D01*
X121256428Y-101881785D01*
X121185000Y-101881785D01*
X121006428Y-101381785D02*
X120827857Y-101881785D01*
X120649285Y-101381785D02*
X120827857Y-101881785D01*
X120899285Y-102060357D01*
X120935000Y-102096071D01*
X121006428Y-102131785D01*
X129577857Y-102589285D02*
X129435000Y-103089285D01*
X129292142Y-102732142D01*
X129149285Y-103089285D01*
X129006428Y-102589285D01*
X128720714Y-103089285D02*
X128720714Y-102589285D01*
X128720714Y-102339285D02*
X128756428Y-102375000D01*
X128720714Y-102410714D01*
X128685000Y-102375000D01*
X128720714Y-102339285D01*
X128720714Y-102410714D01*
X128256428Y-103089285D02*
X128327857Y-103053571D01*
X128363571Y-102982142D01*
X128363571Y-102339285D01*
X127863571Y-103089285D02*
X127935000Y-103053571D01*
X127970714Y-102982142D01*
X127970714Y-102339285D01*
X126685000Y-103089285D02*
X126685000Y-102339285D01*
X126685000Y-103053571D02*
X126756428Y-103089285D01*
X126899285Y-103089285D01*
X126970714Y-103053571D01*
X127006428Y-103017857D01*
X127042142Y-102946428D01*
X127042142Y-102732142D01*
X127006428Y-102660714D01*
X126970714Y-102625000D01*
X126899285Y-102589285D01*
X126756428Y-102589285D01*
X126685000Y-102625000D01*
X126006428Y-103089285D02*
X126006428Y-102696428D01*
X126042142Y-102625000D01*
X126113571Y-102589285D01*
X126256428Y-102589285D01*
X126327857Y-102625000D01*
X126006428Y-103053571D02*
X126077857Y-103089285D01*
X126256428Y-103089285D01*
X126327857Y-103053571D01*
X126363571Y-102982142D01*
X126363571Y-102910714D01*
X126327857Y-102839285D01*
X126256428Y-102803571D01*
X126077857Y-102803571D01*
X126006428Y-102767857D01*
X125649285Y-103089285D02*
X125649285Y-102589285D01*
X125649285Y-102660714D02*
X125613571Y-102625000D01*
X125542142Y-102589285D01*
X125435000Y-102589285D01*
X125363571Y-102625000D01*
X125327857Y-102696428D01*
X125327857Y-103089285D01*
X125327857Y-102696428D02*
X125292142Y-102625000D01*
X125220714Y-102589285D01*
X125113571Y-102589285D01*
X125042142Y-102625000D01*
X125006428Y-102696428D01*
X125006428Y-103089285D01*
X124327857Y-103089285D02*
X124327857Y-102696428D01*
X124363571Y-102625000D01*
X124435000Y-102589285D01*
X124577857Y-102589285D01*
X124649285Y-102625000D01*
X124327857Y-103053571D02*
X124399285Y-103089285D01*
X124577857Y-103089285D01*
X124649285Y-103053571D01*
X124685000Y-102982142D01*
X124685000Y-102910714D01*
X124649285Y-102839285D01*
X124577857Y-102803571D01*
X124399285Y-102803571D01*
X124327857Y-102767857D01*
X123649285Y-102589285D02*
X123649285Y-103196428D01*
X123685000Y-103267857D01*
X123720714Y-103303571D01*
X123792142Y-103339285D01*
X123899285Y-103339285D01*
X123970714Y-103303571D01*
X123649285Y-103053571D02*
X123720714Y-103089285D01*
X123863571Y-103089285D01*
X123935000Y-103053571D01*
X123970714Y-103017857D01*
X124006428Y-102946428D01*
X124006428Y-102732142D01*
X123970714Y-102660714D01*
X123935000Y-102625000D01*
X123863571Y-102589285D01*
X123720714Y-102589285D01*
X123649285Y-102625000D01*
X123006428Y-103053571D02*
X123077857Y-103089285D01*
X123220714Y-103089285D01*
X123292142Y-103053571D01*
X123327857Y-102982142D01*
X123327857Y-102696428D01*
X123292142Y-102625000D01*
X123220714Y-102589285D01*
X123077857Y-102589285D01*
X123006428Y-102625000D01*
X122970714Y-102696428D01*
X122970714Y-102767857D01*
X123327857Y-102839285D01*
X122185000Y-102589285D02*
X121899285Y-102589285D01*
X122077857Y-102339285D02*
X122077857Y-102982142D01*
X122042142Y-103053571D01*
X121970714Y-103089285D01*
X121899285Y-103089285D01*
X121649285Y-103089285D02*
X121649285Y-102339285D01*
X121327857Y-103089285D02*
X121327857Y-102696428D01*
X121363571Y-102625000D01*
X121435000Y-102589285D01*
X121542142Y-102589285D01*
X121613571Y-102625000D01*
X121649285Y-102660714D01*
X120685000Y-103053571D02*
X120756428Y-103089285D01*
X120899285Y-103089285D01*
X120970714Y-103053571D01*
X121006428Y-102982142D01*
X121006428Y-102696428D01*
X120970714Y-102625000D01*
X120899285Y-102589285D01*
X120756428Y-102589285D01*
X120685000Y-102625000D01*
X120649285Y-102696428D01*
X120649285Y-102767857D01*
X121006428Y-102839285D01*
X129185000Y-104296785D02*
X129185000Y-103546785D01*
X129185000Y-104261071D02*
X129256428Y-104296785D01*
X129399285Y-104296785D01*
X129470714Y-104261071D01*
X129506428Y-104225357D01*
X129542142Y-104153928D01*
X129542142Y-103939642D01*
X129506428Y-103868214D01*
X129470714Y-103832500D01*
X129399285Y-103796785D01*
X129256428Y-103796785D01*
X129185000Y-103832500D01*
X128542142Y-104261071D02*
X128613571Y-104296785D01*
X128756428Y-104296785D01*
X128827857Y-104261071D01*
X128863571Y-104189642D01*
X128863571Y-103903928D01*
X128827857Y-103832500D01*
X128756428Y-103796785D01*
X128613571Y-103796785D01*
X128542142Y-103832500D01*
X128506428Y-103903928D01*
X128506428Y-103975357D01*
X128863571Y-104046785D01*
X128256428Y-103796785D02*
X128077857Y-104296785D01*
X127899285Y-103796785D01*
X127613571Y-104296785D02*
X127613571Y-103796785D01*
X127613571Y-103546785D02*
X127649285Y-103582500D01*
X127613571Y-103618214D01*
X127577857Y-103582500D01*
X127613571Y-103546785D01*
X127613571Y-103618214D01*
X126935000Y-104261071D02*
X127006428Y-104296785D01*
X127149285Y-104296785D01*
X127220714Y-104261071D01*
X127256428Y-104225357D01*
X127292142Y-104153928D01*
X127292142Y-103939642D01*
X127256428Y-103868214D01*
X127220714Y-103832500D01*
X127149285Y-103796785D01*
X127006428Y-103796785D01*
X126935000Y-103832500D01*
X126327857Y-104261071D02*
X126399285Y-104296785D01*
X126542142Y-104296785D01*
X126613571Y-104261071D01*
X126649285Y-104189642D01*
X126649285Y-103903928D01*
X126613571Y-103832500D01*
X126542142Y-103796785D01*
X126399285Y-103796785D01*
X126327857Y-103832500D01*
X126292142Y-103903928D01*
X126292142Y-103975357D01*
X126649285Y-104046785D01*
D10*
X29007261Y-108652380D02*
X28673928Y-109652380D01*
X28340595Y-108652380D01*
X27054880Y-108652380D02*
X26959642Y-108652380D01*
X26864404Y-108700000D01*
X26816785Y-108747619D01*
X26769166Y-108842857D01*
X26721547Y-109033333D01*
X26721547Y-109271428D01*
X26769166Y-109461904D01*
X26816785Y-109557142D01*
X26864404Y-109604761D01*
X26959642Y-109652380D01*
X27054880Y-109652380D01*
X27150119Y-109604761D01*
X27197738Y-109557142D01*
X27245357Y-109461904D01*
X27292976Y-109271428D01*
X27292976Y-109033333D01*
X27245357Y-108842857D01*
X27197738Y-108747619D01*
X27150119Y-108700000D01*
X27054880Y-108652380D01*
X26292976Y-109557142D02*
X26245357Y-109604761D01*
X26292976Y-109652380D01*
X26340595Y-109604761D01*
X26292976Y-109557142D01*
X26292976Y-109652380D01*
X25912023Y-108652380D02*
X25292976Y-108652380D01*
X25626309Y-109033333D01*
X25483452Y-109033333D01*
X25388214Y-109080952D01*
X25340595Y-109128571D01*
X25292976Y-109223809D01*
X25292976Y-109461904D01*
X25340595Y-109557142D01*
X25388214Y-109604761D01*
X25483452Y-109652380D01*
X25769166Y-109652380D01*
X25864404Y-109604761D01*
X25912023Y-109557142D01*
X24102500Y-109271428D02*
X23340595Y-109271428D01*
X22150119Y-108747619D02*
X22102500Y-108700000D01*
X22007261Y-108652380D01*
X21769166Y-108652380D01*
X21673928Y-108700000D01*
X21626309Y-108747619D01*
X21578690Y-108842857D01*
X21578690Y-108938095D01*
X21626309Y-109080952D01*
X22197738Y-109652380D01*
X21578690Y-109652380D01*
X20959642Y-108652380D02*
X20864404Y-108652380D01*
X20769166Y-108700000D01*
X20721547Y-108747619D01*
X20673928Y-108842857D01*
X20626309Y-109033333D01*
X20626309Y-109271428D01*
X20673928Y-109461904D01*
X20721547Y-109557142D01*
X20769166Y-109604761D01*
X20864404Y-109652380D01*
X20959642Y-109652380D01*
X21054880Y-109604761D01*
X21102500Y-109557142D01*
X21150119Y-109461904D01*
X21197738Y-109271428D01*
X21197738Y-109033333D01*
X21150119Y-108842857D01*
X21102500Y-108747619D01*
X21054880Y-108700000D01*
X20959642Y-108652380D01*
X20245357Y-108747619D02*
X20197738Y-108700000D01*
X20102500Y-108652380D01*
X19864404Y-108652380D01*
X19769166Y-108700000D01*
X19721547Y-108747619D01*
X19673928Y-108842857D01*
X19673928Y-108938095D01*
X19721547Y-109080952D01*
X20292976Y-109652380D01*
X19673928Y-109652380D01*
X18816785Y-108985714D02*
X18816785Y-109652380D01*
X19054880Y-108604761D02*
X19292976Y-109319047D01*
X18673928Y-109319047D01*
D12*
X128479821Y-99623690D02*
X128170297Y-99623690D01*
X128336964Y-99814166D01*
X128265535Y-99814166D01*
X128217916Y-99837976D01*
X128194107Y-99861785D01*
X128170297Y-99909404D01*
X128170297Y-100028452D01*
X128194107Y-100076071D01*
X128217916Y-100099880D01*
X128265535Y-100123690D01*
X128408392Y-100123690D01*
X128456011Y-100099880D01*
X128479821Y-100076071D01*
X127956011Y-100076071D02*
X127932202Y-100099880D01*
X127956011Y-100123690D01*
X127979821Y-100099880D01*
X127956011Y-100076071D01*
X127956011Y-100123690D01*
X127765535Y-99623690D02*
X127432202Y-99623690D01*
X127646488Y-100123690D01*
X127313154Y-99623690D02*
X127146488Y-100123690D01*
X126979821Y-99623690D01*
X126194107Y-100123690D02*
X126432202Y-100123690D01*
X126432202Y-99623690D01*
X126027440Y-100123690D02*
X126027440Y-99790357D01*
X126027440Y-99623690D02*
X126051250Y-99647500D01*
X126027440Y-99671309D01*
X126003630Y-99647500D01*
X126027440Y-99623690D01*
X126027440Y-99671309D01*
X125789345Y-100123690D02*
X125789345Y-99790357D01*
X125789345Y-99623690D02*
X125813154Y-99647500D01*
X125789345Y-99671309D01*
X125765535Y-99647500D01*
X125789345Y-99623690D01*
X125789345Y-99671309D01*
X125479821Y-100123690D02*
X125527440Y-100099880D01*
X125551250Y-100076071D01*
X125575059Y-100028452D01*
X125575059Y-99885595D01*
X125551250Y-99837976D01*
X125527440Y-99814166D01*
X125479821Y-99790357D01*
X125408392Y-99790357D01*
X125360773Y-99814166D01*
X125336964Y-99837976D01*
X125313154Y-99885595D01*
X125313154Y-100028452D01*
X125336964Y-100076071D01*
X125360773Y-100099880D01*
X125408392Y-100123690D01*
X125479821Y-100123690D01*
X125098869Y-99790357D02*
X125098869Y-100123690D01*
X125098869Y-99837976D02*
X125075059Y-99814166D01*
X125027440Y-99790357D01*
X124956011Y-99790357D01*
X124908392Y-99814166D01*
X124884583Y-99861785D01*
X124884583Y-100123690D01*
X124289345Y-99599880D02*
X124717916Y-100242738D01*
X123884583Y-100123690D02*
X124122678Y-100123690D01*
X124122678Y-99623690D01*
X123717916Y-100123690D02*
X123717916Y-99790357D01*
X123717916Y-99623690D02*
X123741726Y-99647500D01*
X123717916Y-99671309D01*
X123694107Y-99647500D01*
X123717916Y-99623690D01*
X123717916Y-99671309D01*
X123479821Y-99790357D02*
X123479821Y-100290357D01*
X123479821Y-99814166D02*
X123432202Y-99790357D01*
X123336964Y-99790357D01*
X123289345Y-99814166D01*
X123265535Y-99837976D01*
X123241726Y-99885595D01*
X123241726Y-100028452D01*
X123265535Y-100076071D01*
X123289345Y-100099880D01*
X123336964Y-100123690D01*
X123432202Y-100123690D01*
X123479821Y-100099880D01*
X122956011Y-100123690D02*
X123003630Y-100099880D01*
X123027440Y-100076071D01*
X123051250Y-100028452D01*
X123051250Y-99885595D01*
X123027440Y-99837976D01*
X123003630Y-99814166D01*
X122956011Y-99790357D01*
X122884583Y-99790357D01*
X122836964Y-99814166D01*
X122813154Y-99837976D01*
X122789345Y-99885595D01*
X122789345Y-100028452D01*
X122813154Y-100076071D01*
X122836964Y-100099880D01*
X122884583Y-100123690D01*
X122956011Y-100123690D01*
X122503630Y-100123690D02*
X122551250Y-100099880D01*
X122575059Y-100052261D01*
X122575059Y-99623690D01*
X122360773Y-99790357D02*
X122241726Y-100123690D01*
X122122678Y-99790357D02*
X122241726Y-100123690D01*
X122289345Y-100242738D01*
X122313154Y-100266547D01*
X122360773Y-100290357D01*
D13*
X131063809Y-96640357D02*
X129540000Y-96640357D01*
X121663809Y-96640357D02*
X120140000Y-96640357D01*
X120901904Y-97402261D02*
X120901904Y-95878452D01*
D10*
X128231071Y-98726071D02*
X128088214Y-98773690D01*
X128040595Y-98821309D01*
X127992976Y-98916547D01*
X127992976Y-99059404D01*
X128040595Y-99154642D01*
X128088214Y-99202261D01*
X128183452Y-99249880D01*
X128564404Y-99249880D01*
X128564404Y-98249880D01*
X128231071Y-98249880D01*
X128135833Y-98297500D01*
X128088214Y-98345119D01*
X128040595Y-98440357D01*
X128040595Y-98535595D01*
X128088214Y-98630833D01*
X128135833Y-98678452D01*
X128231071Y-98726071D01*
X128564404Y-98726071D01*
X127135833Y-99249880D02*
X127135833Y-98726071D01*
X127183452Y-98630833D01*
X127278690Y-98583214D01*
X127469166Y-98583214D01*
X127564404Y-98630833D01*
X127135833Y-99202261D02*
X127231071Y-99249880D01*
X127469166Y-99249880D01*
X127564404Y-99202261D01*
X127612023Y-99107023D01*
X127612023Y-99011785D01*
X127564404Y-98916547D01*
X127469166Y-98868928D01*
X127231071Y-98868928D01*
X127135833Y-98821309D01*
X126802500Y-98583214D02*
X126421547Y-98583214D01*
X126659642Y-98249880D02*
X126659642Y-99107023D01*
X126612023Y-99202261D01*
X126516785Y-99249880D01*
X126421547Y-99249880D01*
X126231071Y-98583214D02*
X125850119Y-98583214D01*
X126088214Y-98249880D02*
X126088214Y-99107023D01*
X126040595Y-99202261D01*
X125945357Y-99249880D01*
X125850119Y-99249880D01*
X125135833Y-99202261D02*
X125231071Y-99249880D01*
X125421547Y-99249880D01*
X125516785Y-99202261D01*
X125564404Y-99107023D01*
X125564404Y-98726071D01*
X125516785Y-98630833D01*
X125421547Y-98583214D01*
X125231071Y-98583214D01*
X125135833Y-98630833D01*
X125088214Y-98726071D01*
X125088214Y-98821309D01*
X125564404Y-98916547D01*
X124659642Y-99249880D02*
X124659642Y-98583214D01*
X124659642Y-98773690D02*
X124612023Y-98678452D01*
X124564404Y-98630833D01*
X124469166Y-98583214D01*
X124373928Y-98583214D01*
X124135833Y-98583214D02*
X123897738Y-99249880D01*
X123659642Y-98583214D02*
X123897738Y-99249880D01*
X123992976Y-99487976D01*
X124040595Y-99535595D01*
X124135833Y-99583214D01*
D14*
%TO.C,J3*%
X122640000Y-91395000D02*
X123560000Y-91395000D01*
X123400000Y-95355000D02*
X124400000Y-95355000D01*
X127000000Y-93755000D02*
X128000000Y-93755000D01*
X124400000Y-93755000D02*
X123400000Y-93755000D01*
X127500000Y-95355000D02*
X127500000Y-97615000D01*
X124400000Y-95355000D02*
X124400000Y-93755000D01*
X122640000Y-97615000D02*
X122640000Y-89795000D01*
X122640000Y-89795000D02*
X123560000Y-89795000D01*
X123560000Y-89795000D02*
X123560000Y-91395000D01*
X127560000Y-91395000D02*
X127560000Y-90180000D01*
X128760000Y-89795000D02*
X128760000Y-97615000D01*
X123400000Y-93755000D02*
X123400000Y-95355000D01*
X128000000Y-95355000D02*
X127000000Y-95355000D01*
X127840000Y-91395000D02*
X127840000Y-89795000D01*
X127000000Y-95355000D02*
X127000000Y-93755000D01*
X128760000Y-91395000D02*
X127840000Y-91395000D01*
X128000000Y-93755000D02*
X128000000Y-95355000D01*
X128760000Y-97615000D02*
X122640000Y-97615000D01*
X127840000Y-89795000D02*
X128760000Y-89795000D01*
X123560000Y-91395000D02*
X123840000Y-91395000D01*
X126200000Y-93255000D02*
X125200000Y-93255000D01*
X126200000Y-97615000D02*
X126200000Y-93255000D01*
X125200000Y-93255000D02*
X125200000Y-97615000D01*
X127560000Y-91395000D02*
X127840000Y-91395000D01*
X127000000Y-95355000D02*
X127000000Y-97615000D01*
%TD*%
%LPC*%
D15*
%TO.C,SW11*%
X77000000Y-98000000D03*
X68000000Y-98000000D03*
D16*
X75000000Y-91750000D03*
X75000000Y-104250000D03*
X70000000Y-91750000D03*
X70000000Y-104250000D03*
%TD*%
%TO.C,SW26*%
X121250000Y-75250000D03*
X114750000Y-75250000D03*
X121250000Y-70750000D03*
X114750000Y-70750000D03*
%TD*%
D17*
%TO.C,D2*%
X117640000Y-126500000D03*
D18*
X118910000Y-126500000D03*
X120180000Y-126500000D03*
X121450000Y-126500000D03*
%TD*%
D15*
%TO.C,SW12*%
X85000000Y-93500000D03*
X85000000Y-102500000D03*
D16*
X91250000Y-100500000D03*
X78750000Y-100500000D03*
X91250000Y-95500000D03*
X78750000Y-95500000D03*
%TD*%
D15*
%TO.C,SW15*%
X35000000Y-110500000D03*
X44000000Y-110500000D03*
D16*
X42000000Y-104250000D03*
X42000000Y-116750000D03*
X37000000Y-104250000D03*
X37000000Y-116750000D03*
%TD*%
D15*
%TO.C,SW10*%
X60000000Y-93500000D03*
X60000000Y-102500000D03*
D16*
X66250000Y-100500000D03*
X53750000Y-100500000D03*
X66250000Y-95500000D03*
X53750000Y-95500000D03*
%TD*%
D19*
%TO.C,D1*%
X112500000Y-74270000D03*
D15*
X112500000Y-71730000D03*
%TD*%
%TO.C,SW21*%
X110000000Y-110500000D03*
X119000000Y-110500000D03*
D16*
X117000000Y-104250000D03*
X117000000Y-116750000D03*
X112000000Y-104250000D03*
X112000000Y-116750000D03*
%TD*%
D15*
%TO.C,SW6*%
X93000000Y-81000000D03*
X93000000Y-90000000D03*
D16*
X99250000Y-88000000D03*
X86750000Y-88000000D03*
X99250000Y-83000000D03*
X86750000Y-83000000D03*
%TD*%
D15*
%TO.C,SW14*%
X110000000Y-102500000D03*
X110000000Y-93500000D03*
D16*
X116250000Y-100500000D03*
X103750000Y-100500000D03*
X116250000Y-95500000D03*
X103750000Y-95500000D03*
%TD*%
D15*
%TO.C,SW2*%
X43000000Y-90000000D03*
X43000000Y-81000000D03*
D16*
X49250000Y-88000000D03*
X36750000Y-88000000D03*
X49250000Y-83000000D03*
X36750000Y-83000000D03*
%TD*%
D15*
%TO.C,SW17*%
X60000000Y-110500000D03*
X69000000Y-110500000D03*
D16*
X67000000Y-104250000D03*
X67000000Y-116750000D03*
X62000000Y-104250000D03*
X62000000Y-116750000D03*
%TD*%
D20*
%TO.C,RV3*%
X170000000Y-84030000D03*
X170000000Y-92030000D03*
X164000000Y-84030000D03*
D21*
X167000000Y-88030000D03*
D22*
X171400000Y-88030000D03*
D20*
X164000000Y-92030000D03*
D22*
X162600000Y-88030000D03*
D23*
X164500000Y-95030000D03*
X167000000Y-95030000D03*
X169500000Y-95030000D03*
%TD*%
D15*
%TO.C,SW13*%
X102000000Y-98000000D03*
X93000000Y-98000000D03*
D16*
X100000000Y-91750000D03*
X100000000Y-104250000D03*
X95000000Y-91750000D03*
X95000000Y-104250000D03*
%TD*%
%TO.C,SW24*%
X170250000Y-131750000D03*
X163750000Y-131750000D03*
X170250000Y-127250000D03*
X163750000Y-127250000D03*
%TD*%
D15*
%TO.C,SW18*%
X77000000Y-115000000D03*
X77000000Y-106000000D03*
D16*
X83250000Y-113000000D03*
X70750000Y-113000000D03*
X83250000Y-108000000D03*
X70750000Y-108000000D03*
%TD*%
D15*
%TO.C,SW16*%
X52000000Y-115000000D03*
X52000000Y-106000000D03*
D16*
X58250000Y-113000000D03*
X45750000Y-113000000D03*
X58250000Y-108000000D03*
X45750000Y-108000000D03*
%TD*%
D15*
%TO.C,SW20*%
X102000000Y-106000000D03*
X102000000Y-115000000D03*
D16*
X108250000Y-113000000D03*
X95750000Y-113000000D03*
X108250000Y-108000000D03*
X95750000Y-108000000D03*
%TD*%
D24*
%TO.C,J1*%
X137800000Y-89450000D03*
X135230000Y-94540000D03*
X135250000Y-89400000D03*
X137825000Y-91975000D03*
D25*
X136450000Y-93350000D03*
D24*
X137770000Y-94540000D03*
X135230000Y-92000000D03*
D25*
X136500000Y-90625000D03*
%TD*%
D20*
%TO.C,RV2*%
X170000000Y-99030000D03*
D22*
X171400000Y-103030000D03*
D20*
X164000000Y-107030000D03*
D21*
X167000000Y-103030000D03*
D20*
X170000000Y-107030000D03*
D22*
X162600000Y-103030000D03*
D20*
X164000000Y-99030000D03*
D23*
X164500000Y-110030000D03*
X167000000Y-110030000D03*
X169500000Y-110030000D03*
%TD*%
D15*
%TO.C,SW4*%
X68000000Y-81000000D03*
X68000000Y-90000000D03*
D16*
X74250000Y-88000000D03*
X61750000Y-88000000D03*
X74250000Y-83000000D03*
X61750000Y-83000000D03*
%TD*%
%TO.C,SW22*%
X22750000Y-79750000D03*
X22750000Y-86250000D03*
X18250000Y-79750000D03*
X18250000Y-86250000D03*
%TD*%
D25*
%TO.C,J4*%
X136450000Y-131350000D03*
D24*
X137800000Y-127450000D03*
X137825000Y-129975000D03*
X135230000Y-130000000D03*
X137770000Y-132540000D03*
X135230000Y-132540000D03*
X135250000Y-127400000D03*
D25*
X136500000Y-128625000D03*
%TD*%
D15*
%TO.C,SW5*%
X76000000Y-85500000D03*
X85000000Y-85500000D03*
D16*
X83000000Y-79250000D03*
X83000000Y-91750000D03*
X78000000Y-79250000D03*
X78000000Y-91750000D03*
%TD*%
D15*
%TO.C,SW19*%
X85000000Y-110500000D03*
X94000000Y-110500000D03*
D16*
X92000000Y-104250000D03*
X92000000Y-116750000D03*
X87000000Y-104250000D03*
X87000000Y-116750000D03*
%TD*%
D15*
%TO.C,SW9*%
X43000000Y-98000000D03*
X52000000Y-98000000D03*
D16*
X50000000Y-91750000D03*
X50000000Y-104250000D03*
X45000000Y-91750000D03*
X45000000Y-104250000D03*
%TD*%
D21*
%TO.C,RV1*%
X167000000Y-118000000D03*
D22*
X162600000Y-118000000D03*
D20*
X170000000Y-122000000D03*
X164000000Y-114000000D03*
X164000000Y-122000000D03*
D22*
X171400000Y-118000000D03*
D20*
X170000000Y-114000000D03*
D23*
X164500000Y-125000000D03*
X167000000Y-125000000D03*
X169500000Y-125000000D03*
%TD*%
D15*
%TO.C,SW7*%
X110000000Y-85500000D03*
X101000000Y-85500000D03*
D16*
X108000000Y-79250000D03*
X108000000Y-91750000D03*
X103000000Y-79250000D03*
X103000000Y-91750000D03*
%TD*%
D15*
%TO.C,SW3*%
X51000000Y-85500000D03*
X60000000Y-85500000D03*
D16*
X58000000Y-79250000D03*
X58000000Y-91750000D03*
X53000000Y-79250000D03*
X53000000Y-91750000D03*
%TD*%
D26*
%TO.C,J2*%
X114738835Y-134196699D03*
X112971068Y-132428932D03*
X111203301Y-130661165D03*
D27*
X105900000Y-132428932D03*
X107667767Y-134196699D03*
D28*
X105900000Y-139500000D03*
D29*
X112971068Y-139500000D03*
X111203301Y-137732233D03*
%TD*%
D15*
%TO.C,SW1*%
X26000000Y-85500000D03*
X35000000Y-85500000D03*
D16*
X33000000Y-79250000D03*
X33000000Y-91750000D03*
X28000000Y-79250000D03*
X28000000Y-91750000D03*
%TD*%
%TO.C,SW25*%
X163750000Y-134250000D03*
X170250000Y-134250000D03*
X163750000Y-138750000D03*
X170250000Y-138750000D03*
%TD*%
D15*
%TO.C,SW8*%
X35000000Y-93500000D03*
X35000000Y-102500000D03*
D16*
X41250000Y-100500000D03*
X28750000Y-100500000D03*
X41250000Y-95500000D03*
X28750000Y-95500000D03*
%TD*%
D30*
%TO.C,J3*%
X126700000Y-91255000D03*
D31*
X124700000Y-91255000D03*
%TD*%
D32*
%TO.C,U1*%
X144130000Y-148375000D03*
X144130000Y-145835000D03*
X144130000Y-143295000D03*
X144130000Y-140755000D03*
X144130000Y-138215000D03*
X144130000Y-135675000D03*
X144130000Y-133135000D03*
X144130000Y-130595000D03*
X144130000Y-128055000D03*
X144130000Y-125515000D03*
X144130000Y-122975000D03*
X144130000Y-120435000D03*
X144130000Y-117895000D03*
X144130000Y-115355000D03*
X159370000Y-115355000D03*
X159370000Y-117895000D03*
X159370000Y-120435000D03*
X159370000Y-122975000D03*
X159370000Y-125515000D03*
X159370000Y-128055000D03*
X159370000Y-130595000D03*
X159370000Y-133135000D03*
X159370000Y-135675000D03*
X159370000Y-138215000D03*
X159370000Y-140755000D03*
X159370000Y-143295000D03*
X159370000Y-145835000D03*
X159370000Y-148375000D03*
X156830000Y-145835000D03*
%TD*%
M02*
