M48
; DRILL file {KiCad (6.0.10-0)} date Sunday 15 December 2024 at 11:01:57
; FORMAT={-:-/ absolute / inch / decimal}
; #@! TF.CreationDate,2024-12-15T11:01:57+01:00
; #@! TF.GenerationSoftware,Kicad,Pcbnew,(6.0.10-0)
; #@! TF.FileFunction,Plated,1,4,PTH
FMAT,2
INCH
; #@! TA.AperFunction,Plated,PTH,ComponentDrill
T1C0.0079
; #@! TA.AperFunction,Plated,PTH,ViaDrill
T2C0.0118
; #@! TA.AperFunction,Plated,PTH,ViaDrill
T3C0.0157
; #@! TA.AperFunction,Plated,PTH,ComponentDrill
T4C0.0157
; #@! TA.AperFunction,Plated,PTH,ComponentDrill
T5C0.0276
; #@! TA.AperFunction,Plated,PTH,ComponentDrill
T6C0.0295
; #@! TA.AperFunction,Plated,PTH,ComponentDrill
T7C0.0354
; #@! TA.AperFunction,Plated,PTH,ComponentDrill
T8C0.0374
; #@! TA.AperFunction,Plated,PTH,ComponentDrill
T9C0.0394
; #@! TA.AperFunction,Plated,PTH,ComponentDrill
T10C0.0472
%
G90
G05
T1
X6.1024Y-3.6181
X6.1024Y-3.6614
X6.1024Y-3.7047
X6.1457Y-3.6181
X6.1457Y-3.6614
X6.1457Y-3.7047
X6.189Y-3.6181
X6.189Y-3.6614
X6.189Y-3.7047
T2
X5.3937Y-3.8976
X5.3937Y-4.7244
X5.4331Y-4.2992
X5.4931Y-4.4793
T3
X0.9547Y-3.8583
X1.4567Y-3.8583
X1.5551Y-4.3504
X1.811Y-3.185
X1.8701Y-3.8583
X2.0472Y-4.3504
X2.1654Y-3.3465
X2.1654Y-3.4252
X2.2835Y-3.8583
X2.4409Y-3.8583
X2.5394Y-4.3504
X2.5591Y-3.189
X2.5591Y-3.3858
X2.7953Y-3.189
X2.9134Y-3.8583
X3.0315Y-4.3504
X3.1496Y-3.3465
X3.189Y-3.4646
X3.2677Y-3.8583
X3.4016Y-2.7953
X3.4065Y-2.8711
X3.4646Y-3.8583
X3.5236Y-4.3504
X3.622Y-4.8031
X3.6364Y-2.9474
X3.6614Y-3.3661
X3.8583Y-3.8583
X3.8927Y-3.0659
X3.9764Y-4.8031
X4.0157Y-4.3504
X4.0945Y-2.9528
X4.1535Y-3.3661
X4.252Y-3.8583
X4.2559Y-2.7913
X4.437Y-3.2717
X4.4488Y-3.8583
X4.4488Y-4.8425
X4.4606Y-5.6063
X4.5079Y-4.3504
X4.5276Y-3.189
X4.5276Y-3.3268
X4.6457Y-2.8819
X4.6457Y-5.252
X4.685Y-3.9567
X4.685Y-5.3504
X4.7087Y-5.252
X4.7717Y-5.252
X4.7913Y-4.3386
X4.8612Y-5.5876
X4.8819Y-5.0551
X4.8819Y-5.6299
X4.9213Y-5.5118
X4.9213Y-5.5512
X4.9213Y-5.5906
X4.9213Y-5.6299
X4.9606Y-2.9134
X5.0Y-4.8031
X5.0261Y-5.378
X5.0315Y-5.1496
X5.2254Y-5.8297
X5.2598Y-5.4724
X5.2756Y-5.6772
X5.4724Y-5.5512
X5.4724Y-5.748
X5.5512Y-5.748
X5.7874Y-4.252
X5.7874Y-5.5512
X5.8071Y-3.0512
X5.8268Y-4.2913
X5.8661Y-4.3307
X5.8661Y-4.9606
X5.8661Y-5.0394
X5.8661Y-5.2362
X5.8661Y-5.2953
X5.8661Y-5.3543
X5.874Y-3.4961
X5.8858Y-3.8189
X5.9252Y-3.02
X5.9252Y-3.0594
X5.9252Y-3.0987
X5.9252Y-3.1381
X5.9252Y-3.1971
X5.9252Y-3.2365
X5.9252Y-3.2759
X5.9252Y-3.3153
X5.9449Y-4.9606
X5.9449Y-5.0394
X5.9449Y-5.1181
X5.9449Y-5.2953
X5.9449Y-5.3543
X5.9449Y-5.5512
X5.9646Y-3.02
X5.9646Y-3.0594
X5.9646Y-3.0987
X5.9646Y-3.1381
X5.9646Y-3.1971
X5.9646Y-3.2365
X5.9646Y-3.2759
X5.9646Y-3.3153
X5.9843Y-4.0551
X6.0059Y-2.9646
X6.0236Y-3.563
X6.0236Y-3.6024
X6.0236Y-4.6063
X6.0335Y-3.4154
X6.063Y-3.3349
X6.063Y-3.563
X6.0807Y-2.9646
X6.1024Y-3.3349
X6.1417Y-3.02
X6.1417Y-3.3349
X6.1811Y-3.02
X6.1811Y-3.3349
X6.252Y-3.8386
X6.252Y-3.874
X6.2559Y-3.5866
X6.2598Y-4.1535
X6.2598Y-4.2717
X6.2638Y-3.4173
X6.2835Y-3.6299
X6.2953Y-3.8386
X6.2953Y-3.874
X6.315Y-3.4055
X6.3465Y-3.5669
X6.3841Y-3.0746
X6.4567Y-5.6299
X6.4961Y-3.1102
X6.4961Y-3.1791
X6.5748Y-5.2362
X6.7717Y-3.7402
X6.7717Y-4.3307
X6.7717Y-4.9213
T6
X4.9094Y-3.5927
X4.9882Y-3.5927
T7
X4.4291Y-2.824
X4.4291Y-2.924
X4.6315Y-4.9803
X4.6815Y-4.9803
X4.7315Y-4.9803
X4.7815Y-4.9803
T8
X5.6744Y-4.5415
X5.6744Y-4.6415
X5.6744Y-4.7415
X5.6744Y-4.8415
X5.6744Y-4.9415
X5.6744Y-5.0415
X5.6744Y-5.1415
X5.6744Y-5.2415
X5.6744Y-5.3415
X5.6744Y-5.4415
X5.6744Y-5.5415
X5.6744Y-5.6415
X5.6744Y-5.7415
X5.6744Y-5.8415
X6.1744Y-5.7415
X6.2744Y-4.5415
X6.2744Y-4.6415
X6.2744Y-4.7415
X6.2744Y-4.8415
X6.2744Y-4.9415
X6.2744Y-5.0415
X6.2744Y-5.1415
X6.2744Y-5.2415
X6.2744Y-5.3415
X6.2744Y-5.4415
X6.2744Y-5.5415
X6.2744Y-5.6415
X6.2744Y-5.7415
X6.2744Y-5.8415
T9
X0.7185Y-3.1398
X0.7185Y-3.3957
X0.8957Y-3.1398
X0.8957Y-3.3957
X4.3781Y-5.1441
X4.4477Y-5.2137
X4.5173Y-5.2833
X4.5177Y-2.7854
X4.5177Y-2.9626
X4.7736Y-2.7854
X4.7736Y-2.9626
X6.4469Y-5.0098
X6.4469Y-5.187
X6.4469Y-5.2854
X6.4469Y-5.4626
X6.7028Y-5.0098
X6.7028Y-5.187
X6.7028Y-5.2854
X6.7028Y-5.4626
T10
X1.1024Y-3.1201
X1.1024Y-3.6122
X1.1319Y-3.7598
X1.1319Y-3.9567
X1.2992Y-3.1201
X1.2992Y-3.6122
X1.4469Y-3.2677
X1.4469Y-3.4646
X1.4567Y-4.1043
X1.4567Y-4.5965
X1.624Y-3.7598
X1.624Y-3.9567
X1.6535Y-4.1043
X1.6535Y-4.5965
X1.7717Y-3.6122
X1.7717Y-4.1043
X1.8012Y-4.252
X1.8012Y-4.4488
X1.939Y-3.2677
X1.939Y-3.4646
X1.9685Y-3.6122
X1.9685Y-4.1043
X2.0866Y-3.1201
X2.0866Y-3.6122
X2.1161Y-3.7598
X2.1161Y-3.9567
X2.2835Y-3.1201
X2.2835Y-3.6122
X2.2933Y-4.252
X2.2933Y-4.4488
X2.4311Y-3.2677
X2.4311Y-3.4646
X2.4409Y-4.1043
X2.4409Y-4.5965
X2.6083Y-3.7598
X2.6083Y-3.9567
X2.6378Y-4.1043
X2.6378Y-4.5965
X2.7559Y-3.6122
X2.7559Y-4.1043
X2.7854Y-4.252
X2.7854Y-4.4488
X2.9232Y-3.2677
X2.9232Y-3.4646
X2.9528Y-3.6122
X2.9528Y-4.1043
X3.0709Y-3.1201
X3.0709Y-3.6122
X3.1004Y-3.7598
X3.1004Y-3.9567
X3.2677Y-3.1201
X3.2677Y-3.6122
X3.2776Y-4.252
X3.2776Y-4.4488
X3.4154Y-3.2677
X3.4154Y-3.4646
X3.4252Y-4.1043
X3.4252Y-4.5965
X3.5925Y-3.7598
X3.5925Y-3.9567
X3.622Y-4.1043
X3.622Y-4.5965
X3.7402Y-3.6122
X3.7402Y-4.1043
X3.7697Y-4.252
X3.7697Y-4.4488
X3.9075Y-3.2677
X3.9075Y-3.4646
X3.937Y-3.6122
X3.937Y-4.1043
X4.0551Y-3.1201
X4.0551Y-3.6122
X4.0846Y-3.7598
X4.0846Y-3.9567
X4.252Y-3.1201
X4.252Y-3.6122
X4.2618Y-4.252
X4.2618Y-4.4488
X4.4094Y-4.1043
X4.4094Y-4.5965
X4.5768Y-3.7598
X4.5768Y-3.9567
X4.6063Y-4.1043
X4.6063Y-4.5965
T4
G00X4.1832Y-5.1998
M15
G01X4.1554Y-5.2277
M16
G05
G00X4.1554Y-5.4782
M15
G01X4.1832Y-5.506
M16
G05
G00X4.2528Y-5.2694
M15
G01X4.225Y-5.2973
M16
G05
G00X4.3642Y-5.4364
M15
G01X4.392Y-5.4086
M16
G05
G00X4.4338Y-5.506
M15
G01X4.4616Y-5.4782
M16
G05
T5
G00X6.4587Y-3.7413
M15
G01X6.4941Y-3.7413
M16
G05
G00X6.4587Y-4.3319
M15
G01X6.4941Y-4.3319
M16
G05
G00X6.4587Y-4.9213
M15
G01X6.4941Y-4.9213
M16
G05
G00X6.5571Y-3.7413
M15
G01X6.5925Y-3.7413
M16
G05
G00X6.5571Y-4.3319
M15
G01X6.5925Y-4.3319
M16
G05
G00X6.5571Y-4.9213
M15
G01X6.5925Y-4.9213
M16
G05
G00X6.6555Y-3.7413
M15
G01X6.6909Y-3.7413
M16
G05
G00X6.6555Y-4.3319
M15
G01X6.6909Y-4.3319
M16
G05
G00X6.6555Y-4.9213
M15
G01X6.6909Y-4.9213
M16
G05
T0
M30
