%TF.GenerationSoftware,KiCad,Pcbnew,(6.0.10-0)*%
%TF.CreationDate,2024-08-14T10:58:16+02:00*%
%TF.ProjectId,MiniChord,4d696e69-4368-46f7-9264-2e6b69636164,rev?*%
%TF.SameCoordinates,Original*%
%TF.FileFunction,Soldermask,Top*%
%TF.FilePolarity,Negative*%
%FSLAX46Y46*%
G04 Gerber Fmt 4.6, Leading zero omitted, Abs format (unit mm)*
G04 Created by KiCad (PCBNEW (6.0.10-0)) date 2024-08-14 10:58:16*
%MOMM*%
%LPD*%
G01*
G04 APERTURE LIST*
G04 Aperture macros list*
%AMRoundRect*
0 Rectangle with rounded corners*
0 $1 Rounding radius*
0 $2 $3 $4 $5 $6 $7 $8 $9 X,Y pos of 4 corners*
0 Add a 4 corners polygon primitive as box body*
4,1,4,$2,$3,$4,$5,$6,$7,$8,$9,$2,$3,0*
0 Add four circle primitives for the rounded corners*
1,1,$1+$1,$2,$3*
1,1,$1+$1,$4,$5*
1,1,$1+$1,$6,$7*
1,1,$1+$1,$8,$9*
0 Add four rect primitives between the rounded corners*
20,1,$1+$1,$2,$3,$4,$5,0*
20,1,$1+$1,$4,$5,$6,$7,0*
20,1,$1+$1,$6,$7,$8,$9,0*
20,1,$1+$1,$8,$9,$2,$3,0*%
%AMHorizOval*
0 Thick line with rounded ends*
0 $1 width*
0 $2 $3 position (X,Y) of the first rounded end (center of the circle)*
0 $4 $5 position (X,Y) of the second rounded end (center of the circle)*
0 Add line between two ends*
20,1,$1,$2,$3,$4,$5,0*
0 Add two circle primitives to create the rounded ends*
1,1,$1,$2,$3*
1,1,$1,$4,$5*%
%AMFreePoly0*
4,1,14,0.354215,0.088284,0.450784,-0.008285,0.462500,-0.036569,0.462500,-0.060000,0.450784,-0.088284,0.422500,-0.100000,-0.422500,-0.100000,-0.450784,-0.088284,-0.462500,-0.060000,-0.462500,0.060000,-0.450784,0.088284,-0.422500,0.100000,0.325931,0.100000,0.354215,0.088284,0.354215,0.088284,$1*%
%AMFreePoly1*
4,1,14,0.450784,0.088284,0.462500,0.060000,0.462500,0.036569,0.450784,0.008285,0.354215,-0.088284,0.325931,-0.100000,-0.422500,-0.100000,-0.450784,-0.088284,-0.462500,-0.060000,-0.462500,0.060000,-0.450784,0.088284,-0.422500,0.100000,0.422500,0.100000,0.450784,0.088284,0.450784,0.088284,$1*%
%AMFreePoly2*
4,1,14,0.088284,0.450784,0.100000,0.422500,0.100000,-0.422500,0.088284,-0.450784,0.060000,-0.462500,-0.060000,-0.462500,-0.088284,-0.450784,-0.100000,-0.422500,-0.100000,0.325931,-0.088284,0.354215,0.008285,0.450784,0.036569,0.462500,0.060000,0.462500,0.088284,0.450784,0.088284,0.450784,$1*%
%AMFreePoly3*
4,1,14,-0.008285,0.450784,0.088284,0.354215,0.100000,0.325931,0.100000,-0.422500,0.088284,-0.450784,0.060000,-0.462500,-0.060000,-0.462500,-0.088284,-0.450784,-0.100000,-0.422500,-0.100000,0.422500,-0.088284,0.450784,-0.060000,0.462500,-0.036569,0.462500,-0.008285,0.450784,-0.008285,0.450784,$1*%
%AMFreePoly4*
4,1,14,0.450784,0.088284,0.462500,0.060000,0.462500,-0.060000,0.450784,-0.088284,0.422500,-0.100000,-0.325931,-0.100000,-0.354215,-0.088284,-0.450784,0.008285,-0.462500,0.036569,-0.462500,0.060000,-0.450784,0.088284,-0.422500,0.100000,0.422500,0.100000,0.450784,0.088284,0.450784,0.088284,$1*%
%AMFreePoly5*
4,1,14,0.450784,0.088284,0.462500,0.060000,0.462500,-0.060000,0.450784,-0.088284,0.422500,-0.100000,-0.422500,-0.100000,-0.450784,-0.088284,-0.462500,-0.060000,-0.462500,-0.036569,-0.450784,-0.008285,-0.354215,0.088284,-0.325931,0.100000,0.422500,0.100000,0.450784,0.088284,0.450784,0.088284,$1*%
%AMFreePoly6*
4,1,14,0.088284,0.450784,0.100000,0.422500,0.100000,-0.325931,0.088284,-0.354215,-0.008285,-0.450784,-0.036569,-0.462500,-0.060000,-0.462500,-0.088284,-0.450784,-0.100000,-0.422500,-0.100000,0.422500,-0.088284,0.450784,-0.060000,0.462500,0.060000,0.462500,0.088284,0.450784,0.088284,0.450784,$1*%
%AMFreePoly7*
4,1,14,0.088284,0.450784,0.100000,0.422500,0.100000,-0.422500,0.088284,-0.450784,0.060000,-0.462500,0.036569,-0.462500,0.008285,-0.450784,-0.088284,-0.354215,-0.100000,-0.325931,-0.100000,0.422500,-0.088284,0.450784,-0.060000,0.462500,0.060000,0.462500,0.088284,0.450784,0.088284,0.450784,$1*%
G04 Aperture macros list end*
%ADD10RoundRect,0.050000X0.388909X0.106066X0.106066X0.388909X-0.388909X-0.106066X-0.106066X-0.388909X0*%
%ADD11RoundRect,0.050000X0.300520X0.017678X0.017678X0.300520X-0.300520X-0.017678X-0.017678X-0.300520X0*%
%ADD12RoundRect,0.150000X0.150000X-0.825000X0.150000X0.825000X-0.150000X0.825000X-0.150000X-0.825000X0*%
%ADD13RoundRect,0.225000X-0.250000X0.225000X-0.250000X-0.225000X0.250000X-0.225000X0.250000X0.225000X0*%
%ADD14RoundRect,0.200000X-0.275000X0.200000X-0.275000X-0.200000X0.275000X-0.200000X0.275000X0.200000X0*%
%ADD15RoundRect,0.250000X-0.450000X0.262500X-0.450000X-0.262500X0.450000X-0.262500X0.450000X0.262500X0*%
%ADD16RoundRect,0.250000X-0.475000X0.250000X-0.475000X-0.250000X0.475000X-0.250000X0.475000X0.250000X0*%
%ADD17C,1.800000*%
%ADD18C,2.000000*%
%ADD19RoundRect,0.225000X-0.225000X-0.250000X0.225000X-0.250000X0.225000X0.250000X-0.225000X0.250000X0*%
%ADD20RoundRect,0.200000X-0.200000X-0.275000X0.200000X-0.275000X0.200000X0.275000X-0.200000X0.275000X0*%
%ADD21R,1.070000X1.800000*%
%ADD22O,1.070000X1.800000*%
%ADD23RoundRect,0.225000X0.017678X-0.335876X0.335876X-0.017678X-0.017678X0.335876X-0.335876X0.017678X0*%
%ADD24RoundRect,0.250000X0.475000X-0.250000X0.475000X0.250000X-0.475000X0.250000X-0.475000X-0.250000X0*%
%ADD25RoundRect,0.250000X0.450000X-0.262500X0.450000X0.262500X-0.450000X0.262500X-0.450000X-0.262500X0*%
%ADD26RoundRect,0.200000X0.275000X-0.200000X0.275000X0.200000X-0.275000X0.200000X-0.275000X-0.200000X0*%
%ADD27R,1.800000X1.800000*%
%ADD28RoundRect,0.225000X0.225000X0.250000X-0.225000X0.250000X-0.225000X-0.250000X0.225000X-0.250000X0*%
%ADD29RoundRect,0.250000X-0.250000X-0.475000X0.250000X-0.475000X0.250000X0.475000X-0.250000X0.475000X0*%
%ADD30C,1.700000*%
%ADD31C,1.600000*%
%ADD32O,1.900000X3.300000*%
%ADD33O,2.050000X1.800000*%
%ADD34RoundRect,0.250000X-0.550000X1.500000X-0.550000X-1.500000X0.550000X-1.500000X0.550000X1.500000X0*%
%ADD35RoundRect,0.250000X-0.262500X-0.450000X0.262500X-0.450000X0.262500X0.450000X-0.262500X0.450000X0*%
%ADD36RoundRect,0.200000X-0.053033X0.335876X-0.335876X0.053033X0.053033X-0.335876X0.335876X-0.053033X0*%
%ADD37RoundRect,0.150000X-0.150000X0.512500X-0.150000X-0.512500X0.150000X-0.512500X0.150000X0.512500X0*%
%ADD38C,1.100000*%
%ADD39C,1.850000*%
%ADD40RoundRect,0.255000X-0.635000X0.255000X-0.635000X-0.255000X0.635000X-0.255000X0.635000X0.255000X0*%
%ADD41RoundRect,0.250000X-0.650000X0.325000X-0.650000X-0.325000X0.650000X-0.325000X0.650000X0.325000X0*%
%ADD42RoundRect,0.087500X-0.325000X-0.087500X0.325000X-0.087500X0.325000X0.087500X-0.325000X0.087500X0*%
%ADD43RoundRect,0.087500X-0.087500X-0.325000X0.087500X-0.325000X0.087500X0.325000X-0.087500X0.325000X0*%
%ADD44R,2.700000X2.700000*%
%ADD45R,5.700000X1.700000*%
%ADD46RoundRect,0.200000X0.053033X-0.335876X0.335876X-0.053033X-0.053033X0.335876X-0.335876X0.053033X0*%
%ADD47RoundRect,0.200000X0.200000X0.275000X-0.200000X0.275000X-0.200000X-0.275000X0.200000X-0.275000X0*%
%ADD48C,1.750000*%
%ADD49HorizOval,1.200000X-0.353553X-0.353553X0.353553X0.353553X0*%
%ADD50HorizOval,1.200000X0.353553X-0.353553X-0.353553X0.353553X0*%
%ADD51HorizOval,1.200000X0.353553X0.353553X-0.353553X-0.353553X0*%
%ADD52RoundRect,0.100000X-0.637500X-0.100000X0.637500X-0.100000X0.637500X0.100000X-0.637500X0.100000X0*%
%ADD53RoundRect,0.250000X-0.550000X1.050000X-0.550000X-1.050000X0.550000X-1.050000X0.550000X1.050000X0*%
%ADD54RoundRect,0.225000X-0.017678X0.335876X-0.335876X0.017678X0.017678X-0.335876X0.335876X-0.017678X0*%
%ADD55FreePoly0,180.000000*%
%ADD56RoundRect,0.050000X0.412500X0.050000X-0.412500X0.050000X-0.412500X-0.050000X0.412500X-0.050000X0*%
%ADD57FreePoly1,180.000000*%
%ADD58FreePoly2,180.000000*%
%ADD59RoundRect,0.050000X0.050000X0.412500X-0.050000X0.412500X-0.050000X-0.412500X0.050000X-0.412500X0*%
%ADD60FreePoly3,180.000000*%
%ADD61FreePoly4,180.000000*%
%ADD62FreePoly5,180.000000*%
%ADD63FreePoly6,180.000000*%
%ADD64FreePoly7,180.000000*%
%ADD65RoundRect,0.250000X0.350000X0.625000X-0.350000X0.625000X-0.350000X-0.625000X0.350000X-0.625000X0*%
%ADD66O,1.200000X1.750000*%
%ADD67C,1.650000*%
G04 APERTURE END LIST*
D10*
%TO.C,D3*%
X167146536Y-79257627D03*
D11*
X166315685Y-78815685D03*
X165750000Y-78250000D03*
D10*
X165308058Y-77419149D03*
%TD*%
D12*
%TO.C,U4*%
X88555000Y-77875000D03*
X89825000Y-77875000D03*
X91095000Y-77875000D03*
X92365000Y-77875000D03*
X93635000Y-77875000D03*
X94905000Y-77875000D03*
X96175000Y-77875000D03*
X97445000Y-77875000D03*
X97445000Y-72925000D03*
X96175000Y-72925000D03*
X94905000Y-72925000D03*
X93635000Y-72925000D03*
X92365000Y-72925000D03*
X91095000Y-72925000D03*
X89825000Y-72925000D03*
X88555000Y-72925000D03*
%TD*%
D13*
%TO.C,C7*%
X99100000Y-74225000D03*
X99100000Y-75775000D03*
%TD*%
D14*
%TO.C,R2*%
X159700000Y-94275000D03*
X159700000Y-95925000D03*
%TD*%
D15*
%TO.C,R13*%
X121700000Y-106987500D03*
X121700000Y-108812500D03*
%TD*%
D16*
%TO.C,C9*%
X119700000Y-137450000D03*
X119700000Y-139350000D03*
%TD*%
D17*
%TO.C,SW11*%
X77000000Y-98000000D03*
X68000000Y-98000000D03*
D18*
X75000000Y-91750000D03*
X75000000Y-104250000D03*
X70000000Y-91750000D03*
X70000000Y-104250000D03*
%TD*%
D19*
%TO.C,C11*%
X121625000Y-135900000D03*
X123175000Y-135900000D03*
%TD*%
D18*
%TO.C,SW26*%
X121250000Y-75250000D03*
X114750000Y-75250000D03*
X121250000Y-70750000D03*
X114750000Y-70750000D03*
%TD*%
D20*
%TO.C,R29*%
X131075000Y-145100000D03*
X132725000Y-145100000D03*
%TD*%
%TO.C,R27*%
X131075000Y-141700000D03*
X132725000Y-141700000D03*
%TD*%
D21*
%TO.C,D2*%
X117640000Y-126500000D03*
D22*
X118910000Y-126500000D03*
X120180000Y-126500000D03*
X121450000Y-126500000D03*
%TD*%
D14*
%TO.C,R7*%
X160400000Y-87875000D03*
X160400000Y-89525000D03*
%TD*%
D23*
%TO.C,C16*%
X111651992Y-144048008D03*
X112748008Y-142951992D03*
%TD*%
D17*
%TO.C,SW12*%
X85000000Y-93500000D03*
X85000000Y-102500000D03*
D18*
X91250000Y-100500000D03*
X78750000Y-100500000D03*
X91250000Y-95500000D03*
X78750000Y-95500000D03*
%TD*%
D17*
%TO.C,SW15*%
X35000000Y-110500000D03*
X44000000Y-110500000D03*
D18*
X42000000Y-104250000D03*
X42000000Y-116750000D03*
X37000000Y-104250000D03*
X37000000Y-116750000D03*
%TD*%
D13*
%TO.C,C19*%
X139000000Y-106475000D03*
X139000000Y-108025000D03*
%TD*%
D24*
%TO.C,C4*%
X154000000Y-89250000D03*
X154000000Y-87350000D03*
%TD*%
D25*
%TO.C,R10*%
X148000000Y-113112500D03*
X148000000Y-111287500D03*
%TD*%
D26*
%TO.C,R15*%
X137500000Y-108075000D03*
X137500000Y-106425000D03*
%TD*%
D17*
%TO.C,SW10*%
X60000000Y-93500000D03*
X60000000Y-102500000D03*
D18*
X66250000Y-100500000D03*
X53750000Y-100500000D03*
X66250000Y-95500000D03*
X53750000Y-95500000D03*
%TD*%
D20*
%TO.C,R28*%
X131075000Y-143400000D03*
X132725000Y-143400000D03*
%TD*%
D25*
%TO.C,R1*%
X158700000Y-83520000D03*
X158700000Y-81695000D03*
%TD*%
D27*
%TO.C,D1*%
X112500000Y-74270000D03*
D17*
X112500000Y-71730000D03*
%TD*%
%TO.C,SW21*%
X110000000Y-110500000D03*
X119000000Y-110500000D03*
D18*
X117000000Y-104250000D03*
X117000000Y-116750000D03*
X112000000Y-104250000D03*
X112000000Y-116750000D03*
%TD*%
D15*
%TO.C,R12*%
X119000000Y-97087500D03*
X119000000Y-98912500D03*
%TD*%
%TO.C,R39*%
X172800000Y-132200000D03*
X172800000Y-134025000D03*
%TD*%
D14*
%TO.C,R37*%
X118000000Y-130575000D03*
X118000000Y-132225000D03*
%TD*%
D17*
%TO.C,SW6*%
X93000000Y-81000000D03*
X93000000Y-90000000D03*
D18*
X99250000Y-88000000D03*
X86750000Y-88000000D03*
X99250000Y-83000000D03*
X86750000Y-83000000D03*
%TD*%
D17*
%TO.C,SW14*%
X110000000Y-102500000D03*
X110000000Y-93500000D03*
D18*
X116250000Y-100500000D03*
X103750000Y-100500000D03*
X116250000Y-95500000D03*
X103750000Y-95500000D03*
%TD*%
D17*
%TO.C,SW2*%
X43000000Y-90000000D03*
X43000000Y-81000000D03*
D18*
X49250000Y-88000000D03*
X36750000Y-88000000D03*
X49250000Y-83000000D03*
X36750000Y-83000000D03*
%TD*%
D14*
%TO.C,R35*%
X121200000Y-130575000D03*
X121200000Y-132225000D03*
%TD*%
D28*
%TO.C,C1*%
X157475000Y-98100000D03*
X155925000Y-98100000D03*
%TD*%
D17*
%TO.C,SW17*%
X60000000Y-110500000D03*
X69000000Y-110500000D03*
D18*
X67000000Y-104250000D03*
X67000000Y-116750000D03*
X62000000Y-104250000D03*
X62000000Y-116750000D03*
%TD*%
D29*
%TO.C,C18*%
X152550000Y-77307500D03*
X154450000Y-77307500D03*
%TD*%
D30*
%TO.C,RV3*%
X170000000Y-84030000D03*
X170000000Y-92030000D03*
X164000000Y-84030000D03*
D31*
X167000000Y-88030000D03*
D32*
X171400000Y-88030000D03*
D30*
X164000000Y-92030000D03*
D32*
X162600000Y-88030000D03*
D33*
X164500000Y-95030000D03*
X167000000Y-95030000D03*
X169500000Y-95030000D03*
%TD*%
D34*
%TO.C,C5*%
X149300000Y-94500000D03*
X149300000Y-99900000D03*
%TD*%
D35*
%TO.C,R14*%
X139587500Y-109900000D03*
X141412500Y-109900000D03*
%TD*%
D17*
%TO.C,SW13*%
X102000000Y-98000000D03*
X93000000Y-98000000D03*
D18*
X100000000Y-91750000D03*
X100000000Y-104250000D03*
X95000000Y-91750000D03*
X95000000Y-104250000D03*
%TD*%
%TO.C,SW24*%
X170250000Y-131750000D03*
X163750000Y-131750000D03*
X170250000Y-127250000D03*
X163750000Y-127250000D03*
%TD*%
D19*
%TO.C,C13*%
X131125000Y-139500000D03*
X132675000Y-139500000D03*
%TD*%
D36*
%TO.C,R32*%
X116083363Y-141816637D03*
X114916637Y-142983363D03*
%TD*%
D17*
%TO.C,SW18*%
X77000000Y-115000000D03*
X77000000Y-106000000D03*
D18*
X83250000Y-113000000D03*
X70750000Y-113000000D03*
X83250000Y-108000000D03*
X70750000Y-108000000D03*
%TD*%
D37*
%TO.C,U3*%
X154500000Y-79388750D03*
X153550000Y-79388750D03*
X152600000Y-79388750D03*
X152600000Y-81663750D03*
X154500000Y-81663750D03*
%TD*%
D17*
%TO.C,SW16*%
X52000000Y-115000000D03*
X52000000Y-106000000D03*
D18*
X58250000Y-113000000D03*
X45750000Y-113000000D03*
X58250000Y-108000000D03*
X45750000Y-108000000D03*
%TD*%
D17*
%TO.C,SW20*%
X102000000Y-106000000D03*
X102000000Y-115000000D03*
D18*
X108250000Y-113000000D03*
X95750000Y-113000000D03*
X108250000Y-108000000D03*
X95750000Y-108000000D03*
%TD*%
D28*
%TO.C,C3*%
X157475000Y-96500000D03*
X155925000Y-96500000D03*
%TD*%
D38*
%TO.C,J1*%
X137800000Y-89450000D03*
X135230000Y-94540000D03*
X135250000Y-89400000D03*
X137825000Y-91975000D03*
D39*
X136450000Y-93350000D03*
D38*
X137770000Y-94540000D03*
X135230000Y-92000000D03*
D39*
X136500000Y-90625000D03*
D40*
X139410000Y-89470000D03*
X139410000Y-92000000D03*
X139410000Y-94540000D03*
X133590000Y-89460000D03*
X133590000Y-92000000D03*
X133590000Y-94540000D03*
%TD*%
D41*
%TO.C,C6*%
X101100000Y-73525000D03*
X101100000Y-76475000D03*
%TD*%
D14*
%TO.C,R34*%
X110000000Y-72175000D03*
X110000000Y-73825000D03*
%TD*%
D15*
%TO.C,R8*%
X156400000Y-81695000D03*
X156400000Y-83520000D03*
%TD*%
D30*
%TO.C,RV2*%
X170000000Y-99030000D03*
D32*
X171400000Y-103030000D03*
D30*
X164000000Y-107030000D03*
D31*
X167000000Y-103030000D03*
D30*
X170000000Y-107030000D03*
D32*
X162600000Y-103030000D03*
D30*
X164000000Y-99030000D03*
D33*
X164500000Y-110030000D03*
X167000000Y-110030000D03*
X169500000Y-110030000D03*
%TD*%
D15*
%TO.C,R4*%
X156400000Y-78095000D03*
X156400000Y-79920000D03*
%TD*%
D17*
%TO.C,SW4*%
X68000000Y-81000000D03*
X68000000Y-90000000D03*
D18*
X74250000Y-88000000D03*
X61750000Y-88000000D03*
X74250000Y-83000000D03*
X61750000Y-83000000D03*
%TD*%
%TO.C,SW22*%
X22750000Y-79750000D03*
X22750000Y-86250000D03*
X18250000Y-79750000D03*
X18250000Y-86250000D03*
%TD*%
D42*
%TO.C,U2*%
X154137500Y-92025000D03*
X154137500Y-92675000D03*
X154137500Y-93325000D03*
X154137500Y-93975000D03*
D43*
X155125000Y-94962500D03*
X155775000Y-94962500D03*
X156425000Y-94962500D03*
X157075000Y-94962500D03*
D42*
X158062500Y-93975000D03*
X158062500Y-93325000D03*
X158062500Y-92675000D03*
X158062500Y-92025000D03*
D43*
X157075000Y-91037500D03*
X156425000Y-91037500D03*
X155775000Y-91037500D03*
X155125000Y-91037500D03*
D44*
X156100000Y-93000000D03*
%TD*%
D45*
%TO.C,L1*%
X149200000Y-86750000D03*
X149200000Y-91250000D03*
%TD*%
D39*
%TO.C,J4*%
X136450000Y-131350000D03*
D38*
X137800000Y-127450000D03*
X137825000Y-129975000D03*
X135230000Y-130000000D03*
X137770000Y-132540000D03*
X135230000Y-132540000D03*
X135250000Y-127400000D03*
D39*
X136500000Y-128625000D03*
D40*
X139410000Y-127470000D03*
X139410000Y-130000000D03*
X139410000Y-132540000D03*
X133590000Y-127460000D03*
X133590000Y-130000000D03*
X133590000Y-132540000D03*
%TD*%
D17*
%TO.C,SW5*%
X76000000Y-85500000D03*
X85000000Y-85500000D03*
D18*
X83000000Y-79250000D03*
X83000000Y-91750000D03*
X78000000Y-79250000D03*
X78000000Y-91750000D03*
%TD*%
D17*
%TO.C,SW19*%
X85000000Y-110500000D03*
X94000000Y-110500000D03*
D18*
X92000000Y-104250000D03*
X92000000Y-116750000D03*
X87000000Y-104250000D03*
X87000000Y-116750000D03*
%TD*%
D17*
%TO.C,SW9*%
X43000000Y-98000000D03*
X52000000Y-98000000D03*
D18*
X50000000Y-91750000D03*
X50000000Y-104250000D03*
X45000000Y-91750000D03*
X45000000Y-104250000D03*
%TD*%
D46*
%TO.C,R31*%
X112733274Y-145166726D03*
X113900000Y-144000000D03*
%TD*%
D31*
%TO.C,RV1*%
X167000000Y-118000000D03*
D32*
X162600000Y-118000000D03*
D30*
X170000000Y-122000000D03*
X164000000Y-114000000D03*
X164000000Y-122000000D03*
D32*
X171400000Y-118000000D03*
D30*
X170000000Y-114000000D03*
D33*
X164500000Y-125000000D03*
X167000000Y-125000000D03*
X169500000Y-125000000D03*
%TD*%
D19*
%TO.C,C2*%
X152725000Y-83507500D03*
X154275000Y-83507500D03*
%TD*%
D25*
%TO.C,R9*%
X146000000Y-113112500D03*
X146000000Y-111287500D03*
%TD*%
D47*
%TO.C,R6*%
X157625000Y-87400000D03*
X155975000Y-87400000D03*
%TD*%
D17*
%TO.C,SW7*%
X110000000Y-85500000D03*
X101000000Y-85500000D03*
D18*
X108000000Y-79250000D03*
X108000000Y-91750000D03*
X103000000Y-79250000D03*
X103000000Y-91750000D03*
%TD*%
D17*
%TO.C,SW3*%
X51000000Y-85500000D03*
X60000000Y-85500000D03*
D18*
X58000000Y-79250000D03*
X58000000Y-91750000D03*
X53000000Y-79250000D03*
X53000000Y-91750000D03*
%TD*%
D25*
%TO.C,R38*%
X172800000Y-130400000D03*
X172800000Y-128575000D03*
%TD*%
D20*
%TO.C,R30*%
X131075000Y-146800000D03*
X132725000Y-146800000D03*
%TD*%
D48*
%TO.C,J2*%
X114738835Y-134196699D03*
X112971068Y-132428932D03*
X111203301Y-130661165D03*
D49*
X105900000Y-132428932D03*
X107667767Y-134196699D03*
D50*
X105900000Y-139500000D03*
D51*
X112971068Y-139500000D03*
X111203301Y-137732233D03*
%TD*%
D25*
%TO.C,R40*%
X124200000Y-73987500D03*
X124200000Y-72162500D03*
%TD*%
D52*
%TO.C,U5*%
X121937500Y-137375000D03*
X121937500Y-138025000D03*
X121937500Y-138675000D03*
X121937500Y-139325000D03*
X121937500Y-139975000D03*
X121937500Y-140625000D03*
X121937500Y-141275000D03*
X121937500Y-141925000D03*
X121937500Y-142575000D03*
X121937500Y-143225000D03*
X127662500Y-143225000D03*
X127662500Y-142575000D03*
X127662500Y-141925000D03*
X127662500Y-141275000D03*
X127662500Y-140625000D03*
X127662500Y-139975000D03*
X127662500Y-139325000D03*
X127662500Y-138675000D03*
X127662500Y-138025000D03*
X127662500Y-137375000D03*
%TD*%
D17*
%TO.C,SW1*%
X26000000Y-85500000D03*
X35000000Y-85500000D03*
D18*
X33000000Y-79250000D03*
X33000000Y-91750000D03*
X28000000Y-79250000D03*
X28000000Y-91750000D03*
%TD*%
D19*
%TO.C,C8*%
X139525000Y-112400000D03*
X141075000Y-112400000D03*
%TD*%
D13*
%TO.C,C14*%
X120000000Y-143025000D03*
X120000000Y-144575000D03*
%TD*%
D47*
%TO.C,R5*%
X157625000Y-89200000D03*
X155975000Y-89200000D03*
%TD*%
D53*
%TO.C,C15*%
X125100000Y-130800000D03*
X125100000Y-134400000D03*
%TD*%
D14*
%TO.C,R36*%
X119600000Y-130575000D03*
X119600000Y-132225000D03*
%TD*%
D16*
%TO.C,C10*%
X117600000Y-138550000D03*
X117600000Y-140450000D03*
%TD*%
D25*
%TO.C,R11*%
X112700000Y-86512500D03*
X112700000Y-84687500D03*
%TD*%
D54*
%TO.C,C17*%
X114948008Y-140751992D03*
X113851992Y-141848008D03*
%TD*%
D55*
%TO.C,U6*%
X137887500Y-111800000D03*
D56*
X137887500Y-111400000D03*
X137887500Y-111000000D03*
X137887500Y-110600000D03*
D57*
X137887500Y-110200000D03*
D58*
X137300000Y-109612500D03*
D59*
X136900000Y-109612500D03*
X136500000Y-109612500D03*
X136100000Y-109612500D03*
D60*
X135700000Y-109612500D03*
D61*
X135112500Y-110200000D03*
D56*
X135112500Y-110600000D03*
X135112500Y-111000000D03*
X135112500Y-111400000D03*
D62*
X135112500Y-111800000D03*
D63*
X135700000Y-112387500D03*
D59*
X136100000Y-112387500D03*
X136500000Y-112387500D03*
X136900000Y-112387500D03*
D64*
X137300000Y-112387500D03*
%TD*%
D18*
%TO.C,SW25*%
X163750000Y-134250000D03*
X170250000Y-134250000D03*
X163750000Y-138750000D03*
X170250000Y-138750000D03*
%TD*%
D17*
%TO.C,SW8*%
X35000000Y-93500000D03*
X35000000Y-102500000D03*
D18*
X41250000Y-100500000D03*
X28750000Y-100500000D03*
X41250000Y-95500000D03*
X28750000Y-95500000D03*
%TD*%
D14*
%TO.C,R3*%
X161200000Y-94275000D03*
X161200000Y-95925000D03*
%TD*%
D19*
%TO.C,C12*%
X131125000Y-137300000D03*
X132675000Y-137300000D03*
%TD*%
D65*
%TO.C,J3*%
X126700000Y-91255000D03*
D66*
X124700000Y-91255000D03*
%TD*%
D67*
%TO.C,U1*%
X144130000Y-148375000D03*
X144130000Y-145835000D03*
X144130000Y-143295000D03*
X144130000Y-140755000D03*
X144130000Y-138215000D03*
X144130000Y-135675000D03*
X144130000Y-133135000D03*
X144130000Y-130595000D03*
X144130000Y-128055000D03*
X144130000Y-125515000D03*
X144130000Y-122975000D03*
X144130000Y-120435000D03*
X144130000Y-117895000D03*
X144130000Y-115355000D03*
X159370000Y-115355000D03*
X159370000Y-117895000D03*
X159370000Y-120435000D03*
X159370000Y-122975000D03*
X159370000Y-125515000D03*
X159370000Y-128055000D03*
X159370000Y-130595000D03*
X159370000Y-133135000D03*
X159370000Y-135675000D03*
X159370000Y-138215000D03*
X159370000Y-140755000D03*
X159370000Y-143295000D03*
X159370000Y-145835000D03*
X159370000Y-148375000D03*
X156830000Y-145835000D03*
%TD*%
M02*
