%TF.GenerationSoftware,KiCad,Pcbnew,(6.0.10-0)*%
%TF.CreationDate,2024-08-14T10:58:16+02:00*%
%TF.ProjectId,MiniChord,4d696e69-4368-46f7-9264-2e6b69636164,rev?*%
%TF.SameCoordinates,Original*%
%TF.FileFunction,Paste,Top*%
%TF.FilePolarity,Positive*%
%FSLAX46Y46*%
G04 Gerber Fmt 4.6, Leading zero omitted, Abs format (unit mm)*
G04 Created by KiCad (PCBNEW (6.0.10-0)) date 2024-08-14 10:58:16*
%MOMM*%
%LPD*%
G01*
G04 APERTURE LIST*
G04 Aperture macros list*
%AMRoundRect*
0 Rectangle with rounded corners*
0 $1 Rounding radius*
0 $2 $3 $4 $5 $6 $7 $8 $9 X,Y pos of 4 corners*
0 Add a 4 corners polygon primitive as box body*
4,1,4,$2,$3,$4,$5,$6,$7,$8,$9,$2,$3,0*
0 Add four circle primitives for the rounded corners*
1,1,$1+$1,$2,$3*
1,1,$1+$1,$4,$5*
1,1,$1+$1,$6,$7*
1,1,$1+$1,$8,$9*
0 Add four rect primitives between the rounded corners*
20,1,$1+$1,$2,$3,$4,$5,0*
20,1,$1+$1,$4,$5,$6,$7,0*
20,1,$1+$1,$6,$7,$8,$9,0*
20,1,$1+$1,$8,$9,$2,$3,0*%
%AMFreePoly0*
4,1,14,0.354215,0.088284,0.450784,-0.008285,0.462500,-0.036569,0.462500,-0.060000,0.450784,-0.088284,0.422500,-0.100000,-0.422500,-0.100000,-0.450784,-0.088284,-0.462500,-0.060000,-0.462500,0.060000,-0.450784,0.088284,-0.422500,0.100000,0.325931,0.100000,0.354215,0.088284,0.354215,0.088284,$1*%
%AMFreePoly1*
4,1,14,0.450784,0.088284,0.462500,0.060000,0.462500,0.036569,0.450784,0.008285,0.354215,-0.088284,0.325931,-0.100000,-0.422500,-0.100000,-0.450784,-0.088284,-0.462500,-0.060000,-0.462500,0.060000,-0.450784,0.088284,-0.422500,0.100000,0.422500,0.100000,0.450784,0.088284,0.450784,0.088284,$1*%
%AMFreePoly2*
4,1,14,0.088284,0.450784,0.100000,0.422500,0.100000,-0.422500,0.088284,-0.450784,0.060000,-0.462500,-0.060000,-0.462500,-0.088284,-0.450784,-0.100000,-0.422500,-0.100000,0.325931,-0.088284,0.354215,0.008285,0.450784,0.036569,0.462500,0.060000,0.462500,0.088284,0.450784,0.088284,0.450784,$1*%
%AMFreePoly3*
4,1,14,-0.008285,0.450784,0.088284,0.354215,0.100000,0.325931,0.100000,-0.422500,0.088284,-0.450784,0.060000,-0.462500,-0.060000,-0.462500,-0.088284,-0.450784,-0.100000,-0.422500,-0.100000,0.422500,-0.088284,0.450784,-0.060000,0.462500,-0.036569,0.462500,-0.008285,0.450784,-0.008285,0.450784,$1*%
%AMFreePoly4*
4,1,14,0.450784,0.088284,0.462500,0.060000,0.462500,-0.060000,0.450784,-0.088284,0.422500,-0.100000,-0.325931,-0.100000,-0.354215,-0.088284,-0.450784,0.008285,-0.462500,0.036569,-0.462500,0.060000,-0.450784,0.088284,-0.422500,0.100000,0.422500,0.100000,0.450784,0.088284,0.450784,0.088284,$1*%
%AMFreePoly5*
4,1,14,0.450784,0.088284,0.462500,0.060000,0.462500,-0.060000,0.450784,-0.088284,0.422500,-0.100000,-0.422500,-0.100000,-0.450784,-0.088284,-0.462500,-0.060000,-0.462500,-0.036569,-0.450784,-0.008285,-0.354215,0.088284,-0.325931,0.100000,0.422500,0.100000,0.450784,0.088284,0.450784,0.088284,$1*%
%AMFreePoly6*
4,1,14,0.088284,0.450784,0.100000,0.422500,0.100000,-0.325931,0.088284,-0.354215,-0.008285,-0.450784,-0.036569,-0.462500,-0.060000,-0.462500,-0.088284,-0.450784,-0.100000,-0.422500,-0.100000,0.422500,-0.088284,0.450784,-0.060000,0.462500,0.060000,0.462500,0.088284,0.450784,0.088284,0.450784,$1*%
%AMFreePoly7*
4,1,14,0.088284,0.450784,0.100000,0.422500,0.100000,-0.422500,0.088284,-0.450784,0.060000,-0.462500,0.036569,-0.462500,0.008285,-0.450784,-0.088284,-0.354215,-0.100000,-0.325931,-0.100000,0.422500,-0.088284,0.450784,-0.060000,0.462500,0.060000,0.462500,0.088284,0.450784,0.088284,0.450784,$1*%
G04 Aperture macros list end*
%ADD10RoundRect,0.050000X0.388909X0.106066X0.106066X0.388909X-0.388909X-0.106066X-0.106066X-0.388909X0*%
%ADD11RoundRect,0.050000X0.300520X0.017678X0.017678X0.300520X-0.300520X-0.017678X-0.017678X-0.300520X0*%
%ADD12RoundRect,0.150000X0.150000X-0.825000X0.150000X0.825000X-0.150000X0.825000X-0.150000X-0.825000X0*%
%ADD13RoundRect,0.225000X-0.250000X0.225000X-0.250000X-0.225000X0.250000X-0.225000X0.250000X0.225000X0*%
%ADD14RoundRect,0.200000X-0.275000X0.200000X-0.275000X-0.200000X0.275000X-0.200000X0.275000X0.200000X0*%
%ADD15RoundRect,0.250000X-0.450000X0.262500X-0.450000X-0.262500X0.450000X-0.262500X0.450000X0.262500X0*%
%ADD16RoundRect,0.250000X-0.475000X0.250000X-0.475000X-0.250000X0.475000X-0.250000X0.475000X0.250000X0*%
%ADD17RoundRect,0.225000X-0.225000X-0.250000X0.225000X-0.250000X0.225000X0.250000X-0.225000X0.250000X0*%
%ADD18RoundRect,0.200000X-0.200000X-0.275000X0.200000X-0.275000X0.200000X0.275000X-0.200000X0.275000X0*%
%ADD19RoundRect,0.225000X0.017678X-0.335876X0.335876X-0.017678X-0.017678X0.335876X-0.335876X0.017678X0*%
%ADD20RoundRect,0.250000X0.475000X-0.250000X0.475000X0.250000X-0.475000X0.250000X-0.475000X-0.250000X0*%
%ADD21RoundRect,0.250000X0.450000X-0.262500X0.450000X0.262500X-0.450000X0.262500X-0.450000X-0.262500X0*%
%ADD22RoundRect,0.200000X0.275000X-0.200000X0.275000X0.200000X-0.275000X0.200000X-0.275000X-0.200000X0*%
%ADD23RoundRect,0.225000X0.225000X0.250000X-0.225000X0.250000X-0.225000X-0.250000X0.225000X-0.250000X0*%
%ADD24RoundRect,0.250000X-0.250000X-0.475000X0.250000X-0.475000X0.250000X0.475000X-0.250000X0.475000X0*%
%ADD25RoundRect,0.250000X-0.550000X1.500000X-0.550000X-1.500000X0.550000X-1.500000X0.550000X1.500000X0*%
%ADD26RoundRect,0.250000X-0.262500X-0.450000X0.262500X-0.450000X0.262500X0.450000X-0.262500X0.450000X0*%
%ADD27RoundRect,0.200000X-0.053033X0.335876X-0.335876X0.053033X0.053033X-0.335876X0.335876X-0.053033X0*%
%ADD28RoundRect,0.150000X-0.150000X0.512500X-0.150000X-0.512500X0.150000X-0.512500X0.150000X0.512500X0*%
%ADD29RoundRect,0.255000X-0.635000X0.255000X-0.635000X-0.255000X0.635000X-0.255000X0.635000X0.255000X0*%
%ADD30RoundRect,0.250000X-0.650000X0.325000X-0.650000X-0.325000X0.650000X-0.325000X0.650000X0.325000X0*%
%ADD31RoundRect,0.238649X-0.238648X-0.238648X0.238648X-0.238648X0.238648X0.238648X-0.238648X0.238648X0*%
%ADD32RoundRect,0.087500X-0.325000X-0.087500X0.325000X-0.087500X0.325000X0.087500X-0.325000X0.087500X0*%
%ADD33RoundRect,0.087500X-0.087500X-0.325000X0.087500X-0.325000X0.087500X0.325000X-0.087500X0.325000X0*%
%ADD34R,5.700000X1.700000*%
%ADD35RoundRect,0.200000X0.053033X-0.335876X0.335876X-0.053033X-0.053033X0.335876X-0.335876X0.053033X0*%
%ADD36RoundRect,0.250000X0.250000X-0.250000X0.250000X0.250000X-0.250000X0.250000X-0.250000X-0.250000X0*%
%ADD37RoundRect,0.200000X0.200000X0.275000X-0.200000X0.275000X-0.200000X-0.275000X0.200000X-0.275000X0*%
%ADD38RoundRect,0.100000X-0.637500X-0.100000X0.637500X-0.100000X0.637500X0.100000X-0.637500X0.100000X0*%
%ADD39RoundRect,0.250000X-0.550000X1.050000X-0.550000X-1.050000X0.550000X-1.050000X0.550000X1.050000X0*%
%ADD40RoundRect,0.225000X-0.017678X0.335876X-0.335876X0.017678X0.017678X-0.335876X0.335876X-0.017678X0*%
%ADD41FreePoly0,180.000000*%
%ADD42RoundRect,0.050000X0.412500X0.050000X-0.412500X0.050000X-0.412500X-0.050000X0.412500X-0.050000X0*%
%ADD43FreePoly1,180.000000*%
%ADD44FreePoly2,180.000000*%
%ADD45RoundRect,0.050000X0.050000X0.412500X-0.050000X0.412500X-0.050000X-0.412500X0.050000X-0.412500X0*%
%ADD46FreePoly3,180.000000*%
%ADD47FreePoly4,180.000000*%
%ADD48FreePoly5,180.000000*%
%ADD49FreePoly6,180.000000*%
%ADD50FreePoly7,180.000000*%
G04 APERTURE END LIST*
D10*
%TO.C,D3*%
X167146536Y-79257627D03*
D11*
X166315685Y-78815685D03*
X165750000Y-78250000D03*
D10*
X165308058Y-77419149D03*
%TD*%
D12*
%TO.C,U4*%
X88555000Y-77875000D03*
X89825000Y-77875000D03*
X91095000Y-77875000D03*
X92365000Y-77875000D03*
X93635000Y-77875000D03*
X94905000Y-77875000D03*
X96175000Y-77875000D03*
X97445000Y-77875000D03*
X97445000Y-72925000D03*
X96175000Y-72925000D03*
X94905000Y-72925000D03*
X93635000Y-72925000D03*
X92365000Y-72925000D03*
X91095000Y-72925000D03*
X89825000Y-72925000D03*
X88555000Y-72925000D03*
%TD*%
D13*
%TO.C,C7*%
X99100000Y-74225000D03*
X99100000Y-75775000D03*
%TD*%
D14*
%TO.C,R2*%
X159700000Y-94275000D03*
X159700000Y-95925000D03*
%TD*%
D15*
%TO.C,R13*%
X121700000Y-106987500D03*
X121700000Y-108812500D03*
%TD*%
D16*
%TO.C,C9*%
X119700000Y-137450000D03*
X119700000Y-139350000D03*
%TD*%
D17*
%TO.C,C11*%
X121625000Y-135900000D03*
X123175000Y-135900000D03*
%TD*%
D18*
%TO.C,R29*%
X131075000Y-145100000D03*
X132725000Y-145100000D03*
%TD*%
%TO.C,R27*%
X131075000Y-141700000D03*
X132725000Y-141700000D03*
%TD*%
D14*
%TO.C,R7*%
X160400000Y-87875000D03*
X160400000Y-89525000D03*
%TD*%
D19*
%TO.C,C16*%
X111651992Y-144048008D03*
X112748008Y-142951992D03*
%TD*%
D13*
%TO.C,C19*%
X139000000Y-106475000D03*
X139000000Y-108025000D03*
%TD*%
D20*
%TO.C,C4*%
X154000000Y-89250000D03*
X154000000Y-87350000D03*
%TD*%
D21*
%TO.C,R10*%
X148000000Y-113112500D03*
X148000000Y-111287500D03*
%TD*%
D22*
%TO.C,R15*%
X137500000Y-108075000D03*
X137500000Y-106425000D03*
%TD*%
D18*
%TO.C,R28*%
X131075000Y-143400000D03*
X132725000Y-143400000D03*
%TD*%
D21*
%TO.C,R1*%
X158700000Y-83520000D03*
X158700000Y-81695000D03*
%TD*%
D15*
%TO.C,R12*%
X119000000Y-97087500D03*
X119000000Y-98912500D03*
%TD*%
%TO.C,R39*%
X172800000Y-132200000D03*
X172800000Y-134025000D03*
%TD*%
D14*
%TO.C,R37*%
X118000000Y-130575000D03*
X118000000Y-132225000D03*
%TD*%
%TO.C,R35*%
X121200000Y-130575000D03*
X121200000Y-132225000D03*
%TD*%
D23*
%TO.C,C1*%
X157475000Y-98100000D03*
X155925000Y-98100000D03*
%TD*%
D24*
%TO.C,C18*%
X152550000Y-77307500D03*
X154450000Y-77307500D03*
%TD*%
D25*
%TO.C,C5*%
X149300000Y-94500000D03*
X149300000Y-99900000D03*
%TD*%
D26*
%TO.C,R14*%
X139587500Y-109900000D03*
X141412500Y-109900000D03*
%TD*%
D17*
%TO.C,C13*%
X131125000Y-139500000D03*
X132675000Y-139500000D03*
%TD*%
D27*
%TO.C,R32*%
X116083363Y-141816637D03*
X114916637Y-142983363D03*
%TD*%
D28*
%TO.C,U3*%
X154500000Y-79388750D03*
X153550000Y-79388750D03*
X152600000Y-79388750D03*
X152600000Y-81663750D03*
X154500000Y-81663750D03*
%TD*%
D23*
%TO.C,C3*%
X157475000Y-96500000D03*
X155925000Y-96500000D03*
%TD*%
D29*
%TO.C,J1*%
X139410000Y-89470000D03*
X139410000Y-92000000D03*
X139410000Y-94540000D03*
X133590000Y-89460000D03*
X133590000Y-92000000D03*
X133590000Y-94540000D03*
%TD*%
D30*
%TO.C,C6*%
X101100000Y-73525000D03*
X101100000Y-76475000D03*
%TD*%
D14*
%TO.C,R34*%
X110000000Y-72175000D03*
X110000000Y-73825000D03*
%TD*%
D15*
%TO.C,R8*%
X156400000Y-81695000D03*
X156400000Y-83520000D03*
%TD*%
%TO.C,R4*%
X156400000Y-78095000D03*
X156400000Y-79920000D03*
%TD*%
D31*
%TO.C,U2*%
X155550000Y-92450000D03*
X155550000Y-93550000D03*
X156650000Y-92450000D03*
X156650000Y-93550000D03*
D32*
X154137500Y-92025000D03*
X154137500Y-92675000D03*
X154137500Y-93325000D03*
X154137500Y-93975000D03*
D33*
X155125000Y-94962500D03*
X155775000Y-94962500D03*
X156425000Y-94962500D03*
X157075000Y-94962500D03*
D32*
X158062500Y-93975000D03*
X158062500Y-93325000D03*
X158062500Y-92675000D03*
X158062500Y-92025000D03*
D33*
X157075000Y-91037500D03*
X156425000Y-91037500D03*
X155775000Y-91037500D03*
X155125000Y-91037500D03*
%TD*%
D34*
%TO.C,L1*%
X149200000Y-86750000D03*
X149200000Y-91250000D03*
%TD*%
D29*
%TO.C,J4*%
X139410000Y-127470000D03*
X139410000Y-130000000D03*
X139410000Y-132540000D03*
X133590000Y-127460000D03*
X133590000Y-130000000D03*
X133590000Y-132540000D03*
%TD*%
D35*
%TO.C,R31*%
X112733274Y-145166726D03*
X113900000Y-144000000D03*
%TD*%
D36*
%TO.C,JP2*%
X161200000Y-91000000D03*
X161200000Y-92200000D03*
%TD*%
D17*
%TO.C,C2*%
X152725000Y-83507500D03*
X154275000Y-83507500D03*
%TD*%
D21*
%TO.C,R9*%
X146000000Y-113112500D03*
X146000000Y-111287500D03*
%TD*%
D37*
%TO.C,R6*%
X157625000Y-87400000D03*
X155975000Y-87400000D03*
%TD*%
D21*
%TO.C,R38*%
X172800000Y-130400000D03*
X172800000Y-128575000D03*
%TD*%
D18*
%TO.C,R30*%
X131075000Y-146800000D03*
X132725000Y-146800000D03*
%TD*%
D21*
%TO.C,R40*%
X124200000Y-73987500D03*
X124200000Y-72162500D03*
%TD*%
D38*
%TO.C,U5*%
X121937500Y-137375000D03*
X121937500Y-138025000D03*
X121937500Y-138675000D03*
X121937500Y-139325000D03*
X121937500Y-139975000D03*
X121937500Y-140625000D03*
X121937500Y-141275000D03*
X121937500Y-141925000D03*
X121937500Y-142575000D03*
X121937500Y-143225000D03*
X127662500Y-143225000D03*
X127662500Y-142575000D03*
X127662500Y-141925000D03*
X127662500Y-141275000D03*
X127662500Y-140625000D03*
X127662500Y-139975000D03*
X127662500Y-139325000D03*
X127662500Y-138675000D03*
X127662500Y-138025000D03*
X127662500Y-137375000D03*
%TD*%
D17*
%TO.C,C8*%
X139525000Y-112400000D03*
X141075000Y-112400000D03*
%TD*%
D13*
%TO.C,C14*%
X120000000Y-143025000D03*
X120000000Y-144575000D03*
%TD*%
D37*
%TO.C,R5*%
X157625000Y-89200000D03*
X155975000Y-89200000D03*
%TD*%
D39*
%TO.C,C15*%
X125100000Y-130800000D03*
X125100000Y-134400000D03*
%TD*%
D14*
%TO.C,R36*%
X119600000Y-130575000D03*
X119600000Y-132225000D03*
%TD*%
D16*
%TO.C,C10*%
X117600000Y-138550000D03*
X117600000Y-140450000D03*
%TD*%
D21*
%TO.C,R11*%
X112700000Y-86512500D03*
X112700000Y-84687500D03*
%TD*%
D40*
%TO.C,C17*%
X114948008Y-140751992D03*
X113851992Y-141848008D03*
%TD*%
D41*
%TO.C,U6*%
X137887500Y-111800000D03*
D42*
X137887500Y-111400000D03*
X137887500Y-111000000D03*
X137887500Y-110600000D03*
D43*
X137887500Y-110200000D03*
D44*
X137300000Y-109612500D03*
D45*
X136900000Y-109612500D03*
X136500000Y-109612500D03*
X136100000Y-109612500D03*
D46*
X135700000Y-109612500D03*
D47*
X135112500Y-110200000D03*
D42*
X135112500Y-110600000D03*
X135112500Y-111000000D03*
X135112500Y-111400000D03*
D48*
X135112500Y-111800000D03*
D49*
X135700000Y-112387500D03*
D45*
X136100000Y-112387500D03*
X136500000Y-112387500D03*
X136900000Y-112387500D03*
D50*
X137300000Y-112387500D03*
%TD*%
D14*
%TO.C,R3*%
X161200000Y-94275000D03*
X161200000Y-95925000D03*
%TD*%
D17*
%TO.C,C12*%
X131125000Y-137300000D03*
X132675000Y-137300000D03*
%TD*%
M02*
