%TF.GenerationSoftware,KiCad,Pcbnew,8.0.9*%
%TF.CreationDate,2025-12-22T17:05:26+01:00*%
%TF.ProjectId,MiniChord,4d696e69-4368-46f7-9264-2e6b69636164,rev?*%
%TF.SameCoordinates,Original*%
%TF.FileFunction,Other,User*%
%FSLAX46Y46*%
G04 Gerber Fmt 4.6, Leading zero omitted, Abs format (unit mm)*
G04 Created by KiCad (PCBNEW 8.0.9) date 2025-12-22 17:05:26*
%MOMM*%
%LPD*%
G01*
G04 APERTURE LIST*
%ADD10C,0.050000*%
%ADD11C,0.120000*%
G04 APERTURE END LIST*
D10*
X102704581Y-142645420D02*
X101300000Y-144100000D01*
%TO.C,U4*%
X119550000Y-81050000D02*
X119550000Y-91450000D01*
X119550000Y-91450000D02*
X126950000Y-91450000D01*
X126950000Y-81050000D02*
X119550000Y-81050000D01*
X126950000Y-91450000D02*
X126950000Y-81050000D01*
%TO.C,C7*%
X124020000Y-92020000D02*
X126980000Y-92020000D01*
X124020000Y-93480000D02*
X124020000Y-92020000D01*
X126980000Y-92020000D02*
X126980000Y-93480000D01*
X126980000Y-93480000D02*
X124020000Y-93480000D01*
%TO.C,D5*%
X116250000Y-87800000D02*
X118750000Y-87800000D01*
X116250000Y-89200000D02*
X116250000Y-87800000D01*
X118750000Y-87800000D02*
X118750000Y-89200000D01*
X118750000Y-89200000D02*
X116250000Y-89200000D01*
%TO.C,R2*%
X158970000Y-93620000D02*
X160430000Y-93620000D01*
X158970000Y-96580000D02*
X158970000Y-93620000D01*
X160430000Y-93620000D02*
X160430000Y-96580000D01*
X160430000Y-96580000D02*
X158970000Y-96580000D01*
%TO.C,R13*%
X120750000Y-106220000D02*
X122650000Y-106220000D01*
X120750000Y-109580000D02*
X120750000Y-106220000D01*
X122650000Y-106220000D02*
X122650000Y-109580000D01*
X122650000Y-109580000D02*
X120750000Y-109580000D01*
%TO.C,C9*%
X118720000Y-136700000D02*
X120680000Y-136700000D01*
X118720000Y-140100000D02*
X118720000Y-136700000D01*
X120680000Y-136700000D02*
X120680000Y-140100000D01*
X120680000Y-140100000D02*
X118720000Y-140100000D01*
D11*
%TO.C,SW11*%
X78500000Y-93500000D02*
X78500000Y-102500000D01*
X77000000Y-104000000D01*
X68000000Y-104000000D01*
X66500000Y-102500000D01*
X66500000Y-93500000D01*
X68000000Y-92000000D01*
X77000000Y-92000000D01*
X78500000Y-93500000D01*
D10*
%TO.C,C11*%
X120920000Y-135170000D02*
X123880000Y-135170000D01*
X120920000Y-136630000D02*
X120920000Y-135170000D01*
X123880000Y-135170000D02*
X123880000Y-136630000D01*
X123880000Y-136630000D02*
X120920000Y-136630000D01*
%TO.C,SW26*%
D11*
X115000000Y-70000000D02*
X121000000Y-70000000D01*
X121000000Y-76000000D01*
X115000000Y-76000000D01*
X115000000Y-70000000D01*
D10*
%TO.C,R29*%
X130420000Y-144370000D02*
X133380000Y-144370000D01*
X130420000Y-145830000D02*
X130420000Y-144370000D01*
X133380000Y-144370000D02*
X133380000Y-145830000D01*
X133380000Y-145830000D02*
X130420000Y-145830000D01*
%TO.C,R27*%
X130420000Y-140970000D02*
X133380000Y-140970000D01*
X130420000Y-142430000D02*
X130420000Y-140970000D01*
X133380000Y-140970000D02*
X133380000Y-142430000D01*
X133380000Y-142430000D02*
X130420000Y-142430000D01*
%TO.C,D2*%
X116290000Y-123250000D02*
X116290000Y-129750000D01*
X116290000Y-129750000D02*
X122790000Y-129750000D01*
X122790000Y-123250000D02*
X116290000Y-123250000D01*
X122790000Y-129750000D02*
X122790000Y-123250000D01*
%TO.C,R7*%
X159670000Y-87220000D02*
X161130000Y-87220000D01*
X159670000Y-90180000D02*
X159670000Y-87220000D01*
X161130000Y-87220000D02*
X161130000Y-90180000D01*
X161130000Y-90180000D02*
X159670000Y-90180000D01*
%TO.C,D9*%
X116250000Y-80300000D02*
X118750000Y-80300000D01*
X116250000Y-81700000D02*
X116250000Y-80300000D01*
X118750000Y-80300000D02*
X118750000Y-81700000D01*
X118750000Y-81700000D02*
X116250000Y-81700000D01*
%TO.C,C16*%
X110637294Y-144030330D02*
X112730330Y-141937294D01*
X111669670Y-145062706D02*
X110637294Y-144030330D01*
X112730330Y-141937294D02*
X113762706Y-142969670D01*
X113762706Y-142969670D02*
X111669670Y-145062706D01*
%TO.C,D11*%
X116250000Y-89300000D02*
X118750000Y-89300000D01*
X116250000Y-90700000D02*
X116250000Y-89300000D01*
X118750000Y-89300000D02*
X118750000Y-90700000D01*
X118750000Y-90700000D02*
X116250000Y-90700000D01*
D11*
%TO.C,SW12*%
X91000000Y-93500000D02*
X91000000Y-102500000D01*
X89500000Y-104000000D01*
X80500000Y-104000000D01*
X79000000Y-102500000D01*
X79000000Y-93500000D01*
X80500000Y-92000000D01*
X89500000Y-92000000D01*
X91000000Y-93500000D01*
%TO.C,SW15*%
X45500000Y-106000000D02*
X45500000Y-115000000D01*
X44000000Y-116500000D01*
X35000000Y-116500000D01*
X33500000Y-115000000D01*
X33500000Y-106000000D01*
X35000000Y-104500000D01*
X44000000Y-104500000D01*
X45500000Y-106000000D01*
%TO.C,D3*%
X164954505Y-77489860D02*
X167075825Y-79611180D01*
X165378769Y-77065596D02*
X164954505Y-77489860D01*
X165732322Y-77419149D02*
X165378769Y-77065596D01*
X167075825Y-79611180D02*
X167500089Y-79186916D01*
X167146536Y-78833363D02*
X167500089Y-79186916D01*
X165732322Y-77419149D02*
G75*
G02*
X167146536Y-78833363I707107J-707107D01*
G01*
D10*
%TO.C,C19*%
X138270000Y-105770000D02*
X139730000Y-105770000D01*
X138270000Y-108730000D02*
X138270000Y-105770000D01*
X139730000Y-105770000D02*
X139730000Y-108730000D01*
X139730000Y-108730000D02*
X138270000Y-108730000D01*
%TO.C,C4*%
X153020000Y-86600000D02*
X154980000Y-86600000D01*
X153020000Y-90000000D02*
X153020000Y-86600000D01*
X154980000Y-86600000D02*
X154980000Y-90000000D01*
X154980000Y-90000000D02*
X153020000Y-90000000D01*
%TO.C,R10*%
X147050000Y-110520000D02*
X148950000Y-110520000D01*
X147050000Y-113880000D02*
X147050000Y-110520000D01*
X148950000Y-110520000D02*
X148950000Y-113880000D01*
X148950000Y-113880000D02*
X147050000Y-113880000D01*
%TO.C,R15*%
X136770000Y-105770000D02*
X138230000Y-105770000D01*
X136770000Y-108730000D02*
X136770000Y-105770000D01*
X138230000Y-105770000D02*
X138230000Y-108730000D01*
X138230000Y-108730000D02*
X136770000Y-108730000D01*
D11*
%TO.C,SW10*%
X66000000Y-93500000D02*
X66000000Y-102500000D01*
X64500000Y-104000000D01*
X55500000Y-104000000D01*
X54000000Y-102500000D01*
X54000000Y-93500000D01*
X55500000Y-92000000D01*
X64500000Y-92000000D01*
X66000000Y-93500000D01*
D10*
%TO.C,R28*%
X130420000Y-142670000D02*
X133380000Y-142670000D01*
X130420000Y-144130000D02*
X130420000Y-142670000D01*
X133380000Y-142670000D02*
X133380000Y-144130000D01*
X133380000Y-144130000D02*
X130420000Y-144130000D01*
%TO.C,R1*%
X157750000Y-80927500D02*
X159650000Y-80927500D01*
X157750000Y-84287500D02*
X157750000Y-80927500D01*
X159650000Y-80927500D02*
X159650000Y-84287500D01*
X159650000Y-84287500D02*
X157750000Y-84287500D01*
%TO.C,D1*%
X110900000Y-70270000D02*
X110900000Y-75720000D01*
X110900000Y-75720000D02*
X114100000Y-75720000D01*
X114100000Y-70270000D02*
X110900000Y-70270000D01*
X114100000Y-75720000D02*
X114100000Y-70270000D01*
D11*
%TO.C,SW21*%
X120500000Y-106000000D02*
X120500000Y-115000000D01*
X119000000Y-116500000D01*
X110000000Y-116500000D01*
X108500000Y-115000000D01*
X108500000Y-106000000D01*
X110000000Y-104500000D01*
X119000000Y-104500000D01*
X120500000Y-106000000D01*
D10*
%TO.C,R12*%
X118050000Y-96320000D02*
X119950000Y-96320000D01*
X118050000Y-99680000D02*
X118050000Y-96320000D01*
X119950000Y-96320000D02*
X119950000Y-99680000D01*
X119950000Y-99680000D02*
X118050000Y-99680000D01*
%TO.C,R39*%
X171850000Y-131432500D02*
X173750000Y-131432500D01*
X171850000Y-134792500D02*
X171850000Y-131432500D01*
X173750000Y-131432500D02*
X173750000Y-134792500D01*
X173750000Y-134792500D02*
X171850000Y-134792500D01*
%TO.C,R37*%
X117270000Y-129920000D02*
X118730000Y-129920000D01*
X117270000Y-132880000D02*
X117270000Y-129920000D01*
X118730000Y-129920000D02*
X118730000Y-132880000D01*
X118730000Y-132880000D02*
X117270000Y-132880000D01*
%TO.C,D8*%
X116250000Y-90800000D02*
X118750000Y-90800000D01*
X116250000Y-92200000D02*
X116250000Y-90800000D01*
X118750000Y-90800000D02*
X118750000Y-92200000D01*
X118750000Y-92200000D02*
X116250000Y-92200000D01*
D11*
%TO.C,SW6*%
X99000000Y-81000000D02*
X99000000Y-90000000D01*
X97500000Y-91500000D01*
X88500000Y-91500000D01*
X87000000Y-90000000D01*
X87000000Y-81000000D01*
X88500000Y-79500000D01*
X97500000Y-79500000D01*
X99000000Y-81000000D01*
%TO.C,SW14*%
X116000000Y-93500000D02*
X116000000Y-102500000D01*
X114500000Y-104000000D01*
X105500000Y-104000000D01*
X104000000Y-102500000D01*
X104000000Y-93500000D01*
X105500000Y-92000000D01*
X114500000Y-92000000D01*
X116000000Y-93500000D01*
%TO.C,SW2*%
X49000000Y-81000000D02*
X49000000Y-90000000D01*
X47500000Y-91500000D01*
X38500000Y-91500000D01*
X37000000Y-90000000D01*
X37000000Y-81000000D01*
X38500000Y-79500000D01*
X47500000Y-79500000D01*
X49000000Y-81000000D01*
D10*
%TO.C,R35*%
X120470000Y-129920000D02*
X121930000Y-129920000D01*
X120470000Y-132880000D02*
X120470000Y-129920000D01*
X121930000Y-129920000D02*
X121930000Y-132880000D01*
X121930000Y-132880000D02*
X120470000Y-132880000D01*
%TO.C,C1*%
X155220000Y-97370000D02*
X158180000Y-97370000D01*
X155220000Y-98830000D02*
X155220000Y-97370000D01*
X158180000Y-97370000D02*
X158180000Y-98830000D01*
X158180000Y-98830000D02*
X155220000Y-98830000D01*
D11*
%TO.C,SW17*%
X70500000Y-106000000D02*
X70500000Y-115000000D01*
X69000000Y-116500000D01*
X60000000Y-116500000D01*
X58500000Y-115000000D01*
X58500000Y-106000000D01*
X60000000Y-104500000D01*
X69000000Y-104500000D01*
X70500000Y-106000000D01*
D10*
%TO.C,C18*%
X151800000Y-76327500D02*
X155200000Y-76327500D01*
X151800000Y-78287500D02*
X151800000Y-76327500D01*
X155200000Y-76327500D02*
X155200000Y-78287500D01*
X155200000Y-78287500D02*
X151800000Y-78287500D01*
%TO.C,RV3*%
D11*
X171900000Y-93530000D02*
X162100000Y-93530000D01*
X162100000Y-82530000D01*
X171900000Y-82530000D01*
X171900000Y-93530000D01*
D10*
%TO.C,C5*%
X145750000Y-94800000D02*
X145750000Y-100750000D01*
X146900000Y-93650000D02*
X145750000Y-94800000D01*
X148250000Y-92500000D02*
X148250000Y-93650000D01*
X148250000Y-93650000D02*
X146900000Y-93650000D01*
X148250000Y-100750000D02*
X145750000Y-100750000D01*
X148250000Y-101900000D02*
X148250000Y-100750000D01*
X150350000Y-92500000D02*
X148250000Y-92500000D01*
X150350000Y-93650000D02*
X150350000Y-92500000D01*
X150350000Y-100750000D02*
X150350000Y-101900000D01*
X150350000Y-101900000D02*
X148250000Y-101900000D01*
X151700000Y-93650000D02*
X150350000Y-93650000D01*
X151700000Y-93650000D02*
X152850000Y-94800000D01*
X152850000Y-94800000D02*
X152850000Y-100750000D01*
X152850000Y-100750000D02*
X150350000Y-100750000D01*
%TO.C,R14*%
X138820000Y-108950000D02*
X142180000Y-108950000D01*
X138820000Y-110850000D02*
X138820000Y-108950000D01*
X142180000Y-108950000D02*
X142180000Y-110850000D01*
X142180000Y-110850000D02*
X138820000Y-110850000D01*
D11*
%TO.C,SW13*%
X103500000Y-93500000D02*
X103500000Y-102500000D01*
X102000000Y-104000000D01*
X93000000Y-104000000D01*
X91500000Y-102500000D01*
X91500000Y-93500000D01*
X93000000Y-92000000D01*
X102000000Y-92000000D01*
X103500000Y-93500000D01*
%TO.C,SW24*%
X164000000Y-126500000D02*
X170000000Y-126500000D01*
X170000000Y-132500000D01*
X164000000Y-132500000D01*
X164000000Y-126500000D01*
D10*
%TO.C,C13*%
X130420000Y-138770000D02*
X133380000Y-138770000D01*
X130420000Y-140230000D02*
X130420000Y-138770000D01*
X133380000Y-138770000D02*
X133380000Y-140230000D01*
X133380000Y-140230000D02*
X130420000Y-140230000D01*
%TO.C,R32*%
X113937294Y-142930330D02*
X116030330Y-140837294D01*
X114969670Y-143962706D02*
X113937294Y-142930330D01*
X116030330Y-140837294D02*
X117062706Y-141869670D01*
X117062706Y-141869670D02*
X114969670Y-143962706D01*
%TO.C,D6*%
X116250000Y-81800000D02*
X118750000Y-81800000D01*
X116250000Y-83200000D02*
X116250000Y-81800000D01*
X118750000Y-81800000D02*
X118750000Y-83200000D01*
X118750000Y-83200000D02*
X116250000Y-83200000D01*
D11*
%TO.C,SW18*%
X83000000Y-106000000D02*
X83000000Y-115000000D01*
X81500000Y-116500000D01*
X72500000Y-116500000D01*
X71000000Y-115000000D01*
X71000000Y-106000000D01*
X72500000Y-104500000D01*
X81500000Y-104500000D01*
X83000000Y-106000000D01*
D10*
%TO.C,U3*%
X151850000Y-78476250D02*
X151850000Y-82576250D01*
X151850000Y-82576250D02*
X155250000Y-82576250D01*
X155250000Y-78476250D02*
X151850000Y-78476250D01*
X155250000Y-82576250D02*
X155250000Y-78476250D01*
D11*
%TO.C,SW16*%
X58000000Y-106000000D02*
X58000000Y-115000000D01*
X56500000Y-116500000D01*
X47500000Y-116500000D01*
X46000000Y-115000000D01*
X46000000Y-106000000D01*
X47500000Y-104500000D01*
X56500000Y-104500000D01*
X58000000Y-106000000D01*
D10*
%TO.C,R16*%
X112050000Y-124070000D02*
X113950000Y-124070000D01*
X112050000Y-127430000D02*
X112050000Y-124070000D01*
X113950000Y-124070000D02*
X113950000Y-127430000D01*
X113950000Y-127430000D02*
X112050000Y-127430000D01*
D11*
%TO.C,SW20*%
X108000000Y-106000000D02*
X108000000Y-115000000D01*
X106500000Y-116500000D01*
X97500000Y-116500000D01*
X96000000Y-115000000D01*
X96000000Y-106000000D01*
X97500000Y-104500000D01*
X106500000Y-104500000D01*
X108000000Y-106000000D01*
D10*
%TO.C,C3*%
X155220000Y-95770000D02*
X158180000Y-95770000D01*
X155220000Y-97230000D02*
X155220000Y-95770000D01*
X158180000Y-95770000D02*
X158180000Y-97230000D01*
X158180000Y-97230000D02*
X155220000Y-97230000D01*
D11*
%TO.C,J1*%
X133750000Y-88000000D02*
X133750000Y-96000000D01*
X133750000Y-96000000D02*
X139250000Y-96000000D01*
X139250000Y-88000000D02*
X133750000Y-88000000D01*
X139250000Y-96000000D02*
X139250000Y-88000000D01*
D10*
%TO.C,C6*%
X122450000Y-93600000D02*
X127050000Y-93600000D01*
X122450000Y-95900000D02*
X122450000Y-93600000D01*
X127050000Y-93600000D02*
X127050000Y-95900000D01*
X127050000Y-95900000D02*
X122450000Y-95900000D01*
%TO.C,R34*%
X109270000Y-71520000D02*
X110730000Y-71520000D01*
X109270000Y-74480000D02*
X109270000Y-71520000D01*
X110730000Y-71520000D02*
X110730000Y-74480000D01*
X110730000Y-74480000D02*
X109270000Y-74480000D01*
%TO.C,R8*%
X155450000Y-80927500D02*
X157350000Y-80927500D01*
X155450000Y-84287500D02*
X155450000Y-80927500D01*
X157350000Y-80927500D02*
X157350000Y-84287500D01*
X157350000Y-84287500D02*
X155450000Y-84287500D01*
%TO.C,RV2*%
D11*
X171900000Y-108530000D02*
X162100000Y-108530000D01*
X162100000Y-97530000D01*
X171900000Y-97530000D01*
X171900000Y-108530000D01*
D10*
%TO.C,R4*%
X155450000Y-77327500D02*
X157350000Y-77327500D01*
X155450000Y-80687500D02*
X155450000Y-77327500D01*
X157350000Y-77327500D02*
X157350000Y-80687500D01*
X157350000Y-80687500D02*
X155450000Y-80687500D01*
D11*
%TO.C,SW4*%
X74000000Y-81000000D02*
X74000000Y-90000000D01*
X72500000Y-91500000D01*
X63500000Y-91500000D01*
X62000000Y-90000000D01*
X62000000Y-81000000D01*
X63500000Y-79500000D01*
X72500000Y-79500000D01*
X74000000Y-81000000D01*
%TO.C,SW22*%
X17500000Y-86000000D02*
X23500000Y-86000000D01*
X23500000Y-80000000D01*
X17500000Y-80000000D01*
X17500000Y-86000000D01*
D10*
%TO.C,U2*%
X153480000Y-90380000D02*
X153480000Y-95620000D01*
X153480000Y-95620000D02*
X158720000Y-95620000D01*
X158720000Y-90380000D02*
X153480000Y-90380000D01*
X158720000Y-95620000D02*
X158720000Y-90380000D01*
%TO.C,L1*%
X145950000Y-85650000D02*
X145950000Y-92350000D01*
X145950000Y-92350000D02*
X152450000Y-92350000D01*
X152450000Y-85650000D02*
X145950000Y-85650000D01*
X152450000Y-92350000D02*
X152450000Y-85650000D01*
D11*
%TO.C,J4*%
X133750000Y-126000000D02*
X133750000Y-134000000D01*
X133750000Y-134000000D02*
X139250000Y-134000000D01*
X139250000Y-126000000D02*
X133750000Y-126000000D01*
X139250000Y-134000000D02*
X139250000Y-126000000D01*
%TO.C,SW5*%
X86500000Y-81000000D02*
X86500000Y-90000000D01*
X85000000Y-91500000D01*
X76000000Y-91500000D01*
X74500000Y-90000000D01*
X74500000Y-81000000D01*
X76000000Y-79500000D01*
X85000000Y-79500000D01*
X86500000Y-81000000D01*
%TO.C,SW19*%
X95500000Y-106000000D02*
X95500000Y-115000000D01*
X94000000Y-116500000D01*
X85000000Y-116500000D01*
X83500000Y-115000000D01*
X83500000Y-106000000D01*
X85000000Y-104500000D01*
X94000000Y-104500000D01*
X95500000Y-106000000D01*
%TO.C,SW9*%
X53500000Y-93500000D02*
X53500000Y-102500000D01*
X52000000Y-104000000D01*
X43000000Y-104000000D01*
X41500000Y-102500000D01*
X41500000Y-93500000D01*
X43000000Y-92000000D01*
X52000000Y-92000000D01*
X53500000Y-93500000D01*
D10*
%TO.C,R31*%
X111753931Y-145113693D02*
X113846967Y-143020657D01*
X112786307Y-146146069D02*
X111753931Y-145113693D01*
X113846967Y-143020657D02*
X114879343Y-144053033D01*
X114879343Y-144053033D02*
X112786307Y-146146069D01*
%TO.C,RV1*%
D11*
X171900000Y-123500000D02*
X162100000Y-123500000D01*
X162100000Y-112500000D01*
X171900000Y-112500000D01*
X171900000Y-123500000D01*
D10*
%TO.C,D7*%
X116250000Y-86300000D02*
X118750000Y-86300000D01*
X116250000Y-87700000D02*
X116250000Y-86300000D01*
X118750000Y-86300000D02*
X118750000Y-87700000D01*
X118750000Y-87700000D02*
X116250000Y-87700000D01*
%TO.C,C2*%
X152020000Y-82777500D02*
X154980000Y-82777500D01*
X152020000Y-84237500D02*
X152020000Y-82777500D01*
X154980000Y-82777500D02*
X154980000Y-84237500D01*
X154980000Y-84237500D02*
X152020000Y-84237500D01*
%TO.C,R9*%
X145050000Y-110520000D02*
X146950000Y-110520000D01*
X145050000Y-113880000D02*
X145050000Y-110520000D01*
X146950000Y-110520000D02*
X146950000Y-113880000D01*
X146950000Y-113880000D02*
X145050000Y-113880000D01*
%TO.C,R6*%
X155320000Y-86670000D02*
X158280000Y-86670000D01*
X155320000Y-88130000D02*
X155320000Y-86670000D01*
X158280000Y-86670000D02*
X158280000Y-88130000D01*
X158280000Y-88130000D02*
X155320000Y-88130000D01*
D11*
%TO.C,SW7*%
X111500000Y-81000000D02*
X111500000Y-90000000D01*
X110000000Y-91500000D01*
X101000000Y-91500000D01*
X99500000Y-90000000D01*
X99500000Y-81000000D01*
X101000000Y-79500000D01*
X110000000Y-79500000D01*
X111500000Y-81000000D01*
%TO.C,SW3*%
X61500000Y-81000000D02*
X61500000Y-90000000D01*
X60000000Y-91500000D01*
X51000000Y-91500000D01*
X49500000Y-90000000D01*
X49500000Y-81000000D01*
X51000000Y-79500000D01*
X60000000Y-79500000D01*
X61500000Y-81000000D01*
D10*
%TO.C,R38*%
X171850000Y-127807500D02*
X173750000Y-127807500D01*
X171850000Y-131167500D02*
X171850000Y-127807500D01*
X173750000Y-127807500D02*
X173750000Y-131167500D01*
X173750000Y-131167500D02*
X171850000Y-131167500D01*
%TO.C,R30*%
X130420000Y-146070000D02*
X133380000Y-146070000D01*
X130420000Y-147530000D02*
X130420000Y-146070000D01*
X133380000Y-146070000D02*
X133380000Y-147530000D01*
X133380000Y-147530000D02*
X130420000Y-147530000D01*
%TO.C,J2*%
X98121825Y-138439340D02*
X100243146Y-140560660D01*
X98970354Y-141833452D02*
X103566548Y-146429646D01*
X100243146Y-140560660D02*
X98970354Y-141833452D01*
X103566548Y-146429646D02*
X104839340Y-145156854D01*
X104839340Y-145156854D02*
X106960660Y-147278175D01*
X106960660Y-147278175D02*
X107137437Y-147101398D01*
X107137437Y-147101398D02*
X119158252Y-135080583D01*
X110319417Y-126241748D02*
X98121825Y-138439340D01*
X119158252Y-135080583D02*
X110319417Y-126241748D01*
%TO.C,R40*%
X123250000Y-71395000D02*
X125150000Y-71395000D01*
X123250000Y-74755000D02*
X123250000Y-71395000D01*
X125150000Y-71395000D02*
X125150000Y-74755000D01*
X125150000Y-74755000D02*
X123250000Y-74755000D01*
%TO.C,U5*%
X120950000Y-136800000D02*
X120950000Y-143800000D01*
X120950000Y-143800000D02*
X128650000Y-143800000D01*
X128650000Y-136800000D02*
X120950000Y-136800000D01*
X128650000Y-143800000D02*
X128650000Y-136800000D01*
D11*
%TO.C,SW1*%
X36500000Y-81000000D02*
X36500000Y-90000000D01*
X35000000Y-91500000D01*
X26000000Y-91500000D01*
X24500000Y-90000000D01*
X24500000Y-81000000D01*
X26000000Y-79500000D01*
X35000000Y-79500000D01*
X36500000Y-81000000D01*
D10*
%TO.C,C8*%
X138820000Y-111670000D02*
X141780000Y-111670000D01*
X138820000Y-113130000D02*
X138820000Y-111670000D01*
X141780000Y-111670000D02*
X141780000Y-113130000D01*
X141780000Y-113130000D02*
X138820000Y-113130000D01*
%TO.C,C14*%
X119270000Y-142320000D02*
X120730000Y-142320000D01*
X119270000Y-145280000D02*
X119270000Y-142320000D01*
X120730000Y-142320000D02*
X120730000Y-145280000D01*
X120730000Y-145280000D02*
X119270000Y-145280000D01*
%TO.C,R5*%
X155320000Y-88470000D02*
X158280000Y-88470000D01*
X155320000Y-89930000D02*
X155320000Y-88470000D01*
X158280000Y-88470000D02*
X158280000Y-89930000D01*
X158280000Y-89930000D02*
X155320000Y-89930000D01*
%TO.C,C15*%
X122700000Y-131350000D02*
X122700000Y-135000000D01*
X123850000Y-130200000D02*
X122700000Y-131350000D01*
X124050000Y-129250000D02*
X124050000Y-130200000D01*
X124050000Y-130200000D02*
X123850000Y-130200000D01*
X124050000Y-135000000D02*
X122700000Y-135000000D01*
X124050000Y-135950000D02*
X124050000Y-135000000D01*
X126150000Y-129250000D02*
X124050000Y-129250000D01*
X126150000Y-130200000D02*
X126150000Y-129250000D01*
X126150000Y-135000000D02*
X126150000Y-135950000D01*
X126150000Y-135950000D02*
X124050000Y-135950000D01*
X126350000Y-130200000D02*
X126150000Y-130200000D01*
X126350000Y-130200000D02*
X127500000Y-131350000D01*
X127500000Y-131350000D02*
X127500000Y-135000000D01*
X127500000Y-135000000D02*
X126150000Y-135000000D01*
%TO.C,R36*%
X118870000Y-129920000D02*
X120330000Y-129920000D01*
X118870000Y-132880000D02*
X118870000Y-129920000D01*
X120330000Y-129920000D02*
X120330000Y-132880000D01*
X120330000Y-132880000D02*
X118870000Y-132880000D01*
%TO.C,C10*%
X116620000Y-137800000D02*
X118580000Y-137800000D01*
X116620000Y-141200000D02*
X116620000Y-137800000D01*
X118580000Y-137800000D02*
X118580000Y-141200000D01*
X118580000Y-141200000D02*
X116620000Y-141200000D01*
%TO.C,R11*%
X111750000Y-83920000D02*
X113650000Y-83920000D01*
X111750000Y-87280000D02*
X111750000Y-83920000D01*
X113650000Y-83920000D02*
X113650000Y-87280000D01*
X113650000Y-87280000D02*
X111750000Y-87280000D01*
%TO.C,D10*%
X116250000Y-84800000D02*
X118750000Y-84800000D01*
X116250000Y-86200000D02*
X116250000Y-84800000D01*
X118750000Y-84800000D02*
X118750000Y-86200000D01*
X118750000Y-86200000D02*
X116250000Y-86200000D01*
%TO.C,C17*%
X112837294Y-141830330D02*
X114930330Y-139737294D01*
X113869670Y-142862706D02*
X112837294Y-141830330D01*
X114930330Y-139737294D02*
X115962706Y-140769670D01*
X115962706Y-140769670D02*
X113869670Y-142862706D01*
%TO.C,D4*%
X116250000Y-83300000D02*
X118750000Y-83300000D01*
X116250000Y-84700000D02*
X116250000Y-83300000D01*
X118750000Y-83300000D02*
X118750000Y-84700000D01*
X118750000Y-84700000D02*
X116250000Y-84700000D01*
%TO.C,U6*%
X134400000Y-108900000D02*
X134400000Y-113100000D01*
X134400000Y-113100000D02*
X138600000Y-113100000D01*
X138600000Y-108900000D02*
X134400000Y-108900000D01*
X138600000Y-113100000D02*
X138600000Y-108900000D01*
%TO.C,SW25*%
D11*
X170000000Y-139500000D02*
X164000000Y-139500000D01*
X164000000Y-133500000D01*
X170000000Y-133500000D01*
X170000000Y-139500000D01*
%TO.C,SW8*%
X41000000Y-93500000D02*
X41000000Y-102500000D01*
X39500000Y-104000000D01*
X30500000Y-104000000D01*
X29000000Y-102500000D01*
X29000000Y-93500000D01*
X30500000Y-92000000D01*
X39500000Y-92000000D01*
X41000000Y-93500000D01*
D10*
%TO.C,R3*%
X160470000Y-93620000D02*
X161930000Y-93620000D01*
X160470000Y-96580000D02*
X160470000Y-93620000D01*
X161930000Y-93620000D02*
X161930000Y-96580000D01*
X161930000Y-96580000D02*
X160470000Y-96580000D01*
%TO.C,C12*%
X130420000Y-136570000D02*
X133380000Y-136570000D01*
X130420000Y-138030000D02*
X130420000Y-136570000D01*
X133380000Y-136570000D02*
X133380000Y-138030000D01*
X133380000Y-138030000D02*
X130420000Y-138030000D01*
%TD*%
M02*
