%TF.GenerationSoftware,KiCad,Pcbnew,8.0.9*%
%TF.CreationDate,2025-12-22T17:05:26+01:00*%
%TF.ProjectId,MiniChord,4d696e69-4368-46f7-9264-2e6b69636164,rev?*%
%TF.SameCoordinates,Original*%
%TF.FileFunction,Profile,NP*%
%FSLAX46Y46*%
G04 Gerber Fmt 4.6, Leading zero omitted, Abs format (unit mm)*
G04 Created by KiCad (PCBNEW 8.0.9) date 2025-12-22 17:05:26*
%MOMM*%
%LPD*%
G01*
G04 APERTURE LIST*
%TA.AperFunction,Profile*%
%ADD10C,0.100000*%
%TD*%
%TA.AperFunction,Profile*%
%ADD11C,0.120000*%
%TD*%
G04 APERTURE END LIST*
D10*
X87121320Y-125500000D02*
G75*
G02*
X83999954Y-122500002I-20J3123800D01*
G01*
X16500000Y-81000000D02*
G75*
G02*
X19500000Y-78000000I3000000J0D01*
G01*
X136200000Y-71500000D02*
X127700000Y-71500000D01*
X84000000Y-72500000D02*
X84000000Y-75000000D01*
X123100000Y-69500000D02*
G75*
G02*
X125400007Y-70499993I49100J-3032100D01*
G01*
X81000000Y-118499999D02*
G75*
G02*
X84000001Y-121499999I0J-3000001D01*
G01*
X127700000Y-71500000D02*
G75*
G02*
X125400000Y-70500000I0J3145000D01*
G01*
X108000000Y-147500000D02*
X115500000Y-147500000D01*
X20800000Y-98000000D02*
G75*
G02*
X18200000Y-98000000I-1300000J0D01*
G01*
X18200000Y-98000000D02*
G75*
G02*
X20800000Y-98000000I1300000J0D01*
G01*
X94878680Y-125500000D02*
G75*
G02*
X98000046Y-128499998I20J-3123800D01*
G01*
X98000000Y-137800000D02*
X98000000Y-128500000D01*
X120000000Y-149500000D02*
G75*
G02*
X117621316Y-148378684I371300J3871300D01*
G01*
X84000000Y-121499999D02*
X84000000Y-122500000D01*
X35500000Y-118499999D02*
G75*
G02*
X32500001Y-115499999I0J2999999D01*
G01*
X81000000Y-78000000D02*
X19500000Y-78000000D01*
X35500000Y-118499999D02*
X81000000Y-118499999D01*
X115500000Y-147500000D02*
G75*
G02*
X117621320Y-148378680I0J-3000000D01*
G01*
X98121825Y-138085786D02*
G75*
G02*
X98000044Y-137800002I234075J268586D01*
G01*
X120000000Y-149500000D02*
X160500000Y-149500000D01*
X108000000Y-147500000D02*
G75*
G02*
X107314198Y-147278193I-99200J864400D01*
G01*
X16500000Y-81000000D02*
X16500000Y-108000000D01*
X137300000Y-74500000D02*
G75*
G02*
X134700000Y-74500000I-1300000J0D01*
G01*
X134700000Y-74500000D02*
G75*
G02*
X137300000Y-74500000I1300000J0D01*
G01*
X29500000Y-111000000D02*
G75*
G02*
X32500000Y-114000000I0J-3000000D01*
G01*
X136200000Y-71500000D02*
X159650000Y-71500000D01*
X19500000Y-111000000D02*
G75*
G02*
X16500000Y-108000000I0J3000000D01*
G01*
X137300000Y-146500000D02*
G75*
G02*
X134700000Y-146500000I-1300000J0D01*
G01*
X134700000Y-146500000D02*
G75*
G02*
X137300000Y-146500000I1300000J0D01*
G01*
X84000000Y-75000000D02*
G75*
G02*
X81000000Y-78000000I-3000000J0D01*
G01*
X87121320Y-125500000D02*
X94878680Y-125500000D01*
X175499999Y-134000000D02*
G75*
G02*
X160499999Y-149499999I-40257129J23950450D01*
G01*
X175500000Y-87500000D02*
X175500000Y-134000000D01*
X84000000Y-72500000D02*
G75*
G02*
X87000000Y-69500000I3000000J0D01*
G01*
X19500000Y-111000000D02*
X29500000Y-111000000D01*
X123100000Y-69500000D02*
X87000000Y-69500000D01*
X32500000Y-114000000D02*
X32500000Y-115499999D01*
X159650000Y-71500000D02*
G75*
G02*
X175499995Y-87500003I-23817200J-39444600D01*
G01*
D11*
%TO.C,U1*%
X152750000Y-118865000D02*
G75*
G02*
X150750000Y-118865000I-1000000J0D01*
G01*
X150750000Y-118865000D02*
G75*
G02*
X152750000Y-118865000I1000000J0D01*
G01*
%TO.C,J2*%
X101162385Y-141126346D02*
X98121825Y-138085786D01*
X101869491Y-140419239D02*
X101162385Y-141126346D01*
X104273654Y-144237615D02*
X107314214Y-147278175D01*
X104980761Y-142964823D02*
X102435177Y-140419239D01*
X104980761Y-143530509D02*
X104273654Y-144237615D01*
X101869491Y-140419239D02*
G75*
G02*
X102435177Y-140419239I282843J-282844D01*
G01*
X104980761Y-142964823D02*
G75*
G02*
X104980761Y-143530509I-282843J-282843D01*
G01*
%TD*%
M02*
