%TF.GenerationSoftware,KiCad,Pcbnew,8.0.9*%
%TF.CreationDate,2025-12-22T17:05:26+01:00*%
%TF.ProjectId,MiniChord,4d696e69-4368-46f7-9264-2e6b69636164,rev?*%
%TF.SameCoordinates,Original*%
%TF.FileFunction,Legend,Bot*%
%TF.FilePolarity,Positive*%
%FSLAX46Y46*%
G04 Gerber Fmt 4.6, Leading zero omitted, Abs format (unit mm)*
G04 Created by KiCad (PCBNEW 8.0.9) date 2025-12-22 17:05:26*
%MOMM*%
%LPD*%
G01*
G04 APERTURE LIST*
%ADD10C,0.300000*%
%ADD11C,0.150000*%
%ADD12C,0.100000*%
%ADD13C,0.075000*%
%ADD14C,0.130000*%
%ADD15C,0.400000*%
%ADD16C,0.120000*%
G04 APERTURE END LIST*
D10*
X114000000Y-135500000D02*
X114000000Y-138000000D01*
X134000000Y-139500000D02*
X147500000Y-139500000D01*
X149000000Y-125000000D02*
X149000000Y-98000000D01*
D11*
X139750000Y-82750000D02*
X139750000Y-82750000D01*
D10*
X115500000Y-139500000D02*
X124500000Y-139500000D01*
X114000000Y-88000000D02*
X113939340Y-109500000D01*
X125500000Y-139500000D02*
X133000000Y-139500000D01*
X149000000Y-132000000D02*
X149000000Y-129000000D01*
D11*
X139750000Y-82000000D02*
X139750000Y-82500000D01*
D10*
X147500000Y-86500000D02*
X115560660Y-86500000D01*
X114000000Y-88000000D02*
G75*
G02*
X115500000Y-86500000I1500000J0D01*
G01*
X149000000Y-96000000D02*
X149000000Y-90000000D01*
D11*
X139750000Y-81500000D02*
X139000000Y-83000000D01*
X140500000Y-83000000D02*
X139750000Y-81500000D01*
D10*
X149000000Y-138000000D02*
X149000000Y-137000000D01*
X149000000Y-138000000D02*
G75*
G02*
X147500000Y-139500000I-1500000J0D01*
G01*
X114000000Y-111500000D02*
X114000000Y-131500000D01*
X115500000Y-139500000D02*
G75*
G02*
X114000000Y-138000000I0J1500000D01*
G01*
D11*
X139000000Y-83000000D02*
X140500000Y-83000000D01*
D10*
X147500000Y-86500000D02*
G75*
G02*
X149000000Y-88000000I0J-1500000D01*
G01*
D12*
X138202068Y-82884306D02*
X138452068Y-82527163D01*
X138630639Y-82884306D02*
X138630639Y-82134306D01*
X138630639Y-82134306D02*
X138344925Y-82134306D01*
X138344925Y-82134306D02*
X138273496Y-82170020D01*
X138273496Y-82170020D02*
X138237782Y-82205734D01*
X138237782Y-82205734D02*
X138202068Y-82277163D01*
X138202068Y-82277163D02*
X138202068Y-82384306D01*
X138202068Y-82384306D02*
X138237782Y-82455734D01*
X138237782Y-82455734D02*
X138273496Y-82491449D01*
X138273496Y-82491449D02*
X138344925Y-82527163D01*
X138344925Y-82527163D02*
X138630639Y-82527163D01*
X137594925Y-82848592D02*
X137666353Y-82884306D01*
X137666353Y-82884306D02*
X137809211Y-82884306D01*
X137809211Y-82884306D02*
X137880639Y-82848592D01*
X137880639Y-82848592D02*
X137916353Y-82777163D01*
X137916353Y-82777163D02*
X137916353Y-82491449D01*
X137916353Y-82491449D02*
X137880639Y-82420020D01*
X137880639Y-82420020D02*
X137809211Y-82384306D01*
X137809211Y-82384306D02*
X137666353Y-82384306D01*
X137666353Y-82384306D02*
X137594925Y-82420020D01*
X137594925Y-82420020D02*
X137559211Y-82491449D01*
X137559211Y-82491449D02*
X137559211Y-82562877D01*
X137559211Y-82562877D02*
X137916353Y-82634306D01*
X137309211Y-82384306D02*
X137130639Y-82884306D01*
X137130639Y-82884306D02*
X136952068Y-82384306D01*
X136380639Y-82848592D02*
X136452067Y-82884306D01*
X136452067Y-82884306D02*
X136594925Y-82884306D01*
X136594925Y-82884306D02*
X136666353Y-82848592D01*
X136666353Y-82848592D02*
X136702067Y-82777163D01*
X136702067Y-82777163D02*
X136702067Y-82491449D01*
X136702067Y-82491449D02*
X136666353Y-82420020D01*
X136666353Y-82420020D02*
X136594925Y-82384306D01*
X136594925Y-82384306D02*
X136452067Y-82384306D01*
X136452067Y-82384306D02*
X136380639Y-82420020D01*
X136380639Y-82420020D02*
X136344925Y-82491449D01*
X136344925Y-82491449D02*
X136344925Y-82562877D01*
X136344925Y-82562877D02*
X136702067Y-82634306D01*
X136023496Y-82884306D02*
X136023496Y-82384306D01*
X136023496Y-82527163D02*
X135987782Y-82455734D01*
X135987782Y-82455734D02*
X135952068Y-82420020D01*
X135952068Y-82420020D02*
X135880639Y-82384306D01*
X135880639Y-82384306D02*
X135809210Y-82384306D01*
X135594924Y-82848592D02*
X135523496Y-82884306D01*
X135523496Y-82884306D02*
X135380639Y-82884306D01*
X135380639Y-82884306D02*
X135309210Y-82848592D01*
X135309210Y-82848592D02*
X135273496Y-82777163D01*
X135273496Y-82777163D02*
X135273496Y-82741449D01*
X135273496Y-82741449D02*
X135309210Y-82670020D01*
X135309210Y-82670020D02*
X135380639Y-82634306D01*
X135380639Y-82634306D02*
X135487782Y-82634306D01*
X135487782Y-82634306D02*
X135559210Y-82598592D01*
X135559210Y-82598592D02*
X135594924Y-82527163D01*
X135594924Y-82527163D02*
X135594924Y-82491449D01*
X135594924Y-82491449D02*
X135559210Y-82420020D01*
X135559210Y-82420020D02*
X135487782Y-82384306D01*
X135487782Y-82384306D02*
X135380639Y-82384306D01*
X135380639Y-82384306D02*
X135309210Y-82420020D01*
X134666353Y-82848592D02*
X134737781Y-82884306D01*
X134737781Y-82884306D02*
X134880639Y-82884306D01*
X134880639Y-82884306D02*
X134952067Y-82848592D01*
X134952067Y-82848592D02*
X134987781Y-82777163D01*
X134987781Y-82777163D02*
X134987781Y-82491449D01*
X134987781Y-82491449D02*
X134952067Y-82420020D01*
X134952067Y-82420020D02*
X134880639Y-82384306D01*
X134880639Y-82384306D02*
X134737781Y-82384306D01*
X134737781Y-82384306D02*
X134666353Y-82420020D01*
X134666353Y-82420020D02*
X134630639Y-82491449D01*
X134630639Y-82491449D02*
X134630639Y-82562877D01*
X134630639Y-82562877D02*
X134987781Y-82634306D01*
X133737781Y-82384306D02*
X133737781Y-83134306D01*
X133737781Y-82420020D02*
X133666353Y-82384306D01*
X133666353Y-82384306D02*
X133523495Y-82384306D01*
X133523495Y-82384306D02*
X133452067Y-82420020D01*
X133452067Y-82420020D02*
X133416353Y-82455734D01*
X133416353Y-82455734D02*
X133380638Y-82527163D01*
X133380638Y-82527163D02*
X133380638Y-82741449D01*
X133380638Y-82741449D02*
X133416353Y-82812877D01*
X133416353Y-82812877D02*
X133452067Y-82848592D01*
X133452067Y-82848592D02*
X133523495Y-82884306D01*
X133523495Y-82884306D02*
X133666353Y-82884306D01*
X133666353Y-82884306D02*
X133737781Y-82848592D01*
X132952067Y-82884306D02*
X133023496Y-82848592D01*
X133023496Y-82848592D02*
X133059210Y-82812877D01*
X133059210Y-82812877D02*
X133094924Y-82741449D01*
X133094924Y-82741449D02*
X133094924Y-82527163D01*
X133094924Y-82527163D02*
X133059210Y-82455734D01*
X133059210Y-82455734D02*
X133023496Y-82420020D01*
X133023496Y-82420020D02*
X132952067Y-82384306D01*
X132952067Y-82384306D02*
X132844924Y-82384306D01*
X132844924Y-82384306D02*
X132773496Y-82420020D01*
X132773496Y-82420020D02*
X132737782Y-82455734D01*
X132737782Y-82455734D02*
X132702067Y-82527163D01*
X132702067Y-82527163D02*
X132702067Y-82741449D01*
X132702067Y-82741449D02*
X132737782Y-82812877D01*
X132737782Y-82812877D02*
X132773496Y-82848592D01*
X132773496Y-82848592D02*
X132844924Y-82884306D01*
X132844924Y-82884306D02*
X132952067Y-82884306D01*
X132273496Y-82884306D02*
X132344925Y-82848592D01*
X132344925Y-82848592D02*
X132380639Y-82777163D01*
X132380639Y-82777163D02*
X132380639Y-82134306D01*
X131666354Y-82884306D02*
X131666354Y-82491449D01*
X131666354Y-82491449D02*
X131702068Y-82420020D01*
X131702068Y-82420020D02*
X131773496Y-82384306D01*
X131773496Y-82384306D02*
X131916354Y-82384306D01*
X131916354Y-82384306D02*
X131987782Y-82420020D01*
X131666354Y-82848592D02*
X131737782Y-82884306D01*
X131737782Y-82884306D02*
X131916354Y-82884306D01*
X131916354Y-82884306D02*
X131987782Y-82848592D01*
X131987782Y-82848592D02*
X132023496Y-82777163D01*
X132023496Y-82777163D02*
X132023496Y-82705734D01*
X132023496Y-82705734D02*
X131987782Y-82634306D01*
X131987782Y-82634306D02*
X131916354Y-82598592D01*
X131916354Y-82598592D02*
X131737782Y-82598592D01*
X131737782Y-82598592D02*
X131666354Y-82562877D01*
X131309211Y-82884306D02*
X131309211Y-82384306D01*
X131309211Y-82527163D02*
X131273497Y-82455734D01*
X131273497Y-82455734D02*
X131237783Y-82420020D01*
X131237783Y-82420020D02*
X131166354Y-82384306D01*
X131166354Y-82384306D02*
X131094925Y-82384306D01*
X130844925Y-82884306D02*
X130844925Y-82384306D01*
X130844925Y-82134306D02*
X130880639Y-82170020D01*
X130880639Y-82170020D02*
X130844925Y-82205734D01*
X130844925Y-82205734D02*
X130809211Y-82170020D01*
X130809211Y-82170020D02*
X130844925Y-82134306D01*
X130844925Y-82134306D02*
X130844925Y-82205734D01*
X130594925Y-82384306D02*
X130309211Y-82384306D01*
X130487782Y-82134306D02*
X130487782Y-82777163D01*
X130487782Y-82777163D02*
X130452068Y-82848592D01*
X130452068Y-82848592D02*
X130380639Y-82884306D01*
X130380639Y-82884306D02*
X130309211Y-82884306D01*
X130130640Y-82384306D02*
X129952068Y-82884306D01*
X129773497Y-82384306D02*
X129952068Y-82884306D01*
X129952068Y-82884306D02*
X130023497Y-83062877D01*
X130023497Y-83062877D02*
X130059211Y-83098592D01*
X130059211Y-83098592D02*
X130130640Y-83134306D01*
X138702068Y-83591764D02*
X138559211Y-84091764D01*
X138559211Y-84091764D02*
X138416353Y-83734621D01*
X138416353Y-83734621D02*
X138273496Y-84091764D01*
X138273496Y-84091764D02*
X138130639Y-83591764D01*
X137844925Y-84091764D02*
X137844925Y-83591764D01*
X137844925Y-83341764D02*
X137880639Y-83377478D01*
X137880639Y-83377478D02*
X137844925Y-83413192D01*
X137844925Y-83413192D02*
X137809211Y-83377478D01*
X137809211Y-83377478D02*
X137844925Y-83341764D01*
X137844925Y-83341764D02*
X137844925Y-83413192D01*
X137380639Y-84091764D02*
X137452068Y-84056050D01*
X137452068Y-84056050D02*
X137487782Y-83984621D01*
X137487782Y-83984621D02*
X137487782Y-83341764D01*
X136987782Y-84091764D02*
X137059211Y-84056050D01*
X137059211Y-84056050D02*
X137094925Y-83984621D01*
X137094925Y-83984621D02*
X137094925Y-83341764D01*
X135809211Y-84091764D02*
X135809211Y-83341764D01*
X135809211Y-84056050D02*
X135880639Y-84091764D01*
X135880639Y-84091764D02*
X136023496Y-84091764D01*
X136023496Y-84091764D02*
X136094925Y-84056050D01*
X136094925Y-84056050D02*
X136130639Y-84020335D01*
X136130639Y-84020335D02*
X136166353Y-83948907D01*
X136166353Y-83948907D02*
X136166353Y-83734621D01*
X136166353Y-83734621D02*
X136130639Y-83663192D01*
X136130639Y-83663192D02*
X136094925Y-83627478D01*
X136094925Y-83627478D02*
X136023496Y-83591764D01*
X136023496Y-83591764D02*
X135880639Y-83591764D01*
X135880639Y-83591764D02*
X135809211Y-83627478D01*
X135130640Y-84091764D02*
X135130640Y-83698907D01*
X135130640Y-83698907D02*
X135166354Y-83627478D01*
X135166354Y-83627478D02*
X135237782Y-83591764D01*
X135237782Y-83591764D02*
X135380640Y-83591764D01*
X135380640Y-83591764D02*
X135452068Y-83627478D01*
X135130640Y-84056050D02*
X135202068Y-84091764D01*
X135202068Y-84091764D02*
X135380640Y-84091764D01*
X135380640Y-84091764D02*
X135452068Y-84056050D01*
X135452068Y-84056050D02*
X135487782Y-83984621D01*
X135487782Y-83984621D02*
X135487782Y-83913192D01*
X135487782Y-83913192D02*
X135452068Y-83841764D01*
X135452068Y-83841764D02*
X135380640Y-83806050D01*
X135380640Y-83806050D02*
X135202068Y-83806050D01*
X135202068Y-83806050D02*
X135130640Y-83770335D01*
X134773497Y-84091764D02*
X134773497Y-83591764D01*
X134773497Y-83663192D02*
X134737783Y-83627478D01*
X134737783Y-83627478D02*
X134666354Y-83591764D01*
X134666354Y-83591764D02*
X134559211Y-83591764D01*
X134559211Y-83591764D02*
X134487783Y-83627478D01*
X134487783Y-83627478D02*
X134452069Y-83698907D01*
X134452069Y-83698907D02*
X134452069Y-84091764D01*
X134452069Y-83698907D02*
X134416354Y-83627478D01*
X134416354Y-83627478D02*
X134344926Y-83591764D01*
X134344926Y-83591764D02*
X134237783Y-83591764D01*
X134237783Y-83591764D02*
X134166354Y-83627478D01*
X134166354Y-83627478D02*
X134130640Y-83698907D01*
X134130640Y-83698907D02*
X134130640Y-84091764D01*
X133452069Y-84091764D02*
X133452069Y-83698907D01*
X133452069Y-83698907D02*
X133487783Y-83627478D01*
X133487783Y-83627478D02*
X133559211Y-83591764D01*
X133559211Y-83591764D02*
X133702069Y-83591764D01*
X133702069Y-83591764D02*
X133773497Y-83627478D01*
X133452069Y-84056050D02*
X133523497Y-84091764D01*
X133523497Y-84091764D02*
X133702069Y-84091764D01*
X133702069Y-84091764D02*
X133773497Y-84056050D01*
X133773497Y-84056050D02*
X133809211Y-83984621D01*
X133809211Y-83984621D02*
X133809211Y-83913192D01*
X133809211Y-83913192D02*
X133773497Y-83841764D01*
X133773497Y-83841764D02*
X133702069Y-83806050D01*
X133702069Y-83806050D02*
X133523497Y-83806050D01*
X133523497Y-83806050D02*
X133452069Y-83770335D01*
X132773498Y-83591764D02*
X132773498Y-84198907D01*
X132773498Y-84198907D02*
X132809212Y-84270335D01*
X132809212Y-84270335D02*
X132844926Y-84306050D01*
X132844926Y-84306050D02*
X132916355Y-84341764D01*
X132916355Y-84341764D02*
X133023498Y-84341764D01*
X133023498Y-84341764D02*
X133094926Y-84306050D01*
X132773498Y-84056050D02*
X132844926Y-84091764D01*
X132844926Y-84091764D02*
X132987783Y-84091764D01*
X132987783Y-84091764D02*
X133059212Y-84056050D01*
X133059212Y-84056050D02*
X133094926Y-84020335D01*
X133094926Y-84020335D02*
X133130640Y-83948907D01*
X133130640Y-83948907D02*
X133130640Y-83734621D01*
X133130640Y-83734621D02*
X133094926Y-83663192D01*
X133094926Y-83663192D02*
X133059212Y-83627478D01*
X133059212Y-83627478D02*
X132987783Y-83591764D01*
X132987783Y-83591764D02*
X132844926Y-83591764D01*
X132844926Y-83591764D02*
X132773498Y-83627478D01*
X132130641Y-84056050D02*
X132202069Y-84091764D01*
X132202069Y-84091764D02*
X132344927Y-84091764D01*
X132344927Y-84091764D02*
X132416355Y-84056050D01*
X132416355Y-84056050D02*
X132452069Y-83984621D01*
X132452069Y-83984621D02*
X132452069Y-83698907D01*
X132452069Y-83698907D02*
X132416355Y-83627478D01*
X132416355Y-83627478D02*
X132344927Y-83591764D01*
X132344927Y-83591764D02*
X132202069Y-83591764D01*
X132202069Y-83591764D02*
X132130641Y-83627478D01*
X132130641Y-83627478D02*
X132094927Y-83698907D01*
X132094927Y-83698907D02*
X132094927Y-83770335D01*
X132094927Y-83770335D02*
X132452069Y-83841764D01*
X131309212Y-83591764D02*
X131023498Y-83591764D01*
X131202069Y-83341764D02*
X131202069Y-83984621D01*
X131202069Y-83984621D02*
X131166355Y-84056050D01*
X131166355Y-84056050D02*
X131094926Y-84091764D01*
X131094926Y-84091764D02*
X131023498Y-84091764D01*
X130773498Y-84091764D02*
X130773498Y-83341764D01*
X130452070Y-84091764D02*
X130452070Y-83698907D01*
X130452070Y-83698907D02*
X130487784Y-83627478D01*
X130487784Y-83627478D02*
X130559212Y-83591764D01*
X130559212Y-83591764D02*
X130666355Y-83591764D01*
X130666355Y-83591764D02*
X130737784Y-83627478D01*
X130737784Y-83627478D02*
X130773498Y-83663192D01*
X129809213Y-84056050D02*
X129880641Y-84091764D01*
X129880641Y-84091764D02*
X130023499Y-84091764D01*
X130023499Y-84091764D02*
X130094927Y-84056050D01*
X130094927Y-84056050D02*
X130130641Y-83984621D01*
X130130641Y-83984621D02*
X130130641Y-83698907D01*
X130130641Y-83698907D02*
X130094927Y-83627478D01*
X130094927Y-83627478D02*
X130023499Y-83591764D01*
X130023499Y-83591764D02*
X129880641Y-83591764D01*
X129880641Y-83591764D02*
X129809213Y-83627478D01*
X129809213Y-83627478D02*
X129773499Y-83698907D01*
X129773499Y-83698907D02*
X129773499Y-83770335D01*
X129773499Y-83770335D02*
X130130641Y-83841764D01*
X138309211Y-85299222D02*
X138309211Y-84549222D01*
X138309211Y-85263508D02*
X138380639Y-85299222D01*
X138380639Y-85299222D02*
X138523496Y-85299222D01*
X138523496Y-85299222D02*
X138594925Y-85263508D01*
X138594925Y-85263508D02*
X138630639Y-85227793D01*
X138630639Y-85227793D02*
X138666353Y-85156365D01*
X138666353Y-85156365D02*
X138666353Y-84942079D01*
X138666353Y-84942079D02*
X138630639Y-84870650D01*
X138630639Y-84870650D02*
X138594925Y-84834936D01*
X138594925Y-84834936D02*
X138523496Y-84799222D01*
X138523496Y-84799222D02*
X138380639Y-84799222D01*
X138380639Y-84799222D02*
X138309211Y-84834936D01*
X137666354Y-85263508D02*
X137737782Y-85299222D01*
X137737782Y-85299222D02*
X137880640Y-85299222D01*
X137880640Y-85299222D02*
X137952068Y-85263508D01*
X137952068Y-85263508D02*
X137987782Y-85192079D01*
X137987782Y-85192079D02*
X137987782Y-84906365D01*
X137987782Y-84906365D02*
X137952068Y-84834936D01*
X137952068Y-84834936D02*
X137880640Y-84799222D01*
X137880640Y-84799222D02*
X137737782Y-84799222D01*
X137737782Y-84799222D02*
X137666354Y-84834936D01*
X137666354Y-84834936D02*
X137630640Y-84906365D01*
X137630640Y-84906365D02*
X137630640Y-84977793D01*
X137630640Y-84977793D02*
X137987782Y-85049222D01*
X137380640Y-84799222D02*
X137202068Y-85299222D01*
X137202068Y-85299222D02*
X137023497Y-84799222D01*
X136737782Y-85299222D02*
X136737782Y-84799222D01*
X136737782Y-84549222D02*
X136773496Y-84584936D01*
X136773496Y-84584936D02*
X136737782Y-84620650D01*
X136737782Y-84620650D02*
X136702068Y-84584936D01*
X136702068Y-84584936D02*
X136737782Y-84549222D01*
X136737782Y-84549222D02*
X136737782Y-84620650D01*
X136059211Y-85263508D02*
X136130639Y-85299222D01*
X136130639Y-85299222D02*
X136273496Y-85299222D01*
X136273496Y-85299222D02*
X136344925Y-85263508D01*
X136344925Y-85263508D02*
X136380639Y-85227793D01*
X136380639Y-85227793D02*
X136416353Y-85156365D01*
X136416353Y-85156365D02*
X136416353Y-84942079D01*
X136416353Y-84942079D02*
X136380639Y-84870650D01*
X136380639Y-84870650D02*
X136344925Y-84834936D01*
X136344925Y-84834936D02*
X136273496Y-84799222D01*
X136273496Y-84799222D02*
X136130639Y-84799222D01*
X136130639Y-84799222D02*
X136059211Y-84834936D01*
X135452068Y-85263508D02*
X135523496Y-85299222D01*
X135523496Y-85299222D02*
X135666354Y-85299222D01*
X135666354Y-85299222D02*
X135737782Y-85263508D01*
X135737782Y-85263508D02*
X135773496Y-85192079D01*
X135773496Y-85192079D02*
X135773496Y-84906365D01*
X135773496Y-84906365D02*
X135737782Y-84834936D01*
X135737782Y-84834936D02*
X135666354Y-84799222D01*
X135666354Y-84799222D02*
X135523496Y-84799222D01*
X135523496Y-84799222D02*
X135452068Y-84834936D01*
X135452068Y-84834936D02*
X135416354Y-84906365D01*
X135416354Y-84906365D02*
X135416354Y-84977793D01*
X135416354Y-84977793D02*
X135773496Y-85049222D01*
D11*
X29006077Y-108654819D02*
X28672744Y-109654819D01*
X28672744Y-109654819D02*
X28339411Y-108654819D01*
X26720363Y-109654819D02*
X27291791Y-109654819D01*
X27006077Y-109654819D02*
X27006077Y-108654819D01*
X27006077Y-108654819D02*
X27101315Y-108797676D01*
X27101315Y-108797676D02*
X27196553Y-108892914D01*
X27196553Y-108892914D02*
X27291791Y-108940533D01*
X26291791Y-109559580D02*
X26244172Y-109607200D01*
X26244172Y-109607200D02*
X26291791Y-109654819D01*
X26291791Y-109654819D02*
X26339410Y-109607200D01*
X26339410Y-109607200D02*
X26291791Y-109559580D01*
X26291791Y-109559580D02*
X26291791Y-109654819D01*
X25625125Y-108654819D02*
X25529887Y-108654819D01*
X25529887Y-108654819D02*
X25434649Y-108702438D01*
X25434649Y-108702438D02*
X25387030Y-108750057D01*
X25387030Y-108750057D02*
X25339411Y-108845295D01*
X25339411Y-108845295D02*
X25291792Y-109035771D01*
X25291792Y-109035771D02*
X25291792Y-109273866D01*
X25291792Y-109273866D02*
X25339411Y-109464342D01*
X25339411Y-109464342D02*
X25387030Y-109559580D01*
X25387030Y-109559580D02*
X25434649Y-109607200D01*
X25434649Y-109607200D02*
X25529887Y-109654819D01*
X25529887Y-109654819D02*
X25625125Y-109654819D01*
X25625125Y-109654819D02*
X25720363Y-109607200D01*
X25720363Y-109607200D02*
X25767982Y-109559580D01*
X25767982Y-109559580D02*
X25815601Y-109464342D01*
X25815601Y-109464342D02*
X25863220Y-109273866D01*
X25863220Y-109273866D02*
X25863220Y-109035771D01*
X25863220Y-109035771D02*
X25815601Y-108845295D01*
X25815601Y-108845295D02*
X25767982Y-108750057D01*
X25767982Y-108750057D02*
X25720363Y-108702438D01*
X25720363Y-108702438D02*
X25625125Y-108654819D01*
X24101315Y-109273866D02*
X23339411Y-109273866D01*
X22148934Y-108750057D02*
X22101315Y-108702438D01*
X22101315Y-108702438D02*
X22006077Y-108654819D01*
X22006077Y-108654819D02*
X21767982Y-108654819D01*
X21767982Y-108654819D02*
X21672744Y-108702438D01*
X21672744Y-108702438D02*
X21625125Y-108750057D01*
X21625125Y-108750057D02*
X21577506Y-108845295D01*
X21577506Y-108845295D02*
X21577506Y-108940533D01*
X21577506Y-108940533D02*
X21625125Y-109083390D01*
X21625125Y-109083390D02*
X22196553Y-109654819D01*
X22196553Y-109654819D02*
X21577506Y-109654819D01*
X20958458Y-108654819D02*
X20863220Y-108654819D01*
X20863220Y-108654819D02*
X20767982Y-108702438D01*
X20767982Y-108702438D02*
X20720363Y-108750057D01*
X20720363Y-108750057D02*
X20672744Y-108845295D01*
X20672744Y-108845295D02*
X20625125Y-109035771D01*
X20625125Y-109035771D02*
X20625125Y-109273866D01*
X20625125Y-109273866D02*
X20672744Y-109464342D01*
X20672744Y-109464342D02*
X20720363Y-109559580D01*
X20720363Y-109559580D02*
X20767982Y-109607200D01*
X20767982Y-109607200D02*
X20863220Y-109654819D01*
X20863220Y-109654819D02*
X20958458Y-109654819D01*
X20958458Y-109654819D02*
X21053696Y-109607200D01*
X21053696Y-109607200D02*
X21101315Y-109559580D01*
X21101315Y-109559580D02*
X21148934Y-109464342D01*
X21148934Y-109464342D02*
X21196553Y-109273866D01*
X21196553Y-109273866D02*
X21196553Y-109035771D01*
X21196553Y-109035771D02*
X21148934Y-108845295D01*
X21148934Y-108845295D02*
X21101315Y-108750057D01*
X21101315Y-108750057D02*
X21053696Y-108702438D01*
X21053696Y-108702438D02*
X20958458Y-108654819D01*
X20244172Y-108750057D02*
X20196553Y-108702438D01*
X20196553Y-108702438D02*
X20101315Y-108654819D01*
X20101315Y-108654819D02*
X19863220Y-108654819D01*
X19863220Y-108654819D02*
X19767982Y-108702438D01*
X19767982Y-108702438D02*
X19720363Y-108750057D01*
X19720363Y-108750057D02*
X19672744Y-108845295D01*
X19672744Y-108845295D02*
X19672744Y-108940533D01*
X19672744Y-108940533D02*
X19720363Y-109083390D01*
X19720363Y-109083390D02*
X20291791Y-109654819D01*
X20291791Y-109654819D02*
X19672744Y-109654819D01*
X18767982Y-108654819D02*
X19244172Y-108654819D01*
X19244172Y-108654819D02*
X19291791Y-109131009D01*
X19291791Y-109131009D02*
X19244172Y-109083390D01*
X19244172Y-109083390D02*
X19148934Y-109035771D01*
X19148934Y-109035771D02*
X18910839Y-109035771D01*
X18910839Y-109035771D02*
X18815601Y-109083390D01*
X18815601Y-109083390D02*
X18767982Y-109131009D01*
X18767982Y-109131009D02*
X18720363Y-109226247D01*
X18720363Y-109226247D02*
X18720363Y-109464342D01*
X18720363Y-109464342D02*
X18767982Y-109559580D01*
X18767982Y-109559580D02*
X18815601Y-109607200D01*
X18815601Y-109607200D02*
X18910839Y-109654819D01*
X18910839Y-109654819D02*
X19148934Y-109654819D01*
X19148934Y-109654819D02*
X19244172Y-109607200D01*
X19244172Y-109607200D02*
X19291791Y-109559580D01*
D13*
X138579229Y-80827409D02*
X138269705Y-80827409D01*
X138269705Y-80827409D02*
X138436372Y-81017885D01*
X138436372Y-81017885D02*
X138364943Y-81017885D01*
X138364943Y-81017885D02*
X138317324Y-81041695D01*
X138317324Y-81041695D02*
X138293515Y-81065504D01*
X138293515Y-81065504D02*
X138269705Y-81113123D01*
X138269705Y-81113123D02*
X138269705Y-81232171D01*
X138269705Y-81232171D02*
X138293515Y-81279790D01*
X138293515Y-81279790D02*
X138317324Y-81303600D01*
X138317324Y-81303600D02*
X138364943Y-81327409D01*
X138364943Y-81327409D02*
X138507800Y-81327409D01*
X138507800Y-81327409D02*
X138555419Y-81303600D01*
X138555419Y-81303600D02*
X138579229Y-81279790D01*
X138055420Y-81279790D02*
X138031610Y-81303600D01*
X138031610Y-81303600D02*
X138055420Y-81327409D01*
X138055420Y-81327409D02*
X138079229Y-81303600D01*
X138079229Y-81303600D02*
X138055420Y-81279790D01*
X138055420Y-81279790D02*
X138055420Y-81327409D01*
X137864944Y-80827409D02*
X137531611Y-80827409D01*
X137531611Y-80827409D02*
X137745896Y-81327409D01*
X137412563Y-80827409D02*
X137245897Y-81327409D01*
X137245897Y-81327409D02*
X137079230Y-80827409D01*
X136293517Y-81327409D02*
X136531612Y-81327409D01*
X136531612Y-81327409D02*
X136531612Y-80827409D01*
X136126850Y-81327409D02*
X136126850Y-80994076D01*
X136126850Y-80827409D02*
X136150659Y-80851219D01*
X136150659Y-80851219D02*
X136126850Y-80875028D01*
X136126850Y-80875028D02*
X136103040Y-80851219D01*
X136103040Y-80851219D02*
X136126850Y-80827409D01*
X136126850Y-80827409D02*
X136126850Y-80875028D01*
X135888755Y-81327409D02*
X135888755Y-80994076D01*
X135888755Y-80827409D02*
X135912564Y-80851219D01*
X135912564Y-80851219D02*
X135888755Y-80875028D01*
X135888755Y-80875028D02*
X135864945Y-80851219D01*
X135864945Y-80851219D02*
X135888755Y-80827409D01*
X135888755Y-80827409D02*
X135888755Y-80875028D01*
X135579231Y-81327409D02*
X135626850Y-81303600D01*
X135626850Y-81303600D02*
X135650660Y-81279790D01*
X135650660Y-81279790D02*
X135674469Y-81232171D01*
X135674469Y-81232171D02*
X135674469Y-81089314D01*
X135674469Y-81089314D02*
X135650660Y-81041695D01*
X135650660Y-81041695D02*
X135626850Y-81017885D01*
X135626850Y-81017885D02*
X135579231Y-80994076D01*
X135579231Y-80994076D02*
X135507803Y-80994076D01*
X135507803Y-80994076D02*
X135460184Y-81017885D01*
X135460184Y-81017885D02*
X135436374Y-81041695D01*
X135436374Y-81041695D02*
X135412565Y-81089314D01*
X135412565Y-81089314D02*
X135412565Y-81232171D01*
X135412565Y-81232171D02*
X135436374Y-81279790D01*
X135436374Y-81279790D02*
X135460184Y-81303600D01*
X135460184Y-81303600D02*
X135507803Y-81327409D01*
X135507803Y-81327409D02*
X135579231Y-81327409D01*
X135198279Y-80994076D02*
X135198279Y-81327409D01*
X135198279Y-81041695D02*
X135174469Y-81017885D01*
X135174469Y-81017885D02*
X135126850Y-80994076D01*
X135126850Y-80994076D02*
X135055422Y-80994076D01*
X135055422Y-80994076D02*
X135007803Y-81017885D01*
X135007803Y-81017885D02*
X134983993Y-81065504D01*
X134983993Y-81065504D02*
X134983993Y-81327409D01*
X134388755Y-80803600D02*
X134817326Y-81446457D01*
X133983993Y-81327409D02*
X134222088Y-81327409D01*
X134222088Y-81327409D02*
X134222088Y-80827409D01*
X133817326Y-81327409D02*
X133817326Y-80994076D01*
X133817326Y-80827409D02*
X133841135Y-80851219D01*
X133841135Y-80851219D02*
X133817326Y-80875028D01*
X133817326Y-80875028D02*
X133793516Y-80851219D01*
X133793516Y-80851219D02*
X133817326Y-80827409D01*
X133817326Y-80827409D02*
X133817326Y-80875028D01*
X133579231Y-80994076D02*
X133579231Y-81494076D01*
X133579231Y-81017885D02*
X133531612Y-80994076D01*
X133531612Y-80994076D02*
X133436374Y-80994076D01*
X133436374Y-80994076D02*
X133388755Y-81017885D01*
X133388755Y-81017885D02*
X133364945Y-81041695D01*
X133364945Y-81041695D02*
X133341136Y-81089314D01*
X133341136Y-81089314D02*
X133341136Y-81232171D01*
X133341136Y-81232171D02*
X133364945Y-81279790D01*
X133364945Y-81279790D02*
X133388755Y-81303600D01*
X133388755Y-81303600D02*
X133436374Y-81327409D01*
X133436374Y-81327409D02*
X133531612Y-81327409D01*
X133531612Y-81327409D02*
X133579231Y-81303600D01*
X133055421Y-81327409D02*
X133103040Y-81303600D01*
X133103040Y-81303600D02*
X133126850Y-81279790D01*
X133126850Y-81279790D02*
X133150659Y-81232171D01*
X133150659Y-81232171D02*
X133150659Y-81089314D01*
X133150659Y-81089314D02*
X133126850Y-81041695D01*
X133126850Y-81041695D02*
X133103040Y-81017885D01*
X133103040Y-81017885D02*
X133055421Y-80994076D01*
X133055421Y-80994076D02*
X132983993Y-80994076D01*
X132983993Y-80994076D02*
X132936374Y-81017885D01*
X132936374Y-81017885D02*
X132912564Y-81041695D01*
X132912564Y-81041695D02*
X132888755Y-81089314D01*
X132888755Y-81089314D02*
X132888755Y-81232171D01*
X132888755Y-81232171D02*
X132912564Y-81279790D01*
X132912564Y-81279790D02*
X132936374Y-81303600D01*
X132936374Y-81303600D02*
X132983993Y-81327409D01*
X132983993Y-81327409D02*
X133055421Y-81327409D01*
X132603040Y-81327409D02*
X132650659Y-81303600D01*
X132650659Y-81303600D02*
X132674469Y-81255980D01*
X132674469Y-81255980D02*
X132674469Y-80827409D01*
X132460183Y-80994076D02*
X132341135Y-81327409D01*
X132222088Y-80994076D02*
X132341135Y-81327409D01*
X132341135Y-81327409D02*
X132388754Y-81446457D01*
X132388754Y-81446457D02*
X132412564Y-81470266D01*
X132412564Y-81470266D02*
X132460183Y-81494076D01*
D14*
X147957331Y-87944287D02*
X147843045Y-87982382D01*
X147843045Y-87982382D02*
X147804950Y-88020478D01*
X147804950Y-88020478D02*
X147766854Y-88096668D01*
X147766854Y-88096668D02*
X147766854Y-88210954D01*
X147766854Y-88210954D02*
X147804950Y-88287144D01*
X147804950Y-88287144D02*
X147843045Y-88325240D01*
X147843045Y-88325240D02*
X147919235Y-88363335D01*
X147919235Y-88363335D02*
X148223997Y-88363335D01*
X148223997Y-88363335D02*
X148223997Y-87563335D01*
X148223997Y-87563335D02*
X147957331Y-87563335D01*
X147957331Y-87563335D02*
X147881140Y-87601430D01*
X147881140Y-87601430D02*
X147843045Y-87639525D01*
X147843045Y-87639525D02*
X147804950Y-87715716D01*
X147804950Y-87715716D02*
X147804950Y-87791906D01*
X147804950Y-87791906D02*
X147843045Y-87868097D01*
X147843045Y-87868097D02*
X147881140Y-87906192D01*
X147881140Y-87906192D02*
X147957331Y-87944287D01*
X147957331Y-87944287D02*
X148223997Y-87944287D01*
X147081140Y-88363335D02*
X147081140Y-87944287D01*
X147081140Y-87944287D02*
X147119235Y-87868097D01*
X147119235Y-87868097D02*
X147195426Y-87830001D01*
X147195426Y-87830001D02*
X147347807Y-87830001D01*
X147347807Y-87830001D02*
X147423997Y-87868097D01*
X147081140Y-88325240D02*
X147157331Y-88363335D01*
X147157331Y-88363335D02*
X147347807Y-88363335D01*
X147347807Y-88363335D02*
X147423997Y-88325240D01*
X147423997Y-88325240D02*
X147462093Y-88249049D01*
X147462093Y-88249049D02*
X147462093Y-88172859D01*
X147462093Y-88172859D02*
X147423997Y-88096668D01*
X147423997Y-88096668D02*
X147347807Y-88058573D01*
X147347807Y-88058573D02*
X147157331Y-88058573D01*
X147157331Y-88058573D02*
X147081140Y-88020478D01*
X146814473Y-87830001D02*
X146509711Y-87830001D01*
X146700187Y-87563335D02*
X146700187Y-88249049D01*
X146700187Y-88249049D02*
X146662092Y-88325240D01*
X146662092Y-88325240D02*
X146585902Y-88363335D01*
X146585902Y-88363335D02*
X146509711Y-88363335D01*
X146357330Y-87830001D02*
X146052568Y-87830001D01*
X146243044Y-87563335D02*
X146243044Y-88249049D01*
X146243044Y-88249049D02*
X146204949Y-88325240D01*
X146204949Y-88325240D02*
X146128759Y-88363335D01*
X146128759Y-88363335D02*
X146052568Y-88363335D01*
X145481139Y-88325240D02*
X145557330Y-88363335D01*
X145557330Y-88363335D02*
X145709711Y-88363335D01*
X145709711Y-88363335D02*
X145785901Y-88325240D01*
X145785901Y-88325240D02*
X145823997Y-88249049D01*
X145823997Y-88249049D02*
X145823997Y-87944287D01*
X145823997Y-87944287D02*
X145785901Y-87868097D01*
X145785901Y-87868097D02*
X145709711Y-87830001D01*
X145709711Y-87830001D02*
X145557330Y-87830001D01*
X145557330Y-87830001D02*
X145481139Y-87868097D01*
X145481139Y-87868097D02*
X145443044Y-87944287D01*
X145443044Y-87944287D02*
X145443044Y-88020478D01*
X145443044Y-88020478D02*
X145823997Y-88096668D01*
X145100187Y-88363335D02*
X145100187Y-87830001D01*
X145100187Y-87982382D02*
X145062092Y-87906192D01*
X145062092Y-87906192D02*
X145023997Y-87868097D01*
X145023997Y-87868097D02*
X144947806Y-87830001D01*
X144947806Y-87830001D02*
X144871616Y-87830001D01*
X144681140Y-87830001D02*
X144490664Y-88363335D01*
X144300187Y-87830001D02*
X144490664Y-88363335D01*
X144490664Y-88363335D02*
X144566854Y-88553811D01*
X144566854Y-88553811D02*
X144604949Y-88591906D01*
X144604949Y-88591906D02*
X144681140Y-88630001D01*
X143271616Y-88363335D02*
X143347806Y-88325240D01*
X143347806Y-88325240D02*
X143385901Y-88287144D01*
X143385901Y-88287144D02*
X143423997Y-88210954D01*
X143423997Y-88210954D02*
X143423997Y-87982382D01*
X143423997Y-87982382D02*
X143385901Y-87906192D01*
X143385901Y-87906192D02*
X143347806Y-87868097D01*
X143347806Y-87868097D02*
X143271616Y-87830001D01*
X143271616Y-87830001D02*
X143157330Y-87830001D01*
X143157330Y-87830001D02*
X143081139Y-87868097D01*
X143081139Y-87868097D02*
X143043044Y-87906192D01*
X143043044Y-87906192D02*
X143004949Y-87982382D01*
X143004949Y-87982382D02*
X143004949Y-88210954D01*
X143004949Y-88210954D02*
X143043044Y-88287144D01*
X143043044Y-88287144D02*
X143081139Y-88325240D01*
X143081139Y-88325240D02*
X143157330Y-88363335D01*
X143157330Y-88363335D02*
X143271616Y-88363335D01*
X142319234Y-87830001D02*
X142319234Y-88363335D01*
X142662091Y-87830001D02*
X142662091Y-88249049D01*
X142662091Y-88249049D02*
X142623996Y-88325240D01*
X142623996Y-88325240D02*
X142547806Y-88363335D01*
X142547806Y-88363335D02*
X142433520Y-88363335D01*
X142433520Y-88363335D02*
X142357329Y-88325240D01*
X142357329Y-88325240D02*
X142319234Y-88287144D01*
X142052567Y-87830001D02*
X141747805Y-87830001D01*
X141938281Y-87563335D02*
X141938281Y-88249049D01*
X141938281Y-88249049D02*
X141900186Y-88325240D01*
X141900186Y-88325240D02*
X141823996Y-88363335D01*
X141823996Y-88363335D02*
X141747805Y-88363335D01*
X141366853Y-88363335D02*
X141443043Y-88325240D01*
X141443043Y-88325240D02*
X141481138Y-88249049D01*
X141481138Y-88249049D02*
X141481138Y-87563335D01*
X141062090Y-88363335D02*
X141062090Y-87830001D01*
X141062090Y-87563335D02*
X141100186Y-87601430D01*
X141100186Y-87601430D02*
X141062090Y-87639525D01*
X141062090Y-87639525D02*
X141023995Y-87601430D01*
X141023995Y-87601430D02*
X141062090Y-87563335D01*
X141062090Y-87563335D02*
X141062090Y-87639525D01*
X140681138Y-87830001D02*
X140681138Y-88363335D01*
X140681138Y-87906192D02*
X140643043Y-87868097D01*
X140643043Y-87868097D02*
X140566853Y-87830001D01*
X140566853Y-87830001D02*
X140452567Y-87830001D01*
X140452567Y-87830001D02*
X140376376Y-87868097D01*
X140376376Y-87868097D02*
X140338281Y-87944287D01*
X140338281Y-87944287D02*
X140338281Y-88363335D01*
X139652566Y-88325240D02*
X139728757Y-88363335D01*
X139728757Y-88363335D02*
X139881138Y-88363335D01*
X139881138Y-88363335D02*
X139957328Y-88325240D01*
X139957328Y-88325240D02*
X139995424Y-88249049D01*
X139995424Y-88249049D02*
X139995424Y-87944287D01*
X139995424Y-87944287D02*
X139957328Y-87868097D01*
X139957328Y-87868097D02*
X139881138Y-87830001D01*
X139881138Y-87830001D02*
X139728757Y-87830001D01*
X139728757Y-87830001D02*
X139652566Y-87868097D01*
X139652566Y-87868097D02*
X139614471Y-87944287D01*
X139614471Y-87944287D02*
X139614471Y-88020478D01*
X139614471Y-88020478D02*
X139995424Y-88096668D01*
D15*
X150642533Y-83739347D02*
X150642533Y-85263157D01*
X151404438Y-84501252D02*
X149880628Y-84501252D01*
D11*
X138329887Y-79931009D02*
X138187030Y-79978628D01*
X138187030Y-79978628D02*
X138139411Y-80026247D01*
X138139411Y-80026247D02*
X138091792Y-80121485D01*
X138091792Y-80121485D02*
X138091792Y-80264342D01*
X138091792Y-80264342D02*
X138139411Y-80359580D01*
X138139411Y-80359580D02*
X138187030Y-80407200D01*
X138187030Y-80407200D02*
X138282268Y-80454819D01*
X138282268Y-80454819D02*
X138663220Y-80454819D01*
X138663220Y-80454819D02*
X138663220Y-79454819D01*
X138663220Y-79454819D02*
X138329887Y-79454819D01*
X138329887Y-79454819D02*
X138234649Y-79502438D01*
X138234649Y-79502438D02*
X138187030Y-79550057D01*
X138187030Y-79550057D02*
X138139411Y-79645295D01*
X138139411Y-79645295D02*
X138139411Y-79740533D01*
X138139411Y-79740533D02*
X138187030Y-79835771D01*
X138187030Y-79835771D02*
X138234649Y-79883390D01*
X138234649Y-79883390D02*
X138329887Y-79931009D01*
X138329887Y-79931009D02*
X138663220Y-79931009D01*
X137234649Y-80454819D02*
X137234649Y-79931009D01*
X137234649Y-79931009D02*
X137282268Y-79835771D01*
X137282268Y-79835771D02*
X137377506Y-79788152D01*
X137377506Y-79788152D02*
X137567982Y-79788152D01*
X137567982Y-79788152D02*
X137663220Y-79835771D01*
X137234649Y-80407200D02*
X137329887Y-80454819D01*
X137329887Y-80454819D02*
X137567982Y-80454819D01*
X137567982Y-80454819D02*
X137663220Y-80407200D01*
X137663220Y-80407200D02*
X137710839Y-80311961D01*
X137710839Y-80311961D02*
X137710839Y-80216723D01*
X137710839Y-80216723D02*
X137663220Y-80121485D01*
X137663220Y-80121485D02*
X137567982Y-80073866D01*
X137567982Y-80073866D02*
X137329887Y-80073866D01*
X137329887Y-80073866D02*
X137234649Y-80026247D01*
X136901315Y-79788152D02*
X136520363Y-79788152D01*
X136758458Y-79454819D02*
X136758458Y-80311961D01*
X136758458Y-80311961D02*
X136710839Y-80407200D01*
X136710839Y-80407200D02*
X136615601Y-80454819D01*
X136615601Y-80454819D02*
X136520363Y-80454819D01*
X136329886Y-79788152D02*
X135948934Y-79788152D01*
X136187029Y-79454819D02*
X136187029Y-80311961D01*
X136187029Y-80311961D02*
X136139410Y-80407200D01*
X136139410Y-80407200D02*
X136044172Y-80454819D01*
X136044172Y-80454819D02*
X135948934Y-80454819D01*
X135234648Y-80407200D02*
X135329886Y-80454819D01*
X135329886Y-80454819D02*
X135520362Y-80454819D01*
X135520362Y-80454819D02*
X135615600Y-80407200D01*
X135615600Y-80407200D02*
X135663219Y-80311961D01*
X135663219Y-80311961D02*
X135663219Y-79931009D01*
X135663219Y-79931009D02*
X135615600Y-79835771D01*
X135615600Y-79835771D02*
X135520362Y-79788152D01*
X135520362Y-79788152D02*
X135329886Y-79788152D01*
X135329886Y-79788152D02*
X135234648Y-79835771D01*
X135234648Y-79835771D02*
X135187029Y-79931009D01*
X135187029Y-79931009D02*
X135187029Y-80026247D01*
X135187029Y-80026247D02*
X135663219Y-80121485D01*
X134758457Y-80454819D02*
X134758457Y-79788152D01*
X134758457Y-79978628D02*
X134710838Y-79883390D01*
X134710838Y-79883390D02*
X134663219Y-79835771D01*
X134663219Y-79835771D02*
X134567981Y-79788152D01*
X134567981Y-79788152D02*
X134472743Y-79788152D01*
X134234647Y-79788152D02*
X133996552Y-80454819D01*
X133758457Y-79788152D02*
X133996552Y-80454819D01*
X133996552Y-80454819D02*
X134091790Y-80692914D01*
X134091790Y-80692914D02*
X134139409Y-80740533D01*
X134139409Y-80740533D02*
X134234647Y-80788152D01*
D16*
%TO.C,J3*%
X141297500Y-79640000D02*
X149117500Y-79640000D01*
X141297500Y-80560000D02*
X141297500Y-79640000D01*
X141297500Y-84840000D02*
X142897500Y-84840000D01*
X141297500Y-85760000D02*
X141297500Y-84840000D01*
X142897500Y-79640000D02*
X142897500Y-80560000D01*
X142897500Y-80560000D02*
X141297500Y-80560000D01*
X142897500Y-80840000D02*
X141682500Y-80840000D01*
X142897500Y-80840000D02*
X142897500Y-80560000D01*
X142897500Y-84840000D02*
X142897500Y-84560000D01*
X142897500Y-85760000D02*
X142897500Y-84840000D01*
X144757500Y-82200000D02*
X144757500Y-83200000D01*
X144757500Y-83200000D02*
X149117500Y-83200000D01*
X145257500Y-80400000D02*
X146857500Y-80400000D01*
X145257500Y-81400000D02*
X145257500Y-80400000D01*
X145257500Y-84000000D02*
X145257500Y-85000000D01*
X145257500Y-85000000D02*
X146857500Y-85000000D01*
X146857500Y-80400000D02*
X146857500Y-81400000D01*
X146857500Y-80900000D02*
X149117500Y-80900000D01*
X146857500Y-81400000D02*
X145257500Y-81400000D01*
X146857500Y-81400000D02*
X149117500Y-81400000D01*
X146857500Y-84000000D02*
X145257500Y-84000000D01*
X146857500Y-85000000D02*
X146857500Y-84000000D01*
X149117500Y-79640000D02*
X149117500Y-85760000D01*
X149117500Y-82200000D02*
X144757500Y-82200000D01*
X149117500Y-85760000D02*
X141297500Y-85760000D01*
%TD*%
M02*
