  0
SECTION
  2
HEADER
  9
$ANGBASE
  50
0.0
  9
$ANGDIR
  70
1
  9
$MEASUREMENT
  70
1
  0
ENDSEC
  0
SECTION
  2
TABLES
  0
TABLE
  2
LTYPE
  70
4
  0
LTYPE
  5
40F
  2
CONTINUOUS
  70
0
  3
Solid line
  72
65
  73
0
  40
0.0
  0
LTYPE
  5
410
  2
DASHDOT
 70
0
  3
Dash Dot ____ _ ____ _
 72
65
 73
4
 40
2.0
 49
1.25
 49
-0.25
 49
0.25
 49
-0.25
  0
LTYPE
  5
411
  2
DASHED
 70
0
  3
Dashed __ __ __ __ __
 72
65
 73
2
 40
0.75
 49
0.5
 49
-0.25
  0
LTYPE
  5
43B
  2
DOTTED
 70
0
  3
Dotted .  .  .  .
 72
65
 73
2
 40
0.2
 49
0.0
 49
-0.2
  0
ENDTAB
  0
TABLE
  2
STYLE
  70
4
  0
STYLE
  2
KICAD
  70
0
  40
0
  41
1
  42
1
  50
0
  71
0
  3
isocp.shx
  0
STYLE
  2
KICADB
  70
0
  40
0
  41
1
  42
1
  50
0
  71
0
  3
isocp.shx
  0
STYLE
  2
KICADI
  70
0
  40
0
  41
1
  42
1
  50
15
  71
0
  3
isocp.shx
  0
STYLE
  2
KICADBI
  70
0
  40
0
  41
1
  42
1
  50
15
  71
0
  3
isocp.shx
  0
ENDTAB
  0
TABLE
  2
LAYER
  70
1
  0
LAYER
  2
BLACK
  70
0
  62
7
  6
CONTINUOUS
  0
ENDTAB
  0
ENDSEC
  0
SECTION
  2
ENTITIES
0
LINE
8
BLACK
6
CONTINUOUS
10
83.0097
20
-78.9267
11
83.013
21
-78.9261
0
LINE
8
BLACK
6
CONTINUOUS
10
83.013
20
-78.9261
11
83.0159
21
-78.9278
0
LINE
8
BLACK
6
CONTINUOUS
10
83.0159
20
-78.9278
11
83.0257
21
-78.9295
0
LINE
8
BLACK
6
CONTINUOUS
10
83.0257
20
-78.9295
11
83.0406
21
-78.942
0
LINE
8
BLACK
6
CONTINUOUS
10
83.0406
20
-78.942
11
83.0575
21
-78.9518
0
LINE
8
BLACK
6
CONTINUOUS
10
83.0575
20
-78.9518
11
83.0598
21
-78.9582
0
LINE
8
BLACK
6
CONTINUOUS
10
83.0598
20
-78.9582
11
83.065
21
-78.9625
0
LINE
8
BLACK
6
CONTINUOUS
10
83.065
20
-78.9625
11
83.0683
21
-78.9817
0
LINE
8
BLACK
6
CONTINUOUS
10
83.0683
20
-78.9817
11
83.075
21
-79
0
LINE
8
BLACK
6
CONTINUOUS
10
83.075
20
-79
11
83.075
21
-114
0
LINE
8
BLACK
6
CONTINUOUS
10
83.075
20
-114
11
83.0733
21
-114.01
0
LINE
8
BLACK
6
CONTINUOUS
10
83.0733
20
-114.01
11
83.0739
21
-114.013
0
LINE
8
BLACK
6
CONTINUOUS
10
83.0739
20
-114.013
11
83.0722
21
-114.016
0
LINE
8
BLACK
6
CONTINUOUS
10
83.0722
20
-114.016
11
83.0705
21
-114.026
0
LINE
8
BLACK
6
CONTINUOUS
10
83.0705
20
-114.026
11
83.058
21
-114.041
0
LINE
8
BLACK
6
CONTINUOUS
10
83.058
20
-114.041
11
83.0482
21
-114.057
0
LINE
8
BLACK
6
CONTINUOUS
10
83.0482
20
-114.057
11
83.0418
21
-114.06
0
LINE
8
BLACK
6
CONTINUOUS
10
83.0418
20
-114.06
11
83.0375
21
-114.065
0
LINE
8
BLACK
6
CONTINUOUS
10
83.0375
20
-114.065
11
83.0183
21
-114.068
0
LINE
8
BLACK
6
CONTINUOUS
10
83.0183
20
-114.068
11
83
21
-114.075
0
LINE
8
BLACK
6
CONTINUOUS
10
83
20
-114.075
11
30
21
-114.075
0
LINE
8
BLACK
6
CONTINUOUS
10
30
20
-114.075
11
29.9903
21
-114.073
0
LINE
8
BLACK
6
CONTINUOUS
10
29.9903
20
-114.073
11
29.987
21
-114.074
0
LINE
8
BLACK
6
CONTINUOUS
10
29.987
20
-114.074
11
29.9841
21
-114.072
0
LINE
8
BLACK
6
CONTINUOUS
10
29.9841
20
-114.072
11
29.9743
21
-114.07
0
LINE
8
BLACK
6
CONTINUOUS
10
29.9743
20
-114.07
11
29.9594
21
-114.058
0
LINE
8
BLACK
6
CONTINUOUS
10
29.9594
20
-114.058
11
29.9425
21
-114.048
0
LINE
8
BLACK
6
CONTINUOUS
10
29.9425
20
-114.048
11
29.9402
21
-114.042
0
LINE
8
BLACK
6
CONTINUOUS
10
29.9402
20
-114.042
11
29.935
21
-114.037
0
LINE
8
BLACK
6
CONTINUOUS
10
29.935
20
-114.037
11
29.9317
21
-114.018
0
LINE
8
BLACK
6
CONTINUOUS
10
29.9317
20
-114.018
11
29.925
21
-114
0
LINE
8
BLACK
6
CONTINUOUS
10
29.925
20
-114
11
29.925
21
-79
0
LINE
8
BLACK
6
CONTINUOUS
10
29.925
20
-79
11
29.9267
21
-78.9903
0
LINE
8
BLACK
6
CONTINUOUS
10
29.9267
20
-78.9903
11
29.9261
21
-78.987
0
LINE
8
BLACK
6
CONTINUOUS
10
29.9261
20
-78.987
11
29.9278
21
-78.9841
0
LINE
8
BLACK
6
CONTINUOUS
10
29.9278
20
-78.9841
11
29.9295
21
-78.9743
0
LINE
8
BLACK
6
CONTINUOUS
10
29.9295
20
-78.9743
11
29.942
21
-78.9594
0
LINE
8
BLACK
6
CONTINUOUS
10
29.942
20
-78.9594
11
29.9518
21
-78.9425
0
LINE
8
BLACK
6
CONTINUOUS
10
29.9518
20
-78.9425
11
29.9581
21
-78.9402
0
LINE
8
BLACK
6
CONTINUOUS
10
29.9581
20
-78.9402
11
29.9625
21
-78.935
0
LINE
8
BLACK
6
CONTINUOUS
10
29.9625
20
-78.935
11
29.9817
21
-78.9317
0
LINE
8
BLACK
6
CONTINUOUS
10
29.9817
20
-78.9317
11
30
21
-78.925
0
LINE
8
BLACK
6
CONTINUOUS
10
30
20
-78.925
11
83
21
-78.925
0
LINE
8
BLACK
6
CONTINUOUS
10
83
20
-78.925
11
83.0097
21
-78.9267
0
LINE
8
BLACK
6
CONTINUOUS
10
30.075
20
-79.075
11
30.075
21
-113.925
0
LINE
8
BLACK
6
CONTINUOUS
10
30.075
20
-113.925
11
82.925
21
-113.925
0
LINE
8
BLACK
6
CONTINUOUS
10
82.925
20
-113.925
11
82.925
21
-79.075
0
LINE
8
BLACK
6
CONTINUOUS
10
82.925
20
-79.075
11
30.075
21
-79.075
0
LINE
8
BLACK
6
CONTINUOUS
10
134.502
20
-153.763
11
134.597
21
-153.535
0
LINE
8
BLACK
6
CONTINUOUS
10
134.597
20
-153.535
11
134.726
21
-153.324
0
LINE
8
BLACK
6
CONTINUOUS
10
134.726
20
-153.324
11
134.886
21
-153.136
0
LINE
8
BLACK
6
CONTINUOUS
10
134.886
20
-153.136
11
135.074
21
-152.976
0
LINE
8
BLACK
6
CONTINUOUS
10
135.074
20
-152.976
11
135.285
21
-152.847
0
LINE
8
BLACK
6
CONTINUOUS
10
135.285
20
-152.847
11
135.513
21
-152.752
0
LINE
8
BLACK
6
CONTINUOUS
10
135.513
20
-152.752
11
135.754
21
-152.694
0
LINE
8
BLACK
6
CONTINUOUS
10
135.754
20
-152.694
11
136
21
-152.675
0
LINE
8
BLACK
6
CONTINUOUS
10
136
20
-152.675
11
136.246
21
-152.694
0
LINE
8
BLACK
6
CONTINUOUS
10
136.246
20
-152.694
11
136.487
21
-152.752
0
LINE
8
BLACK
6
CONTINUOUS
10
136.487
20
-152.752
11
136.715
21
-152.847
0
LINE
8
BLACK
6
CONTINUOUS
10
136.715
20
-152.847
11
136.926
21
-152.976
0
LINE
8
BLACK
6
CONTINUOUS
10
136.926
20
-152.976
11
137.114
21
-153.136
0
LINE
8
BLACK
6
CONTINUOUS
10
137.114
20
-153.136
11
137.274
21
-153.324
0
LINE
8
BLACK
6
CONTINUOUS
10
137.274
20
-153.324
11
137.403
21
-153.535
0
LINE
8
BLACK
6
CONTINUOUS
10
137.403
20
-153.535
11
137.498
21
-153.763
0
LINE
8
BLACK
6
CONTINUOUS
10
137.498
20
-153.763
11
137.556
21
-154.004
0
LINE
8
BLACK
6
CONTINUOUS
10
137.556
20
-154.004
11
137.575
21
-154.25
0
LINE
8
BLACK
6
CONTINUOUS
10
137.575
20
-154.25
11
137.556
21
-154.496
0
LINE
8
BLACK
6
CONTINUOUS
10
137.556
20
-154.496
11
137.498
21
-154.737
0
LINE
8
BLACK
6
CONTINUOUS
10
137.498
20
-154.737
11
137.403
21
-154.965
0
LINE
8
BLACK
6
CONTINUOUS
10
137.403
20
-154.965
11
137.274
21
-155.176
0
LINE
8
BLACK
6
CONTINUOUS
10
137.274
20
-155.176
11
137.114
21
-155.364
0
LINE
8
BLACK
6
CONTINUOUS
10
137.114
20
-155.364
11
136.926
21
-155.524
0
LINE
8
BLACK
6
CONTINUOUS
10
136.926
20
-155.524
11
136.715
21
-155.653
0
LINE
8
BLACK
6
CONTINUOUS
10
136.715
20
-155.653
11
136.487
21
-155.748
0
LINE
8
BLACK
6
CONTINUOUS
10
136.487
20
-155.748
11
136.246
21
-155.806
0
LINE
8
BLACK
6
CONTINUOUS
10
136.246
20
-155.806
11
136
21
-155.825
0
LINE
8
BLACK
6
CONTINUOUS
10
136
20
-155.825
11
135.754
21
-155.806
0
LINE
8
BLACK
6
CONTINUOUS
10
135.754
20
-155.806
11
135.513
21
-155.748
0
LINE
8
BLACK
6
CONTINUOUS
10
135.513
20
-155.748
11
135.285
21
-155.653
0
LINE
8
BLACK
6
CONTINUOUS
10
135.285
20
-155.653
11
135.074
21
-155.524
0
LINE
8
BLACK
6
CONTINUOUS
10
135.074
20
-155.524
11
134.886
21
-155.364
0
LINE
8
BLACK
6
CONTINUOUS
10
134.886
20
-155.364
11
134.726
21
-155.176
0
LINE
8
BLACK
6
CONTINUOUS
10
134.726
20
-155.176
11
134.597
21
-154.965
0
LINE
8
BLACK
6
CONTINUOUS
10
134.597
20
-154.965
11
134.502
21
-154.737
0
LINE
8
BLACK
6
CONTINUOUS
10
134.502
20
-154.737
11
134.444
21
-154.496
0
LINE
8
BLACK
6
CONTINUOUS
10
134.444
20
-154.496
11
134.425
21
-154.25
0
LINE
8
BLACK
6
CONTINUOUS
10
134.425
20
-154.25
11
134.428
21
-154.215
0
LINE
8
BLACK
6
CONTINUOUS
10
134.428
20
-154.215
11
134.444
21
-154.004
0
LINE
8
BLACK
6
CONTINUOUS
10
134.444
20
-154.004
11
134.502
21
-153.763
0
LINE
8
BLACK
6
CONTINUOUS
10
134.636
20
-154.678
11
134.724
21
-154.895
0
LINE
8
BLACK
6
CONTINUOUS
10
134.724
20
-154.895
11
134.846
21
-155.094
0
LINE
8
BLACK
6
CONTINUOUS
10
134.846
20
-155.094
11
135
21
-155.272
0
LINE
8
BLACK
6
CONTINUOUS
10
135
20
-155.272
11
135.18
21
-155.421
0
LINE
8
BLACK
6
CONTINUOUS
10
135.18
20
-155.421
11
135.382
21
-155.54
0
LINE
8
BLACK
6
CONTINUOUS
10
135.382
20
-155.54
11
135.601
21
-155.623
0
LINE
8
BLACK
6
CONTINUOUS
10
135.601
20
-155.623
11
135.831
21
-155.67
0
LINE
8
BLACK
6
CONTINUOUS
10
135.831
20
-155.67
11
136.065
21
-155.678
0
LINE
8
BLACK
6
CONTINUOUS
10
136.065
20
-155.678
11
136.297
21
-155.649
0
LINE
8
BLACK
6
CONTINUOUS
10
136.297
20
-155.649
11
136.522
21
-155.581
0
LINE
8
BLACK
6
CONTINUOUS
10
136.522
20
-155.581
11
136.732
21
-155.478
0
LINE
8
BLACK
6
CONTINUOUS
10
136.732
20
-155.478
11
136.923
21
-155.342
0
LINE
8
BLACK
6
CONTINUOUS
10
136.923
20
-155.342
11
137.089
21
-155.177
0
LINE
8
BLACK
6
CONTINUOUS
10
137.089
20
-155.177
11
137.226
21
-154.986
0
LINE
8
BLACK
6
CONTINUOUS
10
137.226
20
-154.986
11
137.329
21
-154.776
0
LINE
8
BLACK
6
CONTINUOUS
10
137.329
20
-154.776
11
137.398
21
-154.552
0
LINE
8
BLACK
6
CONTINUOUS
10
137.398
20
-154.552
11
137.428
21
-154.32
0
LINE
8
BLACK
6
CONTINUOUS
10
137.428
20
-154.32
11
137.43
21
-154.25
0
LINE
8
BLACK
6
CONTINUOUS
10
137.43
20
-154.25
11
137.411
21
-154.016
0
LINE
8
BLACK
6
CONTINUOUS
10
137.411
20
-154.016
11
137.354
21
-153.789
0
LINE
8
BLACK
6
CONTINUOUS
10
137.354
20
-153.789
11
137.26
21
-153.574
0
LINE
8
BLACK
6
CONTINUOUS
10
137.26
20
-153.574
11
137.133
21
-153.378
0
LINE
8
BLACK
6
CONTINUOUS
10
137.133
20
-153.378
11
136.975
21
-153.204
0
LINE
8
BLACK
6
CONTINUOUS
10
136.975
20
-153.204
11
136.791
21
-153.059
0
LINE
8
BLACK
6
CONTINUOUS
10
136.791
20
-153.059
11
136.586
21
-152.946
0
LINE
8
BLACK
6
CONTINUOUS
10
136.586
20
-152.946
11
136.365
21
-152.868
0
LINE
8
BLACK
6
CONTINUOUS
10
136.365
20
-152.868
11
136.135
21
-152.826
0
LINE
8
BLACK
6
CONTINUOUS
10
136.135
20
-152.826
11
135.9
21
-152.824
0
LINE
8
BLACK
6
CONTINUOUS
10
135.9
20
-152.824
11
135.669
21
-152.859
0
LINE
8
BLACK
6
CONTINUOUS
10
135.669
20
-152.859
11
135.446
21
-152.932
0
LINE
8
BLACK
6
CONTINUOUS
10
135.446
20
-152.932
11
135.238
21
-153.04
0
LINE
8
BLACK
6
CONTINUOUS
10
135.238
20
-153.04
11
135.051
21
-153.181
0
LINE
8
BLACK
6
CONTINUOUS
10
135.051
20
-153.181
11
134.889
21
-153.35
0
LINE
8
BLACK
6
CONTINUOUS
10
134.889
20
-153.35
11
134.757
21
-153.544
0
LINE
8
BLACK
6
CONTINUOUS
10
134.757
20
-153.544
11
134.658
21
-153.756
0
LINE
8
BLACK
6
CONTINUOUS
10
134.658
20
-153.756
11
134.595
21
-153.982
0
LINE
8
BLACK
6
CONTINUOUS
10
134.595
20
-153.982
11
134.571
21
-154.215
0
LINE
8
BLACK
6
CONTINUOUS
10
134.571
20
-154.215
11
134.584
21
-154.449
0
LINE
8
BLACK
6
CONTINUOUS
10
134.584
20
-154.449
11
134.636
21
-154.678
0
LINE
8
BLACK
6
CONTINUOUS
10
78.5021
20
-122.013
11
78.5967
21
-121.785
0
LINE
8
BLACK
6
CONTINUOUS
10
78.5967
20
-121.785
11
78.7258
21
-121.574
0
LINE
8
BLACK
6
CONTINUOUS
10
78.7258
20
-121.574
11
78.8863
21
-121.386
0
LINE
8
BLACK
6
CONTINUOUS
10
78.8863
20
-121.386
11
79.0742
21
-121.226
0
LINE
8
BLACK
6
CONTINUOUS
10
79.0742
20
-121.226
11
79.285
21
-121.097
0
LINE
8
BLACK
6
CONTINUOUS
10
79.285
20
-121.097
11
79.5133
21
-121.002
0
LINE
8
BLACK
6
CONTINUOUS
10
79.5133
20
-121.002
11
79.7536
21
-120.944
0
LINE
8
BLACK
6
CONTINUOUS
10
79.7536
20
-120.944
11
80
21
-120.925
0
LINE
8
BLACK
6
CONTINUOUS
10
80
20
-120.925
11
80.2464
21
-120.944
0
LINE
8
BLACK
6
CONTINUOUS
10
80.2464
20
-120.944
11
80.4867
21
-121.002
0
LINE
8
BLACK
6
CONTINUOUS
10
80.4867
20
-121.002
11
80.715
21
-121.097
0
LINE
8
BLACK
6
CONTINUOUS
10
80.715
20
-121.097
11
80.9258
21
-121.226
0
LINE
8
BLACK
6
CONTINUOUS
10
80.9258
20
-121.226
11
81.1137
21
-121.386
0
LINE
8
BLACK
6
CONTINUOUS
10
81.1137
20
-121.386
11
81.2742
21
-121.574
0
LINE
8
BLACK
6
CONTINUOUS
10
81.2742
20
-121.574
11
81.4033
21
-121.785
0
LINE
8
BLACK
6
CONTINUOUS
10
81.4033
20
-121.785
11
81.4979
21
-122.013
0
LINE
8
BLACK
6
CONTINUOUS
10
81.4979
20
-122.013
11
81.5556
21
-122.254
0
LINE
8
BLACK
6
CONTINUOUS
10
81.5556
20
-122.254
11
81.575
21
-122.5
0
LINE
8
BLACK
6
CONTINUOUS
10
81.575
20
-122.5
11
81.5556
21
-122.746
0
LINE
8
BLACK
6
CONTINUOUS
10
81.5556
20
-122.746
11
81.4979
21
-122.987
0
LINE
8
BLACK
6
CONTINUOUS
10
81.4979
20
-122.987
11
81.4033
21
-123.215
0
LINE
8
BLACK
6
CONTINUOUS
10
81.4033
20
-123.215
11
81.2742
21
-123.426
0
LINE
8
BLACK
6
CONTINUOUS
10
81.2742
20
-123.426
11
81.1137
21
-123.614
0
LINE
8
BLACK
6
CONTINUOUS
10
81.1137
20
-123.614
11
80.9258
21
-123.774
0
LINE
8
BLACK
6
CONTINUOUS
10
80.9258
20
-123.774
11
80.715
21
-123.903
0
LINE
8
BLACK
6
CONTINUOUS
10
80.715
20
-123.903
11
80.4867
21
-123.998
0
LINE
8
BLACK
6
CONTINUOUS
10
80.4867
20
-123.998
11
80.2464
21
-124.056
0
LINE
8
BLACK
6
CONTINUOUS
10
80.2464
20
-124.056
11
80
21
-124.075
0
LINE
8
BLACK
6
CONTINUOUS
10
80
20
-124.075
11
79.7536
21
-124.056
0
LINE
8
BLACK
6
CONTINUOUS
10
79.7536
20
-124.056
11
79.5133
21
-123.998
0
LINE
8
BLACK
6
CONTINUOUS
10
79.5133
20
-123.998
11
79.285
21
-123.903
0
LINE
8
BLACK
6
CONTINUOUS
10
79.285
20
-123.903
11
79.0742
21
-123.774
0
LINE
8
BLACK
6
CONTINUOUS
10
79.0742
20
-123.774
11
78.8863
21
-123.614
0
LINE
8
BLACK
6
CONTINUOUS
10
78.8863
20
-123.614
11
78.7258
21
-123.426
0
LINE
8
BLACK
6
CONTINUOUS
10
78.7258
20
-123.426
11
78.5967
21
-123.215
0
LINE
8
BLACK
6
CONTINUOUS
10
78.5967
20
-123.215
11
78.5021
21
-122.987
0
LINE
8
BLACK
6
CONTINUOUS
10
78.5021
20
-122.987
11
78.4444
21
-122.746
0
LINE
8
BLACK
6
CONTINUOUS
10
78.4444
20
-122.746
11
78.425
21
-122.5
0
LINE
8
BLACK
6
CONTINUOUS
10
78.425
20
-122.5
11
78.4277
21
-122.465
0
LINE
8
BLACK
6
CONTINUOUS
10
78.4277
20
-122.465
11
78.4444
21
-122.254
0
LINE
8
BLACK
6
CONTINUOUS
10
78.4444
20
-122.254
11
78.5021
21
-122.013
0
LINE
8
BLACK
6
CONTINUOUS
10
78.6355
20
-122.928
11
78.7237
21
-123.145
0
LINE
8
BLACK
6
CONTINUOUS
10
78.7237
20
-123.145
11
78.8461
21
-123.344
0
LINE
8
BLACK
6
CONTINUOUS
10
78.8461
20
-123.344
11
78.9996
21
-123.522
0
LINE
8
BLACK
6
CONTINUOUS
10
78.9996
20
-123.522
11
79.1799
21
-123.671
0
LINE
8
BLACK
6
CONTINUOUS
10
79.1799
20
-123.671
11
79.3822
21
-123.79
0
LINE
8
BLACK
6
CONTINUOUS
10
79.3822
20
-123.79
11
79.6011
21
-123.873
0
LINE
8
BLACK
6
CONTINUOUS
10
79.6011
20
-123.873
11
79.8307
21
-123.92
0
LINE
8
BLACK
6
CONTINUOUS
10
79.8307
20
-123.92
11
80.0649
21
-123.928
0
LINE
8
BLACK
6
CONTINUOUS
10
80.0649
20
-123.928
11
80.2973
21
-123.899
0
LINE
8
BLACK
6
CONTINUOUS
10
80.2973
20
-123.899
11
80.5217
21
-123.831
0
LINE
8
BLACK
6
CONTINUOUS
10
80.5217
20
-123.831
11
80.7322
21
-123.728
0
LINE
8
BLACK
6
CONTINUOUS
10
80.7322
20
-123.728
11
80.9229
21
-123.592
0
LINE
8
BLACK
6
CONTINUOUS
10
80.9229
20
-123.592
11
81.0889
21
-123.427
0
LINE
8
BLACK
6
CONTINUOUS
10
81.0889
20
-123.427
11
81.2257
21
-123.236
0
LINE
8
BLACK
6
CONTINUOUS
10
81.2257
20
-123.236
11
81.3295
21
-123.026
0
LINE
8
BLACK
6
CONTINUOUS
10
81.3295
20
-123.026
11
81.3976
21
-122.802
0
LINE
8
BLACK
6
CONTINUOUS
10
81.3976
20
-122.802
11
81.4282
21
-122.57
0
LINE
8
BLACK
6
CONTINUOUS
10
81.4282
20
-122.57
11
81.4299
21
-122.5
0
LINE
8
BLACK
6
CONTINUOUS
10
81.4299
20
-122.5
11
81.4107
21
-122.266
0
LINE
8
BLACK
6
CONTINUOUS
10
81.4107
20
-122.266
11
81.3536
21
-122.039
0
LINE
8
BLACK
6
CONTINUOUS
10
81.3536
20
-122.039
11
81.2602
21
-121.824
0
LINE
8
BLACK
6
CONTINUOUS
10
81.2602
20
-121.824
11
81.1329
21
-121.628
0
LINE
8
BLACK
6
CONTINUOUS
10
81.1329
20
-121.628
11
80.9752
21
-121.454
0
LINE
8
BLACK
6
CONTINUOUS
10
80.9752
20
-121.454
11
80.7913
21
-121.309
0
LINE
8
BLACK
6
CONTINUOUS
10
80.7913
20
-121.309
11
80.5861
21
-121.196
0
LINE
8
BLACK
6
CONTINUOUS
10
80.5861
20
-121.196
11
80.3653
21
-121.118
0
LINE
8
BLACK
6
CONTINUOUS
10
80.3653
20
-121.118
11
80.1346
21
-121.076
0
LINE
8
BLACK
6
CONTINUOUS
10
80.1346
20
-121.076
11
79.9003
21
-121.074
0
LINE
8
BLACK
6
CONTINUOUS
10
79.9003
20
-121.074
11
79.6686
21
-121.109
0
LINE
8
BLACK
6
CONTINUOUS
10
79.6686
20
-121.109
11
79.4459
21
-121.182
0
LINE
8
BLACK
6
CONTINUOUS
10
79.4459
20
-121.182
11
79.238
21
-121.29
0
LINE
8
BLACK
6
CONTINUOUS
10
79.238
20
-121.29
11
79.0507
21
-121.431
0
LINE
8
BLACK
6
CONTINUOUS
10
79.0507
20
-121.431
11
78.8888
21
-121.6
0
LINE
8
BLACK
6
CONTINUOUS
10
78.8888
20
-121.6
11
78.7567
21
-121.794
0
LINE
8
BLACK
6
CONTINUOUS
10
78.7567
20
-121.794
11
78.6581
21
-122.006
0
LINE
8
BLACK
6
CONTINUOUS
10
78.6581
20
-122.006
11
78.5954
21
-122.232
0
LINE
8
BLACK
6
CONTINUOUS
10
78.5954
20
-122.232
11
78.5705
21
-122.465
0
LINE
8
BLACK
6
CONTINUOUS
10
78.5705
20
-122.465
11
78.584
21
-122.699
0
LINE
8
BLACK
6
CONTINUOUS
10
78.584
20
-122.699
11
78.6355
21
-122.928
0
LINE
8
BLACK
6
CONTINUOUS
10
177.502
20
-110.013
11
177.597
21
-109.785
0
LINE
8
BLACK
6
CONTINUOUS
10
177.597
20
-109.785
11
177.726
21
-109.574
0
LINE
8
BLACK
6
CONTINUOUS
10
177.726
20
-109.574
11
177.886
21
-109.386
0
LINE
8
BLACK
6
CONTINUOUS
10
177.886
20
-109.386
11
178.074
21
-109.226
0
LINE
8
BLACK
6
CONTINUOUS
10
178.074
20
-109.226
11
178.285
21
-109.097
0
LINE
8
BLACK
6
CONTINUOUS
10
178.285
20
-109.097
11
178.513
21
-109.002
0
LINE
8
BLACK
6
CONTINUOUS
10
178.513
20
-109.002
11
178.754
21
-108.944
0
LINE
8
BLACK
6
CONTINUOUS
10
178.754
20
-108.944
11
179
21
-108.925
0
LINE
8
BLACK
6
CONTINUOUS
10
179
20
-108.925
11
179.246
21
-108.944
0
LINE
8
BLACK
6
CONTINUOUS
10
179.246
20
-108.944
11
179.487
21
-109.002
0
LINE
8
BLACK
6
CONTINUOUS
10
179.487
20
-109.002
11
179.715
21
-109.097
0
LINE
8
BLACK
6
CONTINUOUS
10
179.715
20
-109.097
11
179.926
21
-109.226
0
LINE
8
BLACK
6
CONTINUOUS
10
179.926
20
-109.226
11
180.114
21
-109.386
0
LINE
8
BLACK
6
CONTINUOUS
10
180.114
20
-109.386
11
180.274
21
-109.574
0
LINE
8
BLACK
6
CONTINUOUS
10
180.274
20
-109.574
11
180.403
21
-109.785
0
LINE
8
BLACK
6
CONTINUOUS
10
180.403
20
-109.785
11
180.498
21
-110.013
0
LINE
8
BLACK
6
CONTINUOUS
10
180.498
20
-110.013
11
180.556
21
-110.254
0
LINE
8
BLACK
6
CONTINUOUS
10
180.556
20
-110.254
11
180.575
21
-110.5
0
LINE
8
BLACK
6
CONTINUOUS
10
180.575
20
-110.5
11
180.556
21
-110.746
0
LINE
8
BLACK
6
CONTINUOUS
10
180.556
20
-110.746
11
180.498
21
-110.987
0
LINE
8
BLACK
6
CONTINUOUS
10
180.498
20
-110.987
11
180.403
21
-111.215
0
LINE
8
BLACK
6
CONTINUOUS
10
180.403
20
-111.215
11
180.274
21
-111.426
0
LINE
8
BLACK
6
CONTINUOUS
10
180.274
20
-111.426
11
180.114
21
-111.614
0
LINE
8
BLACK
6
CONTINUOUS
10
180.114
20
-111.614
11
179.926
21
-111.774
0
LINE
8
BLACK
6
CONTINUOUS
10
179.926
20
-111.774
11
179.715
21
-111.903
0
LINE
8
BLACK
6
CONTINUOUS
10
179.715
20
-111.903
11
179.487
21
-111.998
0
LINE
8
BLACK
6
CONTINUOUS
10
179.487
20
-111.998
11
179.246
21
-112.056
0
LINE
8
BLACK
6
CONTINUOUS
10
179.246
20
-112.056
11
179
21
-112.075
0
LINE
8
BLACK
6
CONTINUOUS
10
179
20
-112.075
11
178.754
21
-112.056
0
LINE
8
BLACK
6
CONTINUOUS
10
178.754
20
-112.056
11
178.513
21
-111.998
0
LINE
8
BLACK
6
CONTINUOUS
10
178.513
20
-111.998
11
178.285
21
-111.903
0
LINE
8
BLACK
6
CONTINUOUS
10
178.285
20
-111.903
11
178.074
21
-111.774
0
LINE
8
BLACK
6
CONTINUOUS
10
178.074
20
-111.774
11
177.886
21
-111.614
0
LINE
8
BLACK
6
CONTINUOUS
10
177.886
20
-111.614
11
177.726
21
-111.426
0
LINE
8
BLACK
6
CONTINUOUS
10
177.726
20
-111.426
11
177.597
21
-111.215
0
LINE
8
BLACK
6
CONTINUOUS
10
177.597
20
-111.215
11
177.502
21
-110.987
0
LINE
8
BLACK
6
CONTINUOUS
10
177.502
20
-110.987
11
177.444
21
-110.746
0
LINE
8
BLACK
6
CONTINUOUS
10
177.444
20
-110.746
11
177.425
21
-110.5
0
LINE
8
BLACK
6
CONTINUOUS
10
177.425
20
-110.5
11
177.428
21
-110.465
0
LINE
8
BLACK
6
CONTINUOUS
10
177.428
20
-110.465
11
177.444
21
-110.254
0
LINE
8
BLACK
6
CONTINUOUS
10
177.444
20
-110.254
11
177.502
21
-110.013
0
LINE
8
BLACK
6
CONTINUOUS
10
177.636
20
-110.928
11
177.724
21
-111.145
0
LINE
8
BLACK
6
CONTINUOUS
10
177.724
20
-111.145
11
177.846
21
-111.344
0
LINE
8
BLACK
6
CONTINUOUS
10
177.846
20
-111.344
11
178
21
-111.522
0
LINE
8
BLACK
6
CONTINUOUS
10
178
20
-111.522
11
178.18
21
-111.671
0
LINE
8
BLACK
6
CONTINUOUS
10
178.18
20
-111.671
11
178.382
21
-111.79
0
LINE
8
BLACK
6
CONTINUOUS
10
178.382
20
-111.79
11
178.601
21
-111.873
0
LINE
8
BLACK
6
CONTINUOUS
10
178.601
20
-111.873
11
178.831
21
-111.92
0
LINE
8
BLACK
6
CONTINUOUS
10
178.831
20
-111.92
11
179.065
21
-111.928
0
LINE
8
BLACK
6
CONTINUOUS
10
179.065
20
-111.928
11
179.297
21
-111.899
0
LINE
8
BLACK
6
CONTINUOUS
10
179.297
20
-111.899
11
179.522
21
-111.831
0
LINE
8
BLACK
6
CONTINUOUS
10
179.522
20
-111.831
11
179.732
21
-111.728
0
LINE
8
BLACK
6
CONTINUOUS
10
179.732
20
-111.728
11
179.923
21
-111.592
0
LINE
8
BLACK
6
CONTINUOUS
10
179.923
20
-111.592
11
180.089
21
-111.427
0
LINE
8
BLACK
6
CONTINUOUS
10
180.089
20
-111.427
11
180.226
21
-111.236
0
LINE
8
BLACK
6
CONTINUOUS
10
180.226
20
-111.236
11
180.329
21
-111.026
0
LINE
8
BLACK
6
CONTINUOUS
10
180.329
20
-111.026
11
180.398
21
-110.802
0
LINE
8
BLACK
6
CONTINUOUS
10
180.398
20
-110.802
11
180.428
21
-110.57
0
LINE
8
BLACK
6
CONTINUOUS
10
180.428
20
-110.57
11
180.43
21
-110.5
0
LINE
8
BLACK
6
CONTINUOUS
10
180.43
20
-110.5
11
180.411
21
-110.266
0
LINE
8
BLACK
6
CONTINUOUS
10
180.411
20
-110.266
11
180.354
21
-110.039
0
LINE
8
BLACK
6
CONTINUOUS
10
180.354
20
-110.039
11
180.26
21
-109.824
0
LINE
8
BLACK
6
CONTINUOUS
10
180.26
20
-109.824
11
180.133
21
-109.628
0
LINE
8
BLACK
6
CONTINUOUS
10
180.133
20
-109.628
11
179.975
21
-109.454
0
LINE
8
BLACK
6
CONTINUOUS
10
179.975
20
-109.454
11
179.791
21
-109.309
0
LINE
8
BLACK
6
CONTINUOUS
10
179.791
20
-109.309
11
179.586
21
-109.196
0
LINE
8
BLACK
6
CONTINUOUS
10
179.586
20
-109.196
11
179.365
21
-109.118
0
LINE
8
BLACK
6
CONTINUOUS
10
179.365
20
-109.118
11
179.135
21
-109.076
0
LINE
8
BLACK
6
CONTINUOUS
10
179.135
20
-109.076
11
178.9
21
-109.074
0
LINE
8
BLACK
6
CONTINUOUS
10
178.9
20
-109.074
11
178.669
21
-109.109
0
LINE
8
BLACK
6
CONTINUOUS
10
178.669
20
-109.109
11
178.446
21
-109.182
0
LINE
8
BLACK
6
CONTINUOUS
10
178.446
20
-109.182
11
178.238
21
-109.29
0
LINE
8
BLACK
6
CONTINUOUS
10
178.238
20
-109.29
11
178.051
21
-109.431
0
LINE
8
BLACK
6
CONTINUOUS
10
178.051
20
-109.431
11
177.889
21
-109.6
0
LINE
8
BLACK
6
CONTINUOUS
10
177.889
20
-109.6
11
177.757
21
-109.794
0
LINE
8
BLACK
6
CONTINUOUS
10
177.757
20
-109.794
11
177.658
21
-110.006
0
LINE
8
BLACK
6
CONTINUOUS
10
177.658
20
-110.006
11
177.595
21
-110.232
0
LINE
8
BLACK
6
CONTINUOUS
10
177.595
20
-110.232
11
177.571
21
-110.465
0
LINE
8
BLACK
6
CONTINUOUS
10
177.571
20
-110.465
11
177.584
21
-110.699
0
LINE
8
BLACK
6
CONTINUOUS
10
177.584
20
-110.699
11
177.636
21
-110.928
0
LINE
8
BLACK
6
CONTINUOUS
10
6.25209
20
-97.5133
11
6.34666
21
-97.285
0
LINE
8
BLACK
6
CONTINUOUS
10
6.34666
20
-97.285
11
6.4758
21
-97.0742
0
LINE
8
BLACK
6
CONTINUOUS
10
6.4758
20
-97.0742
11
6.63631
21
-96.8863
0
LINE
8
BLACK
6
CONTINUOUS
10
6.63631
20
-96.8863
11
6.82424
21
-96.7258
0
LINE
8
BLACK
6
CONTINUOUS
10
6.82424
20
-96.7258
11
7.03496
21
-96.5967
0
LINE
8
BLACK
6
CONTINUOUS
10
7.03496
20
-96.5967
11
7.2633
21
-96.5021
0
LINE
8
BLACK
6
CONTINUOUS
10
7.2633
20
-96.5021
11
7.50362
21
-96.4444
0
LINE
8
BLACK
6
CONTINUOUS
10
7.50362
20
-96.4444
11
7.75
21
-96.425
0
LINE
8
BLACK
6
CONTINUOUS
10
7.75
20
-96.425
11
7.99638
21
-96.4444
0
LINE
8
BLACK
6
CONTINUOUS
10
7.99638
20
-96.4444
11
8.2367
21
-96.5021
0
LINE
8
BLACK
6
CONTINUOUS
10
8.2367
20
-96.5021
11
8.46504
21
-96.5967
0
LINE
8
BLACK
6
CONTINUOUS
10
8.46504
20
-96.5967
11
8.67576
21
-96.7258
0
LINE
8
BLACK
6
CONTINUOUS
10
8.67576
20
-96.7258
11
8.86369
21
-96.8863
0
LINE
8
BLACK
6
CONTINUOUS
10
8.86369
20
-96.8863
11
9.0242
21
-97.0742
0
LINE
8
BLACK
6
CONTINUOUS
10
9.0242
20
-97.0742
11
9.15334
21
-97.285
0
LINE
8
BLACK
6
CONTINUOUS
10
9.15334
20
-97.285
11
9.24791
21
-97.5133
0
LINE
8
BLACK
6
CONTINUOUS
10
9.24791
20
-97.5133
11
9.30561
21
-97.7536
0
LINE
8
BLACK
6
CONTINUOUS
10
9.30561
20
-97.7536
11
9.325
21
-98
0
LINE
8
BLACK
6
CONTINUOUS
10
9.325
20
-98
11
9.30561
21
-98.2464
0
LINE
8
BLACK
6
CONTINUOUS
10
9.30561
20
-98.2464
11
9.24791
21
-98.4867
0
LINE
8
BLACK
6
CONTINUOUS
10
9.24791
20
-98.4867
11
9.15334
21
-98.715
0
LINE
8
BLACK
6
CONTINUOUS
10
9.15334
20
-98.715
11
9.0242
21
-98.9258
0
LINE
8
BLACK
6
CONTINUOUS
10
9.0242
20
-98.9258
11
8.86369
21
-99.1137
0
LINE
8
BLACK
6
CONTINUOUS
10
8.86369
20
-99.1137
11
8.67576
21
-99.2742
0
LINE
8
BLACK
6
CONTINUOUS
10
8.67576
20
-99.2742
11
8.46504
21
-99.4033
0
LINE
8
BLACK
6
CONTINUOUS
10
8.46504
20
-99.4033
11
8.2367
21
-99.4979
0
LINE
8
BLACK
6
CONTINUOUS
10
8.2367
20
-99.4979
11
7.99638
21
-99.5556
0
LINE
8
BLACK
6
CONTINUOUS
10
7.99638
20
-99.5556
11
7.75
21
-99.575
0
LINE
8
BLACK
6
CONTINUOUS
10
7.75
20
-99.575
11
7.50362
21
-99.5556
0
LINE
8
BLACK
6
CONTINUOUS
10
7.50362
20
-99.5556
11
7.2633
21
-99.4979
0
LINE
8
BLACK
6
CONTINUOUS
10
7.2633
20
-99.4979
11
7.03496
21
-99.4033
0
LINE
8
BLACK
6
CONTINUOUS
10
7.03496
20
-99.4033
11
6.82424
21
-99.2742
0
LINE
8
BLACK
6
CONTINUOUS
10
6.82424
20
-99.2742
11
6.63631
21
-99.1137
0
LINE
8
BLACK
6
CONTINUOUS
10
6.63631
20
-99.1137
11
6.4758
21
-98.9258
0
LINE
8
BLACK
6
CONTINUOUS
10
6.4758
20
-98.9258
11
6.34666
21
-98.715
0
LINE
8
BLACK
6
CONTINUOUS
10
6.34666
20
-98.715
11
6.25209
21
-98.4867
0
LINE
8
BLACK
6
CONTINUOUS
10
6.25209
20
-98.4867
11
6.19439
21
-98.2464
0
LINE
8
BLACK
6
CONTINUOUS
10
6.19439
20
-98.2464
11
6.175
21
-98
0
LINE
8
BLACK
6
CONTINUOUS
10
6.175
20
-98
11
6.17775
21
-97.9651
0
LINE
8
BLACK
6
CONTINUOUS
10
6.17775
20
-97.9651
11
6.19439
21
-97.7536
0
LINE
8
BLACK
6
CONTINUOUS
10
6.19439
20
-97.7536
11
6.25209
21
-97.5133
0
LINE
8
BLACK
6
CONTINUOUS
10
6.38555
20
-98.4276
11
6.47371
21
-98.6447
0
LINE
8
BLACK
6
CONTINUOUS
10
6.47371
20
-98.6447
11
6.59614
21
-98.8445
0
LINE
8
BLACK
6
CONTINUOUS
10
6.59614
20
-98.8445
11
6.74956
21
-99.0216
0
LINE
8
BLACK
6
CONTINUOUS
10
6.74956
20
-99.0216
11
6.92985
21
-99.1713
0
LINE
8
BLACK
6
CONTINUOUS
10
6.92985
20
-99.1713
11
7.13217
21
-99.2895
0
LINE
8
BLACK
6
CONTINUOUS
10
7.13217
20
-99.2895
11
7.35107
21
-99.3731
0
LINE
8
BLACK
6
CONTINUOUS
10
7.35107
20
-99.3731
11
7.5807
21
-99.4198
0
LINE
8
BLACK
6
CONTINUOUS
10
7.5807
20
-99.4198
11
7.81486
21
-99.4284
0
LINE
8
BLACK
6
CONTINUOUS
10
7.81486
20
-99.4284
11
8.04729
21
-99.3986
0
LINE
8
BLACK
6
CONTINUOUS
10
8.04729
20
-99.3986
11
8.27173
21
-99.3313
0
LINE
8
BLACK
6
CONTINUOUS
10
8.27173
20
-99.3313
11
8.48216
21
-99.2282
0
LINE
8
BLACK
6
CONTINUOUS
10
8.48216
20
-99.2282
11
8.67293
21
-99.0921
0
LINE
8
BLACK
6
CONTINUOUS
10
8.67293
20
-99.0921
11
8.83891
21
-98.9267
0
LINE
8
BLACK
6
CONTINUOUS
10
8.83891
20
-98.9267
11
8.97565
21
-98.7364
0
LINE
8
BLACK
6
CONTINUOUS
10
8.97565
20
-98.7364
11
9.07947
21
-98.5264
0
LINE
8
BLACK
6
CONTINUOUS
10
9.07947
20
-98.5264
11
9.14759
21
-98.3022
0
LINE
8
BLACK
6
CONTINUOUS
10
9.14759
20
-98.3022
11
9.17818
21
-98.0699
0
LINE
8
BLACK
6
CONTINUOUS
10
9.17818
20
-98.0699
11
9.17988
21
-98
0
LINE
8
BLACK
6
CONTINUOUS
10
9.17988
20
-98
11
9.16068
21
-97.7665
0
LINE
8
BLACK
6
CONTINUOUS
10
9.16068
20
-97.7665
11
9.1036
21
-97.5392
0
LINE
8
BLACK
6
CONTINUOUS
10
9.1036
20
-97.5392
11
9.01016
21
-97.3243
0
LINE
8
BLACK
6
CONTINUOUS
10
9.01016
20
-97.3243
11
8.88288
21
-97.1276
0
LINE
8
BLACK
6
CONTINUOUS
10
8.88288
20
-97.1276
11
8.72518
21
-96.9542
0
LINE
8
BLACK
6
CONTINUOUS
10
8.72518
20
-96.9542
11
8.54129
21
-96.809
0
LINE
8
BLACK
6
CONTINUOUS
10
8.54129
20
-96.809
11
8.33614
21
-96.6958
0
LINE
8
BLACK
6
CONTINUOUS
10
8.33614
20
-96.6958
11
8.11526
21
-96.6176
0
LINE
8
BLACK
6
CONTINUOUS
10
8.11526
20
-96.6176
11
7.88456
21
-96.5765
0
LINE
8
BLACK
6
CONTINUOUS
10
7.88456
20
-96.5765
11
7.65026
21
-96.5736
0
LINE
8
BLACK
6
CONTINUOUS
10
7.65026
20
-96.5736
11
7.41863
21
-96.609
0
LINE
8
BLACK
6
CONTINUOUS
10
7.41863
20
-96.609
11
7.1959
21
-96.6818
0
LINE
8
BLACK
6
CONTINUOUS
10
7.1959
20
-96.6818
11
6.98805
21
-96.79
0
LINE
8
BLACK
6
CONTINUOUS
10
6.98805
20
-96.79
11
6.80066
21
-96.9307
0
LINE
8
BLACK
6
CONTINUOUS
10
6.80066
20
-96.9307
11
6.63877
21
-97.1001
0
LINE
8
BLACK
6
CONTINUOUS
10
6.63877
20
-97.1001
11
6.50672
21
-97.2937
0
LINE
8
BLACK
6
CONTINUOUS
10
6.50672
20
-97.2937
11
6.40806
21
-97.5063
0
LINE
8
BLACK
6
CONTINUOUS
10
6.40806
20
-97.5063
11
6.34544
21
-97.7321
0
LINE
8
BLACK
6
CONTINUOUS
10
6.34544
20
-97.7321
11
6.32054
21
-97.9651
0
LINE
8
BLACK
6
CONTINUOUS
10
6.32054
20
-97.9651
11
6.33403
21
-98.199
0
LINE
8
BLACK
6
CONTINUOUS
10
6.33403
20
-98.199
11
6.38555
21
-98.4276
0
LINE
8
BLACK
6
CONTINUOUS
10
78.5021
20
-72.0133
11
78.5967
21
-71.785
0
LINE
8
BLACK
6
CONTINUOUS
10
78.5967
20
-71.785
11
78.7258
21
-71.5742
0
LINE
8
BLACK
6
CONTINUOUS
10
78.7258
20
-71.5742
11
78.8863
21
-71.3863
0
LINE
8
BLACK
6
CONTINUOUS
10
78.8863
20
-71.3863
11
79.0742
21
-71.2258
0
LINE
8
BLACK
6
CONTINUOUS
10
79.0742
20
-71.2258
11
79.285
21
-71.0967
0
LINE
8
BLACK
6
CONTINUOUS
10
79.285
20
-71.0967
11
79.5133
21
-71.0021
0
LINE
8
BLACK
6
CONTINUOUS
10
79.5133
20
-71.0021
11
79.7536
21
-70.9444
0
LINE
8
BLACK
6
CONTINUOUS
10
79.7536
20
-70.9444
11
80
21
-70.925
0
LINE
8
BLACK
6
CONTINUOUS
10
80
20
-70.925
11
80.2464
21
-70.9444
0
LINE
8
BLACK
6
CONTINUOUS
10
80.2464
20
-70.9444
11
80.4867
21
-71.0021
0
LINE
8
BLACK
6
CONTINUOUS
10
80.4867
20
-71.0021
11
80.715
21
-71.0967
0
LINE
8
BLACK
6
CONTINUOUS
10
80.715
20
-71.0967
11
80.9258
21
-71.2258
0
LINE
8
BLACK
6
CONTINUOUS
10
80.9258
20
-71.2258
11
81.1137
21
-71.3863
0
LINE
8
BLACK
6
CONTINUOUS
10
81.1137
20
-71.3863
11
81.2742
21
-71.5742
0
LINE
8
BLACK
6
CONTINUOUS
10
81.2742
20
-71.5742
11
81.4033
21
-71.785
0
LINE
8
BLACK
6
CONTINUOUS
10
81.4033
20
-71.785
11
81.4979
21
-72.0133
0
LINE
8
BLACK
6
CONTINUOUS
10
81.4979
20
-72.0133
11
81.5556
21
-72.2536
0
LINE
8
BLACK
6
CONTINUOUS
10
81.5556
20
-72.2536
11
81.575
21
-72.5
0
LINE
8
BLACK
6
CONTINUOUS
10
81.575
20
-72.5
11
81.5556
21
-72.7464
0
LINE
8
BLACK
6
CONTINUOUS
10
81.5556
20
-72.7464
11
81.4979
21
-72.9867
0
LINE
8
BLACK
6
CONTINUOUS
10
81.4979
20
-72.9867
11
81.4033
21
-73.215
0
LINE
8
BLACK
6
CONTINUOUS
10
81.4033
20
-73.215
11
81.2742
21
-73.4258
0
LINE
8
BLACK
6
CONTINUOUS
10
81.2742
20
-73.4258
11
81.1137
21
-73.6137
0
LINE
8
BLACK
6
CONTINUOUS
10
81.1137
20
-73.6137
11
80.9258
21
-73.7742
0
LINE
8
BLACK
6
CONTINUOUS
10
80.9258
20
-73.7742
11
80.715
21
-73.9033
0
LINE
8
BLACK
6
CONTINUOUS
10
80.715
20
-73.9033
11
80.4867
21
-73.9979
0
LINE
8
BLACK
6
CONTINUOUS
10
80.4867
20
-73.9979
11
80.2464
21
-74.0556
0
LINE
8
BLACK
6
CONTINUOUS
10
80.2464
20
-74.0556
11
80
21
-74.075
0
LINE
8
BLACK
6
CONTINUOUS
10
80
20
-74.075
11
79.7536
21
-74.0556
0
LINE
8
BLACK
6
CONTINUOUS
10
79.7536
20
-74.0556
11
79.5133
21
-73.9979
0
LINE
8
BLACK
6
CONTINUOUS
10
79.5133
20
-73.9979
11
79.285
21
-73.9033
0
LINE
8
BLACK
6
CONTINUOUS
10
79.285
20
-73.9033
11
79.0742
21
-73.7742
0
LINE
8
BLACK
6
CONTINUOUS
10
79.0742
20
-73.7742
11
78.8863
21
-73.6137
0
LINE
8
BLACK
6
CONTINUOUS
10
78.8863
20
-73.6137
11
78.7258
21
-73.4258
0
LINE
8
BLACK
6
CONTINUOUS
10
78.7258
20
-73.4258
11
78.5967
21
-73.215
0
LINE
8
BLACK
6
CONTINUOUS
10
78.5967
20
-73.215
11
78.5021
21
-72.9867
0
LINE
8
BLACK
6
CONTINUOUS
10
78.5021
20
-72.9867
11
78.4444
21
-72.7464
0
LINE
8
BLACK
6
CONTINUOUS
10
78.4444
20
-72.7464
11
78.425
21
-72.5
0
LINE
8
BLACK
6
CONTINUOUS
10
78.425
20
-72.5
11
78.4277
21
-72.4651
0
LINE
8
BLACK
6
CONTINUOUS
10
78.4277
20
-72.4651
11
78.4444
21
-72.2536
0
LINE
8
BLACK
6
CONTINUOUS
10
78.4444
20
-72.2536
11
78.5021
21
-72.0133
0
LINE
8
BLACK
6
CONTINUOUS
10
78.6355
20
-72.9276
11
78.7237
21
-73.1447
0
LINE
8
BLACK
6
CONTINUOUS
10
78.7237
20
-73.1447
11
78.8461
21
-73.3445
0
LINE
8
BLACK
6
CONTINUOUS
10
78.8461
20
-73.3445
11
78.9996
21
-73.5216
0
LINE
8
BLACK
6
CONTINUOUS
10
78.9996
20
-73.5216
11
79.1799
21
-73.6713
0
LINE
8
BLACK
6
CONTINUOUS
10
79.1799
20
-73.6713
11
79.3822
21
-73.7895
0
LINE
8
BLACK
6
CONTINUOUS
10
79.3822
20
-73.7895
11
79.6011
21
-73.8731
0
LINE
8
BLACK
6
CONTINUOUS
10
79.6011
20
-73.8731
11
79.8307
21
-73.9198
0
LINE
8
BLACK
6
CONTINUOUS
10
79.8307
20
-73.9198
11
80.0649
21
-73.9284
0
LINE
8
BLACK
6
CONTINUOUS
10
80.0649
20
-73.9284
11
80.2973
21
-73.8986
0
LINE
8
BLACK
6
CONTINUOUS
10
80.2973
20
-73.8986
11
80.5217
21
-73.8313
0
LINE
8
BLACK
6
CONTINUOUS
10
80.5217
20
-73.8313
11
80.7322
21
-73.7282
0
LINE
8
BLACK
6
CONTINUOUS
10
80.7322
20
-73.7282
11
80.9229
21
-73.5921
0
LINE
8
BLACK
6
CONTINUOUS
10
80.9229
20
-73.5921
11
81.0889
21
-73.4267
0
LINE
8
BLACK
6
CONTINUOUS
10
81.0889
20
-73.4267
11
81.2257
21
-73.2364
0
LINE
8
BLACK
6
CONTINUOUS
10
81.2257
20
-73.2364
11
81.3295
21
-73.0264
0
LINE
8
BLACK
6
CONTINUOUS
10
81.3295
20
-73.0264
11
81.3976
21
-72.8022
0
LINE
8
BLACK
6
CONTINUOUS
10
81.3976
20
-72.8022
11
81.4282
21
-72.5699
0
LINE
8
BLACK
6
CONTINUOUS
10
81.4282
20
-72.5699
11
81.4299
21
-72.5
0
LINE
8
BLACK
6
CONTINUOUS
10
81.4299
20
-72.5
11
81.4107
21
-72.2665
0
LINE
8
BLACK
6
CONTINUOUS
10
81.4107
20
-72.2665
11
81.3536
21
-72.0392
0
LINE
8
BLACK
6
CONTINUOUS
10
81.3536
20
-72.0392
11
81.2602
21
-71.8243
0
LINE
8
BLACK
6
CONTINUOUS
10
81.2602
20
-71.8243
11
81.1329
21
-71.6276
0
LINE
8
BLACK
6
CONTINUOUS
10
81.1329
20
-71.6276
11
80.9752
21
-71.4542
0
LINE
8
BLACK
6
CONTINUOUS
10
80.9752
20
-71.4542
11
80.7913
21
-71.309
0
LINE
8
BLACK
6
CONTINUOUS
10
80.7913
20
-71.309
11
80.5861
21
-71.1958
0
LINE
8
BLACK
6
CONTINUOUS
10
80.5861
20
-71.1958
11
80.3653
21
-71.1176
0
LINE
8
BLACK
6
CONTINUOUS
10
80.3653
20
-71.1176
11
80.1346
21
-71.0765
0
LINE
8
BLACK
6
CONTINUOUS
10
80.1346
20
-71.0765
11
79.9003
21
-71.0736
0
LINE
8
BLACK
6
CONTINUOUS
10
79.9003
20
-71.0736
11
79.6686
21
-71.109
0
LINE
8
BLACK
6
CONTINUOUS
10
79.6686
20
-71.109
11
79.4459
21
-71.1818
0
LINE
8
BLACK
6
CONTINUOUS
10
79.4459
20
-71.1818
11
79.238
21
-71.29
0
LINE
8
BLACK
6
CONTINUOUS
10
79.238
20
-71.29
11
79.0507
21
-71.4307
0
LINE
8
BLACK
6
CONTINUOUS
10
79.0507
20
-71.4307
11
78.8888
21
-71.6001
0
LINE
8
BLACK
6
CONTINUOUS
10
78.8888
20
-71.6001
11
78.7567
21
-71.7937
0
LINE
8
BLACK
6
CONTINUOUS
10
78.7567
20
-71.7937
11
78.6581
21
-72.0063
0
LINE
8
BLACK
6
CONTINUOUS
10
78.6581
20
-72.0063
11
78.5954
21
-72.2321
0
LINE
8
BLACK
6
CONTINUOUS
10
78.5954
20
-72.2321
11
78.5705
21
-72.4651
0
LINE
8
BLACK
6
CONTINUOUS
10
78.5705
20
-72.4651
11
78.584
21
-72.699
0
LINE
8
BLACK
6
CONTINUOUS
10
78.584
20
-72.699
11
78.6355
21
-72.9276
0
LINE
8
BLACK
6
CONTINUOUS
10
134.502
20
-67.0133
11
134.597
21
-66.785
0
LINE
8
BLACK
6
CONTINUOUS
10
134.597
20
-66.785
11
134.726
21
-66.5742
0
LINE
8
BLACK
6
CONTINUOUS
10
134.726
20
-66.5742
11
134.886
21
-66.3863
0
LINE
8
BLACK
6
CONTINUOUS
10
134.886
20
-66.3863
11
135.074
21
-66.2258
0
LINE
8
BLACK
6
CONTINUOUS
10
135.074
20
-66.2258
11
135.285
21
-66.0967
0
LINE
8
BLACK
6
CONTINUOUS
10
135.285
20
-66.0967
11
135.513
21
-66.0021
0
LINE
8
BLACK
6
CONTINUOUS
10
135.513
20
-66.0021
11
135.754
21
-65.9444
0
LINE
8
BLACK
6
CONTINUOUS
10
135.754
20
-65.9444
11
136
21
-65.925
0
LINE
8
BLACK
6
CONTINUOUS
10
136
20
-65.925
11
136.246
21
-65.9444
0
LINE
8
BLACK
6
CONTINUOUS
10
136.246
20
-65.9444
11
136.487
21
-66.0021
0
LINE
8
BLACK
6
CONTINUOUS
10
136.487
20
-66.0021
11
136.715
21
-66.0967
0
LINE
8
BLACK
6
CONTINUOUS
10
136.715
20
-66.0967
11
136.926
21
-66.2258
0
LINE
8
BLACK
6
CONTINUOUS
10
136.926
20
-66.2258
11
137.114
21
-66.3863
0
LINE
8
BLACK
6
CONTINUOUS
10
137.114
20
-66.3863
11
137.274
21
-66.5742
0
LINE
8
BLACK
6
CONTINUOUS
10
137.274
20
-66.5742
11
137.403
21
-66.785
0
LINE
8
BLACK
6
CONTINUOUS
10
137.403
20
-66.785
11
137.498
21
-67.0133
0
LINE
8
BLACK
6
CONTINUOUS
10
137.498
20
-67.0133
11
137.556
21
-67.2536
0
LINE
8
BLACK
6
CONTINUOUS
10
137.556
20
-67.2536
11
137.575
21
-67.5
0
LINE
8
BLACK
6
CONTINUOUS
10
137.575
20
-67.5
11
137.556
21
-67.7464
0
LINE
8
BLACK
6
CONTINUOUS
10
137.556
20
-67.7464
11
137.498
21
-67.9867
0
LINE
8
BLACK
6
CONTINUOUS
10
137.498
20
-67.9867
11
137.403
21
-68.215
0
LINE
8
BLACK
6
CONTINUOUS
10
137.403
20
-68.215
11
137.274
21
-68.4258
0
LINE
8
BLACK
6
CONTINUOUS
10
137.274
20
-68.4258
11
137.114
21
-68.6137
0
LINE
8
BLACK
6
CONTINUOUS
10
137.114
20
-68.6137
11
136.926
21
-68.7742
0
LINE
8
BLACK
6
CONTINUOUS
10
136.926
20
-68.7742
11
136.715
21
-68.9033
0
LINE
8
BLACK
6
CONTINUOUS
10
136.715
20
-68.9033
11
136.487
21
-68.9979
0
LINE
8
BLACK
6
CONTINUOUS
10
136.487
20
-68.9979
11
136.246
21
-69.0556
0
LINE
8
BLACK
6
CONTINUOUS
10
136.246
20
-69.0556
11
136
21
-69.075
0
LINE
8
BLACK
6
CONTINUOUS
10
136
20
-69.075
11
135.754
21
-69.0556
0
LINE
8
BLACK
6
CONTINUOUS
10
135.754
20
-69.0556
11
135.513
21
-68.9979
0
LINE
8
BLACK
6
CONTINUOUS
10
135.513
20
-68.9979
11
135.285
21
-68.9033
0
LINE
8
BLACK
6
CONTINUOUS
10
135.285
20
-68.9033
11
135.074
21
-68.7742
0
LINE
8
BLACK
6
CONTINUOUS
10
135.074
20
-68.7742
11
134.886
21
-68.6137
0
LINE
8
BLACK
6
CONTINUOUS
10
134.886
20
-68.6137
11
134.726
21
-68.4258
0
LINE
8
BLACK
6
CONTINUOUS
10
134.726
20
-68.4258
11
134.597
21
-68.215
0
LINE
8
BLACK
6
CONTINUOUS
10
134.597
20
-68.215
11
134.502
21
-67.9867
0
LINE
8
BLACK
6
CONTINUOUS
10
134.502
20
-67.9867
11
134.444
21
-67.7464
0
LINE
8
BLACK
6
CONTINUOUS
10
134.444
20
-67.7464
11
134.425
21
-67.5
0
LINE
8
BLACK
6
CONTINUOUS
10
134.425
20
-67.5
11
134.428
21
-67.4651
0
LINE
8
BLACK
6
CONTINUOUS
10
134.428
20
-67.4651
11
134.444
21
-67.2536
0
LINE
8
BLACK
6
CONTINUOUS
10
134.444
20
-67.2536
11
134.502
21
-67.0133
0
LINE
8
BLACK
6
CONTINUOUS
10
134.636
20
-67.9276
11
134.724
21
-68.1447
0
LINE
8
BLACK
6
CONTINUOUS
10
134.724
20
-68.1447
11
134.846
21
-68.3445
0
LINE
8
BLACK
6
CONTINUOUS
10
134.846
20
-68.3445
11
135
21
-68.5216
0
LINE
8
BLACK
6
CONTINUOUS
10
135
20
-68.5216
11
135.18
21
-68.6713
0
LINE
8
BLACK
6
CONTINUOUS
10
135.18
20
-68.6713
11
135.382
21
-68.7895
0
LINE
8
BLACK
6
CONTINUOUS
10
135.382
20
-68.7895
11
135.601
21
-68.8731
0
LINE
8
BLACK
6
CONTINUOUS
10
135.601
20
-68.8731
11
135.831
21
-68.9198
0
LINE
8
BLACK
6
CONTINUOUS
10
135.831
20
-68.9198
11
136.065
21
-68.9284
0
LINE
8
BLACK
6
CONTINUOUS
10
136.065
20
-68.9284
11
136.297
21
-68.8986
0
LINE
8
BLACK
6
CONTINUOUS
10
136.297
20
-68.8986
11
136.522
21
-68.8313
0
LINE
8
BLACK
6
CONTINUOUS
10
136.522
20
-68.8313
11
136.732
21
-68.7282
0
LINE
8
BLACK
6
CONTINUOUS
10
136.732
20
-68.7282
11
136.923
21
-68.5921
0
LINE
8
BLACK
6
CONTINUOUS
10
136.923
20
-68.5921
11
137.089
21
-68.4267
0
LINE
8
BLACK
6
CONTINUOUS
10
137.089
20
-68.4267
11
137.226
21
-68.2364
0
LINE
8
BLACK
6
CONTINUOUS
10
137.226
20
-68.2364
11
137.329
21
-68.0264
0
LINE
8
BLACK
6
CONTINUOUS
10
137.329
20
-68.0264
11
137.398
21
-67.8022
0
LINE
8
BLACK
6
CONTINUOUS
10
137.398
20
-67.8022
11
137.428
21
-67.5699
0
LINE
8
BLACK
6
CONTINUOUS
10
137.428
20
-67.5699
11
137.43
21
-67.5
0
LINE
8
BLACK
6
CONTINUOUS
10
137.43
20
-67.5
11
137.411
21
-67.2665
0
LINE
8
BLACK
6
CONTINUOUS
10
137.411
20
-67.2665
11
137.354
21
-67.0392
0
LINE
8
BLACK
6
CONTINUOUS
10
137.354
20
-67.0392
11
137.26
21
-66.8243
0
LINE
8
BLACK
6
CONTINUOUS
10
137.26
20
-66.8243
11
137.133
21
-66.6276
0
LINE
8
BLACK
6
CONTINUOUS
10
137.133
20
-66.6276
11
136.975
21
-66.4542
0
LINE
8
BLACK
6
CONTINUOUS
10
136.975
20
-66.4542
11
136.791
21
-66.309
0
LINE
8
BLACK
6
CONTINUOUS
10
136.791
20
-66.309
11
136.586
21
-66.1958
0
LINE
8
BLACK
6
CONTINUOUS
10
136.586
20
-66.1958
11
136.365
21
-66.1176
0
LINE
8
BLACK
6
CONTINUOUS
10
136.365
20
-66.1176
11
136.135
21
-66.0765
0
LINE
8
BLACK
6
CONTINUOUS
10
136.135
20
-66.0765
11
135.9
21
-66.0736
0
LINE
8
BLACK
6
CONTINUOUS
10
135.9
20
-66.0736
11
135.669
21
-66.109
0
LINE
8
BLACK
6
CONTINUOUS
10
135.669
20
-66.109
11
135.446
21
-66.1818
0
LINE
8
BLACK
6
CONTINUOUS
10
135.446
20
-66.1818
11
135.238
21
-66.29
0
LINE
8
BLACK
6
CONTINUOUS
10
135.238
20
-66.29
11
135.051
21
-66.4307
0
LINE
8
BLACK
6
CONTINUOUS
10
135.051
20
-66.4307
11
134.889
21
-66.6001
0
LINE
8
BLACK
6
CONTINUOUS
10
134.889
20
-66.6001
11
134.757
21
-66.7937
0
LINE
8
BLACK
6
CONTINUOUS
10
134.757
20
-66.7937
11
134.658
21
-67.0063
0
LINE
8
BLACK
6
CONTINUOUS
10
134.658
20
-67.0063
11
134.595
21
-67.2321
0
LINE
8
BLACK
6
CONTINUOUS
10
134.595
20
-67.2321
11
134.571
21
-67.4651
0
LINE
8
BLACK
6
CONTINUOUS
10
134.571
20
-67.4651
11
134.584
21
-67.699
0
LINE
8
BLACK
6
CONTINUOUS
10
134.584
20
-67.699
11
134.636
21
-67.9276
  0
ENDSEC
  0
EOF
