  0
SECTION
  2
HEADER
  9
$ANGBASE
  50
0.0
  9
$ANGDIR
  70
1
  9
$MEASUREMENT
  70
1
  0
ENDSEC
  0
SECTION
  2
TABLES
  0
TABLE
  2
LTYPE
  70
4
  0
LTYPE
  5
40F
  2
CONTINUOUS
  70
0
  3
Solid line
  72
65
  73
0
  40
0.0
  0
LTYPE
  5
410
  2
DASHDOT
 70
0
  3
Dash Dot ____ _ ____ _
 72
65
 73
4
 40
2.0
 49
1.25
 49
-0.25
 49
0.25
 49
-0.25
  0
LTYPE
  5
411
  2
DASHED
 70
0
  3
Dashed __ __ __ __ __
 72
65
 73
2
 40
0.75
 49
0.5
 49
-0.25
  0
LTYPE
  5
43B
  2
DOTTED
 70
0
  3
Dotted .  .  .  .
 72
65
 73
2
 40
0.2
 49
0.0
 49
-0.2
  0
ENDTAB
  0
TABLE
  2
STYLE
  70
4
  0
STYLE
  2
KICAD
  70
0
  40
0
  41
1
  42
1
  50
0
  71
0
  3
isocp.shx
  0
STYLE
  2
KICADB
  70
0
  40
0
  41
1
  42
1
  50
0
  71
0
  3
isocp.shx
  0
STYLE
  2
KICADI
  70
0
  40
0
  41
1
  42
1
  50
15
  71
0
  3
isocp.shx
  0
STYLE
  2
KICADBI
  70
0
  40
0
  41
1
  42
1
  50
15
  71
0
  3
isocp.shx
  0
ENDTAB
  0
TABLE
  2
LAYER
  70
1
  0
LAYER
  2
BLACK
  70
0
  62
7
  6
CONTINUOUS
  0
ENDTAB
  0
ENDSEC
  0
SECTION
  2
ENTITIES
0
LINE
8
BLACK
6
CONTINUOUS
10
23.5
20
-91
11
26.5
21
-94
0
LINE
8
BLACK
6
CONTINUOUS
10
74.5
20
-79.5
11
60
21
-79.5
0
LINE
8
BLACK
6
CONTINUOUS
10
162.5
20
-142.5
11
162.5
21
-141
0
LINE
8
BLACK
6
CONTINUOUS
10
104.5
20
-141
11
132.5
21
-141
0
LINE
8
BLACK
6
CONTINUOUS
10
144.75
20
-142.5
11
158.75
21
-142.5
0
LINE
8
BLACK
6
CONTINUOUS
10
24.5
20
-79.5
11
24.5
21
-78
0
LINE
8
BLACK
6
CONTINUOUS
10
26
20
-78
11
26
21
-79.5
0
LINE
8
BLACK
6
CONTINUOUS
10
173
20
-108
11
173
21
-86.25
0
LINE
8
BLACK
6
CONTINUOUS
10
160
20
-149
11
160
21
-142.5
0
LINE
8
BLACK
6
CONTINUOUS
10
110
20
-71.5
11
85
21
-71.5
0
LINE
8
BLACK
6
CONTINUOUS
10
169.25
20
-141
11
172
21
-138.25
0
LINE
8
BLACK
6
CONTINUOUS
10
146.5
20
-81.5
11
146.5
21
-79
0
LINE
8
BLACK
6
CONTINUOUS
10
60
20
-78
11
51
21
-78
0
LINE
8
BLACK
6
CONTINUOUS
10
85
20
-118.5
11
104.5
21
-118.5
0
LINE
8
BLACK
6
CONTINUOUS
10
132.5
20
-142.5
11
143.5
21
-142.5
0
LINE
8
BLACK
6
CONTINUOUS
10
35
20
-79.5
11
35
21
-78
0
LINE
8
BLACK
6
CONTINUOUS
10
16.5
20
-80
11
16.5
21
-88
0
LINE
8
BLACK
6
CONTINUOUS
10
16.5
20
-88
11
23.5
21
-88
0
LINE
8
BLACK
6
CONTINUOUS
10
104.5
20
-118.5
11
104.5
21
-141
0
LINE
8
BLACK
6
CONTINUOUS
10
74.5
20
-78
11
74.5
21
-79.5
0
LINE
8
BLACK
6
CONTINUOUS
10
146.5
20
-79
11
123
21
-79
0
LINE
8
BLACK
6
CONTINUOUS
10
18.5
20
-78
11
16.5
21
-80
0
LINE
8
BLACK
6
CONTINUOUS
10
160
20
-142.5
11
162.5
21
-142.5
0
LINE
8
BLACK
6
CONTINUOUS
10
157
20
-81.5
11
170
21
-81.5
0
LINE
8
BLACK
6
CONTINUOUS
10
26.5
20
-94
11
26.5
21
-101.5
0
LINE
8
BLACK
6
CONTINUOUS
10
146.5
20
-81.5
11
150
21
-81.5
0
LINE
8
BLACK
6
CONTINUOUS
10
51
20
-78
11
51
21
-79.5
0
LINE
8
BLACK
6
CONTINUOUS
10
32.5
20
-105
11
32.5
21
-116
0
LINE
8
BLACK
6
CONTINUOUS
10
143.5
20
-149
11
144.75
21
-149
0
LINE
8
BLACK
6
CONTINUOUS
10
172
20
-124.5
11
173
21
-124.5
0
LINE
8
BLACK
6
CONTINUOUS
10
123
20
-78.5
11
123
21
-79
0
LINE
8
BLACK
6
CONTINUOUS
10
143.5
20
-142.5
11
143.5
21
-149
0
LINE
8
BLACK
6
CONTINUOUS
10
132.5
20
-141
11
132.5
21
-142.5
0
LINE
8
BLACK
6
CONTINUOUS
10
173
20
-86.25
11
170
21
-81.5
0
LINE
8
BLACK
6
CONTINUOUS
10
32.5
20
-116
11
35
21
-118.5
0
LINE
8
BLACK
6
CONTINUOUS
10
51
20
-79.5
11
35
21
-79.5
0
LINE
8
BLACK
6
CONTINUOUS
10
158.75
20
-142.5
11
158.75
21
-149
0
LINE
8
BLACK
6
CONTINUOUS
10
60
20
-79.5
11
60
21
-78
0
LINE
8
BLACK
6
CONTINUOUS
10
123
20
-69.5
11
110
21
-69.5
0
LINE
8
BLACK
6
CONTINUOUS
10
158.75
20
-149
11
160
21
-149
0
LINE
8
BLACK
6
CONTINUOUS
10
150
20
-73
11
157
21
-73
0
LINE
8
BLACK
6
CONTINUOUS
10
173
20
-124.5
11
173
21
-108
0
LINE
8
BLACK
6
CONTINUOUS
10
85
20
-71.5
11
85
21
-78
0
LINE
8
BLACK
6
CONTINUOUS
10
110
20
-69.5
11
110
21
-71.5
0
LINE
8
BLACK
6
CONTINUOUS
10
35
20
-118.5
11
85
21
-118.5
0
LINE
8
BLACK
6
CONTINUOUS
10
85
20
-78
11
74.5
21
-78
0
LINE
8
BLACK
6
CONTINUOUS
10
26
20
-79.5
11
24.5
21
-79.5
0
LINE
8
BLACK
6
CONTINUOUS
10
123
20
-78.5
11
123
21
-69.5
0
LINE
8
BLACK
6
CONTINUOUS
10
24.5
20
-78
11
18.5
21
-78
0
LINE
8
BLACK
6
CONTINUOUS
10
35
20
-78
11
26
21
-78
0
LINE
8
BLACK
6
CONTINUOUS
10
157
20
-73
11
157
21
-81.5
0
LINE
8
BLACK
6
CONTINUOUS
10
23.5
20
-88
11
23.5
21
-91
0
LINE
8
BLACK
6
CONTINUOUS
10
162.5
20
-141
11
169.25
21
-141
0
LINE
8
BLACK
6
CONTINUOUS
10
144.75
20
-149
11
144.75
21
-142.5
0
LINE
8
BLACK
6
CONTINUOUS
10
172
20
-138.25
11
172
21
-124.5
0
LINE
8
BLACK
6
CONTINUOUS
10
26.5
20
-101.5
11
30
21
-105
0
LINE
8
BLACK
6
CONTINUOUS
10
30
20
-105
11
32.5
21
-105
0
LINE
8
BLACK
6
CONTINUOUS
10
150
20
-81.5
11
150
21
-73
  0
ENDSEC
  0
EOF
