  0
SECTION
  2
HEADER
  9
$ANGBASE
  50
0.0
  9
$ANGDIR
  70
1
  9
$MEASUREMENT
  70
1
  0
ENDSEC
  0
SECTION
  2
TABLES
  0
TABLE
  2
LTYPE
  70
4
  0
LTYPE
  5
40F
  2
CONTINUOUS
  70
0
  3
Solid line
  72
65
  73
0
  40
0.0
  0
LTYPE
  5
410
  2
DASHDOT
 70
0
  3
Dash Dot ____ _ ____ _
 72
65
 73
4
 40
2.0
 49
1.25
 49
-0.25
 49
0.25
 49
-0.25
  0
LTYPE
  5
411
  2
DASHED
 70
0
  3
Dashed __ __ __ __ __
 72
65
 73
2
 40
0.75
 49
0.5
 49
-0.25
  0
LTYPE
  5
43B
  2
DOTTED
 70
0
  3
Dotted .  .  .  .
 72
65
 73
2
 40
0.2
 49
0.0
 49
-0.2
  0
ENDTAB
  0
TABLE
  2
STYLE
  70
4
  0
STYLE
  2
KICAD
  70
0
  40
0
  41
1
  42
1
  50
0
  71
0
  3
isocp.shx
  0
STYLE
  2
KICADB
  70
0
  40
0
  41
1
  42
1
  50
0
  71
0
  3
isocp.shx
  0
STYLE
  2
KICADI
  70
0
  40
0
  41
1
  42
1
  50
15
  71
0
  3
isocp.shx
  0
STYLE
  2
KICADBI
  70
0
  40
0
  41
1
  42
1
  50
15
  71
0
  3
isocp.shx
  0
ENDTAB
  0
TABLE
  2
LAYER
  70
1
  0
LAYER
  2
BLACK
  70
0
  62
7
  6
CONTINUOUS
  0
ENDTAB
  0
ENDSEC
  0
SECTION
  2
ENTITIES
0
ARC
8
BLACK
10
87.1213
20
-122.376
40
3.1238
50
-177.729
51
-89.9996
0
ARC
8
BLACK
10
19.5
20
-81
40
3
50
90
51
180
0
LINE
8
BLACK
6
CONTINUOUS
10
136.2
20
-71.5
11
127.7
21
-71.5
0
LINE
8
BLACK
6
CONTINUOUS
10
84
20
-72.5
11
84
21
-75
0
ARC
8
BLACK
10
123.149
20
-72.5321
40
3.0325
50
42.0755
51
90.9277
0
ARC
8
BLACK
10
81
20
-121.5
40
3
50
1.90986e-05
51
90
0
ARC
8
BLACK
10
127.7
20
-68.355
40
3.145
50
-136.997
51
-90
0
LINE
8
BLACK
6
CONTINUOUS
10
108
20
-147.5
11
115.5
21
-147.5
0
ARC
8
BLACK
10
94.8787
20
-128.624
40
3.1238
50
2.27133
51
90.0004
0
LINE
8
BLACK
6
CONTINUOUS
10
98
20
-137.8
11
98
21
-128.5
0
ARC
8
BLACK
10
120.371
20
-145.629
40
3.88906
50
-135
51
-95.4785
0
LINE
8
BLACK
6
CONTINUOUS
10
84
20
-121.5
11
84
21
-122.5
0
ARC
8
BLACK
10
35.5
20
-115.5
40
3
50
-180
51
-90
0
LINE
8
BLACK
6
CONTINUOUS
10
81
20
-78
11
19.5
21
-78
0
LINE
8
BLACK
6
CONTINUOUS
10
35.5
20
-118.5
11
81
21
-118.5
0
ARC
8
BLACK
10
115.5
20
-150.5
40
3
50
45
51
90
0
ARC
8
BLACK
10
98.3559
20
-137.817
40
0.356272
50
-182.767
51
-131.072
0
LINE
8
BLACK
6
CONTINUOUS
10
120
20
-149.5
11
160.5
21
-149.5
0
ARC
8
BLACK
10
107.901
20
-146.636
40
0.870074
50
-132.392
51
-83.4533
0
LINE
8
BLACK
6
CONTINUOUS
10
16.5
20
-81
11
16.5
21
-108
0
ARC
8
BLACK
10
29.5
20
-114
40
3
50
-0
51
90
0
LINE
8
BLACK
6
CONTINUOUS
10
136.2
20
-71.5
11
159.65
21
-71.5
0
ARC
8
BLACK
10
19.5
20
-108
40
3
50
-180
51
-90
0
ARC
8
BLACK
10
81
20
-75
40
3
50
-90
51
-0
0
LINE
8
BLACK
6
CONTINUOUS
10
87.1213
20
-125.5
11
94.8787
21
-125.5
0
ARC
8
BLACK
10
135.243
20
-110.05
40
46.8429
50
-57.3716
51
-30.75
0
LINE
8
BLACK
6
CONTINUOUS
10
175.5
20
-87.5
11
175.5
21
-134
0
ARC
8
BLACK
10
87
20
-72.5
40
3
50
90
51
180
0
LINE
8
BLACK
6
CONTINUOUS
10
19.5
20
-111
11
29.5
21
-111
0
LINE
8
BLACK
6
CONTINUOUS
10
123.1
20
-69.5
11
87
21
-69.5
0
LINE
8
BLACK
6
CONTINUOUS
10
32.5
20
-114
11
32.5
21
-115.5
0
ARC
8
BLACK
10
135.833
20
-110.945
40
46.0775
50
30.5845
51
58.8758
0
LINE
8
BLACK
6
CONTINUOUS
10
101.162
20
-141.126
11
98.1218
21
-138.086
0
LINE
8
BLACK
6
CONTINUOUS
10
104.274
20
-144.238
11
107.314
21
-147.278
0
LINE
8
BLACK
6
CONTINUOUS
10
104.981
20
-143.531
11
104.274
21
-144.238
0
LINE
8
BLACK
6
CONTINUOUS
10
104.981
20
-142.965
11
102.435
21
-140.419
0
LINE
8
BLACK
6
CONTINUOUS
10
101.869
20
-140.419
11
101.162
21
-141.126
0
ARC
8
BLACK
10
102.152
20
-140.702
40
0.400001
50
45.0001
51
135
0
ARC
8
BLACK
10
104.698
20
-143.248
40
0.4
50
-45
51
45
0
CIRCLE
8
BLACK
10
151.75
20
-118.865
40
1
  0
ENDSEC
  0
EOF
