  0
SECTION
  2
HEADER
  9
$ANGBASE
  50
0.0
  9
$ANGDIR
  70
1
  9
$MEASUREMENT
  70
1
  0
ENDSEC
  0
SECTION
  2
TABLES
  0
TABLE
  2
LTYPE
  70
4
  0
LTYPE
  5
40F
  2
CONTINUOUS
  70
0
  3
Solid line
  72
65
  73
0
  40
0.0
  0
LTYPE
  5
410
  2
DASHDOT
 70
0
  3
Dash Dot ____ _ ____ _
 72
65
 73
4
 40
2.0
 49
1.25
 49
-0.25
 49
0.25
 49
-0.25
  0
LTYPE
  5
411
  2
DASHED
 70
0
  3
Dashed __ __ __ __ __
 72
65
 73
2
 40
0.75
 49
0.5
 49
-0.25
  0
LTYPE
  5
43B
  2
DOTTED
 70
0
  3
Dotted .  .  .  .
 72
65
 73
2
 40
0.2
 49
0.0
 49
-0.2
  0
ENDTAB
  0
TABLE
  2
STYLE
  70
4
  0
STYLE
  2
KICAD
  70
0
  40
0
  41
1
  42
1
  50
0
  71
0
  3
isocp.shx
  0
STYLE
  2
KICADB
  70
0
  40
0
  41
1
  42
1
  50
0
  71
0
  3
isocp.shx
  0
STYLE
  2
KICADI
  70
0
  40
0
  41
1
  42
1
  50
15
  71
0
  3
isocp.shx
  0
STYLE
  2
KICADBI
  70
0
  40
0
  41
1
  42
1
  50
15
  71
0
  3
isocp.shx
  0
ENDTAB
  0
TABLE
  2
LAYER
  70
1
  0
LAYER
  2
BLACK
  70
0
  62
7
  6
CONTINUOUS
  0
ENDTAB
  0
ENDSEC
  0
SECTION
  2
ENTITIES
0
ARC
8
BLACK
10
139.5
20
-145.7
40
3
50
-0
51
90
0
LINE
8
BLACK
6
CONTINUOUS
10
129.5
20
-63.5
11
129.5
21
-64
0
ARC
8
BLACK
10
176.2
20
-114
40
3
50
-180
51
-90
0
LINE
8
BLACK
6
CONTINUOUS
10
142.5
20
-63.3
11
129.5
21
-63.3
0
ARC
8
BLACK
10
21.25
20
-101.5
40
3
50
-90
51
-0
0
ARC
8
BLACK
10
73.5
20
-122
40
3
50
90
51
180
0
LINE
8
BLACK
6
CONTINUOUS
10
70.5
20
-122
11
70.5
21
-134.5
0
ARC
8
BLACK
10
80.5
20
-122
40
3
50
-0
51
90
0
LINE
8
BLACK
6
CONTINUOUS
10
142.5
20
-149.1
11
160.9
21
-149.1
0
LINE
8
BLACK
6
CONTINUOUS
10
160.9
20
-149.1
11
160.9
21
-158
0
LINE
8
BLACK
6
CONTINUOUS
10
160.9
20
-158
11
142.5
21
-158
0
LINE
8
BLACK
6
CONTINUOUS
10
142.5
20
-158
11
142.5
21
-149.1
0
CIRCLE
8
BLACK
10
136
20
-74.5
40
0.8
0
LINE
8
BLACK
6
CONTINUOUS
10
3.5
20
-104.5
11
21.25
21
-104.5
0
CIRCLE
8
BLACK
10
19.5
20
-98
40
0.8
0
LINE
8
BLACK
6
CONTINUOUS
10
173.2
20
-107
11
173.2
21
-114
0
ARC
8
BLACK
10
132.5
20
-145.7
40
3
50
90
51
180
0
LINE
8
BLACK
6
CONTINUOUS
10
188.7
20
-117
11
188.7
21
-104
0
LINE
8
BLACK
6
CONTINUOUS
10
129.5
20
-145.7
11
129.5
21
-158.2
0
LINE
8
BLACK
6
CONTINUOUS
10
188.2
20
-104
11
176.2
21
-104
0
LINE
8
BLACK
6
CONTINUOUS
10
142.5
20
-157.7
11
142.5
21
-145.7
0
LINE
8
BLACK
6
CONTINUOUS
10
188.5
20
-104
11
188
21
-104
0
LINE
8
BLACK
6
CONTINUOUS
10
3.5
20
-91.5
11
3.5
21
-104.5
0
LINE
8
BLACK
6
CONTINUOUS
10
142.5
20
-158
11
142.5
21
-157.5
0
LINE
8
BLACK
6
CONTINUOUS
10
83.5
20
-62
11
70.5
21
-62
0
LINE
8
BLACK
6
CONTINUOUS
10
83.5
20
-133.25
11
83.5
21
-132.75
0
LINE
8
BLACK
6
CONTINUOUS
10
142.5
20
-75.8
11
142.5
21
-63.3
0
LINE
8
BLACK
6
CONTINUOUS
10
176.2
20
-117
11
188.7
21
-117
0
ARC
8
BLACK
10
80.5
20
-74.5
40
3
50
-90
51
-0
0
ARC
8
BLACK
10
176.2
20
-107
40
3
50
90
51
180
0
LINE
8
BLACK
6
CONTINUOUS
10
139.5
20
-142.7
11
132.5
21
-142.7
0
ARC
8
BLACK
10
139.5
20
-75.8
40
3
50
-90
51
-0
0
LINE
8
BLACK
6
CONTINUOUS
10
80.5
20
-119
11
73.5
21
-119
0
LINE
8
BLACK
6
CONTINUOUS
10
73.5
20
-77.5
11
80.5
21
-77.5
0
LINE
8
BLACK
6
CONTINUOUS
10
129.5
20
-158.2
11
142.5
21
-158.2
0
CIRCLE
8
BLACK
10
136
20
-146.5
40
0.8
0
LINE
8
BLACK
6
CONTINUOUS
10
21.25
20
-91.5
11
3.5
21
-91.5
0
LINE
8
BLACK
6
CONTINUOUS
10
129.5
20
-63.8
11
129.5
21
-75.8
0
LINE
8
BLACK
6
CONTINUOUS
10
132.5
20
-78.8
11
139.5
21
-78.8
0
ARC
8
BLACK
10
73.5
20
-74.5
40
3
50
-180
51
-90
0
LINE
8
BLACK
6
CONTINUOUS
10
70.5
20
-134.5
11
83.5
21
-134.5
0
LINE
8
BLACK
6
CONTINUOUS
10
70.5
20
-62
11
70.5
21
-74.5
0
LINE
8
BLACK
6
CONTINUOUS
10
83.5
20
-74.5
11
83.5
21
-62
0
LINE
8
BLACK
6
CONTINUOUS
10
24.25
20
-101.5
11
24.25
21
-94.5
0
ARC
8
BLACK
10
21.25
20
-94.5
40
3
50
-0
51
90
0
ARC
8
BLACK
10
132.5
20
-75.8
40
3
50
-180
51
-90
0
LINE
8
BLACK
6
CONTINUOUS
10
83.5
20
-134.5
11
83.5
21
-122
  0
ENDSEC
  0
EOF
