  0
SECTION
  2
HEADER
  9
$ANGBASE
  50
0.0
  9
$ANGDIR
  70
1
  9
$MEASUREMENT
  70
1
  0
ENDSEC
  0
SECTION
  2
TABLES
  0
TABLE
  2
LTYPE
  70
4
  0
LTYPE
  5
40F
  2
CONTINUOUS
  70
0
  3
Solid line
  72
65
  73
0
  40
0.0
  0
LTYPE
  5
410
  2
DASHDOT
 70
0
  3
Dash Dot ____ _ ____ _
 72
65
 73
4
 40
2.0
 49
1.25
 49
-0.25
 49
0.25
 49
-0.25
  0
LTYPE
  5
411
  2
DASHED
 70
0
  3
Dashed __ __ __ __ __
 72
65
 73
2
 40
0.75
 49
0.5
 49
-0.25
  0
LTYPE
  5
43B
  2
DOTTED
 70
0
  3
Dotted .  .  .  .
 72
65
 73
2
 40
0.2
 49
0.0
 49
-0.2
  0
ENDTAB
  0
TABLE
  2
STYLE
  70
4
  0
STYLE
  2
KICAD
  70
0
  40
0
  41
1
  42
1
  50
0
  71
0
  3
isocp.shx
  0
STYLE
  2
KICADB
  70
0
  40
0
  41
1
  42
1
  50
0
  71
0
  3
isocp.shx
  0
STYLE
  2
KICADI
  70
0
  40
0
  41
1
  42
1
  50
15
  71
0
  3
isocp.shx
  0
STYLE
  2
KICADBI
  70
0
  40
0
  41
1
  42
1
  50
15
  71
0
  3
isocp.shx
  0
ENDTAB
  0
TABLE
  2
LAYER
  70
1
  0
LAYER
  2
BLACK
  70
0
  62
7
  6
CONTINUOUS
  0
ENDTAB
  0
ENDSEC
  0
SECTION
  2
ENTITIES
0
LINE
8
BLACK
6
CONTINUOUS
10
132
20
-137
11
132
21
-85
0
LINE
8
BLACK
6
CONTINUOUS
10
132
20
-85
11
141
21
-85
0
LINE
8
BLACK
6
CONTINUOUS
10
141
20
-85
11
141
21
-137
0
LINE
8
BLACK
6
CONTINUOUS
10
141
20
-137
11
132
21
-137
0
LINE
8
BLACK
6
CONTINUOUS
10
67.9
20
-102.6
11
67.9
21
-93.4
0
LINE
8
BLACK
6
CONTINUOUS
10
67.9
20
-93.4
11
77.1
21
-93.4
0
LINE
8
BLACK
6
CONTINUOUS
10
77.1
20
-93.4
11
77.1
21
-102.6
0
LINE
8
BLACK
6
CONTINUOUS
10
77.1
20
-102.6
11
67.9
21
-102.6
0
LINE
8
BLACK
6
CONTINUOUS
10
115.9
20
-75.1
11
115.9
21
-70.9
0
LINE
8
BLACK
6
CONTINUOUS
10
120.1
20
-70.9
11
120.1
21
-75.1
0
LINE
8
BLACK
6
CONTINUOUS
10
120.1
20
-75.1
11
115.9
21
-75.1
0
LINE
8
BLACK
6
CONTINUOUS
10
115.9
20
-70.9
11
120.1
21
-70.9
0
CIRCLE
8
BLACK
10
119.54
20
-126.5
40
2.45
0
LINE
8
BLACK
6
CONTINUOUS
10
80.4
20
-93.4
11
89.6
21
-93.4
0
LINE
8
BLACK
6
CONTINUOUS
10
89.6
20
-102.6
11
80.4
21
-102.6
0
LINE
8
BLACK
6
CONTINUOUS
10
80.4
20
-102.6
11
80.4
21
-93.4
0
LINE
8
BLACK
6
CONTINUOUS
10
89.6
20
-93.4
11
89.6
21
-102.6
0
LINE
8
BLACK
6
CONTINUOUS
10
34.9
20
-115.1
11
34.9
21
-105.9
0
LINE
8
BLACK
6
CONTINUOUS
10
34.9
20
-105.9
11
44.1
21
-105.9
0
LINE
8
BLACK
6
CONTINUOUS
10
44.1
20
-115.1
11
34.9
21
-115.1
0
LINE
8
BLACK
6
CONTINUOUS
10
44.1
20
-105.9
11
44.1
21
-115.1
0
LINE
8
BLACK
6
CONTINUOUS
10
64.6
20
-93.4
11
64.6
21
-102.6
0
LINE
8
BLACK
6
CONTINUOUS
10
64.6
20
-102.6
11
55.4
21
-102.6
0
LINE
8
BLACK
6
CONTINUOUS
10
55.4
20
-93.4
11
64.6
21
-93.4
0
LINE
8
BLACK
6
CONTINUOUS
10
55.4
20
-102.6
11
55.4
21
-93.4
0
LINE
8
BLACK
6
CONTINUOUS
10
111.35
20
-74.65
11
113.65
21
-74.65
0
LINE
8
BLACK
6
CONTINUOUS
10
113.65
20
-74.65
11
113.65
21
-71.35
0
LINE
8
BLACK
6
CONTINUOUS
10
113.65
20
-71.35
11
111.35
21
-71.35
0
LINE
8
BLACK
6
CONTINUOUS
10
111.35
20
-71.35
11
111.35
21
-74.65
0
LINE
8
BLACK
6
CONTINUOUS
10
109.9
20
-105.9
11
119.1
21
-105.9
0
LINE
8
BLACK
6
CONTINUOUS
10
109.9
20
-115.1
11
109.9
21
-105.9
0
LINE
8
BLACK
6
CONTINUOUS
10
119.1
20
-105.9
11
119.1
21
-115.1
0
LINE
8
BLACK
6
CONTINUOUS
10
119.1
20
-115.1
11
109.9
21
-115.1
0
LINE
8
BLACK
6
CONTINUOUS
10
88.4
20
-90.1
11
88.4
21
-80.9
0
LINE
8
BLACK
6
CONTINUOUS
10
88.4
20
-80.9
11
97.6
21
-80.9
0
LINE
8
BLACK
6
CONTINUOUS
10
97.6
20
-90.1
11
88.4
21
-90.1
0
LINE
8
BLACK
6
CONTINUOUS
10
97.6
20
-80.9
11
97.6
21
-90.1
0
LINE
8
BLACK
6
CONTINUOUS
10
114.6
20
-93.4
11
114.6
21
-102.6
0
LINE
8
BLACK
6
CONTINUOUS
10
114.6
20
-102.6
11
105.4
21
-102.6
0
LINE
8
BLACK
6
CONTINUOUS
10
105.4
20
-93.4
11
114.6
21
-93.4
0
LINE
8
BLACK
6
CONTINUOUS
10
105.4
20
-102.6
11
105.4
21
-93.4
0
LINE
8
BLACK
6
CONTINUOUS
10
38.4
20
-90.1
11
38.4
21
-80.9
0
LINE
8
BLACK
6
CONTINUOUS
10
47.6
20
-90.1
11
38.4
21
-90.1
0
LINE
8
BLACK
6
CONTINUOUS
10
47.6
20
-80.9
11
47.6
21
-90.1
0
LINE
8
BLACK
6
CONTINUOUS
10
38.4
20
-80.9
11
47.6
21
-80.9
0
LINE
8
BLACK
6
CONTINUOUS
10
59.9
20
-105.9
11
69.1
21
-105.9
0
LINE
8
BLACK
6
CONTINUOUS
10
69.1
20
-105.9
11
69.1
21
-115.1
0
LINE
8
BLACK
6
CONTINUOUS
10
69.1
20
-115.1
11
59.9
21
-115.1
0
LINE
8
BLACK
6
CONTINUOUS
10
59.9
20
-115.1
11
59.9
21
-105.9
0
CIRCLE
8
BLACK
10
167
20
-88.03
40
3.5
0
LINE
8
BLACK
6
CONTINUOUS
10
92.9
20
-93.4
11
102.1
21
-93.4
0
LINE
8
BLACK
6
CONTINUOUS
10
102.1
20
-93.4
11
102.1
21
-102.6
0
LINE
8
BLACK
6
CONTINUOUS
10
102.1
20
-102.6
11
92.9
21
-102.6
0
LINE
8
BLACK
6
CONTINUOUS
10
92.9
20
-102.6
11
92.9
21
-93.4
0
LINE
8
BLACK
6
CONTINUOUS
10
163.75
20
-131.9
11
163.75
21
-129.5
0
LINE
8
BLACK
6
CONTINUOUS
10
170.25
20
-129.5
11
170.25
21
-131.9
0
LINE
8
BLACK
6
CONTINUOUS
10
163.75
20
-129.5
11
165.1
21
-127
0
LINE
8
BLACK
6
CONTINUOUS
10
169.7
20
-132.45
11
164.3
21
-132.45
0
LINE
8
BLACK
6
CONTINUOUS
10
170.25
20
-129.5
11
168.9
21
-127
0
ARC
8
BLACK
10
164.3
20
-131.9
40
0.549999
50
-180
51
-89.9999
0
ARC
8
BLACK
10
169.7
20
-131.9
40
0.55
50
-90
51
-0
0
ARC
8
BLACK
10
167
20
-128.2
40
2.24722
50
32.2756
51
147.724
0
LINE
8
BLACK
6
CONTINUOUS
10
81.6
20
-115.1
11
72.4
21
-115.1
0
LINE
8
BLACK
6
CONTINUOUS
10
72.4
20
-115.1
11
72.4
21
-105.9
0
LINE
8
BLACK
6
CONTINUOUS
10
72.4
20
-105.9
11
81.6
21
-105.9
0
LINE
8
BLACK
6
CONTINUOUS
10
81.6
20
-105.9
11
81.6
21
-115.1
0
LINE
8
BLACK
6
CONTINUOUS
10
56.6
20
-105.9
11
56.6
21
-115.1
0
LINE
8
BLACK
6
CONTINUOUS
10
47.4
20
-115.1
11
47.4
21
-105.9
0
LINE
8
BLACK
6
CONTINUOUS
10
56.6
20
-115.1
11
47.4
21
-115.1
0
LINE
8
BLACK
6
CONTINUOUS
10
47.4
20
-105.9
11
56.6
21
-105.9
0
LINE
8
BLACK
6
CONTINUOUS
10
106.6
20
-115.1
11
97.4
21
-115.1
0
LINE
8
BLACK
6
CONTINUOUS
10
97.4
20
-105.9
11
106.6
21
-105.9
0
LINE
8
BLACK
6
CONTINUOUS
10
106.6
20
-105.9
11
106.6
21
-115.1
0
LINE
8
BLACK
6
CONTINUOUS
10
97.4
20
-115.1
11
97.4
21
-105.9
0
CIRCLE
8
BLACK
10
167
20
-103.03
40
3.5
0
LINE
8
BLACK
6
CONTINUOUS
10
63.4
20
-90.1
11
63.4
21
-80.9
0
LINE
8
BLACK
6
CONTINUOUS
10
72.6
20
-90.1
11
63.4
21
-90.1
0
LINE
8
BLACK
6
CONTINUOUS
10
72.6
20
-80.9
11
72.6
21
-90.1
0
LINE
8
BLACK
6
CONTINUOUS
10
63.4
20
-80.9
11
72.6
21
-80.9
0
LINE
8
BLACK
6
CONTINUOUS
10
22.6
20
-80.9
11
22.6
21
-85.1
0
LINE
8
BLACK
6
CONTINUOUS
10
18.4
20
-85.1
11
18.4
21
-80.9
0
LINE
8
BLACK
6
CONTINUOUS
10
18.4
20
-80.9
11
22.6
21
-80.9
0
LINE
8
BLACK
6
CONTINUOUS
10
22.6
20
-85.1
11
18.4
21
-85.1
0
LINE
8
BLACK
6
CONTINUOUS
10
85.1
20
-90.1
11
75.9
21
-90.1
0
LINE
8
BLACK
6
CONTINUOUS
10
75.9
20
-90.1
11
75.9
21
-80.9
0
LINE
8
BLACK
6
CONTINUOUS
10
85.1
20
-80.9
11
85.1
21
-90.1
0
LINE
8
BLACK
6
CONTINUOUS
10
75.9
20
-80.9
11
85.1
21
-80.9
0
LINE
8
BLACK
6
CONTINUOUS
10
94.1
20
-115.1
11
84.9
21
-115.1
0
LINE
8
BLACK
6
CONTINUOUS
10
84.9
20
-115.1
11
84.9
21
-105.9
0
LINE
8
BLACK
6
CONTINUOUS
10
94.1
20
-105.9
11
94.1
21
-115.1
0
LINE
8
BLACK
6
CONTINUOUS
10
84.9
20
-105.9
11
94.1
21
-105.9
0
LINE
8
BLACK
6
CONTINUOUS
10
42.9
20
-102.6
11
42.9
21
-93.4
0
LINE
8
BLACK
6
CONTINUOUS
10
52.1
20
-93.4
11
52.1
21
-102.6
0
LINE
8
BLACK
6
CONTINUOUS
10
52.1
20
-102.6
11
42.9
21
-102.6
0
LINE
8
BLACK
6
CONTINUOUS
10
42.9
20
-93.4
11
52.1
21
-93.4
0
CIRCLE
8
BLACK
10
167
20
-118
40
3.5
0
LINE
8
BLACK
6
CONTINUOUS
10
100.9
20
-80.9
11
110.1
21
-80.9
0
LINE
8
BLACK
6
CONTINUOUS
10
100.9
20
-90.1
11
100.9
21
-80.9
0
LINE
8
BLACK
6
CONTINUOUS
10
110.1
20
-80.9
11
110.1
21
-90.1
0
LINE
8
BLACK
6
CONTINUOUS
10
110.1
20
-90.1
11
100.9
21
-90.1
0
LINE
8
BLACK
6
CONTINUOUS
10
50.9
20
-90.1
11
50.9
21
-80.9
0
LINE
8
BLACK
6
CONTINUOUS
10
50.9
20
-80.9
11
60.1
21
-80.9
0
LINE
8
BLACK
6
CONTINUOUS
10
60.1
20
-80.9
11
60.1
21
-90.1
0
LINE
8
BLACK
6
CONTINUOUS
10
60.1
20
-90.1
11
50.9
21
-90.1
0
LINE
8
BLACK
6
CONTINUOUS
10
25.9
20
-80.9
11
35.1
21
-80.9
0
LINE
8
BLACK
6
CONTINUOUS
10
35.1
20
-80.9
11
35.1
21
-90.1
0
LINE
8
BLACK
6
CONTINUOUS
10
25.9
20
-90.1
11
25.9
21
-80.9
0
LINE
8
BLACK
6
CONTINUOUS
10
35.1
20
-90.1
11
25.9
21
-90.1
0
LINE
8
BLACK
6
CONTINUOUS
10
164.3
20
-133.55
11
169.7
21
-133.55
0
LINE
8
BLACK
6
CONTINUOUS
10
170.25
20
-136.5
11
168.9
21
-139
0
LINE
8
BLACK
6
CONTINUOUS
10
163.75
20
-136.5
11
165.1
21
-139
0
LINE
8
BLACK
6
CONTINUOUS
10
170.25
20
-134.1
11
170.25
21
-136.5
0
LINE
8
BLACK
6
CONTINUOUS
10
163.75
20
-136.5
11
163.75
21
-134.1
0
ARC
8
BLACK
10
169.7
20
-134.1
40
0.549999
50
-0.000104174
51
90.0001
0
ARC
8
BLACK
10
167
20
-137.8
40
2.24722
50
-147.724
51
-32.2756
0
ARC
8
BLACK
10
164.3
20
-134.1
40
0.55
50
90
51
180
0
LINE
8
BLACK
6
CONTINUOUS
10
39.6
20
-102.6
11
30.4
21
-102.6
0
LINE
8
BLACK
6
CONTINUOUS
10
30.4
20
-102.6
11
30.4
21
-93.4
0
LINE
8
BLACK
6
CONTINUOUS
10
30.4
20
-93.4
11
39.6
21
-93.4
0
LINE
8
BLACK
6
CONTINUOUS
10
39.6
20
-93.4
11
39.6
21
-102.6
  0
ENDSEC
  0
EOF
