  0
SECTION
  2
HEADER
  9
$ANGBASE
  50
0.0
  9
$ANGDIR
  70
1
  9
$MEASUREMENT
  70
1
  0
ENDSEC
  0
SECTION
  2
TABLES
  0
TABLE
  2
LTYPE
  70
4
  0
LTYPE
  5
40F
  2
CONTINUOUS
  70
0
  3
Solid line
  72
65
  73
0
  40
0.0
  0
LTYPE
  5
410
  2
DASHDOT
 70
0
  3
Dash Dot ____ _ ____ _
 72
65
 73
4
 40
2.0
 49
1.25
 49
-0.25
 49
0.25
 49
-0.25
  0
LTYPE
  5
411
  2
DASHED
 70
0
  3
Dashed __ __ __ __ __
 72
65
 73
2
 40
0.75
 49
0.5
 49
-0.25
  0
LTYPE
  5
43B
  2
DOTTED
 70
0
  3
Dotted .  .  .  .
 72
65
 73
2
 40
0.2
 49
0.0
 49
-0.2
  0
ENDTAB
  0
TABLE
  2
STYLE
  70
4
  0
STYLE
  2
KICAD
  70
0
  40
0
  41
1
  42
1
  50
0
  71
0
  3
isocp.shx
  0
STYLE
  2
KICADB
  70
0
  40
0
  41
1
  42
1
  50
0
  71
0
  3
isocp.shx
  0
STYLE
  2
KICADI
  70
0
  40
0
  41
1
  42
1
  50
15
  71
0
  3
isocp.shx
  0
STYLE
  2
KICADBI
  70
0
  40
0
  41
1
  42
1
  50
15
  71
0
  3
isocp.shx
  0
ENDTAB
  0
TABLE
  2
LAYER
  70
1
  0
LAYER
  2
BLACK
  70
0
  62
7
  6
CONTINUOUS
  0
ENDTAB
  0
ENDSEC
  0
SECTION
  2
ENTITIES
0
LINE
8
BLACK
6
CONTINUOUS
10
128.5
20
-146.5
11
128.5
21
-149.5
0
LINE
8
BLACK
6
CONTINUOUS
10
121
20
-71.5
11
121
21
-70.5
0
LINE
8
BLACK
6
CONTINUOUS
10
110.5
20
-80.5
11
17.5
21
-80.5
0
LINE
8
BLACK
6
CONTINUOUS
10
171.1
20
-82
11
172.5
21
-83.8
0
LINE
8
BLACK
6
CONTINUOUS
10
99
20
-137.5
11
100
21
-138.5
0
LINE
8
BLACK
6
CONTINUOUS
10
33
20
-104.5
11
33
21
-116
0
LINE
8
BLACK
6
CONTINUOUS
10
145
20
-82
11
145
21
-71.5
0
LINE
8
BLACK
6
CONTINUOUS
10
161.2
20
-82
11
145
21
-82
0
LINE
8
BLACK
6
CONTINUOUS
10
171.1
20
-82
11
161.2
21
-82
0
LINE
8
BLACK
6
CONTINUOUS
10
108
20
-146.5
11
128.5
21
-146.5
0
LINE
8
BLACK
6
CONTINUOUS
10
99
20
-116
11
99
21
-137.5
0
LINE
8
BLACK
6
CONTINUOUS
10
105.3
20
-145.2
11
106.3
21
-146.2
0
LINE
8
BLACK
6
CONTINUOUS
10
106.3
20
-146.2
11
107
21
-145.5
0
LINE
8
BLACK
6
CONTINUOUS
10
107
20
-145.5
11
108
21
-146.5
0
LINE
8
BLACK
6
CONTINUOUS
10
142.5
20
-149.5
11
160.7
21
-149.5
0
LINE
8
BLACK
6
CONTINUOUS
10
17.5
20
-80.5
11
17.5
21
-86
0
LINE
8
BLACK
6
CONTINUOUS
10
145
20
-71.5
11
121
21
-71.5
0
LINE
8
BLACK
6
CONTINUOUS
10
114.5
20
-70.5
11
114.5
21
-70
0
LINE
8
BLACK
6
CONTINUOUS
10
170.5
20
-140
11
170.5
21
-126
0
LINE
8
BLACK
6
CONTINUOUS
10
99.3
20
-139.2
11
105.3
21
-145.2
0
LINE
8
BLACK
6
CONTINUOUS
10
114.5
20
-70
11
110.5
21
-70
0
LINE
8
BLACK
6
CONTINUOUS
10
160.7
20
-140
11
170.5
21
-140
0
LINE
8
BLACK
6
CONTINUOUS
10
128.5
20
-149.5
11
142.5
21
-149.5
0
LINE
8
BLACK
6
CONTINUOUS
10
16.5
20
-104.5
11
25
21
-104.5
0
LINE
8
BLACK
6
CONTINUOUS
10
110.5
20
-70
11
110.5
21
-80.5
0
LINE
8
BLACK
6
CONTINUOUS
10
33
20
-116
11
99
21
-116
0
LINE
8
BLACK
6
CONTINUOUS
10
121
20
-70.5
11
114.5
21
-70.5
0
LINE
8
BLACK
6
CONTINUOUS
10
172.5
20
-126
11
172.5
21
-83.8
0
LINE
8
BLACK
6
CONTINUOUS
10
16.5
20
-86
11
17.5
21
-86
0
LINE
8
BLACK
6
CONTINUOUS
10
160.7
20
-149.5
11
160.7
21
-140
0
LINE
8
BLACK
6
CONTINUOUS
10
25
20
-104.5
11
33
21
-104.5
0
LINE
8
BLACK
6
CONTINUOUS
10
170.5
20
-126
11
172.5
21
-126
0
LINE
8
BLACK
6
CONTINUOUS
10
100
20
-138.5
11
99.3
21
-139.2
0
LINE
8
BLACK
6
CONTINUOUS
10
16.5
20
-86
11
16.5
21
-104.5
  0
ENDSEC
  0
EOF
