  0
SECTION
  2
HEADER
  9
$ANGBASE
  50
0.0
  9
$ANGDIR
  70
1
  9
$MEASUREMENT
  70
1
  0
ENDSEC
  0
SECTION
  2
TABLES
  0
TABLE
  2
LTYPE
  70
4
  0
LTYPE
  5
40F
  2
CONTINUOUS
  70
0
  3
Solid line
  72
65
  73
0
  40
0.0
  0
LTYPE
  5
410
  2
DASHDOT
 70
0
  3
Dash Dot ____ _ ____ _
 72
65
 73
4
 40
2.0
 49
1.25
 49
-0.25
 49
0.25
 49
-0.25
  0
LTYPE
  5
411
  2
DASHED
 70
0
  3
Dashed __ __ __ __ __
 72
65
 73
2
 40
0.75
 49
0.5
 49
-0.25
  0
LTYPE
  5
43B
  2
DOTTED
 70
0
  3
Dotted .  .  .  .
 72
65
 73
2
 40
0.2
 49
0.0
 49
-0.2
  0
ENDTAB
  0
TABLE
  2
STYLE
  70
4
  0
STYLE
  2
KICAD
  70
0
  40
0
  41
1
  42
1
  50
0
  71
0
  3
isocp.shx
  0
STYLE
  2
KICADB
  70
0
  40
0
  41
1
  42
1
  50
0
  71
0
  3
isocp.shx
  0
STYLE
  2
KICADI
  70
0
  40
0
  41
1
  42
1
  50
15
  71
0
  3
isocp.shx
  0
STYLE
  2
KICADBI
  70
0
  40
0
  41
1
  42
1
  50
15
  71
0
  3
isocp.shx
  0
ENDTAB
  0
TABLE
  2
LAYER
  70
1
  0
LAYER
  2
BLACK
  70
0
  62
7
  6
CONTINUOUS
  0
ENDTAB
  0
ENDSEC
  0
SECTION
  2
ENTITIES
0
LINE
8
BLACK
6
CONTINUOUS
10
102.705
20
-142.645
11
101.3
21
-144.1
0
LINE
8
BLACK
6
CONTINUOUS
10
98.2
20
-71.7
11
87.8
21
-71.7
0
LINE
8
BLACK
6
CONTINUOUS
10
98.2
20
-79.1
11
98.2
21
-71.7
0
LINE
8
BLACK
6
CONTINUOUS
10
87.8
20
-71.7
11
87.8
21
-79.1
0
LINE
8
BLACK
6
CONTINUOUS
10
87.8
20
-79.1
11
98.2
21
-79.1
0
LINE
8
BLACK
6
CONTINUOUS
10
98.37
20
-76.48
11
98.37
21
-73.52
0
LINE
8
BLACK
6
CONTINUOUS
10
98.37
20
-73.52
11
99.83
21
-73.52
0
LINE
8
BLACK
6
CONTINUOUS
10
99.83
20
-73.52
11
99.83
21
-76.48
0
LINE
8
BLACK
6
CONTINUOUS
10
99.83
20
-76.48
11
98.37
21
-76.48
0
LINE
8
BLACK
6
CONTINUOUS
10
158.97
20
-96.58
11
158.97
21
-93.62
0
LINE
8
BLACK
6
CONTINUOUS
10
160.43
20
-96.58
11
158.97
21
-96.58
0
LINE
8
BLACK
6
CONTINUOUS
10
158.97
20
-93.62
11
160.43
21
-93.62
0
LINE
8
BLACK
6
CONTINUOUS
10
160.43
20
-93.62
11
160.43
21
-96.58
0
LINE
8
BLACK
6
CONTINUOUS
10
122.65
20
-106.22
11
122.65
21
-109.58
0
LINE
8
BLACK
6
CONTINUOUS
10
120.75
20
-106.22
11
122.65
21
-106.22
0
LINE
8
BLACK
6
CONTINUOUS
10
122.65
20
-109.58
11
120.75
21
-109.58
0
LINE
8
BLACK
6
CONTINUOUS
10
120.75
20
-109.58
11
120.75
21
-106.22
0
LINE
8
BLACK
6
CONTINUOUS
10
118.72
20
-140.1
11
118.72
21
-136.7
0
LINE
8
BLACK
6
CONTINUOUS
10
118.72
20
-136.7
11
120.68
21
-136.7
0
LINE
8
BLACK
6
CONTINUOUS
10
120.68
20
-136.7
11
120.68
21
-140.1
0
LINE
8
BLACK
6
CONTINUOUS
10
120.68
20
-140.1
11
118.72
21
-140.1
0
LINE
8
BLACK
6
CONTINUOUS
10
78.5
20
-93.5
11
78.5
21
-102.5
0
LINE
8
BLACK
6
CONTINUOUS
10
78.5
20
-102.5
11
77
21
-104
0
LINE
8
BLACK
6
CONTINUOUS
10
77
20
-104
11
68
21
-104
0
LINE
8
BLACK
6
CONTINUOUS
10
68
20
-104
11
66.5
21
-102.5
0
LINE
8
BLACK
6
CONTINUOUS
10
66.5
20
-102.5
11
66.5
21
-93.5
0
LINE
8
BLACK
6
CONTINUOUS
10
66.5
20
-93.5
11
68
21
-92
0
LINE
8
BLACK
6
CONTINUOUS
10
68
20
-92
11
77
21
-92
0
LINE
8
BLACK
6
CONTINUOUS
10
77
20
-92
11
78.5
21
-93.5
0
LINE
8
BLACK
6
CONTINUOUS
10
123.88
20
-136.63
11
120.92
21
-136.63
0
LINE
8
BLACK
6
CONTINUOUS
10
120.92
20
-135.17
11
123.88
21
-135.17
0
LINE
8
BLACK
6
CONTINUOUS
10
120.92
20
-136.63
11
120.92
21
-135.17
0
LINE
8
BLACK
6
CONTINUOUS
10
123.88
20
-135.17
11
123.88
21
-136.63
0
LINE
8
BLACK
6
CONTINUOUS
10
115
20
-70
11
121
21
-70
0
LINE
8
BLACK
6
CONTINUOUS
10
121
20
-70
11
121
21
-76
0
LINE
8
BLACK
6
CONTINUOUS
10
121
20
-76
11
115
21
-76
0
LINE
8
BLACK
6
CONTINUOUS
10
115
20
-76
11
115
21
-70
0
LINE
8
BLACK
6
CONTINUOUS
10
130.42
20
-145.83
11
130.42
21
-144.37
0
LINE
8
BLACK
6
CONTINUOUS
10
133.38
20
-145.83
11
130.42
21
-145.83
0
LINE
8
BLACK
6
CONTINUOUS
10
130.42
20
-144.37
11
133.38
21
-144.37
0
LINE
8
BLACK
6
CONTINUOUS
10
133.38
20
-144.37
11
133.38
21
-145.83
0
LINE
8
BLACK
6
CONTINUOUS
10
133.38
20
-140.97
11
133.38
21
-142.43
0
LINE
8
BLACK
6
CONTINUOUS
10
130.42
20
-140.97
11
133.38
21
-140.97
0
LINE
8
BLACK
6
CONTINUOUS
10
130.42
20
-142.43
11
130.42
21
-140.97
0
LINE
8
BLACK
6
CONTINUOUS
10
133.38
20
-142.43
11
130.42
21
-142.43
0
LINE
8
BLACK
6
CONTINUOUS
10
116.29
20
-123.25
11
116.29
21
-129.75
0
LINE
8
BLACK
6
CONTINUOUS
10
122.79
20
-129.75
11
122.79
21
-123.25
0
LINE
8
BLACK
6
CONTINUOUS
10
122.79
20
-123.25
11
116.29
21
-123.25
0
LINE
8
BLACK
6
CONTINUOUS
10
116.29
20
-129.75
11
122.79
21
-129.75
0
LINE
8
BLACK
6
CONTINUOUS
10
159.67
20
-90.18
11
159.67
21
-87.22
0
LINE
8
BLACK
6
CONTINUOUS
10
161.13
20
-87.22
11
161.13
21
-90.18
0
LINE
8
BLACK
6
CONTINUOUS
10
159.67
20
-87.22
11
161.13
21
-87.22
0
LINE
8
BLACK
6
CONTINUOUS
10
161.13
20
-90.18
11
159.67
21
-90.18
0
LINE
8
BLACK
6
CONTINUOUS
10
111.67
20
-145.063
11
110.637
21
-144.03
0
LINE
8
BLACK
6
CONTINUOUS
10
110.637
20
-144.03
11
112.73
21
-141.937
0
LINE
8
BLACK
6
CONTINUOUS
10
112.73
20
-141.937
11
113.763
21
-142.97
0
LINE
8
BLACK
6
CONTINUOUS
10
113.763
20
-142.97
11
111.67
21
-145.063
0
LINE
8
BLACK
6
CONTINUOUS
10
91
20
-93.5
11
91
21
-102.5
0
LINE
8
BLACK
6
CONTINUOUS
10
91
20
-102.5
11
89.5
21
-104
0
LINE
8
BLACK
6
CONTINUOUS
10
89.5
20
-104
11
80.5
21
-104
0
LINE
8
BLACK
6
CONTINUOUS
10
80.5
20
-104
11
79
21
-102.5
0
LINE
8
BLACK
6
CONTINUOUS
10
79
20
-102.5
11
79
21
-93.5
0
LINE
8
BLACK
6
CONTINUOUS
10
79
20
-93.5
11
80.5
21
-92
0
LINE
8
BLACK
6
CONTINUOUS
10
80.5
20
-92
11
89.5
21
-92
0
LINE
8
BLACK
6
CONTINUOUS
10
89.5
20
-92
11
91
21
-93.5
0
LINE
8
BLACK
6
CONTINUOUS
10
45.5
20
-106
11
45.5
21
-115
0
LINE
8
BLACK
6
CONTINUOUS
10
45.5
20
-115
11
44
21
-116.5
0
LINE
8
BLACK
6
CONTINUOUS
10
44
20
-116.5
11
35
21
-116.5
0
LINE
8
BLACK
6
CONTINUOUS
10
35
20
-116.5
11
33.5
21
-115
0
LINE
8
BLACK
6
CONTINUOUS
10
33.5
20
-115
11
33.5
21
-106
0
LINE
8
BLACK
6
CONTINUOUS
10
33.5
20
-106
11
35
21
-104.5
0
LINE
8
BLACK
6
CONTINUOUS
10
35
20
-104.5
11
44
21
-104.5
0
LINE
8
BLACK
6
CONTINUOUS
10
44
20
-104.5
11
45.5
21
-106
0
LINE
8
BLACK
6
CONTINUOUS
10
165.795
20
-77.1919
11
166.149
21
-76.8383
0
LINE
8
BLACK
6
CONTINUOUS
10
166.962
20
-76.9444
11
167.811
21
-77.7929
0
LINE
8
BLACK
6
CONTINUOUS
10
167.917
20
-78.6061
11
167.563
21
-78.9596
0
LINE
8
BLACK
6
CONTINUOUS
10
167.563
20
-78.9596
11
166.679
21
-78.0757
0
LINE
8
BLACK
6
CONTINUOUS
10
166.679
20
-78.0757
11
165.795
21
-77.1919
0
LINE
8
BLACK
6
CONTINUOUS
10
166.149
20
-76.8383
11
166.255
21
-76.9444
0
LINE
8
BLACK
6
CONTINUOUS
10
167.811
20
-78.5
11
167.917
21
-78.6061
0
ARC
8
BLACK
10
167.457
20
-78.1464
40
0.499999
50
-45.0001
51
45
0
ARC
8
BLACK
10
166.609
20
-77.2979
40
0.500002
50
45.0002
51
135
0
LINE
8
BLACK
6
CONTINUOUS
10
139.73
20
-108.73
11
138.27
21
-108.73
0
LINE
8
BLACK
6
CONTINUOUS
10
138.27
20
-105.77
11
139.73
21
-105.77
0
LINE
8
BLACK
6
CONTINUOUS
10
138.27
20
-108.73
11
138.27
21
-105.77
0
LINE
8
BLACK
6
CONTINUOUS
10
139.73
20
-105.77
11
139.73
21
-108.73
0
LINE
8
BLACK
6
CONTINUOUS
10
154.98
20
-90
11
153.02
21
-90
0
LINE
8
BLACK
6
CONTINUOUS
10
153.02
20
-90
11
153.02
21
-86.6
0
LINE
8
BLACK
6
CONTINUOUS
10
153.02
20
-86.6
11
154.98
21
-86.6
0
LINE
8
BLACK
6
CONTINUOUS
10
154.98
20
-86.6
11
154.98
21
-90
0
LINE
8
BLACK
6
CONTINUOUS
10
148.95
20
-110.52
11
148.95
21
-113.88
0
LINE
8
BLACK
6
CONTINUOUS
10
148.95
20
-113.88
11
147.05
21
-113.88
0
LINE
8
BLACK
6
CONTINUOUS
10
147.05
20
-113.88
11
147.05
21
-110.52
0
LINE
8
BLACK
6
CONTINUOUS
10
147.05
20
-110.52
11
148.95
21
-110.52
0
LINE
8
BLACK
6
CONTINUOUS
10
136.77
20
-105.77
11
138.23
21
-105.77
0
LINE
8
BLACK
6
CONTINUOUS
10
138.23
20
-108.73
11
136.77
21
-108.73
0
LINE
8
BLACK
6
CONTINUOUS
10
138.23
20
-105.77
11
138.23
21
-108.73
0
LINE
8
BLACK
6
CONTINUOUS
10
136.77
20
-108.73
11
136.77
21
-105.77
0
LINE
8
BLACK
6
CONTINUOUS
10
66
20
-93.5
11
66
21
-102.5
0
LINE
8
BLACK
6
CONTINUOUS
10
66
20
-102.5
11
64.5
21
-104
0
LINE
8
BLACK
6
CONTINUOUS
10
64.5
20
-104
11
55.5
21
-104
0
LINE
8
BLACK
6
CONTINUOUS
10
55.5
20
-104
11
54
21
-102.5
0
LINE
8
BLACK
6
CONTINUOUS
10
54
20
-102.5
11
54
21
-93.5
0
LINE
8
BLACK
6
CONTINUOUS
10
54
20
-93.5
11
55.5
21
-92
0
LINE
8
BLACK
6
CONTINUOUS
10
55.5
20
-92
11
64.5
21
-92
0
LINE
8
BLACK
6
CONTINUOUS
10
64.5
20
-92
11
66
21
-93.5
0
LINE
8
BLACK
6
CONTINUOUS
10
133.38
20
-142.67
11
133.38
21
-144.13
0
LINE
8
BLACK
6
CONTINUOUS
10
130.42
20
-142.67
11
133.38
21
-142.67
0
LINE
8
BLACK
6
CONTINUOUS
10
133.38
20
-144.13
11
130.42
21
-144.13
0
LINE
8
BLACK
6
CONTINUOUS
10
130.42
20
-144.13
11
130.42
21
-142.67
0
LINE
8
BLACK
6
CONTINUOUS
10
159.65
20
-84.2875
11
157.75
21
-84.2875
0
LINE
8
BLACK
6
CONTINUOUS
10
157.75
20
-80.9275
11
159.65
21
-80.9275
0
LINE
8
BLACK
6
CONTINUOUS
10
159.65
20
-80.9275
11
159.65
21
-84.2875
0
LINE
8
BLACK
6
CONTINUOUS
10
157.75
20
-84.2875
11
157.75
21
-80.9275
0
LINE
8
BLACK
6
CONTINUOUS
10
110.9
20
-75.72
11
114.1
21
-75.72
0
LINE
8
BLACK
6
CONTINUOUS
10
110.9
20
-70.27
11
110.9
21
-75.72
0
LINE
8
BLACK
6
CONTINUOUS
10
114.1
20
-75.72
11
114.1
21
-70.27
0
LINE
8
BLACK
6
CONTINUOUS
10
114.1
20
-70.27
11
110.9
21
-70.27
0
LINE
8
BLACK
6
CONTINUOUS
10
120.5
20
-106
11
120.5
21
-115
0
LINE
8
BLACK
6
CONTINUOUS
10
120.5
20
-115
11
119
21
-116.5
0
LINE
8
BLACK
6
CONTINUOUS
10
119
20
-116.5
11
110
21
-116.5
0
LINE
8
BLACK
6
CONTINUOUS
10
110
20
-116.5
11
108.5
21
-115
0
LINE
8
BLACK
6
CONTINUOUS
10
108.5
20
-115
11
108.5
21
-106
0
LINE
8
BLACK
6
CONTINUOUS
10
108.5
20
-106
11
110
21
-104.5
0
LINE
8
BLACK
6
CONTINUOUS
10
110
20
-104.5
11
119
21
-104.5
0
LINE
8
BLACK
6
CONTINUOUS
10
119
20
-104.5
11
120.5
21
-106
0
LINE
8
BLACK
6
CONTINUOUS
10
118.05
20
-96.32
11
119.95
21
-96.32
0
LINE
8
BLACK
6
CONTINUOUS
10
118.05
20
-99.68
11
118.05
21
-96.32
0
LINE
8
BLACK
6
CONTINUOUS
10
119.95
20
-99.68
11
118.05
21
-99.68
0
LINE
8
BLACK
6
CONTINUOUS
10
119.95
20
-96.32
11
119.95
21
-99.68
0
LINE
8
BLACK
6
CONTINUOUS
10
171.85
20
-131.433
11
173.75
21
-131.433
0
LINE
8
BLACK
6
CONTINUOUS
10
171.85
20
-134.792
11
171.85
21
-131.433
0
LINE
8
BLACK
6
CONTINUOUS
10
173.75
20
-131.433
11
173.75
21
-134.792
0
LINE
8
BLACK
6
CONTINUOUS
10
173.75
20
-134.792
11
171.85
21
-134.792
0
LINE
8
BLACK
6
CONTINUOUS
10
118.73
20
-129.92
11
118.73
21
-132.88
0
LINE
8
BLACK
6
CONTINUOUS
10
117.27
20
-132.88
11
117.27
21
-129.92
0
LINE
8
BLACK
6
CONTINUOUS
10
118.73
20
-132.88
11
117.27
21
-132.88
0
LINE
8
BLACK
6
CONTINUOUS
10
117.27
20
-129.92
11
118.73
21
-129.92
0
LINE
8
BLACK
6
CONTINUOUS
10
99
20
-81
11
99
21
-90
0
LINE
8
BLACK
6
CONTINUOUS
10
99
20
-90
11
97.5
21
-91.5
0
LINE
8
BLACK
6
CONTINUOUS
10
97.5
20
-91.5
11
88.5
21
-91.5
0
LINE
8
BLACK
6
CONTINUOUS
10
88.5
20
-91.5
11
87
21
-90
0
LINE
8
BLACK
6
CONTINUOUS
10
87
20
-90
11
87
21
-81
0
LINE
8
BLACK
6
CONTINUOUS
10
87
20
-81
11
88.5
21
-79.5
0
LINE
8
BLACK
6
CONTINUOUS
10
88.5
20
-79.5
11
97.5
21
-79.5
0
LINE
8
BLACK
6
CONTINUOUS
10
97.5
20
-79.5
11
99
21
-81
0
LINE
8
BLACK
6
CONTINUOUS
10
116
20
-93.5
11
116
21
-102.5
0
LINE
8
BLACK
6
CONTINUOUS
10
116
20
-102.5
11
114.5
21
-104
0
LINE
8
BLACK
6
CONTINUOUS
10
114.5
20
-104
11
105.5
21
-104
0
LINE
8
BLACK
6
CONTINUOUS
10
105.5
20
-104
11
104
21
-102.5
0
LINE
8
BLACK
6
CONTINUOUS
10
104
20
-102.5
11
104
21
-93.5
0
LINE
8
BLACK
6
CONTINUOUS
10
104
20
-93.5
11
105.5
21
-92
0
LINE
8
BLACK
6
CONTINUOUS
10
105.5
20
-92
11
114.5
21
-92
0
LINE
8
BLACK
6
CONTINUOUS
10
114.5
20
-92
11
116
21
-93.5
0
LINE
8
BLACK
6
CONTINUOUS
10
49
20
-81
11
49
21
-90
0
LINE
8
BLACK
6
CONTINUOUS
10
49
20
-90
11
47.5
21
-91.5
0
LINE
8
BLACK
6
CONTINUOUS
10
47.5
20
-91.5
11
38.5
21
-91.5
0
LINE
8
BLACK
6
CONTINUOUS
10
38.5
20
-91.5
11
37
21
-90
0
LINE
8
BLACK
6
CONTINUOUS
10
37
20
-90
11
37
21
-81
0
LINE
8
BLACK
6
CONTINUOUS
10
37
20
-81
11
38.5
21
-79.5
0
LINE
8
BLACK
6
CONTINUOUS
10
38.5
20
-79.5
11
47.5
21
-79.5
0
LINE
8
BLACK
6
CONTINUOUS
10
47.5
20
-79.5
11
49
21
-81
0
LINE
8
BLACK
6
CONTINUOUS
10
120.47
20
-129.92
11
121.93
21
-129.92
0
LINE
8
BLACK
6
CONTINUOUS
10
120.47
20
-132.88
11
120.47
21
-129.92
0
LINE
8
BLACK
6
CONTINUOUS
10
121.93
20
-129.92
11
121.93
21
-132.88
0
LINE
8
BLACK
6
CONTINUOUS
10
121.93
20
-132.88
11
120.47
21
-132.88
0
LINE
8
BLACK
6
CONTINUOUS
10
158.18
20
-98.83
11
155.22
21
-98.83
0
LINE
8
BLACK
6
CONTINUOUS
10
155.22
20
-97.37
11
158.18
21
-97.37
0
LINE
8
BLACK
6
CONTINUOUS
10
158.18
20
-97.37
11
158.18
21
-98.83
0
LINE
8
BLACK
6
CONTINUOUS
10
155.22
20
-98.83
11
155.22
21
-97.37
0
LINE
8
BLACK
6
CONTINUOUS
10
70.5
20
-106
11
70.5
21
-115
0
LINE
8
BLACK
6
CONTINUOUS
10
70.5
20
-115
11
69
21
-116.5
0
LINE
8
BLACK
6
CONTINUOUS
10
69
20
-116.5
11
60
21
-116.5
0
LINE
8
BLACK
6
CONTINUOUS
10
60
20
-116.5
11
58.5
21
-115
0
LINE
8
BLACK
6
CONTINUOUS
10
58.5
20
-115
11
58.5
21
-106
0
LINE
8
BLACK
6
CONTINUOUS
10
58.5
20
-106
11
60
21
-104.5
0
LINE
8
BLACK
6
CONTINUOUS
10
60
20
-104.5
11
69
21
-104.5
0
LINE
8
BLACK
6
CONTINUOUS
10
69
20
-104.5
11
70.5
21
-106
0
LINE
8
BLACK
6
CONTINUOUS
10
155.2
20
-76.3275
11
155.2
21
-78.2875
0
LINE
8
BLACK
6
CONTINUOUS
10
155.2
20
-78.2875
11
151.8
21
-78.2875
0
LINE
8
BLACK
6
CONTINUOUS
10
151.8
20
-78.2875
11
151.8
21
-76.3275
0
LINE
8
BLACK
6
CONTINUOUS
10
151.8
20
-76.3275
11
155.2
21
-76.3275
0
LINE
8
BLACK
6
CONTINUOUS
10
171.9
20
-93.53
11
162.1
21
-93.53
0
LINE
8
BLACK
6
CONTINUOUS
10
162.1
20
-93.53
11
162.1
21
-82.53
0
LINE
8
BLACK
6
CONTINUOUS
10
162.1
20
-82.53
11
171.9
21
-82.53
0
LINE
8
BLACK
6
CONTINUOUS
10
171.9
20
-82.53
11
171.9
21
-93.53
0
LINE
8
BLACK
6
CONTINUOUS
10
145.75
20
-94.8
11
145.75
21
-100.75
0
LINE
8
BLACK
6
CONTINUOUS
10
148.25
20
-93.65
11
146.9
21
-93.65
0
LINE
8
BLACK
6
CONTINUOUS
10
152.85
20
-100.75
11
150.35
21
-100.75
0
LINE
8
BLACK
6
CONTINUOUS
10
146.9
20
-93.65
11
145.75
21
-94.8
0
LINE
8
BLACK
6
CONTINUOUS
10
148.25
20
-92.5
11
148.25
21
-93.65
0
LINE
8
BLACK
6
CONTINUOUS
10
151.7
20
-93.65
11
150.35
21
-93.65
0
LINE
8
BLACK
6
CONTINUOUS
10
150.35
20
-101.9
11
148.25
21
-101.9
0
LINE
8
BLACK
6
CONTINUOUS
10
148.25
20
-100.75
11
145.75
21
-100.75
0
LINE
8
BLACK
6
CONTINUOUS
10
151.7
20
-93.65
11
152.85
21
-94.8
0
LINE
8
BLACK
6
CONTINUOUS
10
148.25
20
-101.9
11
148.25
21
-100.75
0
LINE
8
BLACK
6
CONTINUOUS
10
150.35
20
-92.5
11
148.25
21
-92.5
0
LINE
8
BLACK
6
CONTINUOUS
10
150.35
20
-100.75
11
150.35
21
-101.9
0
LINE
8
BLACK
6
CONTINUOUS
10
150.35
20
-93.65
11
150.35
21
-92.5
0
LINE
8
BLACK
6
CONTINUOUS
10
152.85
20
-94.8
11
152.85
21
-100.75
0
LINE
8
BLACK
6
CONTINUOUS
10
138.82
20
-110.85
11
138.82
21
-108.95
0
LINE
8
BLACK
6
CONTINUOUS
10
142.18
20
-108.95
11
142.18
21
-110.85
0
LINE
8
BLACK
6
CONTINUOUS
10
142.18
20
-110.85
11
138.82
21
-110.85
0
LINE
8
BLACK
6
CONTINUOUS
10
138.82
20
-108.95
11
142.18
21
-108.95
0
LINE
8
BLACK
6
CONTINUOUS
10
103.5
20
-93.5
11
103.5
21
-102.5
0
LINE
8
BLACK
6
CONTINUOUS
10
103.5
20
-102.5
11
102
21
-104
0
LINE
8
BLACK
6
CONTINUOUS
10
102
20
-104
11
93
21
-104
0
LINE
8
BLACK
6
CONTINUOUS
10
93
20
-104
11
91.5
21
-102.5
0
LINE
8
BLACK
6
CONTINUOUS
10
91.5
20
-102.5
11
91.5
21
-93.5
0
LINE
8
BLACK
6
CONTINUOUS
10
91.5
20
-93.5
11
93
21
-92
0
LINE
8
BLACK
6
CONTINUOUS
10
93
20
-92
11
102
21
-92
0
LINE
8
BLACK
6
CONTINUOUS
10
102
20
-92
11
103.5
21
-93.5
0
LINE
8
BLACK
6
CONTINUOUS
10
164
20
-126.5
11
170
21
-126.5
0
LINE
8
BLACK
6
CONTINUOUS
10
170
20
-126.5
11
170
21
-132.5
0
LINE
8
BLACK
6
CONTINUOUS
10
170
20
-132.5
11
164
21
-132.5
0
LINE
8
BLACK
6
CONTINUOUS
10
164
20
-132.5
11
164
21
-126.5
0
LINE
8
BLACK
6
CONTINUOUS
10
133.38
20
-138.77
11
133.38
21
-140.23
0
LINE
8
BLACK
6
CONTINUOUS
10
133.38
20
-140.23
11
130.42
21
-140.23
0
LINE
8
BLACK
6
CONTINUOUS
10
130.42
20
-140.23
11
130.42
21
-138.77
0
LINE
8
BLACK
6
CONTINUOUS
10
130.42
20
-138.77
11
133.38
21
-138.77
0
LINE
8
BLACK
6
CONTINUOUS
10
117.063
20
-141.87
11
114.97
21
-143.963
0
LINE
8
BLACK
6
CONTINUOUS
10
114.97
20
-143.963
11
113.937
21
-142.93
0
LINE
8
BLACK
6
CONTINUOUS
10
116.03
20
-140.837
11
117.063
21
-141.87
0
LINE
8
BLACK
6
CONTINUOUS
10
113.937
20
-142.93
11
116.03
21
-140.837
0
LINE
8
BLACK
6
CONTINUOUS
10
83
20
-106
11
83
21
-115
0
LINE
8
BLACK
6
CONTINUOUS
10
83
20
-115
11
81.5
21
-116.5
0
LINE
8
BLACK
6
CONTINUOUS
10
81.5
20
-116.5
11
72.5
21
-116.5
0
LINE
8
BLACK
6
CONTINUOUS
10
72.5
20
-116.5
11
71
21
-115
0
LINE
8
BLACK
6
CONTINUOUS
10
71
20
-115
11
71
21
-106
0
LINE
8
BLACK
6
CONTINUOUS
10
71
20
-106
11
72.5
21
-104.5
0
LINE
8
BLACK
6
CONTINUOUS
10
72.5
20
-104.5
11
81.5
21
-104.5
0
LINE
8
BLACK
6
CONTINUOUS
10
81.5
20
-104.5
11
83
21
-106
0
LINE
8
BLACK
6
CONTINUOUS
10
151.85
20
-78.4762
11
151.85
21
-82.5763
0
LINE
8
BLACK
6
CONTINUOUS
10
151.85
20
-82.5763
11
155.25
21
-82.5763
0
LINE
8
BLACK
6
CONTINUOUS
10
155.25
20
-78.4762
11
151.85
21
-78.4762
0
LINE
8
BLACK
6
CONTINUOUS
10
155.25
20
-82.5763
11
155.25
21
-78.4762
0
LINE
8
BLACK
6
CONTINUOUS
10
58
20
-106
11
58
21
-115
0
LINE
8
BLACK
6
CONTINUOUS
10
58
20
-115
11
56.5
21
-116.5
0
LINE
8
BLACK
6
CONTINUOUS
10
56.5
20
-116.5
11
47.5
21
-116.5
0
LINE
8
BLACK
6
CONTINUOUS
10
47.5
20
-116.5
11
46
21
-115
0
LINE
8
BLACK
6
CONTINUOUS
10
46
20
-115
11
46
21
-106
0
LINE
8
BLACK
6
CONTINUOUS
10
46
20
-106
11
47.5
21
-104.5
0
LINE
8
BLACK
6
CONTINUOUS
10
47.5
20
-104.5
11
56.5
21
-104.5
0
LINE
8
BLACK
6
CONTINUOUS
10
56.5
20
-104.5
11
58
21
-106
0
LINE
8
BLACK
6
CONTINUOUS
10
108
20
-106
11
108
21
-115
0
LINE
8
BLACK
6
CONTINUOUS
10
108
20
-115
11
106.5
21
-116.5
0
LINE
8
BLACK
6
CONTINUOUS
10
106.5
20
-116.5
11
97.5
21
-116.5
0
LINE
8
BLACK
6
CONTINUOUS
10
97.5
20
-116.5
11
96
21
-115
0
LINE
8
BLACK
6
CONTINUOUS
10
96
20
-115
11
96
21
-106
0
LINE
8
BLACK
6
CONTINUOUS
10
96
20
-106
11
97.5
21
-104.5
0
LINE
8
BLACK
6
CONTINUOUS
10
97.5
20
-104.5
11
106.5
21
-104.5
0
LINE
8
BLACK
6
CONTINUOUS
10
106.5
20
-104.5
11
108
21
-106
0
LINE
8
BLACK
6
CONTINUOUS
10
155.22
20
-97.23
11
155.22
21
-95.77
0
LINE
8
BLACK
6
CONTINUOUS
10
158.18
20
-95.77
11
158.18
21
-97.23
0
LINE
8
BLACK
6
CONTINUOUS
10
155.22
20
-95.77
11
158.18
21
-95.77
0
LINE
8
BLACK
6
CONTINUOUS
10
158.18
20
-97.23
11
155.22
21
-97.23
0
LINE
8
BLACK
6
CONTINUOUS
10
139.25
20
-96
11
139.25
21
-88
0
LINE
8
BLACK
6
CONTINUOUS
10
139.25
20
-88
11
133.75
21
-88
0
LINE
8
BLACK
6
CONTINUOUS
10
133.75
20
-88
11
133.75
21
-96
0
LINE
8
BLACK
6
CONTINUOUS
10
133.75
20
-96
11
139.25
21
-96
0
LINE
8
BLACK
6
CONTINUOUS
10
99.95
20
-77.3
11
99.95
21
-72.7
0
LINE
8
BLACK
6
CONTINUOUS
10
99.95
20
-72.7
11
102.25
21
-72.7
0
LINE
8
BLACK
6
CONTINUOUS
10
102.25
20
-72.7
11
102.25
21
-77.3
0
LINE
8
BLACK
6
CONTINUOUS
10
102.25
20
-77.3
11
99.95
21
-77.3
0
LINE
8
BLACK
6
CONTINUOUS
10
109.27
20
-74.48
11
109.27
21
-71.52
0
LINE
8
BLACK
6
CONTINUOUS
10
110.73
20
-74.48
11
109.27
21
-74.48
0
LINE
8
BLACK
6
CONTINUOUS
10
109.27
20
-71.52
11
110.73
21
-71.52
0
LINE
8
BLACK
6
CONTINUOUS
10
110.73
20
-71.52
11
110.73
21
-74.48
0
LINE
8
BLACK
6
CONTINUOUS
10
155.45
20
-80.9275
11
157.35
21
-80.9275
0
LINE
8
BLACK
6
CONTINUOUS
10
155.45
20
-84.2875
11
155.45
21
-80.9275
0
LINE
8
BLACK
6
CONTINUOUS
10
157.35
20
-80.9275
11
157.35
21
-84.2875
0
LINE
8
BLACK
6
CONTINUOUS
10
157.35
20
-84.2875
11
155.45
21
-84.2875
0
LINE
8
BLACK
6
CONTINUOUS
10
171.9
20
-108.53
11
162.1
21
-108.53
0
LINE
8
BLACK
6
CONTINUOUS
10
162.1
20
-108.53
11
162.1
21
-97.53
0
LINE
8
BLACK
6
CONTINUOUS
10
162.1
20
-97.53
11
171.9
21
-97.53
0
LINE
8
BLACK
6
CONTINUOUS
10
171.9
20
-97.53
11
171.9
21
-108.53
0
LINE
8
BLACK
6
CONTINUOUS
10
155.45
20
-77.3275
11
157.35
21
-77.3275
0
LINE
8
BLACK
6
CONTINUOUS
10
157.35
20
-80.6875
11
155.45
21
-80.6875
0
LINE
8
BLACK
6
CONTINUOUS
10
157.35
20
-77.3275
11
157.35
21
-80.6875
0
LINE
8
BLACK
6
CONTINUOUS
10
155.45
20
-80.6875
11
155.45
21
-77.3275
0
LINE
8
BLACK
6
CONTINUOUS
10
74
20
-81
11
74
21
-90
0
LINE
8
BLACK
6
CONTINUOUS
10
74
20
-90
11
72.5
21
-91.5
0
LINE
8
BLACK
6
CONTINUOUS
10
72.5
20
-91.5
11
63.5
21
-91.5
0
LINE
8
BLACK
6
CONTINUOUS
10
63.5
20
-91.5
11
62
21
-90
0
LINE
8
BLACK
6
CONTINUOUS
10
62
20
-90
11
62
21
-81
0
LINE
8
BLACK
6
CONTINUOUS
10
62
20
-81
11
63.5
21
-79.5
0
LINE
8
BLACK
6
CONTINUOUS
10
63.5
20
-79.5
11
72.5
21
-79.5
0
LINE
8
BLACK
6
CONTINUOUS
10
72.5
20
-79.5
11
74
21
-81
0
LINE
8
BLACK
6
CONTINUOUS
10
17.5
20
-86
11
23.5
21
-86
0
LINE
8
BLACK
6
CONTINUOUS
10
23.5
20
-86
11
23.5
21
-80
0
LINE
8
BLACK
6
CONTINUOUS
10
23.5
20
-80
11
17.5
21
-80
0
LINE
8
BLACK
6
CONTINUOUS
10
17.5
20
-80
11
17.5
21
-86
0
LINE
8
BLACK
6
CONTINUOUS
10
158.72
20
-90.38
11
153.48
21
-90.38
0
LINE
8
BLACK
6
CONTINUOUS
10
153.48
20
-95.62
11
158.72
21
-95.62
0
LINE
8
BLACK
6
CONTINUOUS
10
153.48
20
-90.38
11
153.48
21
-95.62
0
LINE
8
BLACK
6
CONTINUOUS
10
158.72
20
-95.62
11
158.72
21
-90.38
0
LINE
8
BLACK
6
CONTINUOUS
10
152.45
20
-92.35
11
152.45
21
-85.65
0
LINE
8
BLACK
6
CONTINUOUS
10
145.95
20
-85.65
11
145.95
21
-92.35
0
LINE
8
BLACK
6
CONTINUOUS
10
145.95
20
-92.35
11
152.45
21
-92.35
0
LINE
8
BLACK
6
CONTINUOUS
10
152.45
20
-85.65
11
145.95
21
-85.65
0
LINE
8
BLACK
6
CONTINUOUS
10
139.25
20
-126
11
133.75
21
-126
0
LINE
8
BLACK
6
CONTINUOUS
10
139.25
20
-134
11
139.25
21
-126
0
LINE
8
BLACK
6
CONTINUOUS
10
133.75
20
-134
11
139.25
21
-134
0
LINE
8
BLACK
6
CONTINUOUS
10
133.75
20
-126
11
133.75
21
-134
0
LINE
8
BLACK
6
CONTINUOUS
10
86.5
20
-81
11
86.5
21
-90
0
LINE
8
BLACK
6
CONTINUOUS
10
86.5
20
-90
11
85
21
-91.5
0
LINE
8
BLACK
6
CONTINUOUS
10
85
20
-91.5
11
76
21
-91.5
0
LINE
8
BLACK
6
CONTINUOUS
10
76
20
-91.5
11
74.5
21
-90
0
LINE
8
BLACK
6
CONTINUOUS
10
74.5
20
-90
11
74.5
21
-81
0
LINE
8
BLACK
6
CONTINUOUS
10
74.5
20
-81
11
76
21
-79.5
0
LINE
8
BLACK
6
CONTINUOUS
10
76
20
-79.5
11
85
21
-79.5
0
LINE
8
BLACK
6
CONTINUOUS
10
85
20
-79.5
11
86.5
21
-81
0
LINE
8
BLACK
6
CONTINUOUS
10
95.5
20
-106
11
95.5
21
-115
0
LINE
8
BLACK
6
CONTINUOUS
10
95.5
20
-115
11
94
21
-116.5
0
LINE
8
BLACK
6
CONTINUOUS
10
94
20
-116.5
11
85
21
-116.5
0
LINE
8
BLACK
6
CONTINUOUS
10
85
20
-116.5
11
83.5
21
-115
0
LINE
8
BLACK
6
CONTINUOUS
10
83.5
20
-115
11
83.5
21
-106
0
LINE
8
BLACK
6
CONTINUOUS
10
83.5
20
-106
11
85
21
-104.5
0
LINE
8
BLACK
6
CONTINUOUS
10
85
20
-104.5
11
94
21
-104.5
0
LINE
8
BLACK
6
CONTINUOUS
10
94
20
-104.5
11
95.5
21
-106
0
LINE
8
BLACK
6
CONTINUOUS
10
53.5
20
-93.5
11
53.5
21
-102.5
0
LINE
8
BLACK
6
CONTINUOUS
10
53.5
20
-102.5
11
52
21
-104
0
LINE
8
BLACK
6
CONTINUOUS
10
52
20
-104
11
43
21
-104
0
LINE
8
BLACK
6
CONTINUOUS
10
43
20
-104
11
41.5
21
-102.5
0
LINE
8
BLACK
6
CONTINUOUS
10
41.5
20
-102.5
11
41.5
21
-93.5
0
LINE
8
BLACK
6
CONTINUOUS
10
41.5
20
-93.5
11
43
21
-92
0
LINE
8
BLACK
6
CONTINUOUS
10
43
20
-92
11
52
21
-92
0
LINE
8
BLACK
6
CONTINUOUS
10
52
20
-92
11
53.5
21
-93.5
0
LINE
8
BLACK
6
CONTINUOUS
10
114.879
20
-144.053
11
112.786
21
-146.146
0
LINE
8
BLACK
6
CONTINUOUS
10
111.754
20
-145.114
11
113.847
21
-143.021
0
LINE
8
BLACK
6
CONTINUOUS
10
112.786
20
-146.146
11
111.754
21
-145.114
0
LINE
8
BLACK
6
CONTINUOUS
10
113.847
20
-143.021
11
114.879
21
-144.053
0
LINE
8
BLACK
6
CONTINUOUS
10
171.9
20
-123.5
11
162.1
21
-123.5
0
LINE
8
BLACK
6
CONTINUOUS
10
162.1
20
-123.5
11
162.1
21
-112.5
0
LINE
8
BLACK
6
CONTINUOUS
10
162.1
20
-112.5
11
171.9
21
-112.5
0
LINE
8
BLACK
6
CONTINUOUS
10
171.9
20
-112.5
11
171.9
21
-123.5
0
LINE
8
BLACK
6
CONTINUOUS
10
152.02
20
-84.2375
11
152.02
21
-82.7775
0
LINE
8
BLACK
6
CONTINUOUS
10
152.02
20
-82.7775
11
154.98
21
-82.7775
0
LINE
8
BLACK
6
CONTINUOUS
10
154.98
20
-82.7775
11
154.98
21
-84.2375
0
LINE
8
BLACK
6
CONTINUOUS
10
154.98
20
-84.2375
11
152.02
21
-84.2375
0
LINE
8
BLACK
6
CONTINUOUS
10
146.95
20
-110.52
11
146.95
21
-113.88
0
LINE
8
BLACK
6
CONTINUOUS
10
145.05
20
-110.52
11
146.95
21
-110.52
0
LINE
8
BLACK
6
CONTINUOUS
10
145.05
20
-113.88
11
145.05
21
-110.52
0
LINE
8
BLACK
6
CONTINUOUS
10
146.95
20
-113.88
11
145.05
21
-113.88
0
LINE
8
BLACK
6
CONTINUOUS
10
155.32
20
-88.13
11
155.32
21
-86.67
0
LINE
8
BLACK
6
CONTINUOUS
10
158.28
20
-88.13
11
155.32
21
-88.13
0
LINE
8
BLACK
6
CONTINUOUS
10
155.32
20
-86.67
11
158.28
21
-86.67
0
LINE
8
BLACK
6
CONTINUOUS
10
158.28
20
-86.67
11
158.28
21
-88.13
0
LINE
8
BLACK
6
CONTINUOUS
10
111.5
20
-81
11
111.5
21
-90
0
LINE
8
BLACK
6
CONTINUOUS
10
111.5
20
-90
11
110
21
-91.5
0
LINE
8
BLACK
6
CONTINUOUS
10
110
20
-91.5
11
101
21
-91.5
0
LINE
8
BLACK
6
CONTINUOUS
10
101
20
-91.5
11
99.5
21
-90
0
LINE
8
BLACK
6
CONTINUOUS
10
99.5
20
-90
11
99.5
21
-81
0
LINE
8
BLACK
6
CONTINUOUS
10
99.5
20
-81
11
101
21
-79.5
0
LINE
8
BLACK
6
CONTINUOUS
10
101
20
-79.5
11
110
21
-79.5
0
LINE
8
BLACK
6
CONTINUOUS
10
110
20
-79.5
11
111.5
21
-81
0
LINE
8
BLACK
6
CONTINUOUS
10
61.5
20
-81
11
61.5
21
-90
0
LINE
8
BLACK
6
CONTINUOUS
10
61.5
20
-90
11
60
21
-91.5
0
LINE
8
BLACK
6
CONTINUOUS
10
60
20
-91.5
11
51
21
-91.5
0
LINE
8
BLACK
6
CONTINUOUS
10
51
20
-91.5
11
49.5
21
-90
0
LINE
8
BLACK
6
CONTINUOUS
10
49.5
20
-90
11
49.5
21
-81
0
LINE
8
BLACK
6
CONTINUOUS
10
49.5
20
-81
11
51
21
-79.5
0
LINE
8
BLACK
6
CONTINUOUS
10
51
20
-79.5
11
60
21
-79.5
0
LINE
8
BLACK
6
CONTINUOUS
10
60
20
-79.5
11
61.5
21
-81
0
LINE
8
BLACK
6
CONTINUOUS
10
173.75
20
-127.807
11
173.75
21
-131.167
0
LINE
8
BLACK
6
CONTINUOUS
10
173.75
20
-131.167
11
171.85
21
-131.167
0
LINE
8
BLACK
6
CONTINUOUS
10
171.85
20
-127.807
11
173.75
21
-127.807
0
LINE
8
BLACK
6
CONTINUOUS
10
171.85
20
-131.167
11
171.85
21
-127.807
0
LINE
8
BLACK
6
CONTINUOUS
10
130.42
20
-146.07
11
133.38
21
-146.07
0
LINE
8
BLACK
6
CONTINUOUS
10
133.38
20
-146.07
11
133.38
21
-147.53
0
LINE
8
BLACK
6
CONTINUOUS
10
133.38
20
-147.53
11
130.42
21
-147.53
0
LINE
8
BLACK
6
CONTINUOUS
10
130.42
20
-147.53
11
130.42
21
-146.07
0
LINE
8
BLACK
6
CONTINUOUS
10
98.1218
20
-138.439
11
100.243
21
-140.561
0
LINE
8
BLACK
6
CONTINUOUS
10
106.961
20
-147.278
11
107.137
21
-147.101
0
LINE
8
BLACK
6
CONTINUOUS
10
119.158
20
-135.081
11
110.319
21
-126.242
0
LINE
8
BLACK
6
CONTINUOUS
10
98.9704
20
-141.833
11
103.567
21
-146.43
0
LINE
8
BLACK
6
CONTINUOUS
10
110.319
20
-126.242
11
98.1218
21
-138.439
0
LINE
8
BLACK
6
CONTINUOUS
10
107.137
20
-147.101
11
119.158
21
-135.081
0
LINE
8
BLACK
6
CONTINUOUS
10
103.567
20
-146.43
11
104.839
21
-145.157
0
LINE
8
BLACK
6
CONTINUOUS
10
100.243
20
-140.561
11
98.9704
21
-141.833
0
LINE
8
BLACK
6
CONTINUOUS
10
104.839
20
-145.157
11
106.961
21
-147.278
0
LINE
8
BLACK
6
CONTINUOUS
10
123.25
20
-71.395
11
125.15
21
-71.395
0
LINE
8
BLACK
6
CONTINUOUS
10
125.15
20
-74.755
11
123.25
21
-74.755
0
LINE
8
BLACK
6
CONTINUOUS
10
123.25
20
-74.755
11
123.25
21
-71.395
0
LINE
8
BLACK
6
CONTINUOUS
10
125.15
20
-71.395
11
125.15
21
-74.755
0
LINE
8
BLACK
6
CONTINUOUS
10
128.65
20
-143.8
11
128.65
21
-136.8
0
LINE
8
BLACK
6
CONTINUOUS
10
128.65
20
-136.8
11
120.95
21
-136.8
0
LINE
8
BLACK
6
CONTINUOUS
10
120.95
20
-143.8
11
128.65
21
-143.8
0
LINE
8
BLACK
6
CONTINUOUS
10
120.95
20
-136.8
11
120.95
21
-143.8
0
LINE
8
BLACK
6
CONTINUOUS
10
36.5
20
-81
11
36.5
21
-90
0
LINE
8
BLACK
6
CONTINUOUS
10
36.5
20
-90
11
35
21
-91.5
0
LINE
8
BLACK
6
CONTINUOUS
10
35
20
-91.5
11
26
21
-91.5
0
LINE
8
BLACK
6
CONTINUOUS
10
26
20
-91.5
11
24.5
21
-90
0
LINE
8
BLACK
6
CONTINUOUS
10
24.5
20
-90
11
24.5
21
-81
0
LINE
8
BLACK
6
CONTINUOUS
10
24.5
20
-81
11
26
21
-79.5
0
LINE
8
BLACK
6
CONTINUOUS
10
26
20
-79.5
11
35
21
-79.5
0
LINE
8
BLACK
6
CONTINUOUS
10
35
20
-79.5
11
36.5
21
-81
0
LINE
8
BLACK
6
CONTINUOUS
10
141.78
20
-113.13
11
138.82
21
-113.13
0
LINE
8
BLACK
6
CONTINUOUS
10
141.78
20
-111.67
11
141.78
21
-113.13
0
LINE
8
BLACK
6
CONTINUOUS
10
138.82
20
-111.67
11
141.78
21
-111.67
0
LINE
8
BLACK
6
CONTINUOUS
10
138.82
20
-113.13
11
138.82
21
-111.67
0
LINE
8
BLACK
6
CONTINUOUS
10
119.27
20
-145.28
11
119.27
21
-142.32
0
LINE
8
BLACK
6
CONTINUOUS
10
120.73
20
-142.32
11
120.73
21
-145.28
0
LINE
8
BLACK
6
CONTINUOUS
10
120.73
20
-145.28
11
119.27
21
-145.28
0
LINE
8
BLACK
6
CONTINUOUS
10
119.27
20
-142.32
11
120.73
21
-142.32
0
LINE
8
BLACK
6
CONTINUOUS
10
155.32
20
-88.47
11
158.28
21
-88.47
0
LINE
8
BLACK
6
CONTINUOUS
10
158.28
20
-88.47
11
158.28
21
-89.93
0
LINE
8
BLACK
6
CONTINUOUS
10
155.32
20
-89.93
11
155.32
21
-88.47
0
LINE
8
BLACK
6
CONTINUOUS
10
158.28
20
-89.93
11
155.32
21
-89.93
0
LINE
8
BLACK
6
CONTINUOUS
10
127.5
20
-135
11
126.15
21
-135
0
LINE
8
BLACK
6
CONTINUOUS
10
126.15
20
-130.2
11
126.15
21
-129.25
0
LINE
8
BLACK
6
CONTINUOUS
10
122.7
20
-131.35
11
122.7
21
-135
0
LINE
8
BLACK
6
CONTINUOUS
10
126.15
20
-129.25
11
124.05
21
-129.25
0
LINE
8
BLACK
6
CONTINUOUS
10
124.05
20
-135
11
122.7
21
-135
0
LINE
8
BLACK
6
CONTINUOUS
10
126.35
20
-130.2
11
126.15
21
-130.2
0
LINE
8
BLACK
6
CONTINUOUS
10
123.85
20
-130.2
11
122.7
21
-131.35
0
LINE
8
BLACK
6
CONTINUOUS
10
124.05
20
-135.95
11
124.05
21
-135
0
LINE
8
BLACK
6
CONTINUOUS
10
126.35
20
-130.2
11
127.5
21
-131.35
0
LINE
8
BLACK
6
CONTINUOUS
10
126.15
20
-135.95
11
124.05
21
-135.95
0
LINE
8
BLACK
6
CONTINUOUS
10
124.05
20
-130.2
11
123.85
21
-130.2
0
LINE
8
BLACK
6
CONTINUOUS
10
127.5
20
-131.35
11
127.5
21
-135
0
LINE
8
BLACK
6
CONTINUOUS
10
126.15
20
-135
11
126.15
21
-135.95
0
LINE
8
BLACK
6
CONTINUOUS
10
124.05
20
-129.25
11
124.05
21
-130.2
0
LINE
8
BLACK
6
CONTINUOUS
10
118.87
20
-132.88
11
118.87
21
-129.92
0
LINE
8
BLACK
6
CONTINUOUS
10
120.33
20
-129.92
11
120.33
21
-132.88
0
LINE
8
BLACK
6
CONTINUOUS
10
120.33
20
-132.88
11
118.87
21
-132.88
0
LINE
8
BLACK
6
CONTINUOUS
10
118.87
20
-129.92
11
120.33
21
-129.92
0
LINE
8
BLACK
6
CONTINUOUS
10
116.62
20
-137.8
11
118.58
21
-137.8
0
LINE
8
BLACK
6
CONTINUOUS
10
116.62
20
-141.2
11
116.62
21
-137.8
0
LINE
8
BLACK
6
CONTINUOUS
10
118.58
20
-141.2
11
116.62
21
-141.2
0
LINE
8
BLACK
6
CONTINUOUS
10
118.58
20
-137.8
11
118.58
21
-141.2
0
LINE
8
BLACK
6
CONTINUOUS
10
113.65
20
-87.28
11
111.75
21
-87.28
0
LINE
8
BLACK
6
CONTINUOUS
10
113.65
20
-83.92
11
113.65
21
-87.28
0
LINE
8
BLACK
6
CONTINUOUS
10
111.75
20
-83.92
11
113.65
21
-83.92
0
LINE
8
BLACK
6
CONTINUOUS
10
111.75
20
-87.28
11
111.75
21
-83.92
0
LINE
8
BLACK
6
CONTINUOUS
10
113.87
20
-142.863
11
112.837
21
-141.83
0
LINE
8
BLACK
6
CONTINUOUS
10
114.93
20
-139.737
11
115.963
21
-140.77
0
LINE
8
BLACK
6
CONTINUOUS
10
115.963
20
-140.77
11
113.87
21
-142.863
0
LINE
8
BLACK
6
CONTINUOUS
10
112.837
20
-141.83
11
114.93
21
-139.737
0
LINE
8
BLACK
6
CONTINUOUS
10
138.6
20
-108.9
11
134.4
21
-108.9
0
LINE
8
BLACK
6
CONTINUOUS
10
134.4
20
-113.1
11
138.6
21
-113.1
0
LINE
8
BLACK
6
CONTINUOUS
10
138.6
20
-113.1
11
138.6
21
-108.9
0
LINE
8
BLACK
6
CONTINUOUS
10
134.4
20
-108.9
11
134.4
21
-113.1
0
LINE
8
BLACK
6
CONTINUOUS
10
170
20
-139.5
11
164
21
-139.5
0
LINE
8
BLACK
6
CONTINUOUS
10
164
20
-139.5
11
164
21
-133.5
0
LINE
8
BLACK
6
CONTINUOUS
10
164
20
-133.5
11
170
21
-133.5
0
LINE
8
BLACK
6
CONTINUOUS
10
170
20
-133.5
11
170
21
-139.5
0
LINE
8
BLACK
6
CONTINUOUS
10
41
20
-93.5
11
41
21
-102.5
0
LINE
8
BLACK
6
CONTINUOUS
10
41
20
-102.5
11
39.5
21
-104
0
LINE
8
BLACK
6
CONTINUOUS
10
39.5
20
-104
11
30.5
21
-104
0
LINE
8
BLACK
6
CONTINUOUS
10
30.5
20
-104
11
29
21
-102.5
0
LINE
8
BLACK
6
CONTINUOUS
10
29
20
-102.5
11
29
21
-93.5
0
LINE
8
BLACK
6
CONTINUOUS
10
29
20
-93.5
11
30.5
21
-92
0
LINE
8
BLACK
6
CONTINUOUS
10
30.5
20
-92
11
39.5
21
-92
0
LINE
8
BLACK
6
CONTINUOUS
10
39.5
20
-92
11
41
21
-93.5
0
LINE
8
BLACK
6
CONTINUOUS
10
161.93
20
-96.58
11
160.47
21
-96.58
0
LINE
8
BLACK
6
CONTINUOUS
10
161.93
20
-93.62
11
161.93
21
-96.58
0
LINE
8
BLACK
6
CONTINUOUS
10
160.47
20
-96.58
11
160.47
21
-93.62
0
LINE
8
BLACK
6
CONTINUOUS
10
160.47
20
-93.62
11
161.93
21
-93.62
0
LINE
8
BLACK
6
CONTINUOUS
10
130.42
20
-138.03
11
130.42
21
-136.57
0
LINE
8
BLACK
6
CONTINUOUS
10
130.42
20
-136.57
11
133.38
21
-136.57
0
LINE
8
BLACK
6
CONTINUOUS
10
133.38
20
-136.57
11
133.38
21
-138.03
0
LINE
8
BLACK
6
CONTINUOUS
10
133.38
20
-138.03
11
130.42
21
-138.03
0
LINE
8
BLACK
6
CONTINUOUS
10
160.65
20
-149.665
11
142.85
21
-149.665
0
LINE
8
BLACK
6
CONTINUOUS
10
142.85
20
-149.665
11
142.85
21
-114.065
0
LINE
8
BLACK
6
CONTINUOUS
10
142.85
20
-114.065
11
160.65
21
-114.065
0
LINE
8
BLACK
6
CONTINUOUS
10
160.65
20
-114.065
11
160.65
21
-149.665
  0
ENDSEC
  0
EOF
