  0
SECTION
  2
HEADER
  9
$ANGBASE
  50
0.0
  9
$ANGDIR
  70
1
  9
$MEASUREMENT
  70
1
  0
ENDSEC
  0
SECTION
  2
TABLES
  0
TABLE
  2
LTYPE
  70
4
  0
LTYPE
  5
40F
  2
CONTINUOUS
  70
0
  3
Solid line
  72
65
  73
0
  40
0.0
  0
LTYPE
  5
410
  2
DASHDOT
 70
0
  3
Dash Dot ____ _ ____ _
 72
65
 73
4
 40
2.0
 49
1.25
 49
-0.25
 49
0.25
 49
-0.25
  0
LTYPE
  5
411
  2
DASHED
 70
0
  3
Dashed __ __ __ __ __
 72
65
 73
2
 40
0.75
 49
0.5
 49
-0.25
  0
LTYPE
  5
43B
  2
DOTTED
 70
0
  3
Dotted .  .  .  .
 72
65
 73
2
 40
0.2
 49
0.0
 49
-0.2
  0
ENDTAB
  0
TABLE
  2
STYLE
  70
4
  0
STYLE
  2
KICAD
  70
0
  40
0
  41
1
  42
1
  50
0
  71
0
  3
isocp.shx
  0
STYLE
  2
KICADB
  70
0
  40
0
  41
1
  42
1
  50
0
  71
0
  3
isocp.shx
  0
STYLE
  2
KICADI
  70
0
  40
0
  41
1
  42
1
  50
15
  71
0
  3
isocp.shx
  0
STYLE
  2
KICADBI
  70
0
  40
0
  41
1
  42
1
  50
15
  71
0
  3
isocp.shx
  0
ENDTAB
  0
TABLE
  2
LAYER
  70
1
  0
LAYER
  2
BLACK
  70
0
  62
7
  6
CONTINUOUS
  0
ENDTAB
  0
ENDSEC
  0
SECTION
  2
ENTITIES
0
LINE
8
BLACK
6
CONTINUOUS
10
97.95
20
-73.45
11
97.95
21
-77.35
0
LINE
8
BLACK
6
CONTINUOUS
10
89.025
20
-77.35
11
88.05
21
-76.375
0
LINE
8
BLACK
6
CONTINUOUS
10
88.05
20
-76.375
11
88.05
21
-73.45
0
LINE
8
BLACK
6
CONTINUOUS
10
88.05
20
-73.45
11
97.95
21
-73.45
0
LINE
8
BLACK
6
CONTINUOUS
10
97.95
20
-77.35
11
89.025
21
-77.35
0
LINE
8
BLACK
6
CONTINUOUS
10
99.5
20
-75.8
11
98.7
21
-75.8
0
LINE
8
BLACK
6
CONTINUOUS
10
99.5
20
-74.2
11
99.5
21
-75.8
0
LINE
8
BLACK
6
CONTINUOUS
10
98.7
20
-75.8
11
98.7
21
-74.2
0
LINE
8
BLACK
6
CONTINUOUS
10
98.7
20
-74.2
11
99.5
21
-74.2
0
LINE
8
BLACK
6
CONTINUOUS
10
159.287
20
-95.9
11
159.287
21
-94.3
0
LINE
8
BLACK
6
CONTINUOUS
10
159.287
20
-94.3
11
160.112
21
-94.3
0
LINE
8
BLACK
6
CONTINUOUS
10
160.112
20
-95.9
11
159.287
21
-95.9
0
LINE
8
BLACK
6
CONTINUOUS
10
160.112
20
-94.3
11
160.112
21
-95.9
0
LINE
8
BLACK
6
CONTINUOUS
10
122.325
20
-108.9
11
121.075
21
-108.9
0
LINE
8
BLACK
6
CONTINUOUS
10
121.075
20
-106.9
11
122.325
21
-106.9
0
LINE
8
BLACK
6
CONTINUOUS
10
121.075
20
-108.9
11
121.075
21
-106.9
0
LINE
8
BLACK
6
CONTINUOUS
10
122.325
20
-106.9
11
122.325
21
-108.9
0
LINE
8
BLACK
6
CONTINUOUS
10
120.325
20
-137.4
11
120.325
21
-139.4
0
LINE
8
BLACK
6
CONTINUOUS
10
120.325
20
-139.4
11
119.075
21
-139.4
0
LINE
8
BLACK
6
CONTINUOUS
10
119.075
20
-137.4
11
120.325
21
-137.4
0
LINE
8
BLACK
6
CONTINUOUS
10
119.075
20
-139.4
11
119.075
21
-137.4
0
LINE
8
BLACK
6
CONTINUOUS
10
123.2
20
-136.3
11
121.6
21
-136.3
0
LINE
8
BLACK
6
CONTINUOUS
10
123.2
20
-135.5
11
123.2
21
-136.3
0
LINE
8
BLACK
6
CONTINUOUS
10
121.6
20
-135.5
11
123.2
21
-135.5
0
LINE
8
BLACK
6
CONTINUOUS
10
121.6
20
-136.3
11
121.6
21
-135.5
0
LINE
8
BLACK
6
CONTINUOUS
10
131.1
20
-145.512
11
131.1
21
-144.688
0
LINE
8
BLACK
6
CONTINUOUS
10
132.7
20
-144.688
11
132.7
21
-145.512
0
LINE
8
BLACK
6
CONTINUOUS
10
132.7
20
-145.512
11
131.1
21
-145.512
0
LINE
8
BLACK
6
CONTINUOUS
10
131.1
20
-144.688
11
132.7
21
-144.688
0
LINE
8
BLACK
6
CONTINUOUS
10
132.7
20
-142.112
11
131.1
21
-142.112
0
LINE
8
BLACK
6
CONTINUOUS
10
131.1
20
-142.112
11
131.1
21
-141.287
0
LINE
8
BLACK
6
CONTINUOUS
10
131.1
20
-141.287
11
132.7
21
-141.287
0
LINE
8
BLACK
6
CONTINUOUS
10
132.7
20
-141.287
11
132.7
21
-142.112
0
LINE
8
BLACK
6
CONTINUOUS
10
117.045
20
-125.03
11
117.045
21
-127.97
0
ARC
8
BLACK
10
119.545
20
-126.5
40
2.9
50
-149.55
51
149.55
0
CIRCLE
8
BLACK
10
119.545
20
-126.5
40
2.5
0
LINE
8
BLACK
6
CONTINUOUS
10
159.987
20
-89.5
11
159.987
21
-87.9
0
LINE
8
BLACK
6
CONTINUOUS
10
160.812
20
-89.5
11
159.987
21
-89.5
0
LINE
8
BLACK
6
CONTINUOUS
10
159.987
20
-87.9
11
160.812
21
-87.9
0
LINE
8
BLACK
6
CONTINUOUS
10
160.812
20
-87.9
11
160.812
21
-89.5
0
LINE
8
BLACK
6
CONTINUOUS
10
113.049
20
-143.217
11
111.917
21
-144.349
0
LINE
8
BLACK
6
CONTINUOUS
10
112.483
20
-142.651
11
113.049
21
-143.217
0
LINE
8
BLACK
6
CONTINUOUS
10
111.351
20
-143.783
11
112.483
21
-142.651
0
LINE
8
BLACK
6
CONTINUOUS
10
111.917
20
-144.349
11
111.351
21
-143.783
0
LINE
8
BLACK
6
CONTINUOUS
10
139.4
20
-108.05
11
138.6
21
-108.05
0
LINE
8
BLACK
6
CONTINUOUS
10
138.6
20
-106.45
11
139.4
21
-106.45
0
LINE
8
BLACK
6
CONTINUOUS
10
138.6
20
-108.05
11
138.6
21
-106.45
0
LINE
8
BLACK
6
CONTINUOUS
10
139.4
20
-106.45
11
139.4
21
-108.05
0
LINE
8
BLACK
6
CONTINUOUS
10
153.375
20
-87.3
11
154.625
21
-87.3
0
LINE
8
BLACK
6
CONTINUOUS
10
154.625
20
-89.3
11
153.375
21
-89.3
0
LINE
8
BLACK
6
CONTINUOUS
10
153.375
20
-89.3
11
153.375
21
-87.3
0
LINE
8
BLACK
6
CONTINUOUS
10
154.625
20
-87.3
11
154.625
21
-89.3
0
LINE
8
BLACK
6
CONTINUOUS
10
147.375
20
-111.2
11
148.625
21
-111.2
0
LINE
8
BLACK
6
CONTINUOUS
10
147.375
20
-113.2
11
147.375
21
-111.2
0
LINE
8
BLACK
6
CONTINUOUS
10
148.625
20
-111.2
11
148.625
21
-113.2
0
LINE
8
BLACK
6
CONTINUOUS
10
148.625
20
-113.2
11
147.375
21
-113.2
0
LINE
8
BLACK
6
CONTINUOUS
10
137.912
20
-108.05
11
137.088
21
-108.05
0
LINE
8
BLACK
6
CONTINUOUS
10
137.088
20
-108.05
11
137.088
21
-106.45
0
LINE
8
BLACK
6
CONTINUOUS
10
137.912
20
-106.45
11
137.912
21
-108.05
0
LINE
8
BLACK
6
CONTINUOUS
10
137.088
20
-106.45
11
137.912
21
-106.45
0
LINE
8
BLACK
6
CONTINUOUS
10
131.1
20
-143.812
11
131.1
21
-142.987
0
LINE
8
BLACK
6
CONTINUOUS
10
131.1
20
-142.987
11
132.7
21
-142.987
0
LINE
8
BLACK
6
CONTINUOUS
10
132.7
20
-143.812
11
131.1
21
-143.812
0
LINE
8
BLACK
6
CONTINUOUS
10
132.7
20
-142.987
11
132.7
21
-143.812
0
LINE
8
BLACK
6
CONTINUOUS
10
159.325
20
-83.6075
11
158.075
21
-83.6075
0
LINE
8
BLACK
6
CONTINUOUS
10
158.075
20
-81.6075
11
159.325
21
-81.6075
0
LINE
8
BLACK
6
CONTINUOUS
10
158.075
20
-83.6075
11
158.075
21
-81.6075
0
LINE
8
BLACK
6
CONTINUOUS
10
159.325
20
-81.6075
11
159.325
21
-83.6075
0
LINE
8
BLACK
6
CONTINUOUS
10
111.25
20
-75.4
11
113.75
21
-75.4
0
LINE
8
BLACK
6
CONTINUOUS
10
111.25
20
-70.6
11
111.25
21
-75.4
0
LINE
8
BLACK
6
CONTINUOUS
10
113.75
20
-70.6
11
111.25
21
-70.6
0
LINE
8
BLACK
6
CONTINUOUS
10
113.75
20
-75.4
11
113.75
21
-70.6
0
CIRCLE
8
BLACK
10
112.5
20
-73
40
1
0
LINE
8
BLACK
6
CONTINUOUS
10
118.375
20
-97
11
119.625
21
-97
0
LINE
8
BLACK
6
CONTINUOUS
10
118.375
20
-99
11
118.375
21
-97
0
LINE
8
BLACK
6
CONTINUOUS
10
119.625
20
-97
11
119.625
21
-99
0
LINE
8
BLACK
6
CONTINUOUS
10
119.625
20
-99
11
118.375
21
-99
0
LINE
8
BLACK
6
CONTINUOUS
10
172.175
20
-134.112
11
172.175
21
-132.112
0
LINE
8
BLACK
6
CONTINUOUS
10
172.175
20
-132.112
11
173.425
21
-132.112
0
LINE
8
BLACK
6
CONTINUOUS
10
173.425
20
-132.112
11
173.425
21
-134.112
0
LINE
8
BLACK
6
CONTINUOUS
10
173.425
20
-134.112
11
172.175
21
-134.112
0
LINE
8
BLACK
6
CONTINUOUS
10
117.587
20
-130.6
11
118.412
21
-130.6
0
LINE
8
BLACK
6
CONTINUOUS
10
118.412
20
-130.6
11
118.412
21
-132.2
0
LINE
8
BLACK
6
CONTINUOUS
10
117.587
20
-132.2
11
117.587
21
-130.6
0
LINE
8
BLACK
6
CONTINUOUS
10
118.412
20
-132.2
11
117.587
21
-132.2
0
LINE
8
BLACK
6
CONTINUOUS
10
120.787
20
-130.6
11
121.612
21
-130.6
0
LINE
8
BLACK
6
CONTINUOUS
10
121.612
20
-130.6
11
121.612
21
-132.2
0
LINE
8
BLACK
6
CONTINUOUS
10
121.612
20
-132.2
11
120.787
21
-132.2
0
LINE
8
BLACK
6
CONTINUOUS
10
120.787
20
-132.2
11
120.787
21
-130.6
0
LINE
8
BLACK
6
CONTINUOUS
10
157.5
20
-97.7
11
157.5
21
-98.5
0
LINE
8
BLACK
6
CONTINUOUS
10
157.5
20
-98.5
11
155.9
21
-98.5
0
LINE
8
BLACK
6
CONTINUOUS
10
155.9
20
-98.5
11
155.9
21
-97.7
0
LINE
8
BLACK
6
CONTINUOUS
10
155.9
20
-97.7
11
157.5
21
-97.7
0
LINE
8
BLACK
6
CONTINUOUS
10
152.5
20
-77.9325
11
152.5
21
-76.6825
0
LINE
8
BLACK
6
CONTINUOUS
10
154.5
20
-77.9325
11
152.5
21
-77.9325
0
LINE
8
BLACK
6
CONTINUOUS
10
154.5
20
-76.6825
11
154.5
21
-77.9325
0
LINE
8
BLACK
6
CONTINUOUS
10
152.5
20
-76.6825
11
154.5
21
-76.6825
0
LINE
8
BLACK
6
CONTINUOUS
10
151.6
20
-93.9
11
152.6
21
-94.9
0
LINE
8
BLACK
6
CONTINUOUS
10
146
20
-94.9
11
146
21
-100.5
0
LINE
8
BLACK
6
CONTINUOUS
10
151.6
20
-93.9
11
147
21
-93.9
0
LINE
8
BLACK
6
CONTINUOUS
10
147
20
-93.9
11
146
21
-94.9
0
LINE
8
BLACK
6
CONTINUOUS
10
152.6
20
-100.5
11
146
21
-100.5
0
LINE
8
BLACK
6
CONTINUOUS
10
150.945
20
-94.8102
11
150.315
21
-94.8102
0
LINE
8
BLACK
6
CONTINUOUS
10
150.63
20
-94.4952
11
150.63
21
-95.1252
0
LINE
8
BLACK
6
CONTINUOUS
10
152.6
20
-94.9
11
152.6
21
-100.5
0
CIRCLE
8
BLACK
10
149.3
20
-97.2
40
3.15
0
LINE
8
BLACK
6
CONTINUOUS
10
139.5
20
-109.275
11
141.5
21
-109.275
0
LINE
8
BLACK
6
CONTINUOUS
10
139.5
20
-110.525
11
139.5
21
-109.275
0
LINE
8
BLACK
6
CONTINUOUS
10
141.5
20
-110.525
11
139.5
21
-110.525
0
LINE
8
BLACK
6
CONTINUOUS
10
141.5
20
-109.275
11
141.5
21
-110.525
0
LINE
8
BLACK
6
CONTINUOUS
10
132.7
20
-139.9
11
131.1
21
-139.9
0
LINE
8
BLACK
6
CONTINUOUS
10
131.1
20
-139.9
11
131.1
21
-139.1
0
LINE
8
BLACK
6
CONTINUOUS
10
132.7
20
-139.1
11
132.7
21
-139.9
0
LINE
8
BLACK
6
CONTINUOUS
10
131.1
20
-139.1
11
132.7
21
-139.1
0
LINE
8
BLACK
6
CONTINUOUS
10
115.226
20
-143.257
11
114.643
21
-142.674
0
LINE
8
BLACK
6
CONTINUOUS
10
114.643
20
-142.674
11
115.774
21
-141.543
0
LINE
8
BLACK
6
CONTINUOUS
10
115.774
20
-141.543
11
116.357
21
-142.126
0
LINE
8
BLACK
6
CONTINUOUS
10
116.357
20
-142.126
11
115.226
21
-143.257
0
LINE
8
BLACK
6
CONTINUOUS
10
154.6
20
-79.7262
11
155
21
-80.1262
0
LINE
8
BLACK
6
CONTINUOUS
10
152.1
20
-81.3263
11
152.1
21
-79.7262
0
LINE
8
BLACK
6
CONTINUOUS
10
155
20
-81.3263
11
152.1
21
-81.3263
0
LINE
8
BLACK
6
CONTINUOUS
10
152.1
20
-79.7262
11
154.6
21
-79.7262
0
LINE
8
BLACK
6
CONTINUOUS
10
155
20
-80.1262
11
155
21
-81.3263
0
LINE
8
BLACK
6
CONTINUOUS
10
155.9
20
-96.9
11
155.9
21
-96.1
0
LINE
8
BLACK
6
CONTINUOUS
10
157.5
20
-96.9
11
155.9
21
-96.9
0
LINE
8
BLACK
6
CONTINUOUS
10
155.9
20
-96.1
11
157.5
21
-96.1
0
LINE
8
BLACK
6
CONTINUOUS
10
157.5
20
-96.1
11
157.5
21
-96.9
0
LINE
8
BLACK
6
CONTINUOUS
10
100.3
20
-76.6
11
100.3
21
-73.4
0
LINE
8
BLACK
6
CONTINUOUS
10
101.9
20
-76.6
11
100.3
21
-76.6
0
LINE
8
BLACK
6
CONTINUOUS
10
101.9
20
-73.4
11
101.9
21
-76.6
0
LINE
8
BLACK
6
CONTINUOUS
10
100.3
20
-73.4
11
101.9
21
-73.4
0
LINE
8
BLACK
6
CONTINUOUS
10
109.587
20
-72.2
11
110.412
21
-72.2
0
LINE
8
BLACK
6
CONTINUOUS
10
109.587
20
-73.8
11
109.587
21
-72.2
0
LINE
8
BLACK
6
CONTINUOUS
10
110.412
20
-72.2
11
110.412
21
-73.8
0
LINE
8
BLACK
6
CONTINUOUS
10
110.412
20
-73.8
11
109.587
21
-73.8
0
LINE
8
BLACK
6
CONTINUOUS
10
157.025
20
-83.6075
11
155.775
21
-83.6075
0
LINE
8
BLACK
6
CONTINUOUS
10
155.775
20
-81.6075
11
157.025
21
-81.6075
0
LINE
8
BLACK
6
CONTINUOUS
10
155.775
20
-83.6075
11
155.775
21
-81.6075
0
LINE
8
BLACK
6
CONTINUOUS
10
157.025
20
-81.6075
11
157.025
21
-83.6075
0
LINE
8
BLACK
6
CONTINUOUS
10
155.775
20
-78.0075
11
157.025
21
-78.0075
0
LINE
8
BLACK
6
CONTINUOUS
10
155.775
20
-80.0075
11
155.775
21
-78.0075
0
LINE
8
BLACK
6
CONTINUOUS
10
157.025
20
-78.0075
11
157.025
21
-80.0075
0
LINE
8
BLACK
6
CONTINUOUS
10
157.025
20
-80.0075
11
155.775
21
-80.0075
0
LINE
8
BLACK
6
CONTINUOUS
10
154.1
20
-95
11
154.1
21
-92
0
LINE
8
BLACK
6
CONTINUOUS
10
158.1
20
-91
11
158.1
21
-95
0
LINE
8
BLACK
6
CONTINUOUS
10
158.1
20
-95
11
154.1
21
-95
0
LINE
8
BLACK
6
CONTINUOUS
10
155.1
20
-91
11
158.1
21
-91
0
LINE
8
BLACK
6
CONTINUOUS
10
154.1
20
-92
11
155.1
21
-91
0
LINE
8
BLACK
6
CONTINUOUS
10
146.2
20
-92
11
152.2
21
-92
0
LINE
8
BLACK
6
CONTINUOUS
10
152.2
20
-86
11
146.2
21
-86
0
LINE
8
BLACK
6
CONTINUOUS
10
152.2
20
-92
11
152.2
21
-86
0
LINE
8
BLACK
6
CONTINUOUS
10
146.2
20
-86
11
146.2
21
-92
0
LINE
8
BLACK
6
CONTINUOUS
10
112.459
20
-144.857
11
113.591
21
-143.726
0
LINE
8
BLACK
6
CONTINUOUS
10
114.174
20
-144.309
11
113.043
21
-145.441
0
LINE
8
BLACK
6
CONTINUOUS
10
113.043
20
-145.441
11
112.459
21
-144.857
0
LINE
8
BLACK
6
CONTINUOUS
10
113.591
20
-143.726
11
114.174
21
-144.309
0
LINE
8
BLACK
6
CONTINUOUS
10
154.3
20
-83.1075
11
154.3
21
-83.9075
0
LINE
8
BLACK
6
CONTINUOUS
10
154.3
20
-83.9075
11
152.7
21
-83.9075
0
LINE
8
BLACK
6
CONTINUOUS
10
152.7
20
-83.1075
11
154.3
21
-83.1075
0
LINE
8
BLACK
6
CONTINUOUS
10
152.7
20
-83.9075
11
152.7
21
-83.1075
0
LINE
8
BLACK
6
CONTINUOUS
10
146.625
20
-111.2
11
146.625
21
-113.2
0
LINE
8
BLACK
6
CONTINUOUS
10
145.375
20
-113.2
11
145.375
21
-111.2
0
LINE
8
BLACK
6
CONTINUOUS
10
145.375
20
-111.2
11
146.625
21
-111.2
0
LINE
8
BLACK
6
CONTINUOUS
10
146.625
20
-113.2
11
145.375
21
-113.2
0
LINE
8
BLACK
6
CONTINUOUS
10
156
20
-86.9875
11
157.6
21
-86.9875
0
LINE
8
BLACK
6
CONTINUOUS
10
157.6
20
-87.8125
11
156
21
-87.8125
0
LINE
8
BLACK
6
CONTINUOUS
10
157.6
20
-86.9875
11
157.6
21
-87.8125
0
LINE
8
BLACK
6
CONTINUOUS
10
156
20
-87.8125
11
156
21
-86.9875
0
LINE
8
BLACK
6
CONTINUOUS
10
172.175
20
-130.487
11
172.175
21
-128.487
0
LINE
8
BLACK
6
CONTINUOUS
10
173.425
20
-128.487
11
173.425
21
-130.487
0
LINE
8
BLACK
6
CONTINUOUS
10
173.425
20
-130.487
11
172.175
21
-130.487
0
LINE
8
BLACK
6
CONTINUOUS
10
172.175
20
-128.487
11
173.425
21
-128.487
0
LINE
8
BLACK
6
CONTINUOUS
10
131.1
20
-147.213
11
131.1
21
-146.387
0
LINE
8
BLACK
6
CONTINUOUS
10
131.1
20
-146.387
11
132.7
21
-146.387
0
LINE
8
BLACK
6
CONTINUOUS
10
132.7
20
-146.387
11
132.7
21
-147.213
0
LINE
8
BLACK
6
CONTINUOUS
10
132.7
20
-147.213
11
131.1
21
-147.213
0
LINE
8
BLACK
6
CONTINUOUS
10
104.839
20
-144.803
11
103.567
21
-146.076
0
LINE
8
BLACK
6
CONTINUOUS
10
99.3239
20
-141.833
11
103.567
21
-146.076
0
LINE
8
BLACK
6
CONTINUOUS
10
110.355
20
-126.56
11
118.84
21
-135.045
0
LINE
8
BLACK
6
CONTINUOUS
10
107.809
20
-146.076
11
118.84
21
-135.045
0
LINE
8
BLACK
6
CONTINUOUS
10
105.9
20
-145.864
11
106.749
21
-145.015
0
LINE
8
BLACK
6
CONTINUOUS
10
106.749
20
-145.015
11
107.809
21
-146.076
0
LINE
8
BLACK
6
CONTINUOUS
10
99.3239
20
-137.591
11
110.355
21
-126.56
0
LINE
8
BLACK
6
CONTINUOUS
10
100.597
20
-140.561
11
99.3239
21
-141.833
0
LINE
8
BLACK
6
CONTINUOUS
10
105.9
20
-145.864
11
104.839
21
-144.803
0
LINE
8
BLACK
6
CONTINUOUS
10
99.536
20
-139.5
11
100.597
21
-140.561
0
LINE
8
BLACK
6
CONTINUOUS
10
99.536
20
-139.5
11
100.385
21
-138.651
0
LINE
8
BLACK
6
CONTINUOUS
10
100.385
20
-138.651
11
99.3239
21
-137.591
0
LINE
8
BLACK
6
CONTINUOUS
10
123.575
20
-72.075
11
124.825
21
-72.075
0
LINE
8
BLACK
6
CONTINUOUS
10
123.575
20
-74.075
11
123.575
21
-72.075
0
LINE
8
BLACK
6
CONTINUOUS
10
124.825
20
-74.075
11
123.575
21
-74.075
0
LINE
8
BLACK
6
CONTINUOUS
10
124.825
20
-72.075
11
124.825
21
-74.075
0
LINE
8
BLACK
6
CONTINUOUS
10
122.6
20
-143.55
11
122.6
21
-138.05
0
LINE
8
BLACK
6
CONTINUOUS
10
127
20
-137.05
11
127
21
-143.55
0
LINE
8
BLACK
6
CONTINUOUS
10
122.6
20
-138.05
11
123.6
21
-137.05
0
LINE
8
BLACK
6
CONTINUOUS
10
127
20
-143.55
11
122.6
21
-143.55
0
LINE
8
BLACK
6
CONTINUOUS
10
123.6
20
-137.05
11
127
21
-137.05
0
LINE
8
BLACK
6
CONTINUOUS
10
141.1
20
-112
11
141.1
21
-112.8
0
LINE
8
BLACK
6
CONTINUOUS
10
139.5
20
-112.8
11
139.5
21
-112
0
LINE
8
BLACK
6
CONTINUOUS
10
139.5
20
-112
11
141.1
21
-112
0
LINE
8
BLACK
6
CONTINUOUS
10
141.1
20
-112.8
11
139.5
21
-112.8
0
LINE
8
BLACK
6
CONTINUOUS
10
119.6
20
-144.6
11
119.6
21
-143
0
LINE
8
BLACK
6
CONTINUOUS
10
119.6
20
-143
11
120.4
21
-143
0
LINE
8
BLACK
6
CONTINUOUS
10
120.4
20
-143
11
120.4
21
-144.6
0
LINE
8
BLACK
6
CONTINUOUS
10
120.4
20
-144.6
11
119.6
21
-144.6
0
LINE
8
BLACK
6
CONTINUOUS
10
157.6
20
-88.7875
11
157.6
21
-89.6125
0
LINE
8
BLACK
6
CONTINUOUS
10
157.6
20
-89.6125
11
156
21
-89.6125
0
LINE
8
BLACK
6
CONTINUOUS
10
156
20
-89.6125
11
156
21
-88.7875
0
LINE
8
BLACK
6
CONTINUOUS
10
156
20
-88.7875
11
157.6
21
-88.7875
0
LINE
8
BLACK
6
CONTINUOUS
10
122.95
20
-131.45
11
122.95
21
-134.75
0
LINE
8
BLACK
6
CONTINUOUS
10
123.95
20
-130.45
11
122.95
21
-131.45
0
LINE
8
BLACK
6
CONTINUOUS
10
126.25
20
-130.45
11
127.25
21
-131.45
0
LINE
8
BLACK
6
CONTINUOUS
10
127.25
20
-134.75
11
122.95
21
-134.75
0
LINE
8
BLACK
6
CONTINUOUS
10
126.1
20
-131.025
11
126.1
21
-131.425
0
LINE
8
BLACK
6
CONTINUOUS
10
126.3
20
-131.225
11
125.9
21
-131.225
0
LINE
8
BLACK
6
CONTINUOUS
10
126.25
20
-130.45
11
123.95
21
-130.45
0
LINE
8
BLACK
6
CONTINUOUS
10
127.25
20
-131.45
11
127.25
21
-134.75
0
CIRCLE
8
BLACK
10
125.1
20
-132.6
40
2
0
LINE
8
BLACK
6
CONTINUOUS
10
120.012
20
-130.6
11
120.012
21
-132.2
0
LINE
8
BLACK
6
CONTINUOUS
10
120.012
20
-132.2
11
119.188
21
-132.2
0
LINE
8
BLACK
6
CONTINUOUS
10
119.188
20
-132.2
11
119.188
21
-130.6
0
LINE
8
BLACK
6
CONTINUOUS
10
119.188
20
-130.6
11
120.012
21
-130.6
0
LINE
8
BLACK
6
CONTINUOUS
10
116.975
20
-140.5
11
116.975
21
-138.5
0
LINE
8
BLACK
6
CONTINUOUS
10
116.975
20
-138.5
11
118.225
21
-138.5
0
LINE
8
BLACK
6
CONTINUOUS
10
118.225
20
-138.5
11
118.225
21
-140.5
0
LINE
8
BLACK
6
CONTINUOUS
10
118.225
20
-140.5
11
116.975
21
-140.5
0
LINE
8
BLACK
6
CONTINUOUS
10
113.325
20
-86.6
11
112.075
21
-86.6
0
LINE
8
BLACK
6
CONTINUOUS
10
112.075
20
-84.6
11
113.325
21
-84.6
0
LINE
8
BLACK
6
CONTINUOUS
10
112.075
20
-86.6
11
112.075
21
-84.6
0
LINE
8
BLACK
6
CONTINUOUS
10
113.325
20
-84.6
11
113.325
21
-86.6
0
LINE
8
BLACK
6
CONTINUOUS
10
115.249
20
-141.017
11
114.117
21
-142.149
0
LINE
8
BLACK
6
CONTINUOUS
10
113.551
20
-141.583
11
114.683
21
-140.451
0
LINE
8
BLACK
6
CONTINUOUS
10
114.117
20
-142.149
11
113.551
21
-141.583
0
LINE
8
BLACK
6
CONTINUOUS
10
114.683
20
-140.451
11
115.249
21
-141.017
0
LINE
8
BLACK
6
CONTINUOUS
10
138
20
-109.5
11
138
21
-111.75
0
LINE
8
BLACK
6
CONTINUOUS
10
138
20
-111.75
11
137.25
21
-112.5
0
LINE
8
BLACK
6
CONTINUOUS
10
137.25
20
-112.5
11
135
21
-112.5
0
LINE
8
BLACK
6
CONTINUOUS
10
135
20
-109.5
11
138
21
-109.5
0
LINE
8
BLACK
6
CONTINUOUS
10
135
20
-112.5
11
135
21
-109.5
0
LINE
8
BLACK
6
CONTINUOUS
10
161.612
20
-95.9
11
160.787
21
-95.9
0
LINE
8
BLACK
6
CONTINUOUS
10
160.787
20
-94.3
11
161.612
21
-94.3
0
LINE
8
BLACK
6
CONTINUOUS
10
161.612
20
-94.3
11
161.612
21
-95.9
0
LINE
8
BLACK
6
CONTINUOUS
10
160.787
20
-95.9
11
160.787
21
-94.3
0
LINE
8
BLACK
6
CONTINUOUS
10
131.1
20
-136.9
11
132.7
21
-136.9
0
LINE
8
BLACK
6
CONTINUOUS
10
132.7
20
-136.9
11
132.7
21
-137.7
0
LINE
8
BLACK
6
CONTINUOUS
10
132.7
20
-137.7
11
131.1
21
-137.7
0
LINE
8
BLACK
6
CONTINUOUS
10
131.1
20
-137.7
11
131.1
21
-136.9
  0
ENDSEC
  0
EOF
