  0
SECTION
  2
HEADER
  9
$ANGBASE
  50
0.0
  9
$ANGDIR
  70
1
  9
$MEASUREMENT
  70
1
  0
ENDSEC
  0
SECTION
  2
TABLES
  0
TABLE
  2
LTYPE
  70
4
  0
LTYPE
  5
40F
  2
CONTINUOUS
  70
0
  3
Solid line
  72
65
  73
0
  40
0.0
  0
LTYPE
  5
410
  2
DASHDOT
 70
0
  3
Dash Dot ____ _ ____ _
 72
65
 73
4
 40
2.0
 49
1.25
 49
-0.25
 49
0.25
 49
-0.25
  0
LTYPE
  5
411
  2
DASHED
 70
0
  3
Dashed __ __ __ __ __
 72
65
 73
2
 40
0.75
 49
0.5
 49
-0.25
  0
LTYPE
  5
43B
  2
DOTTED
 70
0
  3
Dotted .  .  .  .
 72
65
 73
2
 40
0.2
 49
0.0
 49
-0.2
  0
ENDTAB
  0
TABLE
  2
STYLE
  70
4
  0
STYLE
  2
KICAD
  70
0
  40
0
  41
1
  42
1
  50
0
  71
0
  3
isocp.shx
  0
STYLE
  2
KICADB
  70
0
  40
0
  41
1
  42
1
  50
0
  71
0
  3
isocp.shx
  0
STYLE
  2
KICADI
  70
0
  40
0
  41
1
  42
1
  50
15
  71
0
  3
isocp.shx
  0
STYLE
  2
KICADBI
  70
0
  40
0
  41
1
  42
1
  50
15
  71
0
  3
isocp.shx
  0
ENDTAB
  0
TABLE
  2
LAYER
  70
1
  0
LAYER
  2
BLACK
  70
0
  62
7
  6
CONTINUOUS
  0
ENDTAB
  0
ENDSEC
  0
SECTION
  2
ENTITIES
0
LINE
8
BLACK
6
CONTINUOUS
10
82.5
20
-77.75
11
82.5
21
-79.25
0
LINE
8
BLACK
6
CONTINUOUS
10
82.5
20
-79.25
11
70.5
21
-80.75
0
LINE
8
BLACK
6
CONTINUOUS
10
70.5
20
-80.75
11
70.5
21
-76.25
0
LINE
8
BLACK
6
CONTINUOUS
10
70.5
20
-76.25
11
82.5
21
-77.75
0
LINE
8
BLACK
6
CONTINUOUS
10
82.5
20
-72.75
11
82.5
21
-74.25
0
LINE
8
BLACK
6
CONTINUOUS
10
82.5
20
-74.25
11
70.5
21
-75.75
0
LINE
8
BLACK
6
CONTINUOUS
10
70.5
20
-75.75
11
70.5
21
-71.25
0
LINE
8
BLACK
6
CONTINUOUS
10
70.5
20
-71.25
11
82.5
21
-72.75
0
LINE
8
BLACK
6
CONTINUOUS
10
82.5
20
-67.75
11
82.5
21
-69.25
0
LINE
8
BLACK
6
CONTINUOUS
10
82.5
20
-69.25
11
70.5
21
-70.75
0
LINE
8
BLACK
6
CONTINUOUS
10
70.5
20
-70.75
11
70.5
21
-66.25
0
LINE
8
BLACK
6
CONTINUOUS
10
70.5
20
-66.25
11
82.5
21
-67.75
0
LINE
8
BLACK
6
CONTINUOUS
10
82.5
20
-62.75
11
82.5
21
-64.25
0
LINE
8
BLACK
6
CONTINUOUS
10
82.5
20
-64.25
11
70.5
21
-65.75
0
LINE
8
BLACK
6
CONTINUOUS
10
70.5
20
-65.75
11
70.5
21
-61.25
0
LINE
8
BLACK
6
CONTINUOUS
10
70.5
20
-61.25
11
82.5
21
-62.75
0
LINE
8
BLACK
6
CONTINUOUS
10
82.5
20
-57.75
11
82.5
21
-59.25
0
LINE
8
BLACK
6
CONTINUOUS
10
82.5
20
-59.25
11
70.5
21
-60.75
0
LINE
8
BLACK
6
CONTINUOUS
10
70.5
20
-60.75
11
70.5
21
-56.25
0
LINE
8
BLACK
6
CONTINUOUS
10
70.5
20
-56.25
11
82.5
21
-57.75
0
LINE
8
BLACK
6
CONTINUOUS
10
82.5
20
-52.75
11
82.5
21
-54.25
0
LINE
8
BLACK
6
CONTINUOUS
10
82.5
20
-54.25
11
70.5
21
-55.75
0
LINE
8
BLACK
6
CONTINUOUS
10
70.5
20
-55.75
11
70.5
21
-51.25
0
LINE
8
BLACK
6
CONTINUOUS
10
70.5
20
-51.25
11
82.5
21
-52.75
0
LINE
8
BLACK
6
CONTINUOUS
10
82.5
20
-47.75
11
82.5
21
-49.25
0
LINE
8
BLACK
6
CONTINUOUS
10
82.5
20
-49.25
11
70.5
21
-50.75
0
LINE
8
BLACK
6
CONTINUOUS
10
70.5
20
-50.75
11
70.5
21
-46.25
0
LINE
8
BLACK
6
CONTINUOUS
10
70.5
20
-46.25
11
82.5
21
-47.75
0
LINE
8
BLACK
6
CONTINUOUS
10
82.5
20
-42.75
11
82.5
21
-44.25
0
LINE
8
BLACK
6
CONTINUOUS
10
82.5
20
-44.25
11
70.5
21
-45.75
0
LINE
8
BLACK
6
CONTINUOUS
10
70.5
20
-45.75
11
70.5
21
-41.25
0
LINE
8
BLACK
6
CONTINUOUS
10
70.5
20
-41.25
11
82.5
21
-42.75
0
LINE
8
BLACK
6
CONTINUOUS
10
82.5
20
-37.75
11
82.5
21
-39.25
0
LINE
8
BLACK
6
CONTINUOUS
10
82.5
20
-39.25
11
70.5
21
-40.75
0
LINE
8
BLACK
6
CONTINUOUS
10
70.5
20
-40.75
11
70.5
21
-36.25
0
LINE
8
BLACK
6
CONTINUOUS
10
70.5
20
-36.25
11
82.5
21
-37.75
0
LINE
8
BLACK
6
CONTINUOUS
10
82.5
20
-32.75
11
82.5
21
-34.25
0
LINE
8
BLACK
6
CONTINUOUS
10
82.5
20
-34.25
11
70.5
21
-35.75
0
LINE
8
BLACK
6
CONTINUOUS
10
70.5
20
-35.75
11
70.5
21
-31.25
0
LINE
8
BLACK
6
CONTINUOUS
10
70.5
20
-31.25
11
82.5
21
-32.75
0
LINE
8
BLACK
6
CONTINUOUS
10
82.5
20
-27.75
11
82.5
21
-29.25
0
LINE
8
BLACK
6
CONTINUOUS
10
82.5
20
-29.25
11
70.5
21
-30.75
0
LINE
8
BLACK
6
CONTINUOUS
10
70.5
20
-30.75
11
70.5
21
-26.25
0
LINE
8
BLACK
6
CONTINUOUS
10
70.5
20
-26.25
11
82.5
21
-27.75
0
LINE
8
BLACK
6
CONTINUOUS
10
82.5
20
-22.75
11
82.5
21
-24.25
0
LINE
8
BLACK
6
CONTINUOUS
10
82.5
20
-24.25
11
70.5
21
-25.75
0
LINE
8
BLACK
6
CONTINUOUS
10
70.5
20
-25.75
11
70.5
21
-21.25
0
LINE
8
BLACK
6
CONTINUOUS
10
70.5
20
-21.25
11
82.5
21
-22.75
0
CIRCLE
8
BLACK
10
75.5
20
-23.5
40
0.15
0
CIRCLE
8
BLACK
10
75.5
20
-33.5
40
0.15
0
CIRCLE
8
BLACK
10
75.5
20
-43.5
40
0.15
0
CIRCLE
8
BLACK
10
75.5
20
-53.5
40
0.15
0
CIRCLE
8
BLACK
10
75.5
20
-63.5
40
0.15
0
CIRCLE
8
BLACK
10
75.5
20
-73.5
40
0.15
0
CIRCLE
8
BLACK
10
75.5
20
-58.5
40
0.15
0
CIRCLE
8
BLACK
10
75.5
20
-68.5
40
0.15
0
CIRCLE
8
BLACK
10
75.5
20
-78.5
40
0.15
0
CIRCLE
8
BLACK
10
75.5
20
-28.5
40
0.15
0
CIRCLE
8
BLACK
10
75.5
20
-38.5
40
0.15
0
CIRCLE
8
BLACK
10
75.5
20
-48.5
40
0.15
  0
ENDSEC
  0
EOF
