  0
SECTION
  2
HEADER
  9
$ANGBASE
  50
0.0
  9
$ANGDIR
  70
1
  9
$MEASUREMENT
  70
1
  0
ENDSEC
  0
SECTION
  2
TABLES
  0
TABLE
  2
LTYPE
  70
4
  0
LTYPE
  5
40F
  2
CONTINUOUS
  70
0
  3
Solid line
  72
65
  73
0
  40
0.0
  0
LTYPE
  5
410
  2
DASHDOT
 70
0
  3
Dash Dot ____ _ ____ _
 72
65
 73
4
 40
2.0
 49
1.25
 49
-0.25
 49
0.25
 49
-0.25
  0
LTYPE
  5
411
  2
DASHED
 70
0
  3
Dashed __ __ __ __ __
 72
65
 73
2
 40
0.75
 49
0.5
 49
-0.25
  0
LTYPE
  5
43B
  2
DOTTED
 70
0
  3
Dotted .  .  .  .
 72
65
 73
2
 40
0.2
 49
0.0
 49
-0.2
  0
ENDTAB
  0
TABLE
  2
STYLE
  70
4
  0
STYLE
  2
KICAD
  70
0
  40
0
  41
1
  42
1
  50
0
  71
0
  3
isocp.shx
  0
STYLE
  2
KICADB
  70
0
  40
0
  41
1
  42
1
  50
0
  71
0
  3
isocp.shx
  0
STYLE
  2
KICADI
  70
0
  40
0
  41
1
  42
1
  50
15
  71
0
  3
isocp.shx
  0
STYLE
  2
KICADBI
  70
0
  40
0
  41
1
  42
1
  50
15
  71
0
  3
isocp.shx
  0
ENDTAB
  0
TABLE
  2
LAYER
  70
1
  0
LAYER
  2
BLACK
  70
0
  62
7
  6
CONTINUOUS
  0
ENDTAB
  0
ENDSEC
  0
SECTION
  2
ENTITIES
0
LINE
8
BLACK
6
CONTINUOUS
10
82.5
20
-42.25
11
80.25
21
-42
0
ARC
8
BLACK
10
82.5
20
-42.75
40
0.5
50
-0
51
90
0
LINE
8
BLACK
6
CONTINUOUS
10
82.5
20
-27.25
11
80.25
21
-27
0
LINE
8
BLACK
6
CONTINUOUS
10
82.5
20
-52.25
11
80.25
21
-52
0
LINE
8
BLACK
6
CONTINUOUS
10
82.5
20
-49.75
11
80.25
21
-50
0
ARC
8
BLACK
10
82.5
20
-47.75
40
0.5
50
-0
51
90
0
LINE
8
BLACK
6
CONTINUOUS
10
80.25
20
-55
11
80.25
21
-57
0
LINE
8
BLACK
6
CONTINUOUS
10
82.5
20
-37.25
11
80.25
21
-37
0
ARC
8
BLACK
10
82.5
20
-69.25
40
0.5
50
-90
51
-0
0
LINE
8
BLACK
6
CONTINUOUS
10
80.25
20
-30
11
80.25
21
-32
0
LINE
8
BLACK
6
CONTINUOUS
10
83
20
-77.75
11
83
21
-79.25
0
LINE
8
BLACK
6
CONTINUOUS
10
82.5
20
-39.75
11
80.25
21
-40
0
LINE
8
BLACK
6
CONTINUOUS
10
82.5
20
-77.25
11
80.25
21
-77
0
LINE
8
BLACK
6
CONTINUOUS
10
80.25
20
-35
11
80.25
21
-37
0
LINE
8
BLACK
6
CONTINUOUS
10
83
20
-32.75
11
83
21
-34.25
0
ARC
8
BLACK
10
82.5
20
-74.25
40
0.5
50
-90
51
-0
0
LINE
8
BLACK
6
CONTINUOUS
10
83
20
-67.75
11
83
21
-69.25
0
LINE
8
BLACK
6
CONTINUOUS
10
80.25
20
-60
11
80.25
21
-62
0
ARC
8
BLACK
10
82.5
20
-27.75
40
0.5
50
-0
51
90
0
ARC
8
BLACK
10
82.5
20
-29.25
40
0.5
50
-90
51
-0
0
ARC
8
BLACK
10
82.5
20
-54.25
40
0.5
50
-90
51
-0
0
ARC
8
BLACK
10
82.5
20
-62.75
40
0.5
50
-0
51
90
0
LINE
8
BLACK
6
CONTINUOUS
10
82.5
20
-34.75
11
80.25
21
-35
0
LINE
8
BLACK
6
CONTINUOUS
10
70
20
-80.25
11
70
21
-21.75
0
LINE
8
BLACK
6
CONTINUOUS
10
83
20
-42.75
11
83
21
-44.25
0
LINE
8
BLACK
6
CONTINUOUS
10
82.5
20
-24.75
11
80.25
21
-25
0
LINE
8
BLACK
6
CONTINUOUS
10
82.5
20
-59.75
11
80.25
21
-60
0
LINE
8
BLACK
6
CONTINUOUS
10
83
20
-37.75
11
83
21
-39.25
0
LINE
8
BLACK
6
CONTINUOUS
10
83
20
-47.75
11
83
21
-49.25
0
LINE
8
BLACK
6
CONTINUOUS
10
83
20
-57.75
11
83
21
-59.25
0
LINE
8
BLACK
6
CONTINUOUS
10
80.25
20
-40
11
80.25
21
-42
0
LINE
8
BLACK
6
CONTINUOUS
10
82.5
20
-72.25
11
80.25
21
-72
0
ARC
8
BLACK
10
82.5
20
-57.75
40
0.5
50
-0
51
90
0
ARC
8
BLACK
10
82.5
20
-22.75
40
0.5
50
-0
51
90
0
ARC
8
BLACK
10
82.5
20
-44.25
40
0.5
50
-90
51
-0
0
LINE
8
BLACK
6
CONTINUOUS
10
80.25
20
-50
11
80.25
21
-52
0
ARC
8
BLACK
10
82.5
20
-34.25
40
0.5
50
-90
51
-0
0
ARC
8
BLACK
10
82.5
20
-67.75
40
0.5
50
-0
51
90
0
LINE
8
BLACK
6
CONTINUOUS
10
83
20
-72.75
11
83
21
-74.25
0
LINE
8
BLACK
6
CONTINUOUS
10
83
20
-27.75
11
83
21
-29.25
0
LINE
8
BLACK
6
CONTINUOUS
10
82.5
20
-54.75
11
80.25
21
-55
0
LINE
8
BLACK
6
CONTINUOUS
10
80.25
20
-25
11
80.25
21
-27
0
ARC
8
BLACK
10
82.5
20
-32.75
40
0.5
50
-0
51
90
0
ARC
8
BLACK
10
82.5
20
-52.75
40
0.5
50
-0
51
90
0
LINE
8
BLACK
6
CONTINUOUS
10
82.5
20
-69.75
11
80.25
21
-70
0
LINE
8
BLACK
6
CONTINUOUS
10
83
20
-52.75
11
83
21
-54.25
0
ARC
8
BLACK
10
82.5
20
-79.25
40
0.5
50
-90
51
-0
0
LINE
8
BLACK
6
CONTINUOUS
10
83
20
-62.75
11
83
21
-64.25
0
LINE
8
BLACK
6
CONTINUOUS
10
71
20
-20.75
11
82.5
21
-22.25
0
LINE
8
BLACK
6
CONTINUOUS
10
82.5
20
-29.75
11
80.25
21
-30
0
ARC
8
BLACK
10
82.5
20
-24.25
40
0.5
50
-90
51
-0
0
LINE
8
BLACK
6
CONTINUOUS
10
83
20
-22.75
11
83
21
-24.25
0
ARC
8
BLACK
10
82.5
20
-72.75
40
0.5
50
-0
51
90
0
ARC
8
BLACK
10
82.5
20
-59.25
40
0.5
50
-90
51
-0
0
ARC
8
BLACK
10
71
20
-21.75
40
1
50
90
51
180
0
LINE
8
BLACK
6
CONTINUOUS
10
82.5
20
-57.25
11
80.25
21
-57
0
ARC
8
BLACK
10
82.5
20
-37.75
40
0.5
50
-0
51
90
0
LINE
8
BLACK
6
CONTINUOUS
10
80.25
20
-75
11
80.25
21
-77
0
LINE
8
BLACK
6
CONTINUOUS
10
80.25
20
-65
11
80.25
21
-67
0
ARC
8
BLACK
10
82.5
20
-49.25
40
0.5
50
-90
51
-0
0
ARC
8
BLACK
10
82.5
20
-39.25
40
0.5
50
-90
51
-0
0
ARC
8
BLACK
10
82.5
20
-77.75
40
0.5
50
-0
51
90
0
LINE
8
BLACK
6
CONTINUOUS
10
82.5
20
-67.25
11
80.25
21
-67
0
LINE
8
BLACK
6
CONTINUOUS
10
82.5
20
-62.25
11
80.25
21
-62
0
LINE
8
BLACK
6
CONTINUOUS
10
82.5
20
-74.75
11
80.25
21
-75
0
LINE
8
BLACK
6
CONTINUOUS
10
80.25
20
-45
11
80.25
21
-47
0
LINE
8
BLACK
6
CONTINUOUS
10
82.5
20
-32.25
11
80.25
21
-32
0
LINE
8
BLACK
6
CONTINUOUS
10
82.5
20
-47.25
11
80.25
21
-47
0
ARC
8
BLACK
10
71
20
-80.25
40
1
50
-180
51
-90
0
LINE
8
BLACK
6
CONTINUOUS
10
80.25
20
-70
11
80.25
21
-72
0
LINE
8
BLACK
6
CONTINUOUS
10
82.5
20
-64.75
11
80.25
21
-65
0
LINE
8
BLACK
6
CONTINUOUS
10
82.5
20
-79.75
11
71
21
-81.25
0
ARC
8
BLACK
10
82.5
20
-64.25
40
0.5
50
-90
51
-0
0
LINE
8
BLACK
6
CONTINUOUS
10
82.5
20
-44.75
11
80.25
21
-45
  0
ENDSEC
  0
EOF
