%TF.GenerationSoftware,KiCad,Pcbnew,(6.0.10-0)*%
%TF.CreationDate,2024-08-14T11:11:09+02:00*%
%TF.ProjectId,touch_zone,746f7563-685f-47a6-9f6e-652e6b696361,rev?*%
%TF.SameCoordinates,Original*%
%TF.FileFunction,Copper,L2,Bot*%
%TF.FilePolarity,Positive*%
%FSLAX46Y46*%
G04 Gerber Fmt 4.6, Leading zero omitted, Abs format (unit mm)*
G04 Created by KiCad (PCBNEW (6.0.10-0)) date 2024-08-14 11:11:09*
%MOMM*%
%LPD*%
G01*
G04 APERTURE LIST*
%TA.AperFunction,SMDPad,CuDef*%
%ADD10R,3.150000X1.000000*%
%TD*%
%TA.AperFunction,ViaPad*%
%ADD11C,0.500000*%
%TD*%
%TA.AperFunction,Conductor*%
%ADD12C,0.250000*%
%TD*%
G04 APERTURE END LIST*
D10*
%TO.P,J2,1,Pin_1*%
%TO.N,Net-(J2-Pad1)*%
X78025000Y-67460000D03*
%TO.P,J2,2,Pin_2*%
%TO.N,Net-(J2-Pad2)*%
X78025000Y-70000000D03*
%TO.P,J2,3,Pin_3*%
%TO.N,Net-(J2-Pad3)*%
X78025000Y-72540000D03*
%TO.P,J2,4,Pin_4*%
%TO.N,Net-(J2-Pad4)*%
X72975000Y-67460000D03*
%TO.P,J2,5,Pin_5*%
%TO.N,Net-(J2-Pad5)*%
X72975000Y-70000000D03*
%TO.P,J2,6,Pin_6*%
%TO.N,Net-(J2-Pad6)*%
X72975000Y-72540000D03*
%TD*%
%TO.P,J1,1,Pin_1*%
%TO.N,Net-(J1-Pad1)*%
X78025000Y-29460000D03*
%TO.P,J1,2,Pin_2*%
%TO.N,Net-(J1-Pad2)*%
X78025000Y-32000000D03*
%TO.P,J1,3,Pin_3*%
%TO.N,Net-(J1-Pad3)*%
X78025000Y-34540000D03*
%TO.P,J1,4,Pin_4*%
%TO.N,Net-(J1-Pad4)*%
X72975000Y-29460000D03*
%TO.P,J1,5,Pin_5*%
%TO.N,Net-(J1-Pad5)*%
X72975000Y-32000000D03*
%TO.P,J1,6,Pin_6*%
%TO.N,Net-(J1-Pad6)*%
X72975000Y-34540000D03*
%TD*%
D11*
%TO.N,Net-(J1-Pad1)*%
X75500000Y-23500000D03*
%TO.N,Net-(J1-Pad2)*%
X75500000Y-33500000D03*
%TO.N,Net-(J1-Pad3)*%
X75500000Y-43500000D03*
%TO.N,Net-(J2-Pad1)*%
X75500000Y-53500000D03*
%TO.N,Net-(J2-Pad2)*%
X75500000Y-63500000D03*
%TO.N,Net-(J2-Pad3)*%
X75500000Y-73500000D03*
%TO.N,Net-(J2-Pad4)*%
X75500000Y-58500000D03*
%TO.N,Net-(J2-Pad5)*%
X75500000Y-68500000D03*
%TO.N,Net-(J2-Pad6)*%
X75500000Y-78500000D03*
%TO.N,Net-(J1-Pad4)*%
X75500000Y-28500000D03*
%TO.N,Net-(J1-Pad5)*%
X75500000Y-38500000D03*
%TO.N,Net-(J1-Pad6)*%
X75500000Y-48500000D03*
%TD*%
D12*
%TO.N,Net-(J1-Pad1)*%
X75500000Y-23500000D02*
X78025000Y-26025000D01*
X78025000Y-26025000D02*
X78025000Y-29460000D01*
%TO.N,Net-(J1-Pad2)*%
X77000000Y-32000000D02*
X78025000Y-32000000D01*
X75500000Y-33500000D02*
X77000000Y-32000000D01*
%TO.N,Net-(J1-Pad3)*%
X75500000Y-43500000D02*
X78025000Y-40975000D01*
X78025000Y-40975000D02*
X78025000Y-34540000D01*
%TO.N,Net-(J2-Pad1)*%
X78025000Y-67460000D02*
X78025000Y-56025000D01*
X78025000Y-56025000D02*
X75500000Y-53500000D01*
%TO.N,Net-(J2-Pad2)*%
X78025000Y-70000000D02*
X75500000Y-67475000D01*
X75500000Y-67475000D02*
X75500000Y-63500000D01*
%TO.N,Net-(J2-Pad3)*%
X75500000Y-73500000D02*
X77065000Y-73500000D01*
X77065000Y-73500000D02*
X78025000Y-72540000D01*
%TO.N,Net-(J2-Pad4)*%
X72975000Y-61025000D02*
X75500000Y-58500000D01*
X72975000Y-67460000D02*
X72975000Y-61025000D01*
%TO.N,Net-(J2-Pad5)*%
X75500000Y-68500000D02*
X74000000Y-70000000D01*
X74000000Y-70000000D02*
X72975000Y-70000000D01*
%TO.N,Net-(J2-Pad6)*%
X72975000Y-72540000D02*
X72975000Y-75975000D01*
X72975000Y-75975000D02*
X75500000Y-78500000D01*
%TO.N,Net-(J1-Pad4)*%
X75500000Y-28500000D02*
X73935000Y-28500000D01*
X73935000Y-28500000D02*
X72975000Y-29460000D01*
%TO.N,Net-(J1-Pad5)*%
X75500000Y-38500000D02*
X74925000Y-37925000D01*
X74925000Y-33950000D02*
X72975000Y-32000000D01*
X74925000Y-37925000D02*
X74925000Y-33950000D01*
%TO.N,Net-(J1-Pad6)*%
X72975000Y-34540000D02*
X72975000Y-45975000D01*
X72975000Y-45975000D02*
X75500000Y-48500000D01*
%TD*%
M02*
