%TF.GenerationSoftware,KiCad,Pcbnew,(6.0.10-0)*%
%TF.CreationDate,2024-08-14T11:11:09+02:00*%
%TF.ProjectId,touch_zone,746f7563-685f-47a6-9f6e-652e6b696361,rev?*%
%TF.SameCoordinates,Original*%
%TF.FileFunction,Legend,Bot*%
%TF.FilePolarity,Positive*%
%FSLAX46Y46*%
G04 Gerber Fmt 4.6, Leading zero omitted, Abs format (unit mm)*
G04 Created by KiCad (PCBNEW (6.0.10-0)) date 2024-08-14 11:11:09*
%MOMM*%
%LPD*%
G01*
G04 APERTURE LIST*
%ADD10C,0.150000*%
%ADD11C,0.120000*%
%ADD12R,3.150000X1.000000*%
G04 APERTURE END LIST*
D10*
X71000000Y-25000000D02*
X80000000Y-25000000D01*
X80000000Y-25000000D02*
X80000000Y-77000000D01*
X80000000Y-77000000D02*
X71000000Y-77000000D01*
X71000000Y-77000000D02*
X71000000Y-25000000D01*
D11*
%TO.C,J2*%
X78100000Y-70760000D02*
X78100000Y-71780000D01*
X78100000Y-66130000D02*
X72900000Y-66130000D01*
X79540000Y-66700000D02*
X78100000Y-66700000D01*
X72900000Y-68220000D02*
X72900000Y-69240000D01*
X78100000Y-73870000D02*
X72900000Y-73870000D01*
X78100000Y-68220000D02*
X78100000Y-69240000D01*
X72900000Y-66130000D02*
X72900000Y-66700000D01*
X78100000Y-73300000D02*
X78100000Y-73870000D01*
X72900000Y-73300000D02*
X72900000Y-73870000D01*
X72900000Y-70760000D02*
X72900000Y-71780000D01*
X78100000Y-66130000D02*
X78100000Y-66700000D01*
%TO.C,J1*%
X72900000Y-35300000D02*
X72900000Y-35870000D01*
X78100000Y-35300000D02*
X78100000Y-35870000D01*
X72900000Y-32760000D02*
X72900000Y-33780000D01*
X72900000Y-30220000D02*
X72900000Y-31240000D01*
X72900000Y-28130000D02*
X72900000Y-28700000D01*
X79540000Y-28700000D02*
X78100000Y-28700000D01*
X78100000Y-35870000D02*
X72900000Y-35870000D01*
X78100000Y-32760000D02*
X78100000Y-33780000D01*
X78100000Y-28130000D02*
X78100000Y-28700000D01*
X78100000Y-28130000D02*
X72900000Y-28130000D01*
X78100000Y-30220000D02*
X78100000Y-31240000D01*
%TD*%
%LPC*%
D12*
%TO.C,J2*%
X78025000Y-67460000D03*
X78025000Y-70000000D03*
X78025000Y-72540000D03*
X72975000Y-67460000D03*
X72975000Y-70000000D03*
X72975000Y-72540000D03*
%TD*%
%TO.C,J1*%
X78025000Y-29460000D03*
X78025000Y-32000000D03*
X78025000Y-34540000D03*
X72975000Y-29460000D03*
X72975000Y-32000000D03*
X72975000Y-34540000D03*
%TD*%
M02*
